<?xml version="1.0" encoding="UTF-8" standalone="no"?><!DOCTYPE svg PUBLIC "-//W3C//DTD SVG 1.1//EN" "http://www.w3.org/Graphics/SVG/1.1/DTD/svg11.dtd"><svg width="100%" height="100%" viewBox="0 0 1113 1113" version="1.1" xmlns="http://www.w3.org/2000/svg" xmlns:xlink="http://www.w3.org/1999/xlink" xml:space="preserve" xmlns:serif="http://www.serif.com/" style="fill-rule:evenodd;clip-rule:evenodd;stroke-miterlimit:22.926;"><g id="Shadow"></g><g id="Background"></g><g id="Bevel"></g><g id="XC-Outline" serif:id="XC Outline"></g><g id="XC"></g><g id="XC-Bevel" serif:id="XC Bevel"></g><g id="Swift"></g><g id="Gradient-Overlay" serif:id="Gradient Overlay"><g><g><path d="M552.088,75.166c264.094,-0 479.492,215.396 479.492,479.49c0,264.096 -215.398,479.492 -479.492,479.492c-264.095,0 -479.491,-215.396 -479.491,-479.492c0,-264.094 215.396,-479.49 479.491,-479.49Z" style="fill:none;fill-rule:nonzero;stroke:#6c6e70;stroke-width:4.17px;"/><path d="M552.088,78.352c264.094,-0 479.492,215.396 479.492,479.49c0,264.094 -215.398,479.492 -479.492,479.492c-264.095,0 -479.491,-215.398 -479.491,-479.492c0,-264.094 215.396,-479.49 479.491,-479.49Zm-0,836.172c196.453,-0 356.681,-160.228 356.681,-356.682c0,-196.454 -160.228,-356.682 -356.681,-356.682c-196.454,0 -356.682,160.228 -356.682,356.682c-0,196.454 160.228,356.682 356.682,356.682Z" style="fill:none;fill-rule:nonzero;stroke:#231f20;stroke-width:4.17px;"/><path d="M1014.96,777.57l-435.959,2.419c-5.615,0.031 -9.983,2.607 -9.714,5.516l0.988,10.605c0.271,2.909 5.086,5.188 10.699,5.065l514.642,-11.331c5.71,-0.127 6.493,-0.851 9.881,-5.612l0.915,-1.284c0.152,-0.215 6.788,-5.904 -11.828,-5.806l-79.624,0.428Z" style="fill:#00a4e2;stroke:#231f20;stroke-width:4.17px;"/><path d="M97.546,777.425l435.957,2.42c5.617,0.031 9.983,2.607 9.714,5.513l-0.988,10.607c-0.271,2.909 -5.086,5.188 -10.699,5.065l-514.64,-11.331c-5.712,-0.127 -6.493,-0.851 -9.883,-5.611l-0.913,-1.284c-0.154,-0.216 -6.788,-5.904 11.826,-5.806l79.626,0.427Z" style="fill:#00a4e2;stroke:#231f20;stroke-width:4.17px;"/><rect x="551.466" y="661.826" width="9.567" height="90.564" style="fill:#00a4e2;stroke:#231f20;stroke-width:4.17px;"/><path d="M451.018,666.29l210.465,-0c2.631,-0 4.783,-2.008 4.783,-4.464c0,-2.455 -2.152,-4.464 -4.783,-4.464l-210.465,-0c-2.631,-0 -4.783,2.009 -4.783,4.464c-0,2.456 2.152,4.464 4.783,4.464Z" style="fill:#00a4e2;stroke:#231f20;stroke-width:4.17px;"/><path d="M247.823,322.649l-19.347,26.629l9.826,12.734l-17.351,23.88l-54.987,-83.379l18.513,-25.482l96.303,26.511l-17.772,24.462l-15.185,-5.355Zm-19.918,-6.99l-33.269,-11.391l21.152,28.067l12.117,-16.676Zm-0.045,-89.681l59.3,-49.757l12.83,15.291l-37.119,31.147l9.556,11.389l34.436,-28.893l12.257,14.607l-34.436,28.893l11.839,14.109l38.203,-32.058l13.614,16.226l-60.381,50.666l-60.099,-71.62Zm135.324,12.303l-38.027,-85.413l43.987,-19.585c8.155,-3.629 14.709,-5.714 19.634,-6.214c4.934,-0.53 9.565,0.506 13.9,3.126c4.328,2.603 7.695,6.63 10.111,12.061c2.117,4.753 2.918,9.28 2.441,13.616c-0.497,4.342 -2.041,8.366 -4.605,12.081c-1.665,2.362 -4.243,4.867 -7.771,7.487c3.611,-0.345 6.368,-0.31 8.289,0.098c1.265,0.271 3.34,1.134 6.208,2.599c2.876,1.482 4.888,2.683 6.062,3.661l23.792,19.074l-29.831,13.281l-25.724,-19.832c-3.286,-2.565 -5.86,-4.064 -7.724,-4.449c-2.473,-0.472 -4.933,-0.164 -7.34,0.908l-2.325,1.036l15.431,34.663l-26.508,11.802Zm3.887,-62.612l11.136,-4.959c1.194,-0.531 3.352,-1.944 6.466,-4.26c1.591,-1.138 2.624,-2.67 3.1,-4.597c0.458,-1.92 0.279,-3.818 -0.553,-5.687c-1.232,-2.764 -3.045,-4.483 -5.45,-5.174c-2.414,-0.715 -6.023,0.011 -10.836,2.154l-11.592,5.161l7.729,17.362Zm77.42,-23.511c-1.86,-15.144 0.926,-27.463 8.318,-36.922c7.411,-9.487 18.646,-15.143 33.707,-16.993c15.447,-1.896 27.862,0.791 37.243,8.06c9.355,7.252 14.975,18.361 16.807,33.292c1.332,10.846 0.589,19.973 -2.212,27.357c-2.799,7.383 -7.407,13.433 -13.825,18.146c-6.44,4.716 -14.781,7.692 -25.086,8.959c-10.459,1.284 -19.327,0.683 -26.606,-1.8c-7.261,-2.508 -13.46,-7.098 -18.625,-13.789c-5.142,-6.694 -8.389,-15.462 -9.721,-26.31Zm28.708,-3.394c1.151,9.377 3.706,15.886 7.689,19.565c3.979,3.655 8.984,5.124 14.969,4.389c6.158,-0.755 10.686,-3.352 13.566,-7.762c2.876,-4.434 3.702,-11.837 2.427,-22.209c-1.074,-8.75 -3.629,-14.906 -7.646,-18.514c-4.016,-3.586 -9.036,-5.009 -15.087,-4.268c-5.769,0.709 -10.166,3.312 -13.161,7.847c-3,4.512 -3.916,11.512 -2.757,20.952Zm100.911,-54.217l28.672,3.521l-4.306,35.065l34.383,-31.373l38.112,4.68l-38.112,30.849l28.231,62.135l-35.327,-4.337l-14.865,-40.58l-16.727,13.693l-2.783,22.665l-28.67,-3.521l11.392,-92.797Zm133.243,25.765l26.408,11.758l-28.66,64.372l41.184,18.336l-9.367,21.041l-67.595,-30.094l38.03,-85.413Zm144.797,83.846l22.727,17.756l-34.322,43.932c-3.403,4.356 -7.294,7.92 -11.677,10.738c-4.37,2.801 -9.152,4.535 -14.315,5.169c-5.165,0.635 -9.783,0.287 -13.897,-1.022c-5.698,-1.829 -11.643,-5.146 -17.853,-9.997c-3.584,-2.801 -7.307,-6.099 -11.142,-9.922c-3.848,-3.808 -6.605,-7.565 -8.288,-11.281c-1.68,-3.717 -2.625,-7.883 -2.849,-12.476c-0.223,-4.593 0.376,-8.684 1.779,-12.284c2.252,-5.781 4.792,-10.482 7.62,-14.101l34.323,-43.932l22.727,17.759l-35.138,44.977c-3.151,4.031 -4.487,8.041 -4.031,12.016c0.462,4.008 2.665,7.552 6.626,10.648c3.912,3.055 7.87,4.352 11.843,3.865c3.943,-0.485 7.537,-2.787 10.727,-6.868l35.14,-44.977Zm52.238,52.384l31.796,43.764c5.298,7.291 7.554,14.209 6.77,20.724c-0.77,6.533 -3.823,11.737 -9.142,15.602c-4.472,3.25 -9.323,4.647 -14.549,4.193c-3.486,-0.318 -7.148,-1.802 -10.979,-4.482c2.638,6.372 3.288,12.007 1.987,16.881c-1.332,4.871 -4.397,9.061 -9.204,12.553c-3.927,2.853 -8.114,4.497 -12.567,4.961c-4.466,0.445 -8.735,-0.246 -12.87,-2.084c-2.547,-1.136 -5.525,-3.494 -8.913,-7.087c-4.515,-4.766 -7.4,-7.996 -8.654,-9.723l-29.312,-40.345l75.637,-54.957Zm-12.54,45.141l7.383,10.162c2.649,3.646 5.124,5.721 7.423,6.257c2.304,0.504 4.631,-0.108 6.991,-1.823c2.201,-1.6 3.416,-3.558 3.612,-5.88c0.2,-2.352 -0.988,-5.284 -3.56,-8.824l-7.498,-10.32l-14.351,10.428Zm-29.711,21.585l8.663,11.924c2.929,4.031 5.694,6.357 8.31,6.957c2.63,0.62 5.151,0.052 7.564,-1.699c2.236,-1.627 3.443,-3.741 3.611,-6.365c0.165,-2.624 -1.221,-5.975 -4.202,-10.079l-8.625,-11.87l-15.321,11.132" style="fill:#231f20;fill-rule:nonzero;"/><path d="M315.381,847.104l45.368,29.461c7.56,4.909 12.143,10.559 13.747,16.924c1.622,6.373 0.637,12.326 -2.944,17.839c-3.011,4.638 -7.038,7.681 -12.079,9.131c-3.369,0.953 -7.32,0.879 -11.855,-0.251c4.745,5.004 7.371,10.032 7.902,15.049c0.503,5.024 -0.856,10.033 -4.092,15.017c-2.645,4.071 -5.966,7.105 -9.957,9.134c-4.008,2.018 -8.243,2.901 -12.761,2.666c-2.785,-0.148 -6.41,-1.282 -10.861,-3.42c-5.921,-2.832 -9.773,-4.815 -11.562,-5.976l-41.825,-27.162l50.919,-78.412Zm4.47,46.637l10.534,6.841c3.779,2.455 6.834,3.504 9.173,3.181c2.331,-0.355 4.283,-1.762 5.873,-4.207c1.481,-2.283 1.914,-4.547 1.265,-6.783c-0.656,-2.268 -2.814,-4.58 -6.484,-6.963l-10.699,-6.948l-9.662,14.879Zm-20.001,30.799l12.359,8.027c4.181,2.715 7.594,3.893 10.252,3.517c2.676,-0.364 4.828,-1.798 6.451,-4.298c1.508,-2.318 1.875,-4.726 1.09,-7.235c-0.784,-2.508 -3.278,-5.142 -7.533,-7.904l-12.305,-7.991l-10.314,15.884Zm82.071,-32.705l72.74,26.475l-6.827,18.758l-45.535,-16.573l-5.084,13.97l42.242,15.376l-6.522,17.918l-42.242,-15.373l-6.299,17.304l46.864,17.058l-7.244,19.903l-74.07,-26.96l31.977,-87.856Zm63.299,122.214l9.774,-92.984l47.887,5.034c8.877,0.934 15.595,2.404 20.109,4.433c4.538,2.01 8.032,5.221 10.477,9.66c2.446,4.416 3.347,9.589 2.725,15.499c-0.542,5.175 -2.113,9.496 -4.693,13.011c-2.602,3.514 -5.952,6.226 -10.029,8.161c-2.622,1.212 -6.109,2.094 -10.473,2.599c3.3,1.507 5.67,2.916 7.129,4.229c0.959,0.868 2.325,2.653 4.077,5.353c1.75,2.722 2.892,4.769 3.419,6.205l11.067,28.414l-32.474,-3.413l-12.362,-30.039c-1.563,-3.864 -3.044,-6.449 -4.464,-7.716c-1.906,-1.644 -4.191,-2.606 -6.811,-2.881l-2.534,-0.266l-3.965,37.733l-28.859,-3.032Zm34.672,-52.281l12.124,1.275c1.298,0.136 3.875,-0.01 7.731,-0.456c1.947,-0.191 3.608,-1.002 4.982,-2.434c1.356,-1.432 2.151,-3.166 2.364,-5.201c0.316,-3.009 -0.394,-5.404 -2.131,-7.206c-1.734,-1.825 -5.222,-3.001 -10.462,-3.551l-12.621,-1.327l-1.987,18.9Zm57.436,16.003c-1.064,-15.221 2.362,-27.376 10.238,-36.437c7.898,-9.084 19.414,-14.145 34.551,-15.204c15.525,-1.086 27.782,2.246 36.77,9.999c8.963,7.731 13.993,19.119 15.042,34.123c0.763,10.902 -0.458,19.978 -3.64,27.205c-3.182,7.227 -8.102,13.027 -14.757,17.397c-6.678,4.373 -15.164,6.909 -25.521,7.632c-10.511,0.736 -19.335,-0.327 -26.475,-3.187c-7.119,-2.886 -13.069,-7.793 -17.876,-14.746c-4.786,-6.954 -7.569,-15.88 -8.332,-26.782Zm28.845,-1.886c0.661,9.425 2.871,16.057 6.655,19.938c3.783,3.859 8.705,5.588 14.719,5.168c6.189,-0.433 10.848,-2.787 13.953,-7.042c3.105,-4.277 4.316,-11.627 3.586,-22.051c-0.614,-8.794 -2.843,-15.075 -6.666,-18.889c-3.823,-3.792 -8.763,-5.476 -14.842,-5.051c-5.799,0.406 -10.324,2.774 -13.555,7.146c-3.23,4.35 -4.512,11.292 -3.85,20.781Zm115.365,-69.631l27.43,-8.913l17.227,53.019c1.71,5.26 2.489,10.477 2.374,15.688c-0.121,5.188 -1.357,10.122 -3.719,14.757c-2.362,4.636 -5.233,8.27 -8.619,10.95c-4.703,3.702 -10.776,6.774 -18.272,9.209c-4.326,1.406 -9.141,2.649 -14.456,3.691c-5.309,1.06 -9.964,1.245 -13.987,0.56c-4.022,-0.684 -8.003,-2.229 -11.935,-4.613c-3.933,-2.383 -6.99,-5.166 -9.189,-8.345c-3.534,-5.099 -6.01,-9.833 -7.43,-14.203l-17.228,-53.02l27.432,-8.913l17.638,54.283c1.58,4.867 4.158,8.218 7.709,10.062c3.579,1.858 7.751,2.014 12.533,0.46c4.72,-1.534 8.01,-4.09 9.825,-7.655c1.804,-3.539 1.904,-7.807 0.304,-12.735l-17.637,-54.282Zm30.768,-10.355l22.891,-14.303l57.259,25.21l-27.409,-43.862l23.095,-14.432l49.545,79.289l-23.095,14.43l-56.903,-24.97l27.201,43.531l-23.039,14.396l-49.545,-79.289" style="fill:#231f20;fill-rule:nonzero;"/><path d="M725.866,391.411c-33.007,-4.04 -82.648,-5.786 -106.313,-4.77c-13.446,0.576 -21.537,4.946 -21.788,16.265c-0.194,8.805 11.046,14.75 11.069,26.772c0.047,23.845 -37.613,19.783 -47.806,23.99c0.733,20.542 2.826,41.479 1.122,50.96c14.086,4.318 30.589,9.517 33.024,-1.979c2.449,10.95 24.402,7.311 22.067,-4.503c35.512,4.949 25.701,-7.721 20.398,-18.394c15.554,8.549 23.491,4.984 26.556,-4.566c19.938,8.959 59.952,10.615 57.205,-6.605c12.407,2.551 57.266,3.363 52.569,-15.033c31.03,-8.787 59.28,-12.978 45.967,-31.524c27.072,-7.156 37.86,-21.397 33.528,-33.852c-5.103,-14.671 -37.049,14.324 -127.598,3.239Z" style="fill:#00a4e2;stroke:#231f20;stroke-width:4.17px;"/><path d="M379.587,391.411c33.005,-4.04 82.649,-5.786 106.312,-4.77c13.448,0.576 21.537,4.946 21.787,16.265c0.197,8.805 -11.044,14.75 -11.067,26.772c-0.048,23.845 37.614,19.783 47.807,23.99c-0.735,20.542 -2.826,41.479 -1.122,50.96c-14.088,4.318 -30.591,9.517 -33.025,-1.979c-2.448,10.95 -24.404,7.311 -22.067,-4.503c-35.511,4.949 -25.703,-7.721 -20.397,-18.394c-15.555,8.549 -23.492,4.984 -26.558,-4.566c-19.936,8.959 -59.951,10.615 -57.205,-6.605c-12.405,2.551 -57.267,3.363 -52.568,-15.033c-31.03,-8.787 -59.28,-12.978 -45.968,-31.524c-27.07,-7.156 -37.86,-21.397 -33.529,-33.852c5.103,-14.671 37.05,14.324 127.6,3.239Z" style="fill:#00a4e2;stroke:#231f20;stroke-width:4.17px;"/><path d="M555.612,281.726c13.876,-0 28.882,18.519 24.554,71.111c-3.262,39.656 -11.465,55.428 -10.868,75.934c0.602,20.746 -36.771,24.931 -32.182,2.193c1.97,-9.753 -3.551,-23.894 -7.971,-77.488c-4.42,-53.595 12.592,-71.75 26.467,-71.75Z" style="fill:#00a4e2;stroke:#231f20;stroke-width:4.17px;"/><path d="M555.612,614.631c13.876,0 28.882,-18.519 24.554,-71.111c-3.262,-39.656 -11.465,-55.428 -10.868,-75.934c0.602,-20.746 -36.771,-24.931 -32.182,-2.193c1.97,9.753 -3.551,23.894 -7.971,77.489c-4.42,53.594 12.592,71.749 26.467,71.749Z" style="fill:#00a4e2;stroke:#231f20;stroke-width:4.17px;"/><path d="M553.062,470.814c12.645,0 22.96,-10.314 22.96,-22.96c-0,-12.646 -10.315,-22.96 -22.96,-22.96c-12.646,-0 -22.96,10.314 -22.96,22.96c-0,12.646 10.314,22.96 22.96,22.96Z" style="fill:#00a4e2;stroke:#231f20;stroke-width:4.17px;"/><path d="M553.062,459.653c6.499,-0 11.798,-5.302 11.798,-11.799c0,-6.499 -5.299,-11.799 -11.798,-11.799c-6.499,0 -11.799,5.3 -11.799,11.799c0,6.497 5.3,11.799 11.799,11.799Z" style="fill:#fff;stroke:#231f20;stroke-width:4.17px;"/><path d="M556.25,870.896c17.375,0 31.545,-28.637 31.545,-63.748c0,-35.111 -14.17,-63.746 -31.545,-63.746c-17.374,-0 -31.544,28.635 -31.544,63.746c-0,35.111 14.17,63.748 31.544,63.748Z" style="fill:#00a4e2;stroke:#231f20;stroke-width:4.17px;"/></g></g></g></svg>