<?xml version="1.0" encoding="UTF-8" standalone="no"?><!DOCTYPE svg PUBLIC "-//W3C//DTD SVG 1.1//EN" "http://www.w3.org/Graphics/SVG/1.1/DTD/svg11.dtd"><svg width="100%" height="100%" viewBox="0 0 1113 1113" version="1.1" xmlns="http://www.w3.org/2000/svg" xmlns:xlink="http://www.w3.org/1999/xlink" xml:space="preserve" xmlns:serif="http://www.serif.com/" style="fill-rule:evenodd;clip-rule:evenodd;stroke-miterlimit:22.926;"><g id="Shadow"></g><g id="Background"></g><g id="Bevel"></g><g id="XC-Outline" serif:id="XC Outline"></g><g id="XC"></g><g id="XC-Bevel" serif:id="XC Bevel"></g><g id="Swift"></g><g id="Gradient-Overlay" serif:id="Gradient Overlay"><g><g><path d="M554.427,109.288c258.167,0 468.73,210.562 468.73,468.728c-0,258.169 -210.563,468.73 -468.73,468.73c-258.166,0 -468.728,-210.561 -468.728,-468.73c0,-258.166 210.562,-468.728 468.728,-468.728Z" style="fill:none;fill-rule:nonzero;stroke:#6c6e70;stroke-width:4.17px;"/><path d="M554.427,112.403c258.167,-0 468.73,210.561 468.73,468.728c-0,258.166 -210.563,468.73 -468.73,468.73c-258.166,-0 -468.728,-210.564 -468.728,-468.73c0,-258.167 210.562,-468.728 468.728,-468.728Zm0,817.403c192.044,0 348.676,-156.631 348.676,-348.675c-0,-192.044 -156.632,-348.676 -348.676,-348.676c-192.044,0 -348.676,156.632 -348.676,348.676c0,192.044 156.632,348.675 348.676,348.675Z" style="fill:none;fill-rule:nonzero;stroke:#231f20;stroke-width:4.17px;"/><path d="M1006.9,795.926l-426.173,2.366c-5.49,0.03 -9.76,2.548 -9.496,5.391l0.965,10.367c0.265,2.844 4.972,5.072 10.459,4.952l503.091,-11.077c5.581,-0.124 6.347,-0.832 9.659,-5.486l0.894,-1.255c0.149,-0.21 6.636,-5.771 -11.562,-5.675l-77.837,0.417Z" style="fill:#00a4e2;stroke:#231f20;stroke-width:4.17px;"/><path d="M110.088,795.785l426.172,2.366c5.491,0.03 9.759,2.548 9.496,5.389l-0.966,10.369c-0.265,2.844 -4.972,5.072 -10.459,4.951l-503.089,-11.076c-5.583,-0.124 -6.347,-0.832 -9.661,-5.486l-0.892,-1.255c-0.151,-0.211 -6.636,-5.771 11.56,-5.676l77.839,0.418Z" style="fill:#00a4e2;stroke:#231f20;stroke-width:4.17px;"/><rect x="553.819" y="682.781" width="9.352" height="88.531" style="fill:#00a4e2;stroke:#231f20;stroke-width:4.17px;"/><path d="M455.627,687.145l205.74,-0c2.572,-0 4.676,-1.963 4.676,-4.364c0,-2.4 -2.104,-4.364 -4.676,-4.364l-205.74,-0c-2.573,-0 -4.677,1.964 -4.677,4.364c0,2.401 2.104,4.364 4.677,4.364Z" style="fill:#00a4e2;stroke:#231f20;stroke-width:4.17px;"/><path d="M256.992,351.217l-18.912,26.031l9.605,12.448l-16.961,23.345l-53.753,-81.509l18.097,-24.91l94.141,25.917l-17.373,23.913l-14.844,-5.235Zm-19.471,-6.833l-32.522,-11.135l20.677,27.437l11.845,-16.302Zm-0.044,-87.668l57.969,-48.64l12.542,14.947l-36.285,30.449l9.341,11.133l33.663,-28.245l11.981,14.279l-33.662,28.245l11.573,13.792l37.345,-31.338l13.309,15.862l-59.026,49.528l-58.75,-70.012Zm132.287,12.027l-37.174,-83.496l43,-19.146c7.971,-3.547 14.379,-5.585 19.193,-6.074c4.823,-0.518 9.351,0.495 13.589,3.056c4.23,2.544 7.521,6.481 9.883,11.79c2.07,4.646 2.853,9.072 2.386,13.31c-0.485,4.245 -1.995,8.178 -4.501,11.81c-1.628,2.309 -4.148,4.758 -7.597,7.319c3.53,-0.337 6.225,-0.303 8.103,0.096c1.236,0.265 3.265,1.108 6.069,2.54c2.811,1.449 4.778,2.624 5.926,3.58l23.258,18.645l-29.161,12.983l-25.148,-19.387c-3.212,-2.507 -5.728,-3.973 -7.55,-4.349c-2.418,-0.461 -4.823,-0.16 -7.175,0.888l-2.273,1.013l15.085,33.884l-25.913,11.538Zm3.799,-61.207l10.887,-4.848c1.166,-0.519 3.276,-1.9 6.321,-4.164c1.554,-1.113 2.565,-2.61 3.029,-4.494c0.448,-1.876 0.273,-3.732 -0.54,-5.559c-1.204,-2.702 -2.977,-4.383 -5.327,-5.059c-2.36,-0.698 -5.888,0.012 -10.593,2.106l-11.333,5.045l7.556,16.973Zm75.682,-22.983c-1.818,-14.805 0.905,-26.847 8.132,-36.094c7.245,-9.274 18.227,-14.802 32.951,-16.611c15.1,-1.854 27.236,0.773 36.406,7.879c9.146,7.089 14.639,17.949 16.43,32.545c1.303,10.602 0.576,19.524 -2.162,26.743c-2.736,7.217 -7.241,13.131 -13.515,17.738c-6.295,4.611 -14.449,7.52 -24.523,8.758c-10.224,1.255 -18.893,0.668 -26.009,-1.759c-7.098,-2.452 -13.158,-6.939 -18.206,-13.48c-5.027,-6.543 -8.202,-15.115 -9.504,-25.719Zm28.064,-3.318c1.125,9.167 3.623,15.529 7.516,19.125c3.89,3.574 8.783,5.01 14.633,4.291c6.02,-0.738 10.447,-3.276 13.262,-7.588c2.811,-4.334 3.619,-11.571 2.373,-21.71c-1.05,-8.553 -3.547,-14.572 -7.475,-18.098c-3.925,-3.506 -8.833,-4.897 -14.748,-4.172c-5.64,0.692 -9.938,3.237 -12.866,7.67c-2.932,4.411 -3.828,11.254 -2.695,20.482Zm98.646,-53l28.029,3.442l-4.21,34.278l33.612,-30.669l37.256,4.575l-37.256,30.156l27.597,60.741l-34.534,-4.24l-14.532,-39.669l-16.351,13.385l-2.721,22.157l-28.026,-3.442l11.136,-90.714Zm130.252,25.187l25.815,11.494l-28.017,62.927l40.261,17.924l-9.157,20.569l-66.078,-29.419l37.176,-83.495Zm141.547,81.963l22.217,17.358l-33.551,42.946c-3.328,4.259 -7.131,7.742 -11.416,10.497c-4.271,2.738 -8.946,4.433 -13.993,5.053c-5.049,0.621 -9.564,0.28 -13.585,-1c-5.57,-1.787 -11.382,-5.03 -17.452,-9.772c-3.504,-2.738 -7.144,-5.962 -10.892,-9.699c-3.762,-3.722 -6.457,-7.396 -8.102,-11.028c-1.643,-3.634 -2.567,-7.706 -2.785,-12.196c-0.218,-4.49 0.367,-8.489 1.739,-12.008c2.202,-5.651 4.684,-10.247 7.448,-13.784l33.554,-42.946l22.217,17.36l-34.35,43.967c-3.08,3.941 -4.386,7.861 -3.94,11.747c0.451,3.918 2.604,7.382 6.477,10.408c3.824,2.987 7.693,4.255 11.577,3.779c3.854,-0.474 7.368,-2.725 10.486,-6.714l34.351,-43.968Zm51.066,51.209l31.082,42.782c5.179,7.126 7.384,13.89 6.619,20.258c-0.753,6.387 -3.738,11.473 -8.937,15.252c-4.372,3.177 -9.114,4.543 -14.223,4.099c-3.408,-0.311 -6.988,-1.762 -10.732,-4.381c2.578,6.229 3.214,11.737 1.942,16.502c-1.303,4.761 -4.299,8.858 -8.998,12.271c-3.838,2.789 -7.932,4.396 -12.284,4.85c-4.366,0.435 -8.54,-0.241 -12.582,-2.038c-2.49,-1.11 -5.401,-3.416 -8.713,-6.927c-4.413,-4.66 -7.234,-7.817 -8.459,-9.505l-28.655,-39.44l73.94,-53.723Zm-12.259,44.127l7.217,9.935c2.59,3.564 5.01,5.592 7.257,6.116c2.252,0.493 4.527,-0.106 6.834,-1.783c2.151,-1.563 3.339,-3.477 3.531,-5.747c0.195,-2.299 -0.966,-5.165 -3.48,-8.626l-7.33,-10.089l-14.029,10.194Zm-29.044,21.101l8.468,11.657c2.864,3.94 5.567,6.213 8.124,6.801c2.571,0.606 5.036,0.05 7.394,-1.662c2.187,-1.59 3.367,-3.657 3.53,-6.221c0.162,-2.565 -1.193,-5.842 -4.108,-9.854l-8.43,-11.603l-14.978,10.882" style="fill:#231f20;fill-rule:nonzero;"/><path d="M323.034,863.9l44.349,28.8c7.39,4.799 11.871,10.322 13.438,16.544c1.587,6.23 0.623,12.049 -2.877,17.439c-2.943,4.533 -6.88,7.508 -11.809,8.925c-3.293,0.932 -7.154,0.86 -11.588,-0.244c4.639,4.89 7.206,9.806 7.725,14.71c0.491,4.912 -0.837,9.808 -4.001,14.68c-2.585,3.98 -5.832,6.946 -9.733,8.93c-3.918,1.972 -8.058,2.835 -12.474,2.606c-2.723,-0.145 -6.267,-1.253 -10.618,-3.344c-5.788,-2.768 -9.554,-4.707 -11.302,-5.841l-40.887,-26.553l49.777,-76.652Zm4.369,45.59l10.298,6.688c3.694,2.399 6.68,3.425 8.967,3.109c2.279,-0.346 4.187,-1.722 5.741,-4.112c1.447,-2.232 1.871,-4.445 1.237,-6.632c-0.642,-2.216 -2.752,-4.476 -6.338,-6.806l-10.46,-6.792l-9.445,14.545Zm-19.552,30.108l12.081,7.847c4.088,2.653 7.424,3.805 10.023,3.438c2.616,-0.356 4.72,-1.758 6.306,-4.202c1.474,-2.266 1.833,-4.62 1.065,-7.072c-0.766,-2.452 -3.205,-5.026 -7.363,-7.727l-12.029,-7.811l-10.083,15.527Zm80.229,-31.971l71.107,25.881l-6.673,18.337l-44.513,-16.201l-4.97,13.656l41.293,15.031l-6.376,17.516l-41.293,-15.028l-6.157,16.915l45.811,16.675l-7.081,19.457l-72.408,-26.355l31.26,-85.884Zm61.878,119.471l9.555,-90.897l46.812,4.921c8.677,0.913 15.245,2.35 19.658,4.334c4.436,1.965 7.851,5.103 10.241,9.443c2.392,4.317 3.273,9.373 2.665,15.151c-0.531,5.058 -2.067,9.283 -4.588,12.719c-2.544,3.434 -5.819,6.086 -9.805,7.977c-2.563,1.186 -5.971,2.048 -10.237,2.541c3.226,1.473 5.542,2.851 6.969,4.134c0.937,0.849 2.273,2.593 3.985,5.234c1.711,2.66 2.827,4.661 3.343,6.065l10.818,27.776l-31.745,-3.337l-12.085,-29.364c-1.528,-3.777 -2.975,-6.304 -4.364,-7.543c-1.863,-1.607 -4.097,-2.548 -6.658,-2.817l-2.476,-0.259l-3.877,36.886l-28.211,-2.964Zm33.894,-51.107l11.852,1.245c1.269,0.134 3.788,-0.009 7.558,-0.446c1.902,-0.186 3.526,-0.978 4.87,-2.378c1.325,-1.4 2.102,-3.096 2.311,-5.085c0.308,-2.941 -0.386,-5.282 -2.083,-7.044c-1.696,-1.784 -5.106,-2.933 -10.228,-3.472l-12.338,-1.296l-1.942,18.476Zm56.147,15.643c-1.041,-14.879 2.309,-26.761 10.008,-35.619c7.721,-8.881 18.978,-13.828 33.775,-14.863c15.177,-1.061 27.159,2.196 35.945,9.774c8.762,7.558 13.679,18.691 14.705,33.358c0.745,10.657 -0.448,19.53 -3.559,26.594c-3.11,7.065 -7.92,12.735 -14.426,17.006c-6.528,4.276 -14.823,6.754 -24.948,7.462c-10.274,0.719 -18.901,-0.32 -25.881,-3.116c-6.959,-2.821 -12.775,-7.618 -17.474,-14.415c-4.679,-6.798 -7.4,-15.524 -8.145,-26.181Zm28.198,-1.844c0.645,9.214 2.805,15.697 6.505,19.49c3.698,3.774 8.51,5.463 14.389,5.053c6.05,-0.423 10.604,-2.725 13.639,-6.884c3.036,-4.181 4.219,-11.366 3.506,-21.556c-0.6,-8.596 -2.779,-14.737 -6.517,-18.465c-3.737,-3.707 -8.566,-5.354 -14.509,-4.938c-5.668,0.397 -10.092,2.712 -13.25,6.986c-3.157,4.253 -4.411,11.039 -3.763,20.314Zm112.775,-68.068l26.814,-8.713l16.841,51.83c1.671,5.141 2.433,10.241 2.32,15.335c-0.119,5.072 -1.327,9.895 -3.636,14.426c-2.309,4.532 -5.115,8.085 -8.425,10.704c-4.597,3.619 -10.534,6.622 -17.862,9.003c-4.229,1.374 -8.935,2.589 -14.131,3.607c-5.19,1.037 -9.74,1.218 -13.673,0.548c-3.932,-0.668 -7.823,-2.179 -11.668,-4.509c-3.844,-2.33 -6.833,-5.051 -8.982,-8.158c-3.455,-4.985 -5.875,-9.612 -7.264,-13.884l-16.84,-51.83l26.816,-8.713l17.241,53.065c1.545,4.757 4.065,8.033 7.537,9.836c3.498,1.816 7.576,1.968 12.251,0.45c4.614,-1.5 7.83,-3.999 9.605,-7.484c1.763,-3.459 1.861,-7.631 0.297,-12.449l-17.241,-53.064Zm30.077,-10.122l22.377,-13.983l55.974,24.645l-26.794,-42.878l22.577,-14.108l48.433,77.51l-22.577,14.106l-55.625,-24.41l26.59,42.555l-22.522,14.072l-48.433,-77.509" style="fill:#231f20;fill-rule:nonzero;"/><path d="M724.305,418.436c-32.266,-3.95 -80.793,-5.657 -103.927,-4.663c-13.144,0.562 -21.054,4.834 -21.298,15.899c-0.191,8.608 10.798,14.419 10.82,26.171c0.045,23.311 -36.769,19.34 -46.734,23.452c0.717,20.081 2.763,40.548 1.098,49.816c13.769,4.221 29.902,9.304 32.283,-1.935c2.393,10.704 23.854,7.148 21.571,-4.401c34.715,4.838 25.125,-7.548 19.94,-17.981c15.205,8.357 22.964,4.872 25.96,-4.464c19.49,8.758 58.606,10.377 55.921,-6.457c12.129,2.494 55.981,3.288 51.389,-14.695c30.334,-8.59 57.95,-12.687 44.935,-30.817c26.465,-6.995 37.01,-20.917 32.776,-33.092c-4.989,-14.342 -36.218,14.003 -124.734,3.167Z" style="fill:#00a4e2;stroke:#231f20;stroke-width:4.17px;"/><path d="M385.799,418.436c32.264,-3.95 80.793,-5.657 103.925,-4.663c13.146,0.562 21.054,4.834 21.298,15.899c0.192,8.608 -10.796,14.419 -10.818,26.171c-0.047,23.311 36.769,19.34 46.733,23.452c-0.718,20.081 -2.762,40.548 -1.097,49.816c-13.771,4.221 -29.904,9.304 -32.283,-1.935c-2.393,10.704 -23.856,7.148 -21.571,-4.401c-34.715,4.838 -25.127,-7.548 -19.94,-17.981c-15.206,8.357 -22.965,4.872 -25.962,-4.464c-19.489,8.758 -58.605,10.377 -55.921,-6.457c-12.127,2.494 -55.981,3.288 -51.388,-14.695c-30.333,-8.59 -57.949,-12.687 -44.936,-30.817c-26.463,-6.995 -37.01,-20.917 -32.776,-33.092c4.988,-14.342 36.218,14.003 124.736,3.167Z" style="fill:#00a4e2;stroke:#231f20;stroke-width:4.17px;"/><path d="M557.873,311.212c13.564,0 28.233,18.104 24.003,69.516c-3.19,38.766 -11.209,54.184 -10.625,74.229c0.589,20.281 -35.945,24.372 -31.459,2.143c1.925,-9.533 -3.472,-23.357 -7.793,-75.748c-4.32,-52.392 12.309,-70.14 25.874,-70.14Z" style="fill:#00a4e2;stroke:#231f20;stroke-width:4.17px;"/><path d="M557.873,636.645c13.564,0 28.233,-18.103 24.003,-69.515c-3.19,-38.766 -11.209,-54.184 -10.625,-74.229c0.589,-20.281 -35.945,-24.372 -31.459,-2.144c1.925,9.534 -3.472,23.358 -7.793,75.75c-4.32,52.391 12.309,70.138 25.874,70.138Z" style="fill:#00a4e2;stroke:#231f20;stroke-width:4.17px;"/><path d="M555.379,496.056c12.362,0 22.445,-10.083 22.445,-22.444c0,-12.362 -10.083,-22.445 -22.445,-22.445c-12.362,-0 -22.444,10.083 -22.444,22.445c-0,12.361 10.082,22.444 22.444,22.444Z" style="fill:#00a4e2;stroke:#231f20;stroke-width:4.17px;"/><path d="M555.379,485.145c6.353,0 11.534,-5.182 11.534,-11.533c0,-6.353 -5.181,-11.534 -11.534,-11.534c-6.353,-0 -11.534,5.181 -11.534,11.534c0,6.351 5.181,11.533 11.534,11.533Z" style="fill:#fff;stroke:#231f20;stroke-width:4.17px;"/><path d="M558.496,887.158c16.985,0 30.837,-27.994 30.837,-62.317c0,-34.323 -13.852,-62.315 -30.837,-62.315c-16.984,-0 -30.836,27.992 -30.836,62.315c-0,34.323 13.852,62.317 30.836,62.317Z" style="fill:#00a4e2;stroke:#231f20;stroke-width:4.17px;"/></g></g></g></svg>