<?xml version="1.0" encoding="UTF-8" standalone="no"?><!DOCTYPE svg PUBLIC "-//W3C//DTD SVG 1.1//EN" "http://www.w3.org/Graphics/SVG/1.1/DTD/svg11.dtd"><svg width="100%" height="100%" viewBox="0 0 375 93" version="1.1" xmlns="http://www.w3.org/2000/svg" xmlns:xlink="http://www.w3.org/1999/xlink" xml:space="preserve" xmlns:serif="http://www.serif.com/" style="fill-rule:evenodd;clip-rule:evenodd;stroke-linejoin:round;stroke-miterlimit:2;"><rect id="Artboard1" x="0" y="0" width="375" height="92.52" style="fill:none;"/><g id="XCSoar"><g id="text9393-9-1"><path d="M2.448,59.358l17.286,-26.606l-16.52,-27.41l13.092,0l10.977,18.176l11.889,-18.176l9.08,0l-16.556,25.475l17.14,28.541l-13.056,0l-11.706,-19.307l-12.545,19.307l-9.081,0Z" style="fill-rule:nonzero;"/><path d="M100.657,57.205c-5.227,2.336 -11.463,3.503 -18.708,3.503c-8.85,0 -15.742,-2.493 -20.678,-7.481c-4.935,-4.988 -7.403,-11.947 -7.403,-20.877c0,-9.1 2.486,-16.101 7.458,-21.004c4.972,-4.903 12.065,-7.354 21.279,-7.354c5.884,-0 11.731,0.693 17.542,2.08l-0,8.796c-6.589,-2.311 -12.108,-3.467 -16.557,-3.467c-5.689,-0 -10.077,1.806 -13.165,5.42c-3.088,3.613 -4.632,8.741 -4.632,15.383c0,6.521 1.66,11.606 4.978,15.256c3.319,3.65 7.932,5.475 13.84,5.475c5.3,-0 10.649,-1.339 16.046,-4.015l0,8.285Z" style="fill-rule:nonzero;"/><path d="M107.404,58.884l-0,-9.271c5.81,2.433 10.782,3.65 14.915,3.65c2.893,0 5.173,-0.645 6.838,-1.934c1.665,-1.29 2.498,-3.042 2.498,-5.256c0,-1.752 -0.523,-3.23 -1.568,-4.434c-1.045,-1.205 -3.027,-2.634 -5.944,-4.289l-3.611,-2.007c-4.838,-2.725 -8.254,-5.335 -10.247,-7.829c-1.994,-2.494 -2.991,-5.407 -2.991,-8.741c0,-4.452 1.635,-8.029 4.905,-10.73c3.27,-2.701 7.592,-4.051 12.965,-4.051c4.303,-0 9.153,0.62 14.551,1.861l-0,8.65c-5.519,-2.068 -9.883,-3.102 -13.092,-3.102c-2.48,-0 -4.468,0.553 -5.963,1.66c-1.495,1.108 -2.243,2.561 -2.243,4.362c0,1.484 0.523,2.786 1.568,3.905c1.046,1.119 3.015,2.494 5.908,4.124l3.866,2.154c5.203,2.919 8.789,5.608 10.758,8.065c1.969,2.458 2.954,5.451 2.954,8.979c-0,5.012 -1.86,8.942 -5.58,11.788c-3.72,2.847 -8.849,4.27 -15.389,4.27c-4.328,0 -9.361,-0.608 -15.098,-1.824Z" style="fill-rule:nonzero;"/><path d="M169.91,60.271c-6.248,-0 -11.214,-1.892 -14.897,-5.676c-3.683,-3.783 -5.525,-8.875 -5.525,-15.274c0,-6.472 1.854,-11.582 5.562,-15.329c3.707,-3.747 8.746,-5.62 15.116,-5.62c6.394,-0 11.445,1.873 15.152,5.62c3.708,3.747 5.562,8.833 5.562,15.256c-0,6.57 -1.86,11.716 -5.58,15.438c-3.72,3.723 -8.85,5.585 -15.39,5.585Zm0.183,-6.752c6.199,-0 9.299,-4.757 9.299,-14.271c0,-4.355 -0.82,-7.798 -2.462,-10.329c-1.641,-2.53 -3.896,-3.795 -6.764,-3.795c-2.845,-0 -5.088,1.265 -6.729,3.795c-1.641,2.531 -2.461,5.998 -2.461,10.402c-0,4.355 0.814,7.811 2.443,10.365c1.629,2.555 3.853,3.833 6.674,3.833Z" style="fill-rule:nonzero;"/><path d="M220.419,55.051c-3.598,3.48 -7.452,5.22 -11.561,5.22c-3.5,-0 -6.345,-1.071 -8.533,-3.212c-2.188,-2.141 -3.282,-4.915 -3.282,-8.322c-0,-4.428 1.768,-7.84 5.306,-10.237c3.537,-2.397 8.6,-3.595 15.189,-3.595l2.881,0l-0,-3.65c-0,-4.16 -2.371,-6.241 -7.111,-6.241c-4.206,0 -8.461,1.193 -12.764,3.577l-0,-7.445c4.886,-1.85 9.725,-2.774 14.514,-2.774c10.479,-0 15.718,4.173 15.718,12.518l-0,17.738c-0,3.139 1.009,4.708 3.027,4.708c0.364,0 0.839,-0.049 1.422,-0.146l0.255,6.059c-2.285,0.681 -4.303,1.022 -6.053,1.022c-4.425,-0 -7.27,-1.74 -8.534,-5.22l-0.474,0Zm-0,-5.803l-0,-8.138l-2.553,-0c-6.977,-0 -10.466,2.189 -10.466,6.569c-0,1.484 0.504,2.731 1.513,3.741c1.009,1.01 2.255,1.515 3.738,1.515c2.529,-0 5.118,-1.229 7.768,-3.687Z" style="fill-rule:nonzero;"/><path d="M244.707,59.358l-0,-40.074l10.794,0l0,7.555c2.796,-5.645 7.051,-8.467 12.764,-8.467c0.681,-0 1.35,0.073 2.006,0.219l0,9.635c-1.532,-0.56 -2.954,-0.839 -4.267,-0.839c-4.303,-0 -7.804,2.177 -10.503,6.533l0,25.438l-10.794,0Z" style="fill-rule:nonzero;"/></g></g><g id="Version"><g id="versionno"><path d="M335.352,59.358c0.51,-4.063 1.513,-7.628 3.008,-10.693c1.496,-3.066 4.857,-8.419 10.084,-16.059l12.691,-18.504l-28.081,-0l0,-8.759l36.906,-0l0,8.759c-7.075,8.929 -12.618,17.403 -16.629,25.42c-4.012,8.017 -6.018,14.629 -6.018,19.836l-11.961,0Z" style="fill:#3f76a8;fill-rule:nonzero;"/></g></g><g id="Layer1"><path d="M219.855,66.351c0,-1.369 -0.037,-1.591 1.258,-1.998c0.481,-0.148 0.814,-0.481 0.814,-0.999c-0,-1.073 -1.221,-1.147 -1.369,-1.147l-10.469,0c-0.148,0 -1.369,0.074 -1.369,1.147c0,0.518 0.333,0.851 0.814,0.999c1.295,0.407 1.258,0.629 1.258,1.998l-0,19.384c-0,1.369 0.037,1.59 -1.258,1.997c-0.481,0.148 -0.814,0.481 -0.814,0.999c0,1.073 1.221,1.147 1.369,1.147l9.766,0l0,-23.527Zm1.665,23.527l7.805,0l0,-8.212c0,-0.703 -0.074,-1.406 -0.925,-1.406c-0.776,-0 -1.22,0.222 -1.405,1.036c-0.777,3.44 -2.479,6.029 -5.475,6.436l-0,2.146Z" style="fill:#093;fill-rule:nonzero;"/><path d="M250.522,70.235l0.703,-0.962c1.554,-2.109 2.405,-3.514 4.957,-4.476c0.666,-0.259 1.369,-0.518 1.369,-1.369c-0,-1.184 -1.073,-1.221 -1.961,-1.221l-6.326,0c-0.776,0 -1.812,-0.037 -1.812,1.11c-0,0.74 0.555,0.888 1.146,1.147c0.888,0.37 1.406,0.888 1.406,1.887c0,0.887 -0.444,1.627 -0.962,2.33l-4.291,6.104c-0.444,0.629 -0.851,1.11 -0.851,1.887c0,0.776 0.259,1.553 0.481,2.256l2.294,6.881c0.111,0.259 0.296,0.814 0.296,1.11c-0,0.813 -1.517,0.591 -1.517,1.812c0,1.147 1.11,1.147 1.961,1.147l9.285,0c0.74,0 1.961,0.074 1.961,-0.999c-0,-0.703 -0.333,-0.925 -0.888,-1.184c-0.851,-0.406 -0.962,-1.035 -1.295,-1.849l-5.956,-15.611Zm-7.99,-3.884c-0,-1.369 -0.037,-1.591 1.257,-1.998c0.481,-0.148 0.814,-0.481 0.814,-0.999c0,-1.073 -1.221,-1.147 -1.368,-1.147l-10.469,0c-0.148,0 -1.369,0.074 -1.369,1.147c-0,0.518 0.333,0.851 0.814,0.999c1.294,0.407 1.257,0.629 1.257,1.998l0,19.384c0,1.369 0.037,1.59 -1.257,1.997c-0.481,0.148 -0.814,0.481 -0.814,0.999c-0,1.073 1.221,1.147 1.369,1.147l10.469,0c0.147,0 1.368,-0.074 1.368,-1.147c0,-0.518 -0.333,-0.851 -0.814,-0.999c-1.294,-0.407 -1.257,-0.628 -1.257,-1.997l-0,-19.384Z" style="fill:#093;fill-rule:nonzero;"/><path d="M272.126,62.207l-9.951,0c-0.259,0 -1.184,0.074 -1.184,1.147c0,0.518 0.333,0.851 0.814,0.999c1.295,0.407 1.258,0.629 1.258,1.998l-0,19.384c-0,1.369 0.037,1.59 -1.258,1.997c-0.481,0.148 -0.814,0.481 -0.814,0.999c0,1.073 0.925,1.147 1.184,1.147l9.951,0l-0,-27.671Zm1.665,2.146c2.219,0.222 2.774,1.702 2.774,3.255l0,3.7c0,1.368 -0.074,2.959 -2.774,3.181l-0,2.146c2.367,0.185 2.774,1.775 2.774,3.477l0,4.772c0,1.332 -0.296,2.737 -2.774,2.848l-0,2.146l1.183,0c2.627,0 4.957,0.111 7.325,-1.221c2.331,-1.295 3.477,-3.366 3.477,-5.993c0,-4.624 -3.255,-6.436 -7.361,-7.102l-0,-0.074c3.588,-0.555 6.991,-2.442 6.991,-6.511c0,-2.626 -1.331,-4.55 -3.625,-5.697c-2.145,-1.036 -4.513,-1.073 -6.844,-1.073l-1.146,0l-0,2.146Z" style="fill:#093;fill-rule:nonzero;"/><path d="M309.378,81.925c-0.222,3.292 -1.554,5.216 -4.957,6.251l-0,2.183c2.404,-0.037 6.806,-2.257 7.102,-8.36l0,-13.947c0.592,-4.624 2.96,-3.181 2.96,-4.772c-0,-1.147 -1.517,-1.073 -1.924,-1.073l-4.217,0c-0.407,0 -1.924,-0.074 -1.924,1.073c0,1.591 2.368,0.148 2.96,4.772l-0,13.873Zm-6.622,6.325c-2.774,-0.814 -2.441,-3.736 -2.441,-4.106l-0,-17.793c-0,-1.369 -0.037,-1.591 1.257,-1.998c0.481,-0.148 0.814,-0.481 0.814,-0.999c0,-1.073 -1.221,-1.147 -1.369,-1.147l-10.469,0c-0.148,0 -1.368,0.074 -1.368,1.147c-0,0.518 0.333,0.851 0.814,0.999c1.294,0.407 1.257,0.629 1.257,1.998l0,17.534c0,1.85 0.444,3.256 3.774,5.105c2.552,1.406 4.809,1.443 7.731,1.443l0,-2.183Z" style="fill:#093;fill-rule:nonzero;"/></g></svg>