<?xml version="1.0" encoding="UTF-8" standalone="no"?>
<!DOCTYPE svg PUBLIC "-//W3C//DTD SVG 1.1//EN" "http://www.w3.org/Graphics/SVG/1.1/DTD/svg11.dtd">
<svg width="100%" height="100%" viewBox="0 0 355 99" version="1.1" xmlns="http://www.w3.org/2000/svg" xmlns:xlink="http://www.w3.org/1999/xlink" xml:space="preserve" xmlns:serif="http://www.serif.com/" style="fill-rule:evenodd;clip-rule:evenodd;stroke-linejoin:round;stroke-miterlimit:2;">
    <rect id="Artboard1" x="0" y="0" width="354.443" height="98.541" style="fill:none;"/>
    <g id="XCSoar">
        <g id="text9393-9-1">
            <path d="M2.448,59.358L19.734,32.752L3.214,5.342L16.306,5.342L27.283,23.518L39.172,5.342L48.252,5.342L31.696,30.817L48.836,59.358L35.78,59.358L24.074,40.051L11.529,59.358L2.448,59.358Z" style="fill-rule:nonzero;"/>
            <path d="M100.657,57.205C95.43,59.541 89.194,60.708 81.949,60.708C73.099,60.708 66.207,58.215 61.271,53.227C56.336,48.239 53.868,41.28 53.868,32.35C53.868,23.25 56.354,16.249 61.326,11.346C66.298,6.443 73.391,3.992 82.605,3.992C88.489,3.992 94.336,4.685 100.147,6.072L100.147,14.868C93.558,12.557 88.039,11.401 83.59,11.401C77.901,11.401 73.513,13.207 70.425,16.821C67.337,20.434 65.793,25.562 65.793,32.204C65.793,38.725 67.453,43.81 70.771,47.46C74.09,51.11 78.703,52.935 84.611,52.935C89.911,52.935 95.26,51.596 100.657,48.92L100.657,57.205Z" style="fill-rule:nonzero;"/>
            <path d="M107.404,58.884L107.404,49.613C113.214,52.046 118.186,53.263 122.319,53.263C125.212,53.263 127.492,52.618 129.157,51.329C130.822,50.039 131.655,48.287 131.655,46.073C131.655,44.321 131.132,42.843 130.087,41.639C129.042,40.434 127.06,39.005 124.143,37.35L120.532,35.343C115.694,32.618 112.278,30.008 110.285,27.514C108.291,25.02 107.294,22.107 107.294,18.773C107.294,14.321 108.929,10.744 112.199,8.043C115.469,5.342 119.791,3.992 125.164,3.992C129.467,3.992 134.317,4.612 139.715,5.853L139.715,14.503C134.196,12.435 129.832,11.401 126.623,11.401C124.143,11.401 122.155,11.954 120.66,13.061C119.165,14.169 118.417,15.622 118.417,17.423C118.417,18.907 118.94,20.209 119.985,21.328C121.031,22.447 123,23.822 125.893,25.452L129.759,27.606C134.962,30.525 138.548,33.214 140.517,35.671C142.486,38.129 143.471,41.122 143.471,44.65C143.471,49.662 141.611,53.592 137.891,56.438C134.171,59.285 129.042,60.708 122.502,60.708C118.174,60.708 113.141,60.1 107.404,58.884Z" style="fill-rule:nonzero;"/>
            <path d="M169.91,60.271C163.662,60.271 158.696,58.379 155.013,54.595C151.33,50.812 149.488,45.72 149.488,39.321C149.488,32.849 151.342,27.739 155.05,23.992C158.757,20.245 163.796,18.372 170.166,18.372C176.56,18.372 181.611,20.245 185.318,23.992C189.026,27.739 190.88,32.825 190.88,39.248C190.88,45.818 189.02,50.964 185.3,54.686C181.58,58.409 176.45,60.271 169.91,60.271ZM170.093,53.519C176.292,53.519 179.392,48.762 179.392,39.248C179.392,34.893 178.572,31.45 176.93,28.919C175.289,26.389 173.034,25.124 170.166,25.124C167.321,25.124 165.078,26.389 163.437,28.919C161.796,31.45 160.976,34.917 160.976,39.321C160.976,43.676 161.79,47.132 163.419,49.686C165.048,52.241 167.272,53.519 170.093,53.519Z" style="fill-rule:nonzero;"/>
            <path d="M220.419,55.051C216.821,58.531 212.967,60.271 208.858,60.271C205.358,60.271 202.513,59.2 200.325,57.059C198.137,54.918 197.043,52.144 197.043,48.737C197.043,44.309 198.811,40.897 202.349,38.5C205.886,36.103 210.949,34.905 217.538,34.905L220.419,34.905L220.419,31.255C220.419,27.095 218.048,25.014 213.308,25.014C209.102,25.014 204.847,26.207 200.544,28.591L200.544,21.146C205.43,19.296 210.269,18.372 215.058,18.372C225.537,18.372 230.776,22.545 230.776,30.89L230.776,48.628C230.776,51.767 231.785,53.336 233.803,53.336C234.167,53.336 234.642,53.287 235.225,53.19L235.48,59.249C233.195,59.93 231.177,60.271 229.427,60.271C225.002,60.271 222.157,58.531 220.893,55.051L220.419,55.051ZM220.419,49.248L220.419,41.11L217.866,41.11C210.889,41.11 207.4,43.299 207.4,47.679C207.4,49.163 207.904,50.41 208.913,51.42C209.922,52.43 211.168,52.935 212.651,52.935C215.18,52.935 217.769,51.706 220.419,49.248Z" style="fill-rule:nonzero;"/>
            <path d="M244.707,59.358L244.707,19.284L255.501,19.284L255.501,26.839C258.297,21.194 262.552,18.372 268.265,18.372C268.946,18.372 269.615,18.445 270.271,18.591L270.271,28.226C268.739,27.666 267.317,27.387 266.004,27.387C261.701,27.387 258.2,29.564 255.501,33.92L255.501,59.358L244.707,59.358Z" style="fill-rule:nonzero;"/>
        </g>
    </g>
    <g id="Version">
        <g id="versionno">
            <path d="M314.518,59.358C315.029,55.295 316.032,51.73 317.527,48.665C319.022,45.599 322.383,40.246 327.611,32.606L340.302,14.102L312.221,14.102L312.221,5.343L349.127,5.343L349.127,14.102C342.052,23.031 336.509,31.505 332.497,39.522C328.486,47.539 326.48,54.151 326.48,59.358L314.518,59.358Z" style="fill:rgb(0,153,51);fill-rule:nonzero;"/>
        </g>
    </g>
    <g id="Layer1">
        <path d="M197.301,70.517C197.301,69.148 197.264,68.926 198.559,68.52C199.04,68.372 199.373,68.039 199.373,67.521C199.373,66.448 198.152,66.374 198.004,66.374L187.535,66.374C187.387,66.374 186.166,66.448 186.166,67.521C186.166,68.039 186.499,68.372 186.98,68.52C188.275,68.926 188.238,69.148 188.238,70.517L188.238,89.901C188.238,91.27 188.275,91.492 186.98,91.899C186.499,92.047 186.166,92.38 186.166,92.898C186.166,93.971 187.387,94.045 187.535,94.045L197.301,94.045L197.301,70.517ZM198.966,94.045L206.771,94.045L206.771,85.832C206.771,85.129 206.697,84.427 205.846,84.427C205.07,84.427 204.626,84.648 204.441,85.462C203.664,88.903 201.962,91.492 198.966,91.899L198.966,94.045Z" style="fill:rgb(0,153,51);fill-rule:nonzero;"/>
        <path d="M227.968,74.401L228.671,73.44C230.225,71.331 231.076,69.925 233.628,68.963C234.294,68.705 234.997,68.446 234.997,67.595C234.997,66.411 233.924,66.374 233.036,66.374L226.71,66.374C225.934,66.374 224.898,66.337 224.898,67.484C224.898,68.224 225.453,68.372 226.045,68.631C226.932,69 227.45,69.518 227.45,70.517C227.45,71.405 227.006,72.145 226.488,72.848L222.197,78.952C221.753,79.58 221.346,80.061 221.346,80.838C221.346,81.615 221.605,82.392 221.827,83.095L224.121,89.975C224.232,90.234 224.417,90.789 224.417,91.085C224.417,91.899 222.9,91.677 222.9,92.898C222.9,94.045 224.01,94.045 224.861,94.045L234.146,94.045C234.886,94.045 236.107,94.119 236.107,93.046C236.107,92.343 235.774,92.121 235.219,91.862C234.368,91.455 234.257,90.826 233.924,90.012L227.968,74.401ZM219.978,70.517C219.978,69.148 219.941,68.926 221.235,68.52C221.716,68.372 222.049,68.039 222.049,67.521C222.049,66.448 220.829,66.374 220.681,66.374L210.212,66.374C210.064,66.374 208.843,66.448 208.843,67.521C208.843,68.039 209.176,68.372 209.657,68.52C210.951,68.926 210.914,69.148 210.914,70.517L210.914,89.901C210.914,91.27 210.951,91.492 209.657,91.899C209.176,92.047 208.843,92.38 208.843,92.898C208.843,93.971 210.064,94.045 210.212,94.045L220.681,94.045C220.829,94.045 222.049,93.971 222.049,92.898C222.049,92.38 221.716,92.047 221.235,91.899C219.941,91.492 219.978,91.27 219.978,89.901L219.978,70.517Z" style="fill:rgb(0,153,51);fill-rule:nonzero;"/>
        <path d="M249.572,66.374L239.621,66.374C239.362,66.374 238.437,66.448 238.437,67.521C238.437,68.039 238.77,68.372 239.251,68.52C240.546,68.926 240.509,69.148 240.509,70.517L240.509,89.901C240.509,91.27 240.546,91.492 239.251,91.899C238.77,92.047 238.437,92.38 238.437,92.898C238.437,93.971 239.362,94.045 239.621,94.045L249.572,94.045L249.572,66.374ZM251.237,68.52C253.456,68.742 254.011,70.221 254.011,71.775L254.011,75.474C254.011,76.843 253.937,78.434 251.237,78.656L251.237,80.801C253.604,80.986 254.011,82.577 254.011,84.279L254.011,89.051C254.011,90.382 253.715,91.788 251.237,91.899L251.237,94.045L252.421,94.045C255.047,94.045 257.378,94.156 259.745,92.824C262.076,91.529 263.222,89.458 263.222,86.831C263.222,82.207 259.967,80.394 255.861,79.728L255.861,79.654C259.449,79.1 262.853,77.213 262.853,73.144C262.853,70.517 261.521,68.594 259.227,67.447C257.082,66.411 254.714,66.374 252.384,66.374L251.237,66.374L251.237,68.52Z" style="fill:rgb(0,153,51);fill-rule:nonzero;"/>
        <path d="M286.824,86.091C286.602,89.384 285.27,91.307 281.867,92.343L281.867,94.526C284.271,94.489 288.674,92.269 288.969,86.165L288.969,72.219C289.561,67.595 291.929,69.037 291.929,67.447C291.929,66.3 290.412,66.374 290.005,66.374L285.788,66.374C285.381,66.374 283.864,66.3 283.864,67.447C283.864,69.037 286.232,67.595 286.824,72.219L286.824,86.091ZM280.202,92.417C277.428,91.603 277.761,88.681 277.761,88.311L277.761,70.517C277.761,69.148 277.724,68.926 279.018,68.52C279.499,68.372 279.832,68.039 279.832,67.521C279.832,66.448 278.611,66.374 278.464,66.374L267.995,66.374C267.847,66.374 266.626,66.448 266.626,67.521C266.626,68.039 266.959,68.372 267.44,68.52C268.734,68.926 268.697,69.148 268.697,70.517L268.697,88.052C268.697,89.901 269.141,91.307 272.471,93.157C275.023,94.563 277.28,94.6 280.202,94.6L280.202,92.417Z" style="fill:rgb(0,153,51);fill-rule:nonzero;"/>
    </g>
    <g transform="matrix(-0.531979,0,0,1,327.032,-0.605851)">
        <path d="M4.989,66.964L61.831,66.964L61.831,72.236L8.772,72.236L4.989,66.964Z" style="fill:rgb(0,153,51);"/>
    </g>
    <g transform="matrix(-0.531979,0,0,1,327.447,-0.605851)">
        <path d="M12.808,77.271L62.611,77.271L62.611,82.897L16.845,82.897L12.808,77.271Z" style="fill:rgb(0,153,51);"/>
    </g>
    <g transform="matrix(-0.531979,0,0,1,327.971,-0.605851)">
        <path d="M20.881,87.751L63.596,87.751L63.596,93.377L24.917,93.377L20.881,87.751Z" style="fill:rgb(0,153,51);"/>
    </g>
</svg>
