<?xml version="1.0" encoding="utf-8"?>
<!-- Generator: Adobe Illustrator 13.0.0, SVG Export Plug-In . SVG Version: 6.00 Build 14948)  -->
<!DOCTYPE svg PUBLIC "-//W3C//DTD SVG 1.1//EN" "http://www.w3.org/Graphics/SVG/1.1/DTD/svg11.dtd">
<svg version="1.1" id="Layer_1" xmlns="http://www.w3.org/2000/svg" xmlns:xlink="http://www.w3.org/1999/xlink" x="0px" y="0px"
	 width="354.873px" height="306.019px" viewBox="0 0 354.873 306.019" enable-background="new 0 0 354.873 306.019"
	 xml:space="preserve">
<path fill="#3E73A7" stroke="#000000" stroke-width="3" d="M179.466,143.383c0,0,9.3-3.346,20.122,3.049
	c26.829,15.854,68.293,68.293,68.293,68.293l25.61,23.171c0,0,12.805,2.439,20.731,14.024c4.784,6.991,3.049,13.414,0,17.683
	s-26.22,24.391-26.22,24.391s-8.53,13.908-21.342,3.658c-12.195-9.757-11.437-17.161-14.024-21.342
	c-7.927-12.805-84.146-82.927-84.146-82.927s-11.585-9.146-10.976-26.829c0.266-7.708,2.476-19.286-3.012-24.774"/>
<path fill="#D10000" stroke="#000000" stroke-width="3" d="M41.051,73.871c1.157-3.471-3.933-12.02,0-18.902
	C53.247,33.627,67.88,25.091,81.295,17.164"/>
<path d="M206.076,112.286l19.512-20.122c0,0,12.195-11.585,17.073-26.22s11.165-34.271,17.073-41.463
	c14.024-17.073,34.407-25.46,53.659-24.39c10.976,0.61,19.512,8.537,21.341,18.292c0,0-9.146,4.269-18.902,7.927
	c-1.277,0.479-15.243,5.488-7.316,26.83s15.524,14.872,28.487,8.39c10-5,12.5-7,12.5-7c8,10.5,6.415,26.489-0.5,35
	c-6.5,8-13.658,13-35.609,21.537s-28.658,6.098-45.122,19.512S243.88,152.53,243.88,152.53l-9.146,9.146
	c0,0-19.097-16.706-28.049-23.171c-10.975-7.927-22.561-5.488-22.561-5.488s0,0,6.707-6.708
	C196.959,120.182,206.076,112.286,206.076,112.286z"/>
<path d="M139.002,172.042l5.488-5.487l4.269-3.658c0,0-1.841,10.597,1.829,19.512c4.268,10.366,5.34,9.955,8.537,14.024
	c6.708,8.537,23.78,23.171,23.78,23.171l-70.731,76.829c0,0-22.561,20.732-50,1.22s-7.317-46.952-3.659-50.61
	S139.002,172.042,139.002,172.042z"/>
<path fill="#3E73A7" stroke="#000000" stroke-width="3" d="M179.752,143.03l-21.848,18.646
	c-11.021-11.233-67.658-68.512-67.658-68.512s-12.805-9.146-29.878-3.049s-7.873,14.243-6.098,21.341
	c1.83,7.317-1.219,13.415-6.098,18.292c-7.676,7.676-15.574,7.137-25.609,4.269c-8.537-2.439-17.683-12.805-19.512-19.512
	c-1.83-6.708-4.27-17.074,7.316-23.781s17.074-3.658,23.781-6.707s4.877-2.439,7.316-9.756c1.156-3.471-3.933-12.02,0-18.902
	C53.662,34.018,68.294,25.481,81.71,17.554c13.414-7.927,49.39-18.903,95.731-1.83c0,0-40.721-4.127-64.634,18.293
	c-9.756,9.146-4.269,2.439-11.586,12.195c-4.908,6.544,0,12.805,6.098,20.732S179.752,143.03,179.752,143.03z"/>
</svg>
