<?xml version="1.0" encoding="utf-8"?>
<!-- Generator: Adobe Illustrator 13.0.0, SVG Export Plug-In . SVG Version: 6.00 Build 14948)  -->
<!DOCTYPE svg PUBLIC "-//W3C//DTD SVG 1.1//EN" "http://www.w3.org/Graphics/SVG/1.1/DTD/svg11.dtd">
<svg version="1.1" id="Layer_1" xmlns="http://www.w3.org/2000/svg" xmlns:xlink="http://www.w3.org/1999/xlink" x="0px" y="0px"
	 width="215.056px" height="376.168px" viewBox="0 0 215.056 376.168" enable-background="new 0 0 215.056 376.168"
	 xml:space="preserve">
<path fill="#3E73A7" stroke="#000000" stroke-width="3" d="M84.833,374.667l102.5-0.166v-25.334c0,0,3-21,12.5-34s13-24.5,13.5-39
	s0-90,0-90s1-25-17.5-25.5c-17.023-0.46-19,12-19,17s0,48.5,0,48.5l-0.5-58c0,0-0.005-20.845-19-21.5c-14.5-0.5-19.5,17-19,29
	c0.209,5.021,0.5,39.5,0.5,39.5l-1-56c0,0-0.5-18.5-17.5-19c-15.002-0.441-18,7.5-19,12.5s0.5,65.5,0.5,65.5l-1-121
	c0,0-3-16.5-19-15.5c-15.045,0.94-18,10-19.5,18.5c-1.042,5.909,0.5,142,0.5,142s-1.391,9.781-3.5,14c-2,4-3.5,10-4,16
	c-0.249,2.989,4-16,4-16s4-11,4-16s-1.5-28-1.5-28s-9.5-18-25-19.5s-20,3.5-20,3.5s-7.5,3.46-7.5,16c0,10,7.488,12.625,12,15
	c9.5,5,9.5,6,13,11s3.5,16.5,3.5,16.5l0.5,18c0,0,3.5,20,10,30c3.873,5.958,7.5,11,15,19s14,11.5,19,24c1.352,3.38,2.5,16,2.5,16
	V374.667z"/>
<g>
	<path d="M43.334,113.48L2.485,82.503l40.349-30.49V66.5V68h1.5h22h1.5v-1.5V45v-1.5h-1.5h-14.83L82.33,2.502l30.868,41.359
		L98.818,44l-1.473,0.014l-0.013,1.473l-0.165,20.5L97.156,67.5h1.512H119.5h1.5V66V51.389l40.692,31.43l-40.359,30.345v-14.83
		v-1.516l-1.516,0.017l-13.161,0.151C105.877,92.04,101.801,76,81.834,76c-19.308,0-23.609,16.015-24.466,20.849L44.815,97
		l-1.481,0.017V98.5V113.48L43.334,113.48z"/>
	<path d="M82.333,0l33.833,45.333L98.833,45.5L98.667,66H119.5V48.333l44.667,34.5l-44.333,33.333V98.333l-14.5,0.167
		c0,0-1.161-21-23.5-21c-21.5,0-23.167,20.833-23.167,20.833L44.833,98.5v18L0,82.5L44.333,49v17.5h22V45H48.5L82.333,0
		 M82.325,5.004L54.509,42h11.825h3v3v21.5v3h-3h-22h-3v-3V55.027L4.971,82.504l36.863,27.956V98.5v-2.964l2.964-0.035l11.32-0.136
		c0.487-2.255,1.487-5.617,3.493-8.983c3.23-5.42,9.708-11.881,22.223-11.881c12.959,0,19.505,6.515,22.714,11.981
		c1.971,3.356,2.922,6.709,3.376,8.989l11.875-0.136l3.034-0.035v3.035v11.824l36.384-27.356L122.5,54.441V66v3h-3H98.667h-3.024
		l0.024-3.024l0.167-20.5l0.024-2.947l2.947-0.028l11.422-0.11L82.325,5.004L82.325,5.004z"/>
</g>
</svg>
