<?xml version="1.0" encoding="utf-8"?>
<!-- Generator: Adobe Illustrator 13.0.0, SVG Export Plug-In . SVG Version: 6.00 Build 14948)  -->
<!DOCTYPE svg PUBLIC "-//W3C//DTD SVG 1.1//EN" "http://www.w3.org/Graphics/SVG/1.1/DTD/svg11.dtd">
<svg version="1.1" id="Layer_1" xmlns="http://www.w3.org/2000/svg" xmlns:xlink="http://www.w3.org/1999/xlink" x="0px" y="0px"
	 width="209.883px" height="356.179px" viewBox="0 0 209.883 356.179" enable-background="new 0 0 209.883 356.179"
	 xml:space="preserve">
<path fill="#3E73A7" stroke="#000000" stroke-width="3" d="M29.044,354.679h101l1-28c0,0,2-11.5,13-19.5s33.005-28.987,33.5-59
	c0.375-22.75,3.25-28.5,3.25-28.5s4.25-9.5,13.75-12s24.397-23.362,2.5-33.5c-27-12.5-42.5,16-42.5,16l0,0l-2-114
	c0,0,0-15.5-18.5-15.5s-18,18.167-18.5,21.167s0,130.583,0,130.583l-114,0.25l1.5,51c0,0,2.5,15,7.5,22.5c9.487,14.23,15,21,17,30
	C29.741,326.062,29.044,354.679,29.044,354.679z"/>
<path fill="#3E73A7" stroke="#000000" stroke-width="3" d="M2.044,183.179c0,0,4-18.5,19.5-17.5s18,14,18,18s0,35.5,0,35.5
	s-2,16.5-18.5,16.5s-19.5-11-19.5-15S2.044,183.179,2.044,183.179z"/>
<path fill="#3E73A7" stroke="#000000" stroke-width="3" d="M40.044,163.179c0,0,4-18.5,19.5-17.5s18,14,18,18s0.5,58,0.5,58
	s-2,16.5-18.5,16.5s-19.5-11-19.5-15S40.044,163.179,40.044,163.179z"/>
<path fill="#3E73A7" stroke="#000000" stroke-width="3" d="M78.044,160.179c0,0,4-18.5,19.5-17.5s18,14,18,18s0.5,70,0.5,70
	s-2,16.5-18.5,16.5s-19.5-11-19.5-15S78.044,160.179,78.044,160.179z"/>
<path fill="#3E73A7" stroke="#000000" stroke-width="3" d="M155.211,189.929c-11.752,14.354-10.167,29.75-10.167,29.75
	s-22,15-26.5,36"/>
<path stroke="#000000" stroke-width="3" d="M142.877,1.846l41-0.333l0.334,33.333l-8.334,60.333h-16l-0.333-22.333
	c0,0-1.666-14-14.333-17l-2.667-21.333L142.877,1.846z"/>
<polygon stroke="#000000" stroke-width="3" points="159.544,105.512 182.544,105.512 182.544,138.512 159.877,138.846 "/>
</svg>
