<?xml version="1.0" encoding="UTF-8"?>
<svg version="1.1" viewBox="0 0 14 14" xmlns="http://www.w3.org/2000/svg">
 <g transform="matrix(.43749 0 0 .43749 179.62 -31.049)">
  <path d="m-378.91 100.95c0.46341-0.86939 0.46343-1.9405 6e-5 -2.8099l-13.405-25.147c-0.9988-1.8731-3.4952-1.873-4.4939 1.3e-4l-13.406 25.148c-0.99813 1.8733 0.24993 4.2144 2.2469 4.2148l26.812-5.3e-4c0.92695-1e-5 1.7835-0.53559 2.247-1.405z" color="#000000" fill="#f00" stroke-linecap="round" stroke-linejoin="round" stroke-miterlimit="10" stroke-width="2.1945" style="-inkscape-stroke:none;paint-order:stroke fill markers"/>
  <path d="m-407.97 99.548 13.406-25.148 13.406 25.148z" color="#000000" fill="#ff0" stroke-linecap="round" stroke-linejoin="round" stroke-miterlimit="10" stroke-width="12.343" style="-inkscape-stroke:none;paint-order:stroke fill markers"/>
  <path d="m-392.47 96.023a2.095 2.1429 0 1 1-4e-3 -0.10823" stroke-width="2.2857"/>
  <path d="m-394.57 79.006a1.25 1.25 0 0 0-1.25 1.25v10.984a1.25 1.25 0 0 0 1.25 1.25 1.25 1.25 0 0 0 1.25-1.25v-10.984a1.25 1.25 0 0 0-1.25-1.25z" color="#000000" stroke-linecap="round" stroke-linejoin="round" stroke-miterlimit="3" stroke-width="2.2858" style="-inkscape-stroke:none;paint-order:stroke markers fill"/>
 </g>
</svg>
