<?xml version="1.0" encoding="UTF-8" standalone="no"?>
<svg
   version="1.1"
   viewBox="0 0 22 22"
   id="svg1"
   sodipodi:docname="beacon.svg"
   inkscape:version="1.4.2 (ebf0e940d0, 2025-05-08)"
   xmlns:inkscape="http://www.inkscape.org/namespaces/inkscape"
   xmlns:sodipodi="http://sodipodi.sourceforge.net/DTD/sodipodi-0.dtd"
   xmlns="http://www.w3.org/2000/svg"
   xmlns:svg="http://www.w3.org/2000/svg">
  <defs
     id="defs1" />
  <sodipodi:namedview
     id="namedview1"
     pagecolor="#ffffff"
     bordercolor="#000000"
     borderopacity="0.25"
     inkscape:showpageshadow="2"
     inkscape:pageopacity="0.0"
     inkscape:pagecheckerboard="0"
     inkscape:deskcolor="#d1d1d1"
     inkscape:zoom="12.727922"
     inkscape:cx="-21.056069"
     inkscape:cy="21.448906"
     inkscape:window-width="1920"
     inkscape:window-height="1008"
     inkscape:window-x="0"
     inkscape:window-y="0"
     inkscape:window-maximized="1"
     inkscape:current-layer="svg1" />
  <path
     style="fill:#000000;stroke-width:0.0264418"
     d="m 2.9679026,19.561903 0.00824,-0.912218 0.076188,-0.140419 c 0.094693,-0.174551 0.2713277,-0.327177 0.4680073,-0.404446 l 0.1504026,-0.05908 h 7.4044865 7.404482 l 0.13756,0.06003 c 0.07567,0.03303 0.202728,0.119066 0.282363,0.191198 0.116647,0.105657 0.156087,0.164214 0.202793,0.301213 0.05397,0.158264 0.05799,0.229263 0.05799,1.023005 v 0.852952 H 11.060032 2.9596525 Z"
     id="path447" />
  <path
     style="fill:#000000;stroke-width:0.0294967"
     d="m 4.8884913,17.107109 c 0,-0.02497 0.090051,-0.4892 0.2001029,-1.031637 0.1100523,-0.542437 0.2282462,-1.125205 0.2626546,-1.29504 0.034406,-0.169824 0.1388615,-0.681442 0.232125,-1.136907 0.093261,-0.455464 0.2688547,-1.320777 0.3902028,-1.922917 C 6.4569388,9.3221264 6.7177668,8.0919553 6.7746304,7.942505 6.8580428,7.723282 6.9099342,7.6393995 7.0884475,7.4353448 7.3885519,7.0922784 7.7848052,6.8442501 8.2731092,6.6938249 l 0.2215428,-0.068242 2.280375,0.00131 c 1.254205,7.397e-4 2.454714,0.011762 2.667796,0.0247 0.340501,0.020584 0.417767,0.035127 0.637935,0.1204234 0.316988,0.1227984 0.502565,0.2375625 0.75913,0.4694341 0.437821,0.3956781 0.511853,0.5646011 0.7429,1.6951243 0.08575,0.4195796 0.197131,0.958673 0.247486,1.1979873 0.05037,0.23931 0.118231,0.574067 0.150793,0.743902 0.03256,0.169822 0.18713,0.934089 0.34347,1.698343 0.156347,0.764254 0.324608,1.59955 0.373935,1.856209 0.04933,0.256662 0.103306,0.521942 0.119966,0.589509 0.0167,0.06757 0.114847,0.546031 0.218196,1.063257 0.103349,0.517221 0.195048,0.968824 0.203769,1.003565 l 0.01584,0.06315 h -6.18388 c -5.6748071,0 -6.1838807,-0.0038 -6.1838807,-0.04539 z M 8.7591419,15.40503 c 0.066643,-0.37172 1.3064591,-6.5086446 1.3589431,-6.7265942 0.05235,-0.2174135 0.107839,-0.2948315 0.287327,-0.4008556 0.04261,-0.025175 0.06586,-0.056615 0.05165,-0.069892 -0.0141,-0.013345 -0.425648,-0.024112 -0.9143209,-0.024112 -0.9599647,0 -0.9849775,0.00339 -1.1403241,0.1587399 C 8.288874,8.4558176 8.2632971,8.528515 8.1733398,8.9937736 8.1009478,9.3682487 7.5122083,12.283049 6.9678,14.962418 c -0.091417,0.449874 -0.1132195,0.608416 -0.085864,0.624165 0.020175,0.01154 0.4425715,0.02126 0.9386896,0.02149 l 0.9020294,4.11e-4 z"
     id="path679" />
  <path
     style="fill:#000000;stroke-width:0.0294967"
     d="m 18.721538,11.429633 c -0.15459,-0.01447 -0.210104,-0.03377 -0.286694,-0.100274 l -0.095,-0.08244 v -0.573921 -0.573923 l 0.105389,-0.09002 0.105388,-0.09002 0.537735,-0.01855 c 0.68752,-0.02361 1.738531,-0.02058 2.193394,0.0061 l 0.353916,0.02081 0.10324,0.1081873 0.10324,0.108186 v 0.518355 c 0,0.467213 -0.0061,0.527209 -0.06122,0.608084 -0.115107,0.168691 -0.107059,0.167788 -1.550459,0.172673 -0.724482,0.0025 -1.403511,-0.0036 -1.508949,-0.01334 z"
     id="path681" />
  <path
     style="fill:#000000;stroke-width:0.0294967"
     d="M 16.634339,6.4111534 C 16.592188,6.3858654 16.372904,6.1997113 16.147037,5.9974842 L 15.736366,5.6298106 V 5.4598064 5.2898023 l 0.441665,-0.391419 c 0.242913,-0.2152874 0.721286,-0.6404312 1.063045,-0.9447808 0.34176,-0.3043472 0.659057,-0.5663313 0.7051,-0.5821872 0.173875,-0.059872 0.263837,-0.011988 0.692808,0.369535 0.224183,0.1993409 0.43988,0.4175213 0.479323,0.4848647 0.06836,0.1167139 0.06938,0.1268698 0.02195,0.2169612 -0.09372,0.1779886 -1.839888,1.7889477 -2.130015,1.9650771 -0.101592,0.061682 -0.276112,0.06322 -0.375911,0.00339 z"
     id="path683" />
  <path
     style="fill:#000000;stroke-width:0.0294967"
     d="m 10.414844,4.0442096 c -0.214616,-0.1185234 -0.20737,-0.067947 -0.209214,-1.4574192 -9.24e-4,-0.6890098 0.0098,-1.3132865 0.02367,-1.3872845 0.02126,-0.1132306 0.04541,-0.1477019 0.151878,-0.21754926 l 0.126515,-0.083023 h 0.567432 0.567434 l 0.121918,0.10526906 c 0.120704,0.1042287 0.122158,0.1079377 0.143743,0.3719531 0.01193,0.146684 0.01692,0.7682171 0.01106,1.3812047 l -0.01063,1.1145224 -0.122526,0.113615 -0.122526,0.1136151 -0.574847,-1.04e-4 c -0.515105,-9.06e-5 -0.585132,-0.00588 -0.673885,-0.054806 z"
     id="path685" />
  <path
     style="fill:#000000;stroke-width:0.0294967"
     d="M 4.1064651,5.5097242 C 3.5149554,4.978183 3.0336064,4.5230215 3.0098995,4.4728142 2.926704,4.2966124 2.9702433,4.2301895 3.4593283,3.7872106 3.9482397,3.3443947 4.0215667,3.3049427 4.2163004,3.3799313 4.2722268,3.4014194 4.7689957,3.833039 5.3611476,4.3745302 L 6.407193,5.3310819 v 0.1216674 c 0,0.1534245 -0.031825,0.1956994 -0.4150053,0.551231 C 5.5751172,6.3909569 5.4738682,6.4571401 5.2989279,6.4571401 H 5.1607822 Z"
     id="path687" />
  <path
     style="fill:#000000;stroke-width:0.0294967"
     d="M 0.73941268,11.429407 C 0.48552669,11.412216 0.47786881,11.409502 0.37523363,11.301882 L 0.27039437,11.191926 v -0.51044 -0.510438 l 0.0901591,-0.112733 c 0.0554491,-0.0693 0.1240881,-0.1193603 0.17821394,-0.1299013 0.1714238,-0.03343 1.61661189,-0.05415 2.31573119,-0.03318 l 0.7089813,0.02126 0.1200965,0.09828 0.1200964,0.09828 v 0.552471 0.552473 l -0.1254548,0.110969 -0.1254548,0.110969 -1.2770249,0.0036 c -0.7023647,0.002 -1.39372846,-0.0043 -1.53636467,-0.01403 z"
     id="path689" />
</svg>
