<?xml version="1.0" encoding="UTF-8"?>
<svg version="1.1" viewBox="0 0 22 22" xml:space="preserve" xmlns="http://www.w3.org/2000/svg"><g transform="matrix(.6875 0 0 .6875 -.66385 -11.117)" stroke-linecap="round" stroke-linejoin="round" stroke-miterlimit="3" stroke-width="1.4546"><path transform="scale(-1)" d="m-13.008-33.85a0.75008 0.75008 0 0 0-0.75 0.75v3a0.75008 0.75008 0 0 0 0.75 0.75h3a0.75008 0.75008 0 0 0 0.75-0.75v-3a0.75008 0.75008 0 0 0-0.75-0.75zm0.75 1.5h1.5v1.5h-1.5z" color="#000000" style="-inkscape-stroke:none;paint-order:stroke markers fill"/><path transform="scale(-1)" d="m-18.484-33.85a0.75008 0.75008 0 0 0-0.75 0.75v3a0.75008 0.75008 0 0 0 0.75 0.75h2.998a0.75008 0.75008 0 0 0 0.75-0.75v-3a0.75008 0.75008 0 0 0-0.75-0.75zm0.75 1.5h1.498v1.5h-1.498z" color="#000000" style="-inkscape-stroke:none;paint-order:stroke markers fill"/><path transform="scale(-1)" d="m-23.963-33.85a0.75008 0.75008 0 0 0-0.75 0.75v3a0.75008 0.75008 0 0 0 0.75 0.75h2.998a0.75008 0.75008 0 0 0 0.75-0.75v-3a0.75008 0.75008 0 0 0-0.75-0.75zm0.75 1.5h1.498v1.5h-1.498z" color="#000000" style="-inkscape-stroke:none;paint-order:stroke markers fill"/><path d="m8.1016 16.17c-1.2333 0-2.25 1.0299-2.25 2.2598v27.48c0 1.2299 1.0167 2.2598 2.25 2.2598h17.73c1.2333 0 2.248-1.0299 2.248-2.2598v-27.48c0-1.2299-1.0147-2.2598-2.248-2.2598zm0 2h17.73c0.15013 0 0.24805 0.09355 0.24805 0.25976v27.48c0 0.16621-0.09792 0.25977-0.24805 0.25977h-17.73c-0.15013 0-0.25-0.09355-0.25-0.25977v-27.48c0-0.16621 0.09987-0.25976 0.25-0.25976z" color="#000000" style="-inkscape-stroke:none;paint-order:stroke markers fill"/><path d="m10.262 19.865c-0.84166 0-1.293 0.74043-1.293 1.3691v4.7598c0 0.62871 0.45131 1.3711 1.293 1.3711h13.408c0.84166 0 1.293-0.74238 1.293-1.3711v-4.7598c0-0.62871-0.45131-1.3691-1.293-1.3691zm0.70703 2h11.994v3.5h-11.994z" color="#000000" style="-inkscape-stroke:none;paint-order:stroke markers fill"/><path transform="scale(-1)" d="m-13.008-39.209a0.75008 0.75008 0 0 0-0.75 0.75v3a0.75008 0.75008 0 0 0 0.75 0.75h3a0.75008 0.75008 0 0 0 0.75-0.75v-3a0.75008 0.75008 0 0 0-0.75-0.75zm0.75 1.5h1.5v1.5h-1.5z" color="#000000" style="-inkscape-stroke:none;paint-order:stroke markers fill"/><path transform="scale(-1)" d="m-18.484-39.209a0.75008 0.75008 0 0 0-0.75 0.75v3a0.75008 0.75008 0 0 0 0.75 0.75h2.998a0.75008 0.75008 0 0 0 0.75-0.75v-3a0.75008 0.75008 0 0 0-0.75-0.75zm0.75 1.5h1.498v1.5h-1.498z" color="#000000" style="-inkscape-stroke:none;paint-order:stroke markers fill"/><path transform="scale(-1)" d="m-23.963-39.209a0.75008 0.75008 0 0 0-0.75 0.75v3a0.75008 0.75008 0 0 0 0.75 0.75h2.998a0.75008 0.75008 0 0 0 0.75-0.75v-3a0.75008 0.75008 0 0 0-0.75-0.75zm0.75 1.5h1.498v1.5h-1.498z" color="#000000" style="-inkscape-stroke:none;paint-order:stroke markers fill"/><path transform="scale(-1)" d="m-13.008-44.568a0.75008 0.75008 0 0 0-0.75 0.75v3a0.75008 0.75008 0 0 0 0.75 0.75h3a0.75008 0.75008 0 0 0 0.75-0.75v-3a0.75008 0.75008 0 0 0-0.75-0.75zm0.75 1.5h1.5v1.5h-1.5z" color="#000000" style="-inkscape-stroke:none;paint-order:stroke markers fill"/><path transform="scale(-1)" d="m-18.484-44.568a0.75008 0.75008 0 0 0-0.75 0.75v3a0.75008 0.75008 0 0 0 0.75 0.75h2.998a0.75008 0.75008 0 0 0 0.75-0.75v-3a0.75008 0.75008 0 0 0-0.75-0.75zm0.75 1.5h1.498v1.5h-1.498z" color="#000000" style="-inkscape-stroke:none;paint-order:stroke markers fill"/><path transform="scale(-1)" d="m-23.963-44.568a0.75008 0.75008 0 0 0-0.75 0.75v3a0.75008 0.75008 0 0 0 0.75 0.75h2.998a0.75008 0.75008 0 0 0 0.75-0.75v-3a0.75008 0.75008 0 0 0-0.75-0.75zm0.75 1.5h1.498v1.5h-1.498z" color="#000000" style="-inkscape-stroke:none;paint-order:stroke markers fill"/></g></svg>
