<?xml version="1.0" encoding="UTF-8"?>
<svg version="1.1" viewBox="0 0 22 22" xmlns="http://www.w3.org/2000/svg">
 <g transform="matrix(.68733 0 0 .68767 .0026849 -.0026862)" stroke-width="1.4546">
  <path d="m16 0.0039062c-8.8239 0-16.004 7.1765-16.004 15.996 0 8.8195 7.18 15.996 16.004 15.996 8.8239 0 16.004-7.1766 16.004-15.996 0-8.8195-7.18-15.996-16.004-15.996zm0 2.5c7.4737 0 13.504 6.0285 13.504 13.496 0 7.4676-6.0302 13.496-13.504 13.496-7.4737 0-13.504-6.0285-13.504-13.496 0-7.4676 6.0302-13.496 13.504-13.496z" color="#000000" style="-inkscape-stroke:none"/>
  <path d="m15.83 3.5293a1.25 1.25 0 0 0-1.2324 1.2656l0.1582 12.076 5.9902 5.9512a1.25 1.25 0 0 0 1.7676-0.0059 1.25 1.25 0 0 0-0.0059-1.7676l-5.2656-5.2304-0.14453-11.057a1.25 1.25 0 0 0-1.2676-1.2324z" color="#000000" stroke-linecap="round" stroke-miterlimit="2" style="-inkscape-stroke:none"/>
 </g>
</svg>
