<?xml version="1.0" encoding="UTF-8"?>
<svg version="1.1" viewBox="0 0 22 22" xmlns="http://www.w3.org/2000/svg">
 <g transform="translate(-3.5609 -29.639)">
  <path d="m13.674 33.006v7.7422a0.75598 0.75598 0 0 0 0.30859 0.60938l4.584 3.3691 0.89453-1.2188-4.2754-3.1426v-7.3594z" color="#000000" stroke-dashoffset="2.1" stroke-linejoin="round" stroke-miterlimit="3" style="-inkscape-stroke:none;paint-order:stroke markers fill"/>
  <path d="m14.561 29.639c-6.0649 0-11 4.9351-11 11 0 6.0649 4.935 11 11 11 6.0649 0 11-4.9351 11-11 0-6.0649-4.935-11-11-11zm0 1.7192c5.1369 0 9.2817 4.1456 9.2817 9.2808 0 5.1352-4.1447 9.2808-9.2817 9.2808-5.1369 0-9.2817-4.1456-9.2817-9.2808 0-5.1352 4.1447-9.2808 9.2817-9.2808z" color="#000000" style="-inkscape-stroke:none"/>
 </g>
</svg>
