<?xml version="1.0" encoding="UTF-8" standalone="no"?>
<!-- Created with Inkscape (http://www.inkscape.org/) -->

<svg
   xmlns:svg="http://www.w3.org/2000/svg"
   xmlns="http://www.w3.org/2000/svg"
   version="1.1"
   width="24"
   height="20"
   id="svg2822"
   style="display:inline">
  <defs
     id="defs2824" />
  <g
     id="layer3">
    <path
       d="m 1.5712383,9.8268975 c 0,0 -0.7932741,0.3271755 -0.66577891,0.8255655 C 2.1393698,14.55531 22.467821,14.268455 23.142477,10.439414 23.22361,9.8946618 22.450067,9.6404794 22.450067,9.6404794 18.783223,13.216869 4.9007592,12.694871 1.5712383,9.8268975 z"
       id="path3624"
       style="fill:#000000;fill-opacity:1;stroke:#ffffff;stroke-width:0.30000001;stroke-linecap:butt;stroke-linejoin:miter;stroke-miterlimit:4;stroke-opacity:1;stroke-dasharray:none" />
  </g>
  <g
     id="layer5">
    <path
       d="m 11.073849,11.889255 0.19466,-4.888028 1.38423,4.4e-6 0.302768,5.0394496 -1.881658,-0.151426 z"
       id="path3630"
       style="fill:#000000;fill-opacity:1;stroke:#ffffff;stroke-width:0.30000001;stroke-linecap:butt;stroke-linejoin:miter;stroke-miterlimit:4;stroke-opacity:1;stroke-dasharray:none" />
  </g>
  <g
     id="layer4">
    <path
       d="m 6.834633,6.095 c 0,0 -0.2529128,1.0980253 0.3460574,1.1873918 C 8.1341396,7.4246467 15.787512,7.4379564 16.913554,7.2391348 17.546823,7.1273206 17.259611,6.095 17.259611,6.095 l -10.424978,0 z"
       id="path3627"
       style="fill:#000000;fill-opacity:1;stroke:#ffffff;stroke-width:0.30000001;stroke-linecap:butt;stroke-linejoin:miter;stroke-miterlimit:4;stroke-opacity:1;stroke-dasharray:none" />
  </g>
  <g
     id="layer2">
    <path
       d="m 14.061252,12.689747 a 2.0106525,2.2503331 0 1 1 -0.0026,-0.113675"
       transform="translate(-0.10652463,0.34620506)"
       id="path3619"
       style="fill:#000000;fill-opacity:1;stroke:#ffffff;stroke-width:0.30000001;stroke-linecap:round;stroke-linejoin:round;stroke-miterlimit:4;stroke-opacity:1;stroke-dasharray:none;stroke-dashoffset:0" />
  </g>
</svg>
