<?xml version="1.0" encoding="UTF-8"?>
<svg version="1.1" viewBox="0 0 22 22" xmlns="http://www.w3.org/2000/svg">
 <g transform="translate(-66.531 -29.388)">
  <path d="m70.745 33.381c-1.6281 0-2.9635 1.34-2.9635 2.9689v12.069c0 1.6289 1.3353 2.9702 2.9635 2.9702h7.5219c1.6281 0 2.9635-1.3413 2.9635-2.9702v-3.5933a0.85938 0.85938 0 0 0-0.85938-0.85937 0.85938 0.85938 0 0 0-0.85937 0.85937v3.5933c0 0.70916-0.54179 1.2515-1.2448 1.2515h-7.5219c-0.70296 0-1.2448-0.54229-1.2448-1.2515v-12.069c0-0.70916 0.54179-1.2502 1.2448-1.2502h1.7685a0.85938 0.85938 0 0 0 0.85938-0.85938 0.85938 0.85938 0 0 0-0.85938-0.85937z" color="#000000" stroke-linecap="round" stroke-linejoin="round" stroke-miterlimit="3" style="-inkscape-stroke:none;paint-order:stroke markers fill"/>
  <g transform="matrix(.6875 0 0 .6875 297.81 -54.791)" stroke-width="1.4546">
   <path d="m-317.46 130.78c-1.2382 0.0105-2.2869 0.80129-2.6847 1.9034l-7.2358 0.0767c-0.55509 4e-3 -1.0015 0.45626-0.99716 1.0114 4e-3 0.55509 0.45627 1.0015 1.0114 0.99716l7.2386-0.0739c0.41619 1.09 1.4736 1.8613 2.7074 1.8551 1.5891-9e-3 2.8706-1.3061 2.8636-2.8977-7e-3 -1.5916-1.2973-2.8762-2.8864-2.8722z"/>
   <path d="m-323.25 122.44c-2.9829 0-5.3844 2.6427-5.3844 5.926v10.601c0 3.2834 2.4015 5.9277 5.3844 5.9277h11.648c2.9829 0 5.3844-2.6444 5.3844-5.9277v-10.601c0-3.2833-2.4015-5.926-5.3844-5.926zm5.7699 1.6006c5.3286-6e-3 9.6396 4.2756 9.6615 9.5851 0.022 5.3096-4.2525 9.6334-9.5533 9.6631-5.3009 0.0295-9.6242-4.2468-9.6615-9.5562-0.0373-5.3095 4.2248-9.6468 9.5533-9.692z" color="#000000" stroke-width="0"/>
  </g>
 </g>
</svg>
