<?xml version="1.0" encoding="UTF-8"?>
<svg version="1.1" width="26" height="26" viewBox="0 0 26 26" xmlns="http://www.w3.org/2000/svg">
 <g transform="translate(0,-13)">
  <g fill="#fff">
   <g stroke="#000">
    <circle cx="-43.354" cy="29.131" r="0"/>
    <circle cx="-43.421" cy="29.131" r="0"/>
    <circle cx="-43.421" cy="29.131" r="0"/>
   </g>
   <path d="m12.545 15.345a24.571 24.273 0 0 1 12.74 21.28l-24.571-0.0063z" stroke-miterlimit="3" stroke-width="0" style="paint-order:stroke markers fill"/>
  </g>
  <g fill="none" stroke-miterlimit="3">
   <path d="m11.974 17.199a21.057 21.277 0 0 1 11.034 19.02" stroke="#5f8dd3" stroke-width="4.1" style="paint-order:stroke markers fill"/>
   <path d="m8.6188 22.956a14.393 14.428 0 0 1 7.7709 13.241" stroke="#5f8dd3" stroke-linejoin="round" stroke-width="2.7" style="paint-order:stroke markers fill"/>
   <path d="m12.548 15.346a24.571 24.273 0 0 1 12.737 21.309l-24.571-0.035804z" stroke="#fff" stroke-linecap="round" stroke-linejoin="round" style="paint-order:stroke markers fill"/>
  </g>
  <path transform="matrix(1.4311 0 0 1.4201 25.515 17.172)" d="m-10.232 12.868-5.7005-2e-3 2.8519-4.9358z" fill="#5f8dd3" fill-rule="evenodd" stroke="#5f8dd3" stroke-linecap="round" stroke-linejoin="round" stroke-miterlimit="2" stroke-width=".42088"/>
 </g>
</svg>
