<?xml version="1.0" encoding="UTF-8"?>
<svg version="1.1" viewBox="0 0 22 22" xmlns="http://www.w3.org/2000/svg">
 <g transform="matrix(.6875 0 0 .6875 56.202 2.9663)" stroke-width="1.4546">
  <path d="m-78.259-1.4326c-2.0524 0-3.4898 1.9031-3.4898 3.9424v0.00482l0.01236 1.0761v17.859c0 1.7876 1.3867 3.3537 3.1978 3.3537h25.592c1.8111 0 3.1978-1.5659 3.1978-3.3537v-17.866c0-1.7876-1.3867-3.3561-3.1978-3.3561h-14.22c-0.57832-0.89021-1.4303-1.6599-2.6234-1.6599zm0 2.7432h8.4687c0.20476 0 0.4968 0.16115 0.6637 0.69727l0.30168 0.96267h15.878c0.21229 0 0.45373 0.16791 0.45372 0.61283v17.866c0 0.4449-0.24144 0.61042-0.45372 0.61042h-25.592c-0.2123 0-0.45614-0.16677-0.45614-0.61042v-17.873l-0.0099-1.0737c0.0025-0.82928 0.50358-1.1919 0.74574-1.1919z" color="#000000" style="-inkscape-stroke:none"/>
 </g>
</svg>
