<?xml version="1.0" encoding="UTF-8"?>
<svg version="1.1" viewBox="0 0 22 22" xmlns="http://www.w3.org/2000/svg">
 <g transform="matrix(.68463 0 0 .68463 -.044332 -.028492)">
  <path d="m26.941 18.354h-21.621l-3.0449 13.822h27.713l-3.0469-13.822m0.55859 11.822h-22.736l2.1641-9.8223 18.406-1e-6z" color="#000000" stroke-linecap="square" stroke-miterlimit="3" stroke-width="1.4606" style="-inkscape-stroke:none;paint-order:stroke markers fill"/>
  <g transform="matrix(1.1258 0 0 1.1176 211.6 38.749)" stroke-linecap="round" stroke-linejoin="round" stroke-width="1.3022">
   <path d="m-170.99-14.148a0.57948 0.57948 0 0 0-0.43945 0.06836l-5 3.0391a0.57948 0.57948 0 0 0-0.19531 0.79688 0.57948 0.57948 0 0 0 0.79687 0.19531l5-3.041a0.57948 0.57948 0 0 0 0.19531-0.79688 0.57948 0.57948 0 0 0-0.35742-0.26172z" color="#000000" style="-inkscape-stroke:none"/>
   <path d="m-176.26-14.148a0.57948 0.57948 0 0 0-0.35742 0.26172 0.57948 0.57948 0 0 0 0.19531 0.79688l5 3.041a0.57948 0.57948 0 0 0 0.79687-0.19531 0.57948 0.57948 0 0 0-0.19531-0.79688l-5-3.0391a0.57948 0.57948 0 0 0-0.43945-0.06836z" color="#000000" style="-inkscape-stroke:none"/>
  </g>
  <path d="m16.116 0.041621c-4.5393 0-8.2181 3.6854-8.2181 8.2326 0.13242 4.4687 6.3326 9.4525 8.234 14.638 1.9013-5.1853 8.1015-10.169 8.234-14.638 0-4.5472-3.6788-8.2326-8.2181-8.2326-0.0061 0-0.01057-1.01e-5 -0.01577 0-0.0061-1.01e-5 -0.01064 0-0.01578 0zm0.01541 3.0003c2.5008 0 4.5285 2.0308 4.5285 4.5359-1e-6 2.5052-2.0276 4.536-4.5285 4.536-2.5008 0-4.526-2.0308-4.526-4.536 1e-5 -2.5051 2.0253-4.5359 4.526-4.5359z" stroke-width="0"/>
 </g>
</svg>
