<?xml version="1.0" encoding="UTF-8" standalone="no"?>
<svg
   version="1.1"
   viewBox="0 0 32 32"
   id="svg2"
   sodipodi:docname="globe.svg"
   width="32"
   height="32"
   inkscape:version="1.2.2 (732a01da63, 2022-12-09)"
   xmlns:inkscape="http://www.inkscape.org/namespaces/inkscape"
   xmlns:sodipodi="http://sodipodi.sourceforge.net/DTD/sodipodi-0.dtd"
   xmlns="http://www.w3.org/2000/svg"
   xmlns:svg="http://www.w3.org/2000/svg">
  <defs
     id="defs6" />
  <sodipodi:namedview
     id="namedview4"
     pagecolor="#ff00ff"
     bordercolor="#666666"
     borderopacity="1.0"
     inkscape:showpageshadow="2"
     inkscape:pageopacity="0"
     inkscape:pagecheckerboard="true"
     inkscape:deskcolor="#d1d1d1"
     showgrid="false"
     inkscape:zoom="4.5384616"
     inkscape:cx="-84.499998"
     inkscape:cy="20.271186"
     inkscape:window-width="2560"
     inkscape:window-height="1417"
     inkscape:window-x="-8"
     inkscape:window-y="-8"
     inkscape:window-maximized="1"
     inkscape:current-layer="layer1" />
  <g
     inkscape:groupmode="layer"
     id="layer1"
     inkscape:label="Image">
    <g
       id="g9116"
       transform="translate(-0.13148788,-0.10917566)">
      <path
         id="path7835"
         style="fill:none;stroke:#000000;stroke-width:2;stroke-linecap:square;stroke-linejoin:miter;stroke-miterlimit:3;stroke-dasharray:none;paint-order:stroke markers fill"
         d="M 26.138436,19.353735 H 6.1245102 l -2.6050242,11.823 h 25.224001 z"
         sodipodi:nodetypes="ccccc" />
      <g
         id="g7839"
         transform="matrix(1.1258097,0,0,1.1175882,211.60019,38.748896)"
         style="stroke-width:0.891511">
        <path
           style="fill:none;stroke:#000000;stroke-width:1.15896;stroke-linecap:round;stroke-linejoin:round;stroke-miterlimit:4;stroke-dasharray:none;stroke-dashoffset:0"
           d="m -176.1257,-10.544927 5.00141,-3.040073"
           id="path2167" />
        <path
           style="fill:none;stroke:#000000;stroke-width:1.15896;stroke-linecap:round;stroke-linejoin:round;stroke-miterlimit:4;stroke-dasharray:none;stroke-dashoffset:0"
           d="M -171.12429,-10.544927 -176.1257,-13.585"
           id="path7774" />
      </g>
      <path
         d="m 16.115658,0.0416208 c -4.539317,0 -8.2181403,3.6854025 -8.2181403,8.2326381 0.1324176,4.4686771 6.3326023,9.4525001 8.2339553,14.6378411 1.901266,-5.185341 8.101549,-10.168609 8.233966,-14.6378411 0,-4.5472356 -3.678828,-8.2326381 -8.218141,-8.2326381 -0.0061,0 -0.01057,-1.01e-5 -0.01577,0 -0.0061,-1.01e-5 -0.01064,0 -0.01578,0 z m 0.01541,3.0003214 c 2.500773,0 4.528471,2.0307908 4.528471,4.5358932 -10e-7,2.5052136 -2.0276,4.5360046 -4.528471,4.5360046 -2.50078,0 -4.52604,-2.030791 -4.52604,-4.5360046 10e-6,-2.5051024 2.02526,-4.5358932 4.52604,-4.5358932 z"
         stroke-width="0"
         id="path3553"
         style="fill:#000000" />
    </g>
  </g>
</svg>
