<?xml version="1.0" encoding="UTF-8"?>
<svg version="1.1" viewBox="0 0 24 24" xmlns="http://www.w3.org/2000/svg">
 <g transform="translate(-482.75 -60.604)">
  <path d="m494.94 60.709c-3.4511 0-6.248 2.7877-6.248 6.2285 0.0533 1.791 1.4005 3.6915 2.8711 5.666 0.14655 0.19676 0.29357 0.3975 0.44141 0.5957l-3.1465-0.01367-4.6367 9.5059 15.986 1.8066 5.0644-11.244-7.3926-0.03125c0.16442-0.2205 0.32939-0.44143 0.49218-0.66016 1.4584-1.9593 2.7869-3.8467 2.8398-5.625 0-3.4408-2.7969-6.2285-6.248-6.2285h-0.0117zm0.0117 2.2695c1.9013 0 3.4434 1.5361 3.4434 3.4316 0 1.8956-1.542 3.4336-3.4434 3.4336-1.9013 0-3.4414-1.538-3.4414-3.4336 1e-5 -1.8955 1.5402-3.4316 3.4414-3.4316zm-5.0332 11.912 3.3203 0.01367c0.70336 1.023 1.3263 2.06 1.7129 3.1094 0.38471-1.0442 1.004-2.0776 1.7031-3.0957l5.9902 0.02539-3.4785 7.7246-12.359-1.3965z" color="#000000" stroke-linecap="square" stroke-miterlimit="3" style="-inkscape-stroke:none;paint-order:stroke markers fill"/>
 </g>
</svg>
