<?xml version="1.0" encoding="UTF-8"?>
<svg version="1.1" viewBox="0 0 24 24" xmlns="http://www.w3.org/2000/svg">
 <g transform="translate(-20.525 -14.895)">
  <path d="m37.466 37.875-14.174-1.6018 3.874-7.9435 14.571 0.0602z" color="#000000" fill="none" stroke="#000" stroke-linecap="square" stroke-miterlimit="3" stroke-width="1.7008" style="paint-order:stroke markers fill"/>
  <path d="m32.718 15c-3.4511 0-6.2481 2.7887-6.2481 6.2294 0.0533 1.791 1.4009 3.6914 2.8715 5.6658 1.3059 1.7532 2.7087 3.5649 3.3886 5.4104 0.68533-1.8602 2.1053-3.6861 3.42-5.4525 1.4584-1.9594 2.7872-3.8454 2.8402-5.6238 0-3.4408-2.7969-6.2294-6.2481-6.2294h-0.012-0.012zm0.0117 2.2703c1.9013 0 3.4429 1.5367 3.4429 3.4322 0 1.8956-1.5416 3.4323-3.4429 3.4323-1.9013 0-3.441-1.5367-3.441-3.4323 1e-5 -1.8956 1.5398-3.4322 3.441-3.4322z" stroke-width="0"/>
 </g>
</svg>
