<?xml version="1.0" encoding="UTF-8"?>
<svg version="1.1" width="26" height="26" viewBox="0 0 26 26" xmlns="http://www.w3.org/2000/svg">
 <g transform="matrix(.79907 0 0 .80812 .21495 .0026437)">
  <path d="m13.421 22.15c-0.24108-6.45e-4 -0.46782 0.11441-0.60966 0.30935-0.24446 0.33545-0.17066 0.80557 0.16484 1.05l1.7657 1.2871-2.1677 1.3186c-0.35389 0.21594-0.46604 0.67769-0.25064 1.0319 0.21594 0.35389 0.67769 0.46604 1.0319 0.25064l2.7028-1.6415 2.3596 1.7206c0.33545 0.24446 0.80557 0.17066 1.05-0.16484 0.24446-0.33545 0.17066-0.80557-0.16484-1.05l-1.8538-1.3525 1.6889-1.0251c0.35389-0.21594 0.46604-0.67769 0.25064-1.0319-0.13859-0.2282-0.38787-0.36574-0.65483-0.36128-0.13307 0.0021-0.2632 0.03946-0.37709 0.10833l-2.2241 1.3525-2.2715-1.6574c-0.12788-0.09335-0.28198-0.14393-0.44031-0.14451z" stroke-width="1.2444"/>
  <path d="m15.984-0.0039062c-4.4771 0-8.1055 3.6399-8.1055 8.1309 0.1306 4.4135 6.2458 9.3357 8.1211 14.457 1.8752-5.1213 7.9905-10.043 8.1211-14.457 0-4.491-3.6284-8.1309-8.1055-8.1309-0.0052 0-0.01042-9.96e-6 -0.01563 0-0.0052-9.96e-6 -0.01042 0-0.01563 0zm0.01511 2.9632c2.4665 0 4.4664 2.0057 4.4664 4.4799-1e-6 2.4742-1.9998 4.4799-4.4664 4.4799-2.4665 0-4.464-2.0057-4.464-4.4799 7e-6 -2.4742 1.9975-4.4799 4.464-4.4799z" stroke-width="0"/>
  <path d="m20 18.891h5.5509l2.5995 12.409h-24.301l2.5995-12.409 5.5509-1.3e-5" fill="none" stroke="#000" stroke-linecap="round" stroke-linejoin="round" stroke-miterlimit="3" stroke-width="1.7422" style="paint-order:stroke markers fill"/>
 </g>
 <rect x="19.51" y="55.25" width="21.84" height="14.432" rx="0" ry="0" fill="none" stroke-miterlimit="3" stroke-width="0" style="paint-order:stroke markers fill"/>
</svg>
