<?xml version="1.0" encoding="UTF-8"?>
<svg version="1.1" viewBox="0 0 22 22" xmlns="http://www.w3.org/2000/svg">
 <g transform="matrix(.6875 0 0 .6875 -94.613 -85.559)">
  <path d="m169.62 140.45a16 16 0 0 1-16 16 16 16 0 0 1-16-16 16 16 0 0 1 16-16 16 16 0 0 1 16 16z" fill="#f00" stroke-width="2.5839"/>
  <path d="m166.25 140.45a12.632 12.632 0 0 1-12.632 12.632 12.632 12.632 0 0 1-12.632-12.632 12.632 12.632 0 0 1 12.632-12.632 12.632 12.632 0 0 1 12.632 12.632z" fill="#fff" stroke-width="2.0399"/>
  <g stroke-width="1.4546">
   <path d="m163.47 128.48-21.818 21.818 2.123 2.1211 21.816-21.818z" color="#000000" style="-inkscape-stroke:none"/>
   <path d="m143.42 128.83-1.4141 1.4141 21.818 21.818 1.4141-1.4141z" color="#000000" fill="#fff" style="-inkscape-stroke:none"/>
   <g fill="#f00">
    <g stroke-linecap="round">
     <path d="m155.3 146.19a1 1 0 0 0-1 1v1.6836a1 1 0 0 0 1 1 1 1 0 0 0 1-1v-1.6836a1 1 0 0 0-1-1z" color="#000000" style="-inkscape-stroke:none"/>
     <path d="m160.36 141.13a1 1 0 0 0-1 1 1 1 0 0 0 1 1h1.6856a1 1 0 0 0 1-1 1 1 0 0 0-1-1z" color="#000000" style="-inkscape-stroke:none"/>
     <path d="m151.94 131.03a1 1 0 0 0-1 1v1.6856a1 1 0 0 0 1 1 1 1 0 0 0 1-1v-1.6856a1 1 0 0 0-1-1z" color="#000000" style="-inkscape-stroke:none"/>
     <path d="m145.2 137.77a1 1 0 0 0-1 1 1 1 0 0 0 1 1h1.6855a1 1 0 0 0 1-1 1 1 0 0 0-1-1z" color="#000000" style="-inkscape-stroke:none"/>
     <path d="m146.88 132.71a1 1 0 0 0-0.70703 0.29297 1 1 0 0 0 0 1.4141l1.6836 1.6836a1 1 0 0 0 1.4141 0 1 1 0 0 0 0-1.4141l-1.6836-1.6836a1 1 0 0 0-0.70703-0.29297z" color="#000000" stroke-linejoin="round" style="-inkscape-stroke:none"/>
     <path d="m158.67 144.5a1 1 0 0 0-0.70703 0.29297 1 1 0 0 0 0 1.4141l1.6836 1.6836a1 1 0 0 0 1.4141 0 1 1 0 0 0 0-1.4141l-1.6836-1.6836a1 1 0 0 0-0.70704-0.29297z" color="#000000" stroke-linejoin="round" style="-inkscape-stroke:none"/>
    </g>
    <path d="m153.62 124.45c-8.8366 0-16 7.1634-16 16s7.1634 16 16 16 16-7.1634 16-16-7.1634-16-16-16zm0 3.3684c6.9762 0 12.632 5.6554 12.632 12.632 0 6.9762-5.6553 12.632-12.632 12.632-6.9762 0-12.632-5.6554-12.632-12.632 0-6.9762 5.6554-12.632 12.632-12.632z"/>
   </g>
  </g>
 </g>
</svg>
