<?xml version="1.0" encoding="UTF-8"?>
<svg version="1.1" viewBox="0 0 22 22" xmlns="http://www.w3.org/2000/svg">
 <g transform="translate(-563.25 -120.15)">
  <path d="m585.25 131.15a11 11 0 0 1-11 11 11 11 0 0 1-11-11 11 11 0 0 1 11-11 11 11 0 0 1 11 11z" fill="#f00" stroke-width="1.7765"/>
  <path d="m582.93 131.15a8.6845 8.6845 0 0 1-8.6845 8.6845 8.6845 8.6845 0 0 1-8.6845-8.6845 8.6845 8.6845 0 0 1 8.6845-8.6845 8.6845 8.6845 0 0 1 8.6845 8.6845z" fill="#fff" stroke-width="1.4024"/>
  <g transform="matrix(.6875 0 0 .6875 563.25 120.15)" stroke-linecap="round" stroke-linejoin="round" stroke-width="1.4546">
   <path d="m12.631 5.1445c-4.126 0-7.4863 3.3603-7.4863 7.4863s3.3603 7.4883 7.4863 7.4883 7.4883-3.3623 7.4883-7.4883-3.3623-7.4863-7.4883-7.4863zm0 1.5c3.3153 0 5.9883 2.671 5.9883 5.9863s-2.673 5.9883-5.9883 5.9883-5.9863-2.673-5.9863-5.9883 2.671-5.9863 5.9863-5.9863z" color="#000000" style="-inkscape-stroke:none"/>
  </g>
  <g>
   <path d="m573.67 135.2h1.1579v1.1579h-1.1579z"/>
   <path d="m575.98 134.04h1.1579v2.3158h-1.1579z"/>
   <path d="m578.3 132.88h1.1579v3.4737h-1.1579z"/>
  </g>
  <path d="m571.37 125.55v3.5039l1.6914 1.8457 0.83594-0.76562-1.3945-1.5215v-3.0625z" color="#000000" stroke-miterlimit="3" style="-inkscape-stroke:none;paint-order:stroke fill markers"/>
 </g>
</svg>
