<?xml version="1.0" encoding="UTF-8"?>
<svg version="1.1" viewBox="0 0 22 22" xmlns="http://www.w3.org/2000/svg">
 <g transform="translate(-563.25 -120.15)">
  <path d="m585.25 131.15a11 11 0 0 1-11 11 11 11 0 0 1-11-11 11 11 0 0 1 11-11 11 11 0 0 1 11 11z" fill="#f00" stroke-width="1.7765"/>
  <path d="m582.93 131.15a8.6845 8.6845 0 0 1-8.6845 8.6845 8.6845 8.6845 0 0 1-8.6845-8.6845 8.6845 8.6845 0 0 1 8.6845-8.6845 8.6845 8.6845 0 0 1 8.6845 8.6845z" fill="#fff" stroke-width="1.4024"/>
  <g>
   <path d="m571.93 123.68c-2.8366 0-5.1468 2.3102-5.1468 5.1468 0 2.8366 2.3102 5.1482 5.1468 5.1482 2.8366 0 5.1482-2.3116 5.1482-5.1482 0-2.8366-2.3116-5.1468-5.1482-5.1468zm0 1.0312c2.2793 0 4.117 1.8363 4.117 4.1156 0 2.2793-1.8377 4.117-4.117 4.117s-4.1156-1.8377-4.1156-4.117c0-2.2793 1.8363-4.1156 4.1156-4.1156z" color="#000000" stroke-linecap="round" stroke-linejoin="round" style="-inkscape-stroke:none"/>
   <path d="m573.67 135.2h1.1579v1.1579h-1.1579z"/>
   <path d="m575.98 134.04h1.1579v2.3158h-1.1579z"/>
   <path d="m578.3 132.88h1.1579v3.4737h-1.1579z"/>
  </g>
  <path d="m571.37 125.48 2e-5 3.5664 1.6914 1.8457 0.83594-0.76562-1.3945-1.5215-2e-5 -3.125z" color="#000000" stroke-miterlimit="3" style="-inkscape-stroke:none;paint-order:stroke fill markers"/>
 </g>
</svg>
