<?xml version="1.0" encoding="UTF-8"?>
<svg version="1.1" viewBox="0 0 22 22" xmlns="http://www.w3.org/2000/svg">
 <g transform="matrix(.6875 0 0 .6875 3.3579e-6 0)">
  <path d="m32 16a16 16 0 0 1-16 16 16 16 0 0 1-16-16 16 16 0 0 1 16-16 16 16 0 0 1 16 16z" fill="#f00" stroke-width="2.584"/>
  <path d="m28.632 16a12.632 12.632 0 0 1-12.632 12.632 12.632 12.632 0 0 1-12.632-12.632 12.632 12.632 0 0 1 12.632-12.632 12.632 12.632 0 0 1 12.632 12.632z" fill="#fff" stroke-width="2.0399"/>
  <g stroke-width="1.4546">
   <g stroke-linecap="round" stroke-linejoin="round">
    <path d="m19.368 12.632a6.7368 6.7368 0 0 1-6.7368 6.7368 6.7368 6.7368 0 0 1-6.7368-6.7368 6.7368 6.7368 0 0 1 6.7368-6.7368 6.7368 6.7368 0 0 1 6.7368 6.7368z" color="#000000" fill="#fff" style="-inkscape-stroke:none"/>
    <path d="m12.631 5.1445c-4.126 0-7.4863 3.3603-7.4863 7.4863 0 4.126 3.3603 7.4883 7.4863 7.4883 4.126 0 7.4883-3.3623 7.4883-7.4883 0-4.126-3.3623-7.4863-7.4883-7.4863zm0 1.5c3.3153 0 5.9883 2.671 5.9883 5.9863 0 3.3153-2.673 5.9883-5.9883 5.9883-3.3153 0-5.9863-2.673-5.9863-5.9883 0-3.3153 2.671-5.9863 5.9863-5.9863z" color="#000000" style="-inkscape-stroke:none"/>
   </g>
   <path d="m12.631 8.5137a0.75 0.75 0 0 0-0.75 0.75v3.3672a0.75008 0.75008 0 0 0 0.19727 0.50781l1.7383 1.8945a0.75 0.75 0 0 0 1.0586 0.04687 0.75 0.75 0 0 0 0.04687-1.0605l-1.541-1.6797v-3.0762a0.75 0.75 0 0 0-0.75-0.75z" color="#000000" stroke-linecap="round" stroke-linejoin="round" style="-inkscape-stroke:none"/>
   <path d="m15.158 21.895h1.6842v1.6842h-1.6842z"/>
   <path d="m18.526 20.211h1.6842v3.3684h-1.6842z"/>
   <path d="m21.895 18.526h1.6842v5.0526h-1.6842z"/>
  </g>
 </g>
</svg>
