<?xml version="1.0" encoding="UTF-8"?>
<svg version="1.1" viewBox="0 0 22 22" xmlns="http://www.w3.org/2000/svg">
 <g transform="translate(-622.26 -120.15)">
  <path d="m644.26 131.15a11 11 0 0 1-11 11 11 11 0 0 1-11-11 11 11 0 0 1 11-11 11 11 0 0 1 11 11z" fill="#f00" stroke-width="1.7764"/>
  <path d="m641.94 131.15a8.6845 8.6845 0 0 1-8.6845 8.6845 8.6845 8.6845 0 0 1-8.6845-8.6845 8.6845 8.6845 0 0 1 8.6845-8.6845 8.6845 8.6845 0 0 1 8.6845 8.6845z" fill="#fff" stroke-width="1.4024"/>
  <path d="m638.63 124.32-5.6055 5.6074 1.459 1.459 5.6055-5.6074c-0.42685-0.5421-0.91688-1.0321-1.459-1.459zm-6.5781 6.5781-5.6113 5.6113c0.4271 0.54242 0.9165 1.0339 1.459 1.4609l5.6113-5.6133z" style="-inkscape-stroke:none"/>
  <g fill="#f00" stroke-linecap="round">
   <path d="m634.42 135.09a0.6875 0.6875 0 0 0-0.6875 0.6875v1.1575a0.6875 0.6875 0 0 0 0.6875 0.6875 0.6875 0.6875 0 0 0 0.6875-0.6875v-1.1575a0.6875 0.6875 0 0 0-0.6875-0.6875z" color="#000000" style="-inkscape-stroke:none"/>
   <path d="m637.89 131.61a0.6875 0.6875 0 0 0-0.6875 0.6875 0.6875 0.6875 0 0 0 0.6875 0.6875h1.1588a0.6875 0.6875 0 0 0 0.6875-0.6875 0.6875 0.6875 0 0 0-0.6875-0.6875z" color="#000000" style="-inkscape-stroke:none"/>
   <path d="m632.11 124.67a0.6875 0.6875 0 0 0-0.6875 0.6875v1.1588a0.6875 0.6875 0 0 0 0.6875 0.6875 0.6875 0.6875 0 0 0 0.6875-0.6875v-1.1588a0.6875 0.6875 0 0 0-0.6875-0.6875z" color="#000000" style="-inkscape-stroke:none"/>
   <path d="m627.47 129.3a0.6875 0.6875 0 0 0-0.6875 0.6875 0.6875 0.6875 0 0 0 0.6875 0.6875h1.1588a0.6875 0.6875 0 0 0 0.6875-0.6875 0.6875 0.6875 0 0 0-0.6875-0.6875z" color="#000000" style="-inkscape-stroke:none"/>
   <path d="m628.63 125.82a0.6875 0.6875 0 0 0-0.48608 0.20142 0.6875 0.6875 0 0 0 0 0.97219l1.1575 1.1575a0.6875 0.6875 0 0 0 0.9722 0 0.6875 0.6875 0 0 0 0-0.9722l-1.1575-1.1575a0.6875 0.6875 0 0 0-0.48608-0.20142z" color="#000000" stroke-linejoin="round" style="-inkscape-stroke:none"/>
   <path d="m636.73 133.93a0.6875 0.6875 0 0 0-0.48609 0.20141 0.6875 0.6875 0 0 0 0 0.9722l1.1575 1.1575a0.6875 0.6875 0 0 0 0.97219 0 0.6875 0.6875 0 0 0 0-0.97219l-1.1575-1.1575a0.6875 0.6875 0 0 0-0.48609-0.20141z" color="#000000" stroke-linejoin="round" style="-inkscape-stroke:none"/>
  </g>
 </g>
</svg>
