<?xml version="1.0" encoding="UTF-8"?>
<svg version="1.1" viewBox="0 0 22 22" xmlns="http://www.w3.org/2000/svg">
 <g transform="scale(.6875)">
  <path d="m32 16a16 16 0 0 1-16 16 16 16 0 0 1-16-16 16 16 0 0 1 16-16 16 16 0 0 1 16 16z" fill="#f00" stroke-width="2.5839"/>
  <path d="m28.632 16a12.632 12.632 0 0 1-12.632 12.632 12.632 12.632 0 0 1-12.632-12.632 12.632 12.632 0 0 1 12.632-12.632 12.632 12.632 0 0 1 12.632 12.632z" fill="#fff" stroke-width="2.0399"/>
  <g stroke-width="1.4546">
   <path d="m6.7368 16.842h5.0526v3.3684h-5.0526z"/>
   <path d="m13.474 13.474h5.0526v6.7368h-5.0526z" fill="#ccc"/>
   <path d="m20.211 10.105h5.0526v10.105h-5.0526z" fill="#ccc"/>
  </g>
 </g>
</svg>
