<?xml version="1.0" encoding="UTF-8" standalone="no"?>
<!-- Created with Inkscape (http://www.inkscape.org/) -->

<svg
   xmlns:dc="http://purl.org/dc/elements/1.1/"
   xmlns:cc="http://creativecommons.org/ns#"
   xmlns:rdf="http://www.w3.org/1999/02/22-rdf-syntax-ns#"
   xmlns:svg="http://www.w3.org/2000/svg"
   xmlns="http://www.w3.org/2000/svg"
   xmlns:xlink="http://www.w3.org/1999/xlink"
   xmlns:sodipodi="http://sodipodi.sourceforge.net/DTD/sodipodi-0.dtd"
   xmlns:inkscape="http://www.inkscape.org/namespaces/inkscape"
   version="1.1"
   width="58"
   height="120"
   id="svg3671"
   inkscape:version="0.48.3.1 r9886"
   sodipodi:docname="instrument_vario1.svg">
  <metadata
     id="metadata31">
    <rdf:RDF>
      <cc:Work
         rdf:about="">
        <dc:format>image/svg+xml</dc:format>
        <dc:type
           rdf:resource="http://purl.org/dc/dcmitype/StillImage" />
      </cc:Work>
    </rdf:RDF>
  </metadata>
  <sodipodi:namedview
     pagecolor="#ffffff"
     bordercolor="#666666"
     borderopacity="1"
     objecttolerance="10"
     gridtolerance="10"
     guidetolerance="10"
     inkscape:pageopacity="0"
     inkscape:pageshadow="2"
     inkscape:window-width="1280"
     inkscape:window-height="742"
     id="namedview29"
     showgrid="true"
     inkscape:zoom="2.7812867"
     inkscape:cx="80.264577"
     inkscape:cy="76.573997"
     inkscape:window-x="-4"
     inkscape:window-y="-4"
     inkscape:window-maximized="1"
     inkscape:current-layer="svg3671">
    <inkscape:grid
       type="xygrid"
       id="grid2839" />
  </sodipodi:namedview>
  <defs
     id="defs3673" />
  <g
     transform="translate(0,-932.36218)"
     id="layer1"
     style="opacity:0.27272728;display:none">
    <image
       xlink:href="file:///C:/Users/Turbo/_Coding_/Projects/XCSoar/_Git_/src/Bitmaps/VarioScaleB.bmp"
       x="0"
       y="932.36218"
       width="116"
       height="120"
       id="image3691" />
  </g>
  <g
     transform="translate(0,-932.36218)"
     id="layer4"
     style="display:inline">
    <path
       d="m 57.5,934.86218 c -28.940638,0 -53,26.2699 -53,58 0,31.73002 24.059362,58.00002 53,58.00002"
       id="path4211"
       style="fill:none;stroke:#000000;stroke-width:1;stroke-linecap:round;stroke-linejoin:round;stroke-miterlimit:4;stroke-opacity:1;stroke-dasharray:none;stroke-dashoffset:0" />
    <path
       d="M 25.095977,947.16426 23.5,944.86218"
       id="path4213"
       style="fill:none;stroke:#000000;stroke-width:1px;stroke-linecap:round;stroke-linejoin:miter;stroke-opacity:1"
       sodipodi:nodetypes="cc" />
    <path
       d="M 13.258253,960.9276 10.5,958.86218"
       id="path4213-6"
       style="fill:none;stroke:#000000;stroke-width:1px;stroke-linecap:round;stroke-linejoin:miter;stroke-opacity:1"
       sodipodi:nodetypes="cc" />
    <path
       d="M 6.6922607,976.33242 3.9459083,975.32228"
       id="path4213-0"
       style="fill:none;stroke:#000000;stroke-width:1px;stroke-linecap:round;stroke-linejoin:miter;stroke-opacity:1" />
    <path
       d="m 39.888008,938.12119 -1.427802,-3.5939"
       id="path4213-8"
       style="fill:none;stroke:#000000;stroke-width:1px;stroke-linecap:round;stroke-linejoin:miter;stroke-opacity:1" />
    <path
       d="m 18.5,992.86218 -18,0"
       id="path4213-02"
       style="fill:none;stroke:#000000;stroke-width:1px;stroke-linecap:round;stroke-linejoin:miter;stroke-opacity:1" />
    <path
       d="M 25.095977,1038.7953 22.5,1041.8622"
       id="path4264"
       style="fill:none;stroke:#000000;stroke-width:1px;stroke-linecap:round;stroke-linejoin:miter;stroke-opacity:1"
       sodipodi:nodetypes="cc" />
    <path
       d="M 13.258253,1025.0319 10.5,1026.8622"
       id="path4266"
       style="fill:none;stroke:#000000;stroke-width:1px;stroke-linecap:round;stroke-linejoin:miter;stroke-opacity:1"
       sodipodi:nodetypes="cc" />
    <path
       d="m 6.6922607,1009.6271 -2.8094869,1.0417"
       id="path4268"
       style="fill:none;stroke:#000000;stroke-width:1px;stroke-linecap:round;stroke-linejoin:miter;stroke-opacity:1" />
    <path
       d="m 39.888008,1047.8383 -1.427802,3.5939"
       id="path4270"
       style="fill:none;stroke:#000000;stroke-width:1px;stroke-linecap:round;stroke-linejoin:miter;stroke-opacity:1" />
  </g>
  <g
     style="font-size:14px;font-style:normal;font-weight:normal;fill:#000000;fill-opacity:1;stroke:none;font-family:'04b03';-inkscape-font-specification:'04b03'"
     id="text2855">
    <path
       d="m 17,108 0,1 3,0 0,-1 z m 3,2 1,0 0,-1 -1,0 z m -2,0 0,1 2,0 0,-1 z m 3,2 0,-1 -1,0 0,1 z m -4,0 0,1 3,0 0,-1 z"
       style="font-size:8px"
       id="path2955" />
  </g>
  <g
     style="font-size:14px;font-style:normal;font-weight:normal;fill:#000000;fill-opacity:1;stroke:none;font-family:'04b03';-inkscape-font-specification:'04b03'"
     id="text2855-1">
    <path
       d="m 5,94 0,1 3,0 0,-1 z m 3,2 1,0 0,-1 -1,0 z m -2,0 0,1 2,0 0,-1 z m -1,3 4,0 0,-1 -3,0 0,-1 -1,0 z"
       style="font-size:8px"
       id="path2952" />
  </g>
  <g
     style="font-size:8px;font-style:normal;font-weight:normal;fill:#000000;fill-opacity:1;stroke:none;font-family:'04b03';-inkscape-font-specification:'04b03'"
     id="text2884">
    <path
       d="m 1,81 1,0 0,-5 -2,0 0,1 1,0 z"
       style=""
       id="path2949" />
  </g>
  <g
     style="font-size:14px;font-style:normal;font-weight:normal;fill:#000000;fill-opacity:1;stroke:none;font-family:'04b03';-inkscape-font-specification:'04b03'"
     id="text2855-4">
    <path
       d="m 18,7 0,1 3,0 0,-1 z m 3,2 1,0 0,-1 -1,0 z m -2,0 0,1 2,0 0,-1 z m 3,2 0,-1 -1,0 0,1 z m -4,0 0,1 3,0 0,-1 z"
       style="font-size:8px"
       id="path2940" />
  </g>
  <g
     style="font-size:14px;font-style:normal;font-weight:normal;fill:#000000;fill-opacity:1;stroke:none;font-family:'04b03';-inkscape-font-specification:'04b03'"
     id="text2855-1-9">
    <path
       d="m 5,21 0,1 3,0 0,-1 z m 3,2 1,0 0,-1 -1,0 z m -2,0 0,1 2,0 0,-1 z m -1,3 4,0 0,-1 -3,0 0,-1 -1,0 z"
       style="font-size:8px"
       id="path2943" />
  </g>
  <g
     style="font-size:8px;font-style:normal;font-weight:normal;fill:#000000;fill-opacity:1;stroke:none;font-family:'04b03';-inkscape-font-specification:'04b03'"
     id="text2884-8">
    <path
       d="m 1,45 1,0 0,-5 -2,0 0,1 1,0 z"
       style=""
       id="path2946" />
  </g>
</svg>
