<?xml version="1.0" encoding="UTF-8"?>
<svg version="1.1" viewBox="0 0 14 14" xmlns="http://www.w3.org/2000/svg">
 <g transform="matrix(.4375 0 0 .4375 -11.382 -9.8882)">
  <circle cx="42.017" cy="38.602" r="16" stroke-width="1.798"/>
  <path transform="matrix(3.5556 0 0 3.5556 132.38 -1.3983)" d="m-25.406 7.502c-2.16 0-3.748 1.6264-3.748 3.8105 0 0.39121 0.11772 1.0781 0.46094 1.75 0.34322 0.67194 0.903 1.3341 1.7969 1.7402 0.9059 0.41245 2.041 0.20288 2.8105-0.57422 0.47924-0.48299 0.90635-1.0543 1.0332-1.6836 0.12638-0.62691-0.01631-1.3308-0.75586-2.1816-0.01578-0.01442-0.29855-0.27219-0.70898-0.4082-0.422-0.13985-0.9192-0.16558-1.459 0.37891-0.26708 0.26941-0.36212 0.50982-0.37891 0.73438-0.01678 0.22456 0.04965 0.44504 0.15625 0.64453 0.21319 0.39899 0.57227 0.68164 0.57227 0.68164a0.25197 0.25197 0 0 1 0.01367 0.01172c0.25491 0.23042 0.37648 0.55405 0.26953 0.83594-0.10695 0.28188-0.4042 0.4504-0.76172 0.47852-0.42078 0.03273-0.99034-0.0549-1.4766-0.41797-0.48622-0.36307-0.85742-1.0114-0.85742-1.9902 0-1.7652 1.5449-3.1582 3.0332-3.1582 1.1346 0 1.9747 0.36478 2.5566 0.875 0.5819 0.51022 0.90541 1.1554 1.0605 1.7168 0.06025 0.21732 0.09151 0.41239 0.11914 0.60547 6.76e-4 -0.02619 0.01172-0.04367 0.01172-0.07031 0-1.8427-1.385-3.7793-3.748-3.7793z" fill="#0ab9f3" stroke-width=".64286"/>
 </g>
</svg>
