<?xml version="1.0" encoding="UTF-8"?>
<svg version="1.1" viewBox="0 0 14 14" xmlns="http://www.w3.org/2000/svg">
 <g transform="matrix(.76108 0 0 .76925 137.52 -28.574)" fill="#2c5aa0" stroke-width="3.2673">
  <path transform="matrix(.29024 0 0 .29059 -107.87 59.499)" d="m-233.82-73.379a2.4612 2.4612 0 0 0-2.1309 1.2305l-14.613 25.311a2.4612 2.4612 0 0 0 0 2.4609l14.613 25.309a2.4612 2.4612 0 0 0 2.1309 1.2305h29.227a2.4612 2.4612 0 0 0 2.1309-1.2305l14.613-25.309a2.4612 2.4612 0 0 0 0-2.4629l-14.613-25.309a2.4612 2.4612 0 0 0-2.1309-1.2305zm1.4219 4.9219h26.385l13.189 22.85-13.191 22.848h-26.383l-13.191-22.848z" color="#000000" style="-inkscape-stroke:none"/>
  <path d="m-179.97 38.176a0.71477 0.71477 0 0 0-0.71484 0.71484v14.709a0.71477 0.71477 0 0 0 0.71484 0.71484h16.965a0.71477 0.71477 0 0 0 0.71484-0.71484v-14.709a0.71477 0.71477 0 0 0-0.71484-0.71484zm0.71485 1.4297h15.535v13.279h-15.535z" color="#000000" style="-inkscape-stroke:none"/>
  <path d="m-171.49 44.078c-1.1882 0-2.166 0.97974-2.166 2.168s0.97782 2.168 2.166 2.168c1.1882 0 2.166-0.97974 2.166-2.168s-0.97782-2.168-2.166-2.168zm0 1.4297c0.41476 0 0.73632 0.32164 0.73632 0.73828s-0.32156 0.73828-0.73632 0.73828c-0.41477 0-0.73633-0.32164-0.73633-0.73828s0.32156-0.73828 0.73633-0.73828z" color="#000000" style="-inkscape-stroke:none"/>
 </g>
</svg>
