<?xml version="1.0" encoding="UTF-8"?>
<svg version="1.1" viewBox="0 0 14 14" xmlns="http://www.w3.org/2000/svg">
 <g transform="matrix(.4375 0 0 .4375 -.00032269 -9.8791e-5)" fill="#2c5aa0">
  <path transform="rotate(4.6641)" d="m18.642 14.774a1.3938 1.3938 0 0 1-1.3938 1.3938 1.3938 1.3938 0 0 1-1.3938-1.3938 1.3938 1.3938 0 0 1 1.3938-1.3938 1.3938 1.3938 0 0 1 1.3938 1.3938z" stroke-width=".64464"/>
  <path transform="rotate(4.6641)" d="m17.248 8.3828c-3.5145 0-6.3906 2.8761-6.3906 6.3906s2.8761 6.3906 6.3906 6.3906 6.3906-2.8761 6.3906-6.3906-2.8761-6.3906-6.3906-6.3906zm0 2.5c2.1634 0 3.8906 1.7272 3.8906 3.8906s-1.7272 3.8906-3.8906 3.8906-3.8906-1.7272-3.8906-3.8906 1.7272-3.8906 3.8906-3.8906z" color="#000000" stroke-linecap="round" stroke-width="2.2857" style="-inkscape-stroke:none"/>
  <g stroke-width=".64464">
   <path transform="rotate(-85.336)" d="m-5.6221 17.248a1.3938 1.3938 0 0 1-1.3938 1.3938 1.3938 1.3938 0 0 1-1.3938-1.3938 1.3938 1.3938 0 0 1 1.3938-1.3938 1.3938 1.3938 0 0 1 1.3938 1.3938z"/>
   <path transform="rotate(4.6641)" d="m26.287 14.662a1.3938 1.3938 0 0 1-1.3938 1.3938 1.3938 1.3938 0 0 1-1.3938-1.3938 1.3938 1.3938 0 0 1 1.3938-1.3938 1.3938 1.3938 0 0 1 1.3938 1.3938z"/>
   <path transform="rotate(94.664)" d="m23.702-17.248a1.3938 1.3938 0 0 1-1.3938 1.3938 1.3938 1.3938 0 0 1-1.3938-1.3938 1.3938 1.3938 0 0 1 1.3938-1.3938 1.3938 1.3938 0 0 1 1.3938 1.3938z"/>
   <path transform="rotate(184.66)" d="m-8.208-14.662a1.3938 1.3938 0 0 1-1.3938 1.3938 1.3938 1.3938 0 0 1-1.3938-1.3938 1.3938 1.3938 0 0 1 1.3938-1.3938 1.3938 1.3938 0 0 1 1.3938 1.3938z"/>
   <path transform="rotate(-55.412)" d="m4.9363 22.263a1.3938 1.3938 0 0 1-1.3938 1.3938 1.3938 1.3938 0 0 1-1.3938-1.3938 1.3938 1.3938 0 0 1 1.3938-1.3938 1.3938 1.3938 0 0 1 1.3938 1.3938z"/>
   <path transform="rotate(34.588)" d="m31.303 4.1035a1.3938 1.3938 0 0 1-1.3938 1.3938 1.3938 1.3938 0 0 1-1.3938-1.3938 1.3938 1.3938 0 0 1 1.3938-1.3938 1.3938 1.3938 0 0 1 1.3938 1.3938z"/>
   <path transform="rotate(124.59)" d="m13.143-22.263a1.3938 1.3938 0 0 1-1.3938 1.3938 1.3938 1.3938 0 0 1-1.3938-1.3938 1.3938 1.3938 0 0 1 1.3938-1.3938 1.3938 1.3938 0 0 1 1.3938 1.3938z"/>
   <path transform="rotate(214.59)" d="m-13.223-4.1033a1.3938 1.3938 0 0 1-1.3938 1.3938 1.3938 1.3938 0 0 1-1.3938-1.3938 1.3938 1.3938 0 0 1 1.3938-1.3938 1.3938 1.3938 0 0 1 1.3938 1.3938z"/>
   <path transform="rotate(-23.442)" d="m17.346 21.059a1.3938 1.3938 0 0 1-1.3938 1.3938 1.3938 1.3938 0 0 1-1.3938-1.3938 1.3938 1.3938 0 0 1 1.3938-1.3938 1.3938 1.3938 0 0 1 1.3938 1.3938z"/>
   <path transform="rotate(66.558)" d="m30.098-8.3065a1.3938 1.3938 0 0 1-1.3938 1.3938 1.3938 1.3938 0 0 1-1.3938-1.3938 1.3938 1.3938 0 0 1 1.3938-1.3938 1.3938 1.3938 0 0 1 1.3938 1.3938z"/>
   <path transform="rotate(156.56)" d="m0.733-21.059a1.3938 1.3938 0 0 1-1.3938 1.3938 1.3938 1.3938 0 0 1-1.3938-1.3938 1.3938 1.3938 0 0 1 1.3938-1.3938 1.3938 1.3938 0 0 1 1.3938 1.3938z"/>
   <path transform="rotate(246.56)" d="m-12.019 8.3066a1.3938 1.3938 0 0 1-1.3938 1.3938 1.3938 1.3938 0 0 1-1.3938-1.3938 1.3938 1.3938 0 0 1 1.3938-1.3938 1.3938 1.3938 0 0 1 1.3938 1.3938z"/>
   <path transform="rotate(-85.336)" d="m-2.054 17.248a1.3938 1.3938 0 0 1-1.3938 1.3938 1.3938 1.3938 0 0 1-1.3938-1.3938 1.3938 1.3938 0 0 1 1.3938-1.3938 1.3938 1.3938 0 0 1 1.3938 1.3938z"/>
   <path transform="rotate(4.6641)" d="m29.792 14.598a1.3938 1.3938 0 0 1-1.3938 1.3938 1.3938 1.3938 0 0 1-1.3938-1.3938 1.3938 1.3938 0 0 1 1.3938-1.3938 1.3938 1.3938 0 0 1 1.3938 1.3938z"/>
   <path transform="rotate(94.664)" d="m27.143-17.248a1.3938 1.3938 0 0 1-1.3938 1.3938 1.3938 1.3938 0 0 1-1.3938-1.3938 1.3938 1.3938 0 0 1 1.3938-1.3938 1.3938 1.3938 0 0 1 1.3938 1.3938z"/>
   <path transform="rotate(184.66)" d="m-4.7039-14.598a1.3938 1.3938 0 0 1-1.3938 1.3938 1.3938 1.3938 0 0 1-1.3938-1.3938 1.3938 1.3938 0 0 1 1.3938-1.3938 1.3938 1.3938 0 0 1 1.3938 1.3938z"/>
   <path transform="rotate(-66.371)" d="m4.3438 21.056a1.3938 1.3938 0 0 1-1.3938 1.3938 1.3938 1.3938 0 0 1-1.3938-1.3938 1.3938 1.3938 0 0 1 1.3938-1.3938 1.3938 1.3938 0 0 1 1.3938 1.3938z"/>
   <path transform="rotate(23.629)" d="m33.6 8.2008a1.3938 1.3938 0 0 1-1.3938 1.3938 1.3938 1.3938 0 0 1-1.3938-1.3938 1.3938 1.3938 0 0 1 1.3938-1.3938 1.3938 1.3938 0 0 1 1.3938 1.3938z"/>
   <path transform="rotate(113.63)" d="m20.744-21.056a1.3938 1.3938 0 0 1-1.3938 1.3938 1.3938 1.3938 0 0 1-1.3938-1.3938 1.3938 1.3938 0 0 1 1.3938-1.3938 1.3938 1.3938 0 0 1 1.3938 1.3938z"/>
   <path transform="rotate(203.63)" d="m-8.5118-8.2003a1.3938 1.3938 0 0 1-1.3938 1.3938 1.3938 1.3938 0 0 1-1.3938-1.3938 1.3938 1.3938 0 0 1 1.3938-1.3938 1.3938 1.3938 0 0 1 1.3938 1.3938z"/>
  </g>
  <g stroke-width=".64463">
   <path transform="rotate(-45.066)" d="m12.554 22.597a1.3938 1.3938 0 0 1-1.3938 1.3938 1.3938 1.3938 0 0 1-1.3938-1.3938 1.3938 1.3938 0 0 1 1.3938-1.3938 1.3938 1.3938 0 0 1 1.3938 1.3938z"/>
   <path transform="rotate(44.934)" d="m35.141-0.010511a1.3938 1.3938 0 0 1-1.3938 1.3938 1.3938 1.3938 0 0 1-1.3938-1.3938 1.3938 1.3938 0 0 1 1.3938-1.3938 1.3938 1.3938 0 0 1 1.3938 1.3938z"/>
   <path transform="rotate(134.93)" d="m12.534-22.597a1.3938 1.3938 0 0 1-1.3938 1.3938 1.3938 1.3938 0 0 1-1.3938-1.3938 1.3938 1.3938 0 0 1 1.3938-1.3938 1.3938 1.3938 0 0 1 1.3938 1.3938z"/>
   <path transform="rotate(224.93)" d="m-10.052 0.010286a1.3938 1.3938 0 0 1-1.3938 1.3938 1.3938 1.3938 0 0 1-1.3938-1.3938 1.3938 1.3938 0 0 1 1.3938-1.3938 1.3938 1.3938 0 0 1 1.3938 1.3938z"/>
  </g>
  <g stroke-width=".64464">
   <path transform="rotate(-28.007)" d="m19.183 21.599a1.3938 1.3938 0 0 1-1.3938 1.3938 1.3938 1.3938 0 0 1-1.3938-1.3938 1.3938 1.3938 0 0 1 1.3938-1.3938 1.3938 1.3938 0 0 1 1.3938 1.3938z"/>
   <path transform="rotate(61.993)" d="m34.143-6.6387a1.3938 1.3938 0 0 1-1.3938 1.3938 1.3938 1.3938 0 0 1-1.3938-1.3938 1.3938 1.3938 0 0 1 1.3938-1.3938 1.3938 1.3938 0 0 1 1.3938 1.3938z"/>
   <path transform="rotate(151.99)" d="m5.9055-21.6a1.3938 1.3938 0 0 1-1.3938 1.3938 1.3938 1.3938 0 0 1-1.3938-1.3938 1.3938 1.3938 0 0 1 1.3938-1.3938 1.3938 1.3938 0 0 1 1.3938 1.3938z"/>
   <path transform="rotate(241.99)" d="m-9.0551 6.6387a1.3938 1.3938 0 0 1-1.3938 1.3938 1.3938 1.3938 0 0 1-1.3938-1.3938 1.3938 1.3938 0 0 1 1.3938-1.3938 1.3938 1.3938 0 0 1 1.3938 1.3938z"/>
   <path transform="rotate(-11.437)" d="m25.067 18.809a1.3938 1.3938 0 0 1-1.3938 1.3938 1.3938 1.3938 0 0 1-1.3938-1.3938 1.3938 1.3938 0 0 1 1.3938-1.3938 1.3938 1.3938 0 0 1 1.3938 1.3938z"/>
   <path transform="rotate(78.563)" d="m31.353-12.523a1.3938 1.3938 0 0 1-1.3938 1.3938 1.3938 1.3938 0 0 1-1.3938-1.3938 1.3938 1.3938 0 0 1 1.3938-1.3938 1.3938 1.3938 0 0 1 1.3938 1.3938z"/>
   <path transform="rotate(168.56)" d="m0.021072-18.809a1.3938 1.3938 0 0 1-1.3938 1.3938 1.3938 1.3938 0 0 1-1.3938-1.3938 1.3938 1.3938 0 0 1 1.3938-1.3938 1.3938 1.3938 0 0 1 1.3938 1.3938z"/>
   <path transform="rotate(258.56)" d="m-6.265 12.523a1.3938 1.3938 0 0 1-1.3938 1.3938 1.3938 1.3938 0 0 1-1.3938-1.3938 1.3938 1.3938 0 0 1 1.3938-1.3938 1.3938 1.3938 0 0 1 1.3938 1.3938z"/>
   <path transform="rotate(-85.336)" d="m1.4025 17.248a1.3938 1.3938 0 0 1-1.3938 1.3938 1.3938 1.3938 0 0 1-1.3938-1.3938 1.3938 1.3938 0 0 1 1.3938-1.3938 1.3938 1.3938 0 0 1 1.3938 1.3938z"/>
   <path transform="rotate(4.6641)" d="m33.297 14.646a1.3938 1.3938 0 0 1-1.3938 1.3938 1.3938 1.3938 0 0 1-1.3938-1.3938 1.3938 1.3938 0 0 1 1.3938-1.3938 1.3938 1.3938 0 0 1 1.3938 1.3938z"/>
   <path transform="rotate(94.664)" d="m30.695-17.248a1.3938 1.3938 0 0 1-1.3938 1.3938 1.3938 1.3938 0 0 1-1.3938-1.3938 1.3938 1.3938 0 0 1 1.3938-1.3938 1.3938 1.3938 0 0 1 1.3938 1.3938z"/>
   <path transform="rotate(184.66)" d="m-1.1995-14.646a1.3938 1.3938 0 0 1-1.3938 1.3938 1.3938 1.3938 0 0 1-1.3938-1.3938 1.3938 1.3938 0 0 1 1.3938-1.3938 1.3938 1.3938 0 0 1 1.3938 1.3938z"/>
  </g>
  <g stroke-width=".64463">
   <path transform="rotate(-70.996)" d="m6.1307 20.338a1.3938 1.3938 0 0 1-1.3938 1.3938 1.3938 1.3938 0 0 1-1.3938-1.3938 1.3938 1.3938 0 0 1 1.3938-1.3938 1.3938 1.3938 0 0 1 1.3938 1.3938z"/>
   <path transform="rotate(19.004)" d="m36.386 9.9176a1.3938 1.3938 0 0 1-1.3938 1.3938 1.3938 1.3938 0 0 1-1.3938-1.3938 1.3938 1.3938 0 0 1 1.3938-1.3938 1.3938 1.3938 0 0 1 1.3938 1.3938z"/>
   <path transform="rotate(109)" d="m25.966-20.338a1.3938 1.3938 0 0 1-1.3938 1.3938 1.3938 1.3938 0 0 1-1.3938-1.3938 1.3938 1.3938 0 0 1 1.3938-1.3938 1.3938 1.3938 0 0 1 1.3938 1.3938z"/>
   <path transform="rotate(199)" d="m-4.2897-9.9178a1.3938 1.3938 0 0 1-1.3938 1.3938 1.3938 1.3938 0 0 1-1.3938-1.3938 1.3938 1.3938 0 0 1 1.3938-1.3938 1.3938 1.3938 0 0 1 1.3938 1.3938z"/>
  </g>
  <g stroke-width=".64464">
   <path transform="rotate(-9.9684)" d="m29.037 18.528a1.3938 1.3938 0 0 1-1.3938 1.3938 1.3938 1.3938 0 0 1-1.3938-1.3938 1.3938 1.3938 0 0 1 1.3938-1.3938 1.3938 1.3938 0 0 1 1.3938 1.3938z"/>
   <path transform="rotate(80.032)" d="m34.576-12.989a1.3938 1.3938 0 0 1-1.3938 1.3938 1.3938 1.3938 0 0 1-1.3938-1.3938 1.3938 1.3938 0 0 1 1.3938-1.3938 1.3938 1.3938 0 0 1 1.3938 1.3938z"/>
   <path transform="rotate(170.03)" d="m3.0597-18.528a1.3938 1.3938 0 0 1-1.3938 1.3938 1.3938 1.3938 0 0 1-1.3938-1.3938 1.3938 1.3938 0 0 1 1.3938-1.3938 1.3938 1.3938 0 0 1 1.3938 1.3938z"/>
   <path transform="rotate(-99.97)" d="m-2.4799 12.989a1.3938 1.3938 0 0 1-1.3938 1.3938 1.3938 1.3938 0 0 1-1.3938-1.3938 1.3938 1.3938 0 0 1 1.3938-1.3938 1.3938 1.3938 0 0 1 1.3938 1.3938z"/>
   <path transform="rotate(-23.809)" d="m24.228 21.097a1.3938 1.3938 0 0 1-1.3938 1.3938 1.3938 1.3938 0 0 1-1.3938-1.3938 1.3938 1.3938 0 0 1 1.3938-1.3938 1.3938 1.3938 0 0 1 1.3938 1.3938z"/>
   <path transform="rotate(66.191)" d="m37.146-8.1791a1.3938 1.3938 0 0 1-1.3938 1.3938 1.3938 1.3938 0 0 1-1.3938-1.3938 1.3938 1.3938 0 0 1 1.3938-1.3938 1.3938 1.3938 0 0 1 1.3938 1.3938z"/>
   <path transform="rotate(156.19)" d="m7.8694-21.097a1.3938 1.3938 0 0 1-1.3938 1.3938 1.3938 1.3938 0 0 1-1.3938-1.3938 1.3938 1.3938 0 0 1 1.3938-1.3938 1.3938 1.3938 0 0 1 1.3938 1.3938z"/>
   <path transform="rotate(246.19)" d="m-5.0488 8.1793a1.3938 1.3938 0 0 1-1.3938 1.3938 1.3938 1.3938 0 0 1-1.3938-1.3938 1.3938 1.3938 0 0 1 1.3938-1.3938 1.3938 1.3938 0 0 1 1.3938 1.3938z"/>
   <path transform="rotate(32.346)" d="m38.126 4.9569a1.3938 1.3938 0 0 1-1.3938 1.3938 1.3938 1.3938 0 0 1-1.3938-1.3938 1.3938 1.3938 0 0 1 1.3938-1.3938 1.3938 1.3938 0 0 1 1.3938 1.3938z"/>
   <path transform="rotate(122.35)" d="m21.006-22.078a1.3938 1.3938 0 0 1-1.3938 1.3938 1.3938 1.3938 0 0 1-1.3938-1.3938 1.3938 1.3938 0 0 1 1.3938-1.3938 1.3938 1.3938 0 0 1 1.3938 1.3938z"/>
   <path transform="rotate(212.35)" d="m-6.0293-4.9569a1.3938 1.3938 0 0 1-1.3938 1.3938 1.3938 1.3938 0 0 1-1.3938-1.3938 1.3938 1.3938 0 0 1 1.3938-1.3938 1.3938 1.3938 0 0 1 1.3938 1.3938z"/>
   <path transform="rotate(-57.654)" d="m11.091 22.078a1.3938 1.3938 0 0 1-1.3938 1.3938 1.3938 1.3938 0 0 1-1.3938-1.3938 1.3938 1.3938 0 0 1 1.3938-1.3938 1.3938 1.3938 0 0 1 1.3938 1.3938z"/>
  </g>
  <g stroke-width=".64465">
   <path transform="rotate(49.965)" d="m38.591-1.9582a1.3938 1.3938 0 0 1-1.3938 1.3938 1.3938 1.3938 0 0 1-1.3938-1.3938 1.3938 1.3938 0 0 1 1.3938-1.3938 1.3938 1.3938 0 0 1 1.3938 1.3938z"/>
   <path transform="rotate(139.96)" d="m14.09-22.542a1.3938 1.3938 0 0 1-1.3938 1.3938 1.3938 1.3938 0 0 1-1.3938-1.3938 1.3938 1.3938 0 0 1 1.3938-1.3938 1.3938 1.3938 0 0 1 1.3938 1.3938z"/>
   <path transform="rotate(229.96)" d="m-6.4939 1.9585a1.3938 1.3938 0 0 1-1.3938 1.3938 1.3938 1.3938 0 0 1-1.3938-1.3938 1.3938 1.3938 0 0 1 1.3938-1.3938 1.3938 1.3938 0 0 1 1.3938 1.3938z"/>
   <path transform="rotate(-40.035)" d="m18.007 22.543a1.3938 1.3938 0 0 1-1.3938 1.3938 1.3938 1.3938 0 0 1-1.3938-1.3938 1.3938 1.3938 0 0 1 1.3938-1.3938 1.3938 1.3938 0 0 1 1.3938 1.3938z"/>
  </g>
 </g>
</svg>
