<?xml version="1.0" encoding="UTF-8" standalone="no"?>
<svg
   xmlns:dc="http://purl.org/dc/elements/1.1/"
   xmlns:cc="http://creativecommons.org/ns#"
   xmlns:rdf="http://www.w3.org/1999/02/22-rdf-syntax-ns#"
   xmlns:svg="http://www.w3.org/2000/svg"
   xmlns="http://www.w3.org/2000/svg"
   xmlns:sodipodi="http://sodipodi.sourceforge.net/DTD/sodipodi-0.dtd"
   xmlns:inkscape="http://www.inkscape.org/namespaces/inkscape"
   version="1.1"
   x="0px"
   y="0px"
   viewBox="0 0 1000 1000"
   enable-background="new 0 0 1000 1000"
   xml:space="preserve"
   id="svg913"
   sodipodi:docname="map_obstacle.svg"
   inkscape:version="1.0.2 (e86c870879, 2021-01-15)"><defs
   id="defs917"><filter
     style="color-interpolation-filters:sRGB;"
     inkscape:label="Drop Shadow"
     id="filter853"><feFlood
       flood-opacity="0.498039"
       flood-color="rgb(0,0,0)"
       result="flood"
       id="feFlood843" /><feComposite
       in="flood"
       in2="SourceGraphic"
       operator="in"
       result="composite1"
       id="feComposite845" /><feGaussianBlur
       in="composite1"
       stdDeviation="3"
       result="blur"
       id="feGaussianBlur847" /><feOffset
       dx="6"
       dy="6"
       result="offset"
       id="feOffset849" /><feComposite
       in="SourceGraphic"
       in2="offset"
       operator="over"
       result="composite2"
       id="feComposite851" /></filter><filter
     style="color-interpolation-filters:sRGB;"
     inkscape:label="Drop Shadow"
     id="filter865"><feFlood
       flood-opacity="0.498039"
       flood-color="rgb(0,0,0)"
       result="flood"
       id="feFlood855" /><feComposite
       in="flood"
       in2="SourceGraphic"
       operator="in"
       result="composite1"
       id="feComposite857" /><feGaussianBlur
       in="composite1"
       stdDeviation="3"
       result="blur"
       id="feGaussianBlur859" /><feOffset
       dx="6"
       dy="6"
       result="offset"
       id="feOffset861" /><feComposite
       in="SourceGraphic"
       in2="offset"
       operator="over"
       result="composite2"
       id="feComposite863" /></filter><filter
     style="color-interpolation-filters:sRGB;"
     inkscape:label="Drop Shadow"
     id="filter877"><feFlood
       flood-opacity="0.498039"
       flood-color="rgb(0,0,0)"
       result="flood"
       id="feFlood867" /><feComposite
       in="flood"
       in2="SourceGraphic"
       operator="in"
       result="composite1"
       id="feComposite869" /><feGaussianBlur
       in="composite1"
       stdDeviation="3"
       result="blur"
       id="feGaussianBlur871" /><feOffset
       dx="6"
       dy="6"
       result="offset"
       id="feOffset873" /><feComposite
       in="SourceGraphic"
       in2="offset"
       operator="over"
       result="composite2"
       id="feComposite875" /></filter><filter
     style="color-interpolation-filters:sRGB;"
     inkscape:label="Drop Shadow"
     id="filter889"><feFlood
       flood-opacity="0.498039"
       flood-color="rgb(0,0,0)"
       result="flood"
       id="feFlood879" /><feComposite
       in="flood"
       in2="SourceGraphic"
       operator="in"
       result="composite1"
       id="feComposite881" /><feGaussianBlur
       in="composite1"
       stdDeviation="3"
       result="blur"
       id="feGaussianBlur883" /><feOffset
       dx="6"
       dy="6"
       result="offset"
       id="feOffset885" /><feComposite
       in="SourceGraphic"
       in2="offset"
       operator="over"
       result="composite2"
       id="feComposite887" /></filter><filter
     style="color-interpolation-filters:sRGB;"
     inkscape:label="Drop Shadow"
     id="filter901"><feFlood
       flood-opacity="0.498039"
       flood-color="rgb(0,0,0)"
       result="flood"
       id="feFlood891" /><feComposite
       in="flood"
       in2="SourceGraphic"
       operator="in"
       result="composite1"
       id="feComposite893" /><feGaussianBlur
       in="composite1"
       stdDeviation="3"
       result="blur"
       id="feGaussianBlur895" /><feOffset
       dx="6"
       dy="6"
       result="offset"
       id="feOffset897" /><feComposite
       in="SourceGraphic"
       in2="offset"
       operator="over"
       result="composite2"
       id="feComposite899" /></filter><filter
     style="color-interpolation-filters:sRGB;"
     inkscape:label="Drop Shadow"
     id="filter913"><feFlood
       flood-opacity="0.498039"
       flood-color="rgb(0,0,0)"
       result="flood"
       id="feFlood903" /><feComposite
       in="flood"
       in2="SourceGraphic"
       operator="in"
       result="composite1"
       id="feComposite905" /><feGaussianBlur
       in="composite1"
       stdDeviation="3"
       result="blur"
       id="feGaussianBlur907" /><feOffset
       dx="6"
       dy="6"
       result="offset"
       id="feOffset909" /><feComposite
       in="SourceGraphic"
       in2="offset"
       operator="over"
       result="composite2"
       id="feComposite911" /></filter><filter
     style="color-interpolation-filters:sRGB;"
     inkscape:label="Drop Shadow"
     id="filter925"><feFlood
       flood-opacity="0.498039"
       flood-color="rgb(0,0,0)"
       result="flood"
       id="feFlood915" /><feComposite
       in="flood"
       in2="SourceGraphic"
       operator="in"
       result="composite1"
       id="feComposite917" /><feGaussianBlur
       in="composite1"
       stdDeviation="3"
       result="blur"
       id="feGaussianBlur919" /><feOffset
       dx="6"
       dy="6"
       result="offset"
       id="feOffset921" /><feComposite
       in="SourceGraphic"
       in2="offset"
       operator="over"
       result="composite2"
       id="feComposite923" /></filter></defs><sodipodi:namedview
   pagecolor="#ffffff"
   bordercolor="#666666"
   borderopacity="1"
   objecttolerance="10"
   gridtolerance="10"
   guidetolerance="10"
   inkscape:pageopacity="0"
   inkscape:pageshadow="2"
   inkscape:window-width="3840"
   inkscape:window-height="2160"
   id="namedview915"
   showgrid="false"
   inkscape:zoom="1.441"
   inkscape:cx="190.49272"
   inkscape:cy="500"
   inkscape:window-x="0"
   inkscape:window-y="0"
   inkscape:window-maximized="0"
   inkscape:current-layer="svg913"
   inkscape:document-rotation="0" />
<metadata
   id="metadata895"> Svg Vector Icons : http://www.onlinewebfonts.com/icon <rdf:RDF><cc:Work
     rdf:about=""><dc:format>image/svg+xml</dc:format><dc:type
       rdf:resource="http://purl.org/dc/dcmitype/StillImage" /></cc:Work></rdf:RDF></metadata>
<g
   id="g911"
   style="filter:url(#filter925)"><g
     transform="translate(0.000000,511.000000) scale(0.100000,-0.100000)"
     id="g909"><path
       d="M1773.2,5000c-39.6-11-94.6-33-125.4-52.8c-85.8-57.2-378.3-384.9-530.1-598.3c-162.8-224.4-422.3-730.2-503.7-981C204.9,2103.3,517.3,744,1447.7-252.4c167.2-178.2,204.6-208.9,307.9-237.5c191.4-57.2,369.5,8.8,439.9,158.4c61.6,127.6,35.2,224.4-116.6,420.1c-398.1,514.7-633.5,1036-734.6,1621c-57.2,338.7-46.2,897.4,24.2,1214.1c121,543.3,382.7,1082.1,750,1539.6c114.4,140.8,136.4,261.7,70.4,378.3C2120.7,4967,1929.3,5037.4,1773.2,5000z"
       id="path897" /><path
       d="M8015.3,4995.6c-112.2-33-169.3-79.2-211.2-167.2c-61.6-127.6-35.2-224.3,116.6-420.1c422.3-547.7,664.2-1104.1,754.4-1739.8c35.2-257.3,13.2-835.8-44-1090.9c-121-547.7-345.3-1014-710.4-1489.1C7769-107.2,7742.6-204,7804.2-331.6c70.4-149.6,248.5-215.5,439.9-158.4c103.4,28.6,140.8,57.2,307.9,237.5c103.4,112.2,252.9,292.5,329.9,400.3c162.8,224.4,422.3,730.2,503.7,981c235.3,725.8,235.3,1486.9,2.2,2230.3c-79.2,248.5-338.7,758.8-499.3,983.2c-173.8,239.7-437.7,532.3-543.3,600.5C8250.7,5004.4,8118.7,5024.2,8015.3,4995.6z"
       id="path899" /><path
       d="M3097.3,4054.2c-105.6-26.4-149.6-57.2-301.3-217.7c-805-855.6-800.6-2342.4,13.2-3189.3c162.8-171.6,230.9-209,376.1-209c136.4,0,239.7,50.6,296.9,145.2c70.4,114.4,57.2,184.8-74.8,382.7c-138.6,211.1-237.6,437.7-303.5,703.8c-41.8,165-50.6,252.9-50.6,589.5c0,345.3,6.6,422.3,52.8,593.9c61.6,239.7,180.4,501.5,318.9,703.8c114.4,167.2,125.4,244.1,57.2,356.3C3414,4025.6,3242.4,4089.4,3097.3,4054.2z"
       id="path901" /><path
       d="M6686.8,4043.2c-101.2-37.4-140.8-70.4-182.6-147.4c-50.6-99-37.4-180.4,46.2-296.9c125.4-171.6,290.3-532.3,345.3-745.6c41.8-169.4,50.6-255.1,50.6-593.9c0-336.5-8.8-424.5-50.6-589.5c-66-266.1-158.4-477.3-303.5-697.2c-112.2-171.6-121-195.8-112.2-285.9c24.2-213.3,294.7-321.1,523.5-206.7c90.2,44,332.1,316.7,446.5,499.3c569.6,915,437.7,2203.9-299.2,2912.1C6968.4,4065.2,6856.2,4102.6,6686.8,4043.2z"
       id="path903" /><path
       d="M4834.9,3280c-323.3-48.4-629.1-277.1-769.8-574.1c-305.7-648.8,90.2-1392.3,794-1491.2c686.2-94.6,1280.1,501.5,1174.5,1183.3C5943.4,2974.2,5411.1,3368,4834.9,3280z"
       id="path905" /><path
       d="M4540.1,466.8c-156.2-33-303.5-147.4-378.3-292.5c-24.2-44-61.6-211.2-88-373.9c-230.9-1504.5-690.6-2857.1-1379.1-4062.5c-167.2-290.3-180.4-362.9-85.8-457.5c59.4-59.4,63.8-59.4,395.9-66c202.4-4.4,367.3,2.2,415.7,17.6c101.2,28.6,145.2,99,336.5,534.5l138.6,312.3l1108.5,6.6l1108.5,4.4l28.6-81.4c15.4-46.2,101.2-233.1,189.2-415.7c191.4-398.1,165-382.7,615.9-382.7c354.1,0,437.7,19.8,486.1,114.4c48.4,94.6,33,145.2-134.2,435.5C6638.4-3094.1,6145.7-1646.9,5934.6-226c-48.4,321.1-85.8,428.9-180.4,527.9c-151.8,156.2-226.5,173.8-699.4,180.4C4826.1,484.4,4592.9,477.8,4540.1,466.8z M5329.7-659.3c15.4-149.6,39.6-347.5,52.8-439.9l28.6-171.6h-406.9h-404.7l11,83.6c6.6,44,28.6,241.9,50.6,439.9l41.8,356.3H5002h299.1L5329.7-659.3z M5584.9-2209.9c11-57.2,178.2-699.4,200.1-780.8c11-37.4-37.4-39.6-785.2-39.6c-750,0-796.2,2.2-780.8,39.6c6.6,19.8,59.4,217.8,116.6,439.9l101.2,400.3h567.5h567.5L5584.9-2209.9z"
       id="path907" /></g></g>
<path
   style="fill:#c80000;fill-opacity:0.999957;stroke-width:2.62318;filter:url(#filter913)"
   d="m 177.25863,560.07307 c -10.60821,-2.8322 -16.11216,-6.8646 -30.58771,-22.4096 C 121.80332,510.95864 102.6525,484.3489 86.601808,454.19847 51.654032,388.55083 37.82097,314.47371 46.871141,241.4377 c 3.701794,-29.87394 11.83369,-61.80557 21.545284,-84.60217 8.892717,-20.8744 28.37866,-57.722532 38.716355,-73.213046 12.56451,-18.827292 40.59855,-52.137281 53.16323,-63.168458 4.63688,-4.070957 12.18287,-7.922853 18.33516,-9.3593 7.77656,-1.815684 18.76051,-0.07272 27.52259,4.367364 11.29278,5.722484 17.8498,18.14982 15.54911,29.469775 -1.30585,6.425079 -4.23048,11.61608 -13.19683,23.423444 -28.92274,38.087011 -48.28106,74.000571 -62.09451,115.197781 -10.45945,31.19423 -14.37111,53.34016 -15.51319,87.82806 -0.89038,26.88735 0.33169,51.366 3.47977,69.70143 5.61669,32.71336 15.33093,62.40408 30.42489,92.99098 11.54877,23.4028 21.90893,40.08063 40.43447,65.09157 17.30921,23.36878 19.72338,30.54829 14.58672,43.37943 -3.32987,8.31789 -12.56942,16.01282 -21.77546,18.13515 -4.72604,1.08953 -15.6286,0.7714 -20.7901,-0.60664 z"
   id="path1480" /><path
   style="fill:#c80000;fill-opacity:0.999957;stroke-width:2.62318;filter:url(#filter901)"
   d="m 310.54823,466.30529 c -9.24831,-1.59864 -19.4718,-9.08044 -32.76766,-23.98018 -19.39154,-21.73073 -33.43919,-45.14742 -43.14261,-71.91646 -27.14275,-74.8793 -16.05366,-161.14571 28.61335,-222.59463 11.49443,-15.81303 28.99569,-33.9667 36.54721,-37.90963 7.29555,-3.80927 11.0863,-4.7601 18.73028,-4.69809 14.19479,0.11515 25.22519,6.42031 30.90064,17.66331 2.77406,5.49539 3.26053,9.67028 1.73733,14.9099 -1.59264,5.47849 -3.29331,8.66297 -10.72085,20.0747 -11.86833,18.23461 -22.77679,41.98226 -28.58771,62.23534 -5.752,20.04768 -6.85188,30.34519 -6.8453,64.0881 0.006,31.90177 0.89598,42.5388 4.93404,58.98682 6.64616,27.07147 15.85154,48.54239 30.7941,71.82512 8.90482,13.87505 11.82449,20.70778 11.28223,26.40309 -0.9525,10.00389 -9.8843,20.26312 -20.51861,23.56807 -5.16673,1.60572 -15.58033,2.27385 -20.95644,1.34454 z"
   id="path1482" /><path
   style="fill:#c80000;fill-opacity:0.999957;stroke-width:2.62318;filter:url(#filter889)"
   d="m 488.54962,389.52885 c -31.4802,-4.08471 -57.30175,-19.85157 -74.67209,-45.59541 -7.29697,-10.81454 -12.50775,-23.44 -15.6404,-37.89597 -1.80023,-8.30737 -1.80939,-30.29589 -0.0163,-39.1837 5.34318,-26.48476 19.02189,-48.23493 40.40599,-64.24853 30.72801,-23.01082 71.1098,-26.84623 106.13378,-10.08045 29.2454,13.99961 50.07441,40.77953 57.42385,73.82999 1.23906,5.57202 1.50009,9.03032 1.5286,20.25174 0.038,14.96617 -1.02261,21.76433 -5.29222,33.92124 -12.61203,35.91033 -45.16533,62.75094 -83.02898,68.45844 -6.0661,0.9144 -21.56279,1.22768 -26.84221,0.54265 z"
   id="path1484" /><path
   style="fill:#c80000;fill-opacity:0.999957;stroke-width:2.62318;filter:url(#filter877)"
   d="m 670.79273,465.93994 c -5.88428,-1.58249 -11.60045,-5.01342 -15.66242,-9.40082 -4.70062,-5.07724 -6.67386,-10.04848 -6.8451,-17.24508 -0.15418,-6.47981 1.26778,-9.73649 10.78724,-24.70593 16.83438,-26.4722 25.66769,-47.42477 32.01286,-75.9344 2.85203,-12.81451 3.25422,-17.67427 3.67566,-44.4136 0.59519,-37.76367 -0.59315,-52.59232 -5.71246,-71.28248 -5.60008,-20.44542 -20.45189,-52.45651 -32.98674,-71.09852 -6.45252,-9.59626 -7.87633,-13.08718 -7.88964,-19.34379 -0.01,-4.66869 0.27262,-5.81086 2.60673,-10.5376 4.71998,-9.55828 13.26381,-14.91754 27.46707,-17.22918 12.07139,-1.96467 24.4371,4.76402 41.8135,22.75243 32.85804,34.01532 54.0784,82.70851 58.90405,135.16385 0.91243,9.91818 0.89827,35.96714 -0.0251,46.1485 -4.13713,45.61796 -21.09402,89.39016 -47.31474,122.13741 -13.40642,16.74337 -26.54184,29.61098 -33.26161,32.58345 -7.93342,3.50933 -19.66061,4.53267 -27.56931,2.40576 z"
   id="path1486" /><path
   style="fill:#c80000;fill-opacity:0.999957;stroke-width:2.62318;filter:url(#filter865)"
   d="m 801.58549,560.63902 c -8.29731,-1.94599 -17.41682,-9.2444 -20.88048,-16.7108 -6.00899,-12.95319 -3.58287,-20.95878 13.23396,-43.66863 33.20071,-44.83505 51.77258,-81.43331 64.39962,-126.90775 8.47301,-30.51429 10.49834,-48.4497 10.50083,-92.99098 10e-4,-30.89532 -0.11856,-32.64431 -3.5322,-51.35323 -5.87961,-32.22401 -15.45087,-60.8926 -30.46663,-91.25607 C 823.02383,113.85681 812.88717,97.554296 794.28,72.519084 780.06484,53.39314 776.30733,44.975248 778.12245,36.321607 c 1.88626,-8.992839 7.30016,-16.974488 13.97949,-20.609836 12.44431,-6.7730448 25.63502,-6.8879815 38.91632,-0.339096 5.30137,2.614059 6.98608,3.999353 16.68406,13.718918 22.68023,22.730707 41.62784,47.045469 55.47266,71.185997 11.05315,19.27281 26.36918,50.86879 32.18339,66.39224 10.10343,26.97533 17.65194,64.51235 19.85991,98.75899 2.82553,43.82525 -3.42306,92.06015 -17.23911,133.07432 -7.59342,22.54175 -28.52934,64.57113 -44.27168,88.87651 -8.16929,12.61299 -21.5158,29.37367 -37.51737,47.11468 -16.20954,17.97159 -22.28642,22.64839 -33.10777,25.4799 -5.90731,1.5457 -16.36228,1.86902 -21.49686,0.66479 z"
   id="path1488" /><path
   style="fill:#c80000;fill-opacity:0.999957;stroke-width:2.62318;filter:url(#filter853)"
   d="m 286.9535,988.91903 c -8.2061,-0.30006 -16.38526,-0.92876 -18.1759,-1.3971 -5.58492,-1.46074 -11.8164,-8.04758 -13.12552,-13.87403 -1.48006,-6.58725 1.53727,-13.83045 18.07561,-43.39113 13.36522,-23.88904 34.25578,-65.51235 44.67317,-89.00889 41.17911,-92.8799 70.02036,-191.53235 87.59167,-299.61013 4.61313,-28.37444 7.79655,-42.44685 11.05835,-48.88372 6.01512,-11.87026 19.44556,-22.77325 33.3308,-27.05833 6.51788,-2.01146 32.94776,-3.1187 59.68078,-2.50024 39.71052,0.91871 47.78069,2.66707 59.95156,12.98821 5.25047,4.4525 10.28407,10.64485 12.98405,15.97301 4.06517,8.02223 6.60565,19.04095 11.40836,49.48107 22.25904,141.08013 69.37576,278.25532 135.26998,393.82374 12.56629,22.03936 15.30071,28.20897 15.27712,34.4695 -0.0255,6.76741 -3.51648,12.66097 -9.24427,15.60637 -5.62916,2.89467 -11.26795,3.45973 -38.36916,3.8449 -27.6363,0.39277 -34.51288,-0.0562 -40.53355,-2.64618 -4.32372,-1.86001 -9.05609,-6.95374 -12.87924,-13.86267 -6.47553,-11.70215 -27.15717,-56.23417 -30.46951,-65.60742 l -1.99368,-5.64171 -60.41631,0.27372 c -33.22897,0.15055 -83.23544,0.46242 -111.12549,0.69304 l -50.70919,0.41932 -10.61693,24.03264 c -13.27825,30.05681 -21.26236,46.33102 -25.57893,52.13812 -3.98588,5.36221 -8.17894,7.91578 -14.73147,8.97147 -6.27033,1.01021 -33.53326,1.41728 -51.3323,0.76644 z M 572.43855,813.35712 c 2.62747,-0.33853 5.18913,-1.03094 5.6926,-1.53871 0.75859,-0.76507 -0.48912,-6.33152 -7.28446,-32.49849 -4.50992,-17.36642 -9.38704,-36.49376 -10.83806,-42.50521 l -2.63821,-10.92991 h -56.99511 -56.99512 l -6.46969,25.50313 c -3.55833,14.02671 -8.46287,32.97738 -10.89898,42.11259 -2.43611,9.13521 -4.42929,17.00193 -4.42929,17.4816 0,1.29714 1.16606,1.79809 5.47707,2.35302 5.667,0.72948 139.73074,0.74975 145.37925,0.022 z M 541.31452,636.88411 c -0.72204,-3.22423 -2.47936,-14.39528 -3.80086,-24.16146 -1.33615,-9.87454 -6.97931,-60.0776 -6.97931,-62.08983 0,-0.87444 -4.15978,-1.0145 -30.13223,-1.0145 h -30.13223 l -0.38151,1.9084 c -0.20983,1.04962 -1.49995,11.74531 -2.86693,23.76821 -3.10943,27.34807 -6.40699,55.52501 -7.00477,59.85427 l -0.45516,3.29632 h 41.05134 41.05133 z"
   id="path1490" /></svg>
