<?xml version="1.0" encoding="UTF-8"?>
<svg version="1.1" viewBox="0 0 14 14" xmlns="http://www.w3.org/2000/svg">
 <path d="m7.001 0.842-6.9226 11.487a0.5469 0.5469 0 0 0 0.18629 0.75113 0.5469 0.5469 0 0 0 0.75028-0.18629l5.6561-9.3853 0.59561 4.3094-1.4698 1.2143 0.23841 3.6138a0.5469 0.5469 0 0 0 0.58108 0.51016 0.5469 0.5469 0 0 0 0.51015-0.58194l-0.20167-3.0549 1.5082-1.2468-0.52639-3.8078 5.0785 8.4274a0.5469 0.5469 0 0 0 0.75028 0.18629 0.5469 0.5469 0 0 0 0.18629-0.75028z" color="#000000" stroke-linecap="round" style="-inkscape-stroke:none"/>
</svg>
