<?xml version="1.0" encoding="UTF-8" standalone="no"?>
<svg
   xmlns:dc="http://purl.org/dc/elements/1.1/"
   xmlns:cc="http://creativecommons.org/ns#"
   xmlns:rdf="http://www.w3.org/1999/02/22-rdf-syntax-ns#"
   xmlns:svg="http://www.w3.org/2000/svg"
   xmlns="http://www.w3.org/2000/svg"
   xmlns:sodipodi="http://sodipodi.sourceforge.net/DTD/sodipodi-0.dtd"
   xmlns:inkscape="http://www.inkscape.org/namespaces/inkscape"
   version="1.1"
   width="11"
   height="11"
   id="svg2816"
   inkscape:version="1.0.2 (e86c870879, 2021-01-15)"
   sodipodi:docname="map_teammate.svg">
  <metadata
     id="metadata9">
    <rdf:RDF>
      <cc:Work
         rdf:about="">
        <dc:format>image/svg+xml</dc:format>
        <dc:type
           rdf:resource="http://purl.org/dc/dcmitype/StillImage" />
        <dc:title />
      </cc:Work>
    </rdf:RDF>
  </metadata>
  <sodipodi:namedview
     pagecolor="#ff00ff"
     bordercolor="#666666"
     borderopacity="1"
     objecttolerance="10"
     gridtolerance="10"
     guidetolerance="10"
     inkscape:pageopacity="0"
     inkscape:pageshadow="2"
     inkscape:window-width="1680"
     inkscape:window-height="1027"
     id="namedview7"
     showgrid="true"
     inkscape:zoom="19.812501"
     inkscape:cx="6.9622372"
     inkscape:cy="4.4463945"
     inkscape:window-x="-8"
     inkscape:window-y="-8"
     inkscape:window-maximized="1"
     inkscape:current-layer="layer5"
     inkscape:document-rotation="0">
    <inkscape:grid
       type="xygrid"
       id="grid4816"
       empspacing="5"
       visible="true"
       enabled="true"
       snapvisiblegridlinesonly="true" />
  </sodipodi:namedview>
  <defs
     id="defs2818" />
  <g
     transform="translate(-4,-1)"
     id="layer1" />
  <g
     inkscape:groupmode="layer"
     id="layer2"
     inkscape:label="MASK_Image"
     transform="translate(0,-8)"
     style="display:inline" />
  <g
     inkscape:groupmode="layer"
     id="layer5"
     inkscape:label="NOAA_Image"
     transform="translate(0,-8)"
     style="display:inline">
    <g
       id="g2716"
       style="display:inline"
       transform="translate(-11.330078,-389.08196)">
      <path
         d="m 21.555078,402.58196 a 4.725,4.725 0 0 1 -9.45,0 4.725,4.725 0 1 1 9.45,0 z"
         id="path1446"
         style="opacity:0.99;fill:#ffff00;fill-opacity:1;fill-rule:evenodd;stroke:none;stroke-width:1" />
      <path
         id="path1410"
         style="opacity:0.99;fill:#000000;fill-opacity:1;fill-rule:evenodd;stroke:none"
         d="m 16.869141,384.08203 a 5.5,5.5 0 0 0 -5.539063,5.5 5.5,5.5 0 0 0 11,0 5.5,5.5 0 0 0 -5.460937,-5.5 z m -0.150391,1.00195 a 4.5,4.5 0 0 1 4.611328,4.49805 4.5,4.5 0 0 1 -9,0 4.5,4.5 0 0 1 4.388672,-4.49805 z"
         transform="translate(0,13)" />
      <path
         style="color:#000000;font-style:normal;font-variant:normal;font-weight:normal;font-stretch:normal;font-size:medium;line-height:normal;font-family:sans-serif;font-variant-ligatures:normal;font-variant-position:normal;font-variant-caps:normal;font-variant-numeric:normal;font-variant-alternates:normal;font-variant-east-asian:normal;font-feature-settings:normal;font-variation-settings:normal;text-indent:0;text-align:start;text-decoration:none;text-decoration-line:none;text-decoration-style:solid;text-decoration-color:#000000;letter-spacing:normal;word-spacing:normal;text-transform:none;writing-mode:lr-tb;direction:ltr;text-orientation:mixed;dominant-baseline:auto;baseline-shift:baseline;text-anchor:start;white-space:normal;shape-padding:0;shape-margin:0;inline-size:0;clip-rule:nonzero;display:inline;overflow:visible;visibility:visible;opacity:1;isolation:auto;mix-blend-mode:normal;color-interpolation:sRGB;color-interpolation-filters:linearRGB;solid-color:#000000;solid-opacity:1;vector-effect:none;fill:#000000;fill-opacity:1;fill-rule:nonzero;stroke:none;stroke-linecap:butt;stroke-linejoin:miter;stroke-miterlimit:4;stroke-dasharray:none;stroke-dashoffset:0;stroke-opacity:1;color-rendering:auto;image-rendering:auto;shape-rendering:auto;text-rendering:auto;enable-background:accumulate;stop-color:#000000;stop-opacity:1"
         d="m 14.269531,404.52734 -0.273437,0.76758 c 1.993009,0.70686 3.822674,0.74278 5.683594,-0.006 l -0.302735,-0.75586 c -1.686377,0.67842 -3.249405,0.65313 -5.107422,-0.006 z"
         id="path1462" />
      <path
         id="path608"
         style="fill:#000000;stroke:none;stroke-width:1px;stroke-linecap:butt;stroke-linejoin:miter;stroke-opacity:1"
         d="m 16.827564,400.33436 -3.341797,0.043 c -1.014756,0.48385 -0.441705,2.78247 0.800782,2.78321 1.227816,7.2e-4 1.846686,-2.07765 2.566406,-2.0293 0.71972,-0.0483 1.33859,2.03002 2.566406,2.0293 1.242487,-7.4e-4 1.815538,-2.29936 0.800781,-2.78321 l -3.341796,-0.043 z" />
    </g>
  </g>
</svg>
