<svg width="22" height="22" viewBox="0 0 22 22" fill="none" xmlns="http://www.w3.org/2000/svg">
<mask id="path-1-outside-1_38_288" maskUnits="userSpaceOnUse" x="1" y="0" width="13" height="14" fill="black">
<rect fill="white" x="1" width="13" height="14"/>
<path d="M11 8.5V1H13V13H2V7L5 8.5V7L8 8.5V7L11 8.5Z"/>
</mask>
<path d="M11 8.5V1H13V13H2V7L5 8.5V7L8 8.5V7L11 8.5Z" fill="#444444"/>
<path d="M11 8.5V1H13V13H2V7L5 8.5V7L8 8.5V7L11 8.5Z" stroke="white" stroke-width="2" mask="url(#path-1-outside-1_38_288)"/>
<rect width="1" height="1" transform="matrix(-1 0 0 1 10 10)" fill="white"/>
<rect width="1" height="1" transform="matrix(-1 0 0 1 8 10)" fill="white"/>
<rect width="1" height="1" transform="matrix(-1 0 0 1 6 10)" fill="white"/>
<rect width="1" height="1" transform="matrix(-1 0 0 1 4 10)" fill="white"/>
</svg>
