<?xml version="1.0" encoding="UTF-8"?>
<svg version="1.1" viewBox="0 0 14 14" xmlns="http://www.w3.org/2000/svg">
 <g transform="matrix(.74949 0 0 .69533 76.259 39.749)" stroke-width="3.4631">
  <path d="m-96.082-56.447a0.73005 0.73005 0 0 0-0.72852 0.79492s0.82153 9.7349-3.5508 16.787a0.72997 0.72997 0 0 0 0.23438 1.0059 0.72997 0.72997 0 0 0 1.0059-0.23633c4.4132-7.118 3.8418-15.696 3.75-16.893h5.9238c-0.09184 1.1965-0.66122 9.7745 3.752 16.893a0.72997 0.72997 0 0 0 1.0059 0.23633 0.72997 0.72997 0 0 0 0.23438-1.0059c-4.3723-7.0522-3.5508-16.787-3.5508-16.787a0.73005 0.73005 0 0 0-0.72852-0.79492z" color="#000000" stroke-linecap="round" stroke-linejoin="round" stroke-width="3.4631" style="-inkscape-stroke:none"/>
 </g>
</svg>
