<svg width="22" height="22" viewBox="0 0 22 22" fill="none" xmlns="http://www.w3.org/2000/svg">
<mask id="path-1-outside-1_38_239" maskUnits="userSpaceOnUse" x="2" y="7" width="15" height="6" fill="black">
<rect fill="white" x="2" y="7" width="15" height="6"/>
<path fill-rule="evenodd" clip-rule="evenodd" d="M16 8H3V12H4V10.6C4 9.71634 4.67157 9 5.5 9C6.32843 9 7 9.71634 7 10.6V12H8V10.6C8 9.71634 8.67157 9 9.5 9C10.3284 9 11 9.71634 11 10.6V12H12V10.6C12 9.71634 12.6716 9 13.5 9C14.3284 9 15 9.71634 15 10.6V12H16V8Z"/>
</mask>
<path fill-rule="evenodd" clip-rule="evenodd" d="M16 8H3V12H4V10.6C4 9.71634 4.67157 9 5.5 9C6.32843 9 7 9.71634 7 10.6V12H8V10.6C8 9.71634 8.67157 9 9.5 9C10.3284 9 11 9.71634 11 10.6V12H12V10.6C12 9.71634 12.6716 9 13.5 9C14.3284 9 15 9.71634 15 10.6V12H16V8Z" fill="#444444"/>
<path d="M3 8V7H2V8H3ZM16 8H17V7H16V8ZM3 12H2V13H3V12ZM4 12V13H5V12H4ZM7 12H6V13H7V12ZM8 12V13H9V12H8ZM11 12H10V13H11V12ZM12 12V13H13V12H12ZM15 12H14V13H15V12ZM16 12V13H17V12H16ZM3 9H16V7H3V9ZM4 12V8H2V12H4ZM4 11H3V13H4V11ZM3 10.6V12H5V10.6H3ZM5.5 8C4.05947 8 3 9.22583 3 10.6H5C5 10.2069 5.28367 10 5.5 10V8ZM8 10.6C8 9.22583 6.94053 8 5.5 8V10C5.71633 10 6 10.2069 6 10.6H8ZM8 12V10.6H6V12H8ZM8 11H7V13H8V11ZM7 10.6V12H9V10.6H7ZM9.5 8C8.05947 8 7 9.22583 7 10.6H9C9 10.2069 9.28367 10 9.5 10V8ZM12 10.6C12 9.22583 10.9405 8 9.5 8V10C9.71633 10 10 10.2069 10 10.6H12ZM12 12V10.6H10V12H12ZM12 11H11V13H12V11ZM13 12V10.6H11V12H13ZM13 10.6C13 10.2069 13.2837 10 13.5 10V8C12.0595 8 11 9.22583 11 10.6H13ZM13.5 10C13.7163 10 14 10.2069 14 10.6H16C16 9.22583 14.9405 8 13.5 8V10ZM14 10.6V12H16V10.6H14ZM16 11H15V13H16V11ZM15 8V12H17V8H15Z" fill="white" mask="url(#path-1-outside-1_38_239)"/>
<rect x="2.5" y="5.5" width="14" height="2" fill="#444444" stroke="white"/>
</svg>
