<?xml version="1.0" encoding="UTF-8"?>
<svg version="1.1" viewBox="0 0 14 14" xmlns="http://www.w3.org/2000/svg">
 <path d="m7.0449 0.68271a6.3174 6.3174 0 0 0-6.3623 6.3174 6.3174 6.3174 0 0 0 12.635 0 6.3174 6.3174 0 0 0-6.2724-6.3174zm-0.17274 1.1509a5.1688 5.1688 0 0 1 5.2966 5.1665 5.1688 5.1688 0 0 1-10.338 0 5.1688 5.1688 0 0 1 5.0409-5.1665z" fill="#f9f9f9" fill-rule="evenodd" opacity=".99" stroke-width=".90909"/>
 <path d="m12.427 7.0018a5.4272 5.4272 0 0 1-10.854 0 5.4272 5.4272 0 1 1 10.854 0z" fill="#2c5aa0" fill-rule="evenodd" opacity=".99" stroke-width=".90909"/>
</svg>
