<svg width="22" height="22" viewBox="0 0 22 22" fill="none" xmlns="http://www.w3.org/2000/svg">
<mask id="path-1-outside-1_16_670" maskUnits="userSpaceOnUse" x="3" y="2" width="16" height="14" fill="black">
<rect fill="white" x="3" y="2" width="16" height="14"/>
<path fill-rule="evenodd" clip-rule="evenodd" d="M5.31971 3.16083C12.1105 2.18025 16.2895 5.80729 17.983 10.6708C18.0342 10.8179 17.9667 10.9806 17.8242 11.046C17.3628 11.2575 16.96 11.3625 16.178 11.3311C16.067 11.3266 15.967 11.261 15.9143 11.1641C15.8565 11.0577 15.7983 10.9531 15.7398 10.8502L10.6275 13.3568C10.4698 13.4341 10.2787 13.3702 10.2007 13.214C10.1226 13.0578 10.1872 12.8685 10.3449 12.7911L15.4163 10.3047C13.4363 7.10755 11.0072 5.74939 6.88256 5.34818L7.15858 10.817C7.16737 10.991 7.03205 11.1392 6.85634 11.1479C6.68062 11.1566 6.53106 11.0226 6.52228 10.8485L6.24195 5.29442C6.04154 5.28014 5.8373 5.26783 5.62912 5.25742C5.48961 5.25045 5.35499 5.18609 5.28033 5.06913C4.9555 4.56022 4.96327 4.06154 5.05436 3.42242C5.07365 3.2871 5.1832 3.18054 5.31971 3.16083ZM8.4664 9.96916C8.64785 9.67051 9.03933 9.57412 9.3408 9.75387L10.3947 10.3822C10.6961 10.562 10.7934 10.9498 10.612 11.2485L8.5185 14.6942C8.33706 14.9929 7.94558 15.0893 7.64411 14.9095L6.59025 14.2811C6.28878 14.1014 6.19149 13.7136 6.37293 13.4149L8.4664 9.96916Z"/>
</mask>
<path fill-rule="evenodd" clip-rule="evenodd" d="M5.31971 3.16083C12.1105 2.18025 16.2895 5.80729 17.983 10.6708C18.0342 10.8179 17.9667 10.9806 17.8242 11.046C17.3628 11.2575 16.96 11.3625 16.178 11.3311C16.067 11.3266 15.967 11.261 15.9143 11.1641C15.8565 11.0577 15.7983 10.9531 15.7398 10.8502L10.6275 13.3568C10.4698 13.4341 10.2787 13.3702 10.2007 13.214C10.1226 13.0578 10.1872 12.8685 10.3449 12.7911L15.4163 10.3047C13.4363 7.10755 11.0072 5.74939 6.88256 5.34818L7.15858 10.817C7.16737 10.991 7.03205 11.1392 6.85634 11.1479C6.68062 11.1566 6.53106 11.0226 6.52228 10.8485L6.24195 5.29442C6.04154 5.28014 5.8373 5.26783 5.62912 5.25742C5.48961 5.25045 5.35499 5.18609 5.28033 5.06913C4.9555 4.56022 4.96327 4.06154 5.05436 3.42242C5.07365 3.2871 5.1832 3.18054 5.31971 3.16083ZM8.4664 9.96916C8.64785 9.67051 9.03933 9.57412 9.3408 9.75387L10.3947 10.3822C10.6961 10.562 10.7934 10.9498 10.612 11.2485L8.5185 14.6942C8.33706 14.9929 7.94558 15.0893 7.64411 14.9095L6.59025 14.2811C6.28878 14.1014 6.19149 13.7136 6.37293 13.4149L8.4664 9.96916Z" fill="#444444"/>
<path fill-rule="evenodd" clip-rule="evenodd" d="M5.31971 3.16083C12.1105 2.18025 16.2895 5.80729 17.983 10.6708C18.0342 10.8179 17.9667 10.9806 17.8242 11.046C17.3628 11.2575 16.96 11.3625 16.178 11.3311C16.067 11.3266 15.967 11.261 15.9143 11.1641C15.8565 11.0577 15.7983 10.9531 15.7398 10.8502L10.6275 13.3568C10.4698 13.4341 10.2787 13.3702 10.2007 13.214C10.1226 13.0578 10.1872 12.8685 10.3449 12.7911L15.4163 10.3047C13.4363 7.10755 11.0072 5.74939 6.88256 5.34818L7.15858 10.817C7.16737 10.991 7.03205 11.1392 6.85634 11.1479C6.68062 11.1566 6.53106 11.0226 6.52228 10.8485L6.24195 5.29442C6.04154 5.28014 5.8373 5.26783 5.62912 5.25742C5.48961 5.25045 5.35499 5.18609 5.28033 5.06913C4.9555 4.56022 4.96327 4.06154 5.05436 3.42242C5.07365 3.2871 5.1832 3.18054 5.31971 3.16083ZM8.4664 9.96916C8.64785 9.67051 9.03933 9.57412 9.3408 9.75387L10.3947 10.3822C10.6961 10.562 10.7934 10.9498 10.612 11.2485L8.5185 14.6942C8.33706 14.9929 7.94558 15.0893 7.64411 14.9095L6.59025 14.2811C6.28878 14.1014 6.19149 13.7136 6.37293 13.4149L8.4664 9.96916Z" stroke="white" stroke-width="2" stroke-linecap="round" mask="url(#path-1-outside-1_16_670)"/>
</svg>
