<?xml version="1.0" encoding="UTF-8"?>
<svg version="1.1" viewBox="0 0 14 14" xmlns="http://www.w3.org/2000/svg">
 <path d="m2.6156 6.6104c1e-6 -1.5901 0.8368-3.0553 2.1934-3.8477 1.3566-0.79239 3.0223-0.79239 4.3789 0 1.3566 0.7924 2.1953 2.2576 2.1953 3.8477v5.2187l-1.8453 1e-5v-1.752c0-1.572-1.2295-2.8887-2.7676-2.8887-1.5381 0-2.7656 1.3167-2.7656 2.8887v1.752l-1.389-1e-5zm9.9035 6.3535-3e-3 -6.3535c-0.0286-2.0802-1.1143-3.642-2.7558-4.8262-0.85339-0.49849-1.808-0.74805-2.7617-0.74805h-5e-5c-0.95368 0-1.9064 0.24956-2.7598 0.74805-1.8174 1.0688-2.5577 2.8306-2.7578 4.8262l1.83e-4 6.3535z" color="#000000" stroke-dashoffset="2.1" stroke-linecap="round" stroke-miterlimit="3" style="-inkscape-stroke:none;paint-order:stroke markers fill"/>
</svg>
