<?xml version="1.0" encoding="UTF-8" standalone="no"?>
<svg
   version="1.1"
   viewBox="0 0 22 22"
   id="svg2"
   sodipodi:docname="map_taskturnpoint.svg"
   width="22"
   height="22"
   inkscape:version="1.2.2 (732a01da63, 2022-12-09)"
   xmlns:inkscape="http://www.inkscape.org/namespaces/inkscape"
   xmlns:sodipodi="http://sodipodi.sourceforge.net/DTD/sodipodi-0.dtd"
   xmlns="http://www.w3.org/2000/svg"
   xmlns:svg="http://www.w3.org/2000/svg">
  <defs
     id="defs6" />
  <sodipodi:namedview
     id="namedview4"
     pagecolor="#ff00ff"
     bordercolor="#666666"
     borderopacity="1.0"
     inkscape:showpageshadow="2"
     inkscape:pageopacity="0"
     inkscape:pagecheckerboard="true"
     inkscape:deskcolor="#d1d1d1"
     showgrid="false"
     inkscape:zoom="17.6"
     inkscape:cx="13.267045"
     inkscape:cy="16.136364"
     inkscape:window-width="2560"
     inkscape:window-height="1417"
     inkscape:window-x="-8"
     inkscape:window-y="-8"
     inkscape:window-maximized="1"
     inkscape:current-layer="layer1"
     showguides="true" />
  <g
     inkscape:groupmode="layer"
     id="layer1"
     inkscape:label="Image">
    <g
       id="g3781"
       transform="matrix(0.60131902,0,0,0.60131902,-11.349219,-9.5951764)"
       style="stroke-width:2.49452">
      <g
         id="path5371-2"
         style="stroke-width:2.49452">
        <path
           style="color:#000000;fill:#624e90;fill-rule:evenodd;stroke-width:2.49452;stroke-linecap:round;stroke-miterlimit:2;-inkscape-stroke:none"
           d="m 37.1673,44.65008 -2.99672,-7.40267 -7.40288,-2.99693 7.40268,-2.99672 2.99692,-7.40288 2.99673,7.40268 7.40288,2.99692 -7.40268,2.99673 z"
           id="path910" />
        <path
           style="color:#000000;fill:#372a50;fill-rule:evenodd;stroke-width:2.49452;stroke-linecap:round;stroke-miterlimit:2;-inkscape-stroke:none"
           d="m 36.15625,23.441406 -2.824219,6.97461 -6.974609,2.824218 v 2.021485 l 6.974609,2.824218 2.824219,6.972657 h 2.021484 l 2.824219,-6.972657 6.974609,-2.824218 v -2.021485 l -6.974609,-2.824218 -2.824219,-6.97461 z m 1.011719,3.316406 2.158203,5.333985 L 44.660156,34.25 39.326172,36.410156 37.167969,41.744141 35.007812,36.410156 29.673828,34.25 35.007812,32.091797 Z"
           id="path912" />
      </g>
    </g>
  </g>
</svg>
