<?xml version="1.0" encoding="UTF-8" standalone="no"?>
<svg
   version="1.1"
   viewBox="0 0 22 22"
   id="svg2"
   sodipodi:docname="map_obstacle.svg"
   width="22"
   height="22"
   inkscape:version="1.2.2 (732a01da63, 2022-12-09)"
   xmlns:inkscape="http://www.inkscape.org/namespaces/inkscape"
   xmlns:sodipodi="http://sodipodi.sourceforge.net/DTD/sodipodi-0.dtd"
   xmlns="http://www.w3.org/2000/svg"
   xmlns:svg="http://www.w3.org/2000/svg">
  <defs
     id="defs6" />
  <sodipodi:namedview
     id="namedview4"
     pagecolor="#ff00ff"
     bordercolor="#666666"
     borderopacity="1.0"
     inkscape:showpageshadow="2"
     inkscape:pageopacity="0"
     inkscape:pagecheckerboard="true"
     inkscape:deskcolor="#d1d1d1"
     showgrid="false"
     inkscape:zoom="9.0769225"
     inkscape:cx="-45.00424"
     inkscape:cy="13.22034"
     inkscape:window-width="2560"
     inkscape:window-height="1417"
     inkscape:window-x="-8"
     inkscape:window-y="-8"
     inkscape:window-maximized="1"
     inkscape:current-layer="layer1" />
  <g
     inkscape:groupmode="layer"
     id="layer1"
     inkscape:label="Image">
    <g
       id="g6648"
       transform="matrix(0.68747506,0,0,0.68747506,3.9917511e-4,-13.993877)"
       style="stroke-width:1.4546">
      <path
         style="color:#000000;fill:#000000;stroke-width:1.4546;stroke-linecap:round;stroke-linejoin:round;stroke-miterlimit:3;-inkscape-stroke:none"
         d="m 16,20.355469 a 1.250125,1.250125 0 0 0 -1.205078,0.921875 l -8.0507814,29.5 A 1.25,1.25 0 0 0 7.6210937,52.3125 1.25,1.25 0 0 0 9.15625,51.435547 L 16,26.351562 22.84375,51.435547 a 1.25,1.25 0 0 0 1.535156,0.876953 1.25,1.25 0 0 0 0.876953,-1.535156 l -8.050781,-29.5 A 1.250125,1.250125 0 0 0 16,20.355469 Z"
         id="path2798" />
      <ellipse
         style="fill:#000000;stroke-width:3.6365;stroke-linecap:round;stroke-linejoin:round;stroke-miterlimit:5.3"
         id="ellipse2800"
         cx="16"
         cy="49.259953"
         rx="2.2279794"
         ry="2.1881087" />
    </g>
  </g>
</svg>
