<?xml version="1.0" encoding="UTF-8"?>
<svg version="1.1" width="26" height="26" viewBox="0 0 26 26" xmlns="http://www.w3.org/2000/svg">
 <g transform="matrix(.93924 0 0 .94632 -233.35 -26.384)" stroke-linecap="round" stroke-linejoin="round" stroke-width="1.591">
  <path d="m262.28 31.787a0.7956 0.7956 0 0 0-0.75586 0.54492l-6.0098 18.07a0.79553 0.79553 0 0 0 0.5039 1.0059 0.79553 0.79553 0 0 0 1.0059-0.50391l5.2559-15.801 5.2559 15.801a0.79553 0.79553 0 0 0 1.0059 0.50391 0.79553 0.79553 0 0 0 0.50391-1.0059l-6.0117-18.07a0.7956 0.7956 0 0 0-0.75391-0.54492z" color="#000000" stroke-miterlimit="3" style="-inkscape-stroke:none"/>
  <ellipse cx="262.28" cy="49.522" rx="1.3459" ry="1.3403" stroke-miterlimit="5.3"/>
 </g>
</svg>
