<?xml version="1.0" encoding="UTF-8"?>
<svg version="1.1" viewBox="0 0 14 14" xmlns="http://www.w3.org/2000/svg">
 <g transform="translate(-208.23 -186.37)" stroke-dashoffset="2.1034" stroke-linecap="square" stroke-miterlimit="3">
  <path d="m209.76 187.74 1.929 9.1875 1.1094-0.23437-1.6426-7.8203h8.2773l-0.42382 3.5391 1.125 0.13476 0.57721-4.8067z" color="#000000" style="-inkscape-stroke:none;paint-order:stroke fill markers"/>
  <path d="m214.81 190.14-1.2621 0.0149 0.25976 0.5039c0.91124 1.7614 0.93826 5.1209 0.8418 7.7344l-0.0215 0.5664 1.1328 0.043 0.0215-0.5664c0.0975-2.6402 0.1895-6.0638-0.96679-8.2988z" color="#000000" style="-inkscape-stroke:none;paint-order:stroke fill markers"/>
  <path d="m217.13 190.14-1.2621 0.0149 0.25976 0.5039c0.91125 1.7614 0.93827 5.1209 0.8418 7.7344l-0.0215 0.5664 1.1328 0.043 0.0215-0.5664c0.0974-2.6402 0.1895-6.0638-0.96679-8.2988z" color="#000000" style="-inkscape-stroke:none;paint-order:stroke fill markers"/>
 </g>
</svg>
