<?xml version="1.0" encoding="utf-8"?>
<!-- Svg Vector Icons : http://www.onlinewebfonts.com/icon -->
<!DOCTYPE svg PUBLIC "-//W3C//DTD SVG 1.1//EN" "http://www.w3.org/Graphics/SVG/1.1/DTD/svg11.dtd">
<svg version="1.1" xmlns="http://www.w3.org/2000/svg" xmlns:xlink="http://www.w3.org/1999/xlink" x="0px" y="0px" viewBox="0 0 1000 1000" enable-background="new 0 0 1000 1000" xml:space="preserve">
<metadata> Svg Vector Icons : http://www.onlinewebfonts.com/icon </metadata>
<g><g transform="translate(0.000000,511.000000) scale(0.100000,-0.100000)"><path d="M4527.9,4552.9c-1082.4-111-2133.3-594.6-2912.2-1344.1C763.7,2388.1,248.6,1341.4,120.9,166.9c-12.6-111-20.9-1084.5-20.9-2349v-2162.7h2219.2h2219.2v450.1v450.1H4999h460.6v-450.1v-450.1h2219.2H9900l-8.4,2277.8c-6.3,2432.7-4.2,2351.1-111,2820.1c-161.2,703.4-492,1388-946.3,1968c-62.8,79.6-238.7,270.1-389.4,420.8c-753.7,753.7-1664.4,1210.1-2748.9,1379.7C5444.9,4561.3,4785.4,4578,4527.9,4552.9z M5413.5,3671.5c477.3-50.2,896.1-171.7,1323.1-376.8c1252-602.9,2097.8-1783.7,2261.1-3159.2c14.7-131.9,20.9-615.5,16.7-1450.8l-6.3-1252l-1111.7,833.2L6782.7-900.8l-8.4,429.2c-8.4,305.7-20.9,464.8-46.1,554.8c-182.1,661.6-657.4,1141-1300.1,1310.6c-234.5,60.7-623.9,60.7-858.4,0c-669.9-178-1172.4-703.4-1310.6-1373.4c-29.3-140.3-39.8-282.6-39.8-554.8l-2.1-366.4l-1090.8-816.5c-598.7-448-1103.3-824.9-1120.1-833.2c-25.1-16.8-29.3,171.7-20.9,1371.3l6.3,1388l56.5,253.3c236.6,1080.3,831.2,1959.6,1720.9,2554.2C3550.2,3535.4,4502.8,3772,5413.5,3671.5z M5300.4,514.4c234.5-81.6,445.9-284.7,538-519.2c41.9-104.7,50.3-167.5,56.5-450.1l8.4-330.8h-902.3h-902.3v291c0,230.3,8.4,318.2,41.9,425C4291.3,422.3,4814.7,686.1,5300.4,514.4z M5459.5-2115.1v-450.1H4999h-460.6v450.1v450.1H4999h460.6V-2115.1z"/></g></g>
</svg>