<svg width="22" height="22" viewBox="0 0 22 22" fill="none" xmlns="http://www.w3.org/2000/svg">
<mask id="path-1-outside-1_35_67" maskUnits="userSpaceOnUse" x="1" y="0" width="13" height="19" fill="black">
<rect fill="white" x="1" width="13" height="19"/>
<path fill-rule="evenodd" clip-rule="evenodd" d="M2 5H2.625L3.5 3L4.375 5H5V12H6V11H7V12H8V11H9V12H10V11H11V12H12V11H13V18H11V15.6C11 14.7163 9.82843 14 9 14C8.17157 14 7 14.7163 7 15.6V18H2V5ZM4 8V6.8C4 6.35817 3.77614 6 3.5 6C3.22386 6 3 6.35817 3 6.8V8H4Z"/>
</mask>
<path fill-rule="evenodd" clip-rule="evenodd" d="M2 5H2.625L3.5 3L4.375 5H5V12H6V11H7V12H8V11H9V12H10V11H11V12H12V11H13V18H11V15.6C11 14.7163 9.82843 14 9 14C8.17157 14 7 14.7163 7 15.6V18H2V5ZM4 8V6.8C4 6.35817 3.77614 6 3.5 6C3.22386 6 3 6.35817 3 6.8V8H4Z" fill="#444444"/>
<path fill-rule="evenodd" clip-rule="evenodd" d="M2 5H2.625L3.5 3L4.375 5H5V12H6V11H7V12H8V11H9V12H10V11H11V12H12V11H13V18H11V15.6C11 14.7163 9.82843 14 9 14C8.17157 14 7 14.7163 7 15.6V18H2V5ZM4 8V6.8C4 6.35817 3.77614 6 3.5 6C3.22386 6 3 6.35817 3 6.8V8H4Z" stroke="white" stroke-width="2" mask="url(#path-1-outside-1_35_67)"/>
</svg>
