<?xml version="1.0" encoding="UTF-8"?>
<svg version="1.1" width="26" height="26" viewBox="0 0 26 26" xmlns="http://www.w3.org/2000/svg">
 <path d="m23.588 5.9011-21.189 0.18933a0.74833 0.75182 0 0 0-0.20132 1.476l10.102 2.9089-2.2487 3.2123a0.74833 0.75182 0 0 0 0.98942 1.0822l4.069-2.3818a0.74826 0.75174 0 0 0 0.26984-1.0284 0.74826 0.75174 0 0 0-1.0237-0.2711l-1.1136 0.65193 0.88448-1.2651a0.74833 0.75182 0 0 0-0.40476-1.1554l-6.1549-1.7729 13.181-0.11833-3.1417 1.8138a0.74826 0.75174 0 0 0-0.27626 1.0263 0.74826 0.75174 0 0 0 1.0215 0.27755l5.6152-3.2424a0.74833 0.75182 0 0 0-0.37906-1.4028z" color="#000000" stroke-linecap="round" stroke-linejoin="round" stroke-miterlimit="3" stroke-width="1.5" style="-inkscape-stroke:none;paint-order:stroke markers fill"/>
 <path d="m15.881 9.3105c-0.158 3.561e-4 -0.31183 0.05095-0.43945 0.14453-0.33366 0.24515-0.40625 0.71566-0.16211 1.0508l2.4434 3.3574-5.4629 4.9258c-0.65974 0.59971 0.08731 1.6486 0.86523 1.2148l5.5996-3.1504 1.916 0.84961c0.05452 0.02296 0.11156 0.03935 0.16992 0.04883 0.01428 0.0017 0.02861 3e-3 0.04297 0.0039 0.08136 0.01021 0.16384 0.0069 0.24414-0.0098 0.01642-4e-3 0.03271-0.0086 0.04883-0.01367 0.07938-0.02196 0.15461-0.05694 0.22266-0.10352 0.0052-0.0025 0.01045-0.0051 0.01563-0.0078 0.02612-0.01983 0.05091-0.04136 0.07422-0.06445 0.03312-0.0323 0.0632-0.0676 0.08984-0.10547 2e-3 -0.0019 0.0039-0.0039 0.0059-0.0059l0.0039-0.0078c0.02636-0.03753 0.04924-0.07741 0.06836-0.11914 1e-6 -6.51e-4 1e-6 -0.0013 0-2e-3 0.0041-0.0097 8e-3 -0.01945 0.01172-0.0293 0.0027-0.0065 0.0053-0.01298 0.0078-0.01953 6.65e-4 -0.0026 0.0013-0.0052 2e-3 -0.0078 0.0084-0.02371 0.01553-0.04783 0.02148-0.07227 0.0038-0.01552 7e-3 -0.03115 0.0098-0.04687 6.82e-4 -0.0039 0.0013-0.0078 2e-3 -0.01172 7.2e-4 -0.0059 0.0014-0.01171 2e-3 -0.01758 0.0028-0.0201 0.0047-0.04029 0.0059-0.06055 1e-6 -6.51e-4 1e-6 -0.0013 0-2e-3 8e-6 -2e-3 8e-6 -0.0039 0-0.0059 8e-6 -2e-3 8e-6 -0.0039 0-0.0059 8e-6 -2e-3 8e-6 -0.0039 0-0.0059 2.1e-5 -0.0033 2.1e-5 -0.0065 0-0.0098 8e-6 -2e-3 8e-6 -0.0039 0-0.0059 8e-6 -2e-3 8e-6 -0.0039 0-0.0059 8e-6 -2e-3 8e-6 -0.0039 0-0.0059-3.7e-5 -0.0176-6.88e-4 -0.03518-2e-3 -0.05273-0.0015-0.01568-0.0034-0.03132-0.0059-0.04687 1e-6 -6.51e-4 1e-6 -0.0013 0-2e-3 1e-6 -6.51e-4 1e-6 -0.0013 0-2e-3 1e-6 -6.51e-4 1e-6 -0.0013 0-2e-3 -6.2e-4 -0.0039-0.0013-0.0078-2e-3 -0.01172-0.0058-0.03172-0.01363-0.06304-0.02344-0.09375-0.0092-0.02996-0.02032-0.05932-0.0332-0.08789-0.0013-0.0039-0.0026-0.0078-0.0039-0.01172-0.0019-0.0033-0.0039-0.0065-0.0059-0.0098-0.0139-0.0283-0.02955-0.0557-0.04687-0.08203-0.0063-0.01058-0.01277-0.021-0.01953-0.03125l-1.0254-1.4102c0.36384-0.20524 0.61524-0.5978 0.61524-1.041 0-0.6516-0.54472-1.1895-1.1895-1.1895-0.31007 0-0.59642 0.12641-0.81055 0.32812l-2.6505-3.6381c-0.14108-0.19423-0.36614-0.30893-0.60547-0.30859z" color="#000000" stroke-linecap="round" stroke-linejoin="round" stroke-miterlimit="3" stroke-width="1.5" style="-inkscape-stroke:none;paint-order:stroke markers fill"/>
</svg>
