<?xml version="1.0" encoding="UTF-8"?>
<svg version="1.1" width="26" height="26" viewBox="0 0 26 26" xmlns="http://www.w3.org/2000/svg">
 <path d="m4.0938 4.5a0.74888 0.75128 0 0 0-0.75 0.75195v7.748 7.748a0.74888 0.75128 0 0 0 0.75 0.75h4.4453a0.74843 0.75173 0 0 0 0.0078125 0.001953h8.9062a0.74843 0.75173 0 0 0 0.007813-0.001953h4.4473a0.74888 0.75128 0 0 0 0.74805-0.75v-7.748-7.748a0.74888 0.75128 0 0 0-0.74805-0.75195h-4.4551-8.9062-4.4531zm0.74805 1.502h2.4082l-2.4082 4.1895v-4.1895zm13.908 0h2.4102v4.1934l-2.4102-4.1934zm-9.7715 0.0019531h8.043l4.0215 6.9961-4.0215 6.9961h-8.043l-4.0215-6.9961 4.0215-6.9961zm4.0215 4.7148c-1.2468 0-2.2715 1.0304-2.2715 2.2812s1.0246 2.2832 2.2715 2.2832c1.2468 0 2.2734-1.0323 2.2734-2.2832s-1.0266-2.2812-2.2734-2.2812zm0 1.502c0.4365 0 0.77539 0.33941 0.77539 0.7793s-0.33889 0.78125-0.77539 0.78125c-0.43651 0-0.77539-0.34136-0.77539-0.78125s0.33888-0.7793 0.77539-0.7793zm8.1602 3.584v4.1914h-2.4102l2.4102-4.1914zm-16.318 0.003906 2.4082 4.1875h-2.4082v-4.1875z" color="#000000" fill="#2c5aa0" style="-inkscape-stroke:none"/>
</svg>
