<?xml version="1.0" encoding="UTF-8" standalone="no"?>
<svg
   xmlns:dc="http://purl.org/dc/elements/1.1/"
   xmlns:cc="http://creativecommons.org/ns#"
   xmlns:rdf="http://www.w3.org/1999/02/22-rdf-syntax-ns#"
   xmlns:svg="http://www.w3.org/2000/svg"
   xmlns="http://www.w3.org/2000/svg"
   xmlns:sodipodi="http://sodipodi.sourceforge.net/DTD/sodipodi-0.dtd"
   xmlns:inkscape="http://www.inkscape.org/namespaces/inkscape"
   version="1.1"
   x="0px"
   y="0px"
   viewBox="0 0 1000 1000"
   enable-background="new 0 0 1000 1000"
   xml:space="preserve"
   id="svg1612"
   sodipodi:docname="map_pglanding.svg"
   inkscape:version="1.0.2 (e86c870879, 2021-01-15)"><defs
   id="defs1616"><filter
     style="color-interpolation-filters:sRGB;"
     inkscape:label="Drop Shadow"
     id="filter3051"><feFlood
       flood-opacity="0.498039"
       flood-color="rgb(0,0,0)"
       result="flood"
       id="feFlood3041" /><feComposite
       in="flood"
       in2="SourceGraphic"
       operator="in"
       result="composite1"
       id="feComposite3043" /><feGaussianBlur
       in="composite1"
       stdDeviation="3"
       result="blur"
       id="feGaussianBlur3045" /><feOffset
       dx="6"
       dy="6"
       result="offset"
       id="feOffset3047" /><feComposite
       in="SourceGraphic"
       in2="offset"
       operator="over"
       result="composite2"
       id="feComposite3049" /></filter><filter
     style="color-interpolation-filters:sRGB;"
     inkscape:label="Drop Shadow"
     id="filter3063"><feFlood
       flood-opacity="0.498039"
       flood-color="rgb(0,0,0)"
       result="flood"
       id="feFlood3053" /><feComposite
       in="flood"
       in2="SourceGraphic"
       operator="in"
       result="composite1"
       id="feComposite3055" /><feGaussianBlur
       in="composite1"
       stdDeviation="3"
       result="blur"
       id="feGaussianBlur3057" /><feOffset
       dx="6"
       dy="6"
       result="offset"
       id="feOffset3059" /><feComposite
       in="SourceGraphic"
       in2="offset"
       operator="over"
       result="composite2"
       id="feComposite3061" /></filter><filter
     style="color-interpolation-filters:sRGB;"
     inkscape:label="Drop Shadow"
     id="filter3075"><feFlood
       flood-opacity="0.498039"
       flood-color="rgb(0,0,0)"
       result="flood"
       id="feFlood3065" /><feComposite
       in="flood"
       in2="SourceGraphic"
       operator="in"
       result="composite1"
       id="feComposite3067" /><feGaussianBlur
       in="composite1"
       stdDeviation="3"
       result="blur"
       id="feGaussianBlur3069" /><feOffset
       dx="6"
       dy="6"
       result="offset"
       id="feOffset3071" /><feComposite
       in="SourceGraphic"
       in2="offset"
       operator="over"
       result="composite2"
       id="feComposite3073" /></filter><filter
     style="color-interpolation-filters:sRGB;"
     inkscape:label="Drop Shadow"
     id="filter3087"><feFlood
       flood-opacity="0.498039"
       flood-color="rgb(0,0,0)"
       result="flood"
       id="feFlood3077" /><feComposite
       in="flood"
       in2="SourceGraphic"
       operator="in"
       result="composite1"
       id="feComposite3079" /><feGaussianBlur
       in="composite1"
       stdDeviation="3"
       result="blur"
       id="feGaussianBlur3081" /><feOffset
       dx="6"
       dy="6"
       result="offset"
       id="feOffset3083" /><feComposite
       in="SourceGraphic"
       in2="offset"
       operator="over"
       result="composite2"
       id="feComposite3085" /></filter></defs><sodipodi:namedview
   pagecolor="#ffffff"
   bordercolor="#666666"
   borderopacity="1"
   objecttolerance="10"
   gridtolerance="10"
   guidetolerance="10"
   inkscape:pageopacity="0"
   inkscape:pageshadow="2"
   inkscape:window-width="1855"
   inkscape:window-height="704"
   id="namedview1614"
   showgrid="false"
   inkscape:zoom="1.441"
   inkscape:cx="345.24636"
   inkscape:cy="500"
   inkscape:window-x="1981"
   inkscape:window-y="1452"
   inkscape:window-maximized="0"
   inkscape:current-layer="svg1612"
   inkscape:document-rotation="0" />
<metadata
   id="metadata1570"> Svg Vector Icons : http://www.onlinewebfonts.com/icon <rdf:RDF><cc:Work
     rdf:about=""><dc:format>image/svg+xml</dc:format><dc:type
       rdf:resource="http://purl.org/dc/dcmitype/StillImage" /></cc:Work></rdf:RDF></metadata>
<g
   id="g1610"
   style="filter:url(#filter3087)"><g
     id="g1578"><g
       id="g1576"><path
         d="M989.8,216.3c-1.3-5.7-6.4-9.2-15.3-10.5c-109.7-12.8-278.7-19.1-507.1-19.1c-167.1,0-319.6,6.4-457.3,19.1l9.6,4.8c3.8,1.9,10.2,7,19.1,15.3c8.9,8.3,16.9,17.5,23.9,27.7c7,10.2,12.4,24.6,16.3,43.1c3.8,18.5,4.5,38,1.9,58.4h12.4c5.7,0,16.6,1,32.5,2.9c15.9,1.9,30.9,5.4,45,10.5c14,5.1,29,14,45,26.8c15.9,12.8,29,28.7,39.2,47.8l229.6-67l-15.3,149.3l-97.6,23c-7.7,2.6-14.7,6.4-21,11.5L136.3,760.7c-6.4,5.1-9.6,12.1-9.6,21c0,8.9,3.2,16.3,9.6,22c6.4,5.7,13.7,8.9,22,9.6c8.3,0.6,15.6-2.2,22-8.6l160.7-151.2l197.1-45.9h-1.9l32.5-7.7l30.6,32.5c5.1,5.1,11.5,7.7,19.1,7.7l105.2,1.9c6.4,0,12.1-2.5,17.2-7.7c5.1-5.1,7.7-10.8,7.7-17.2c0-11.5-6.4-19.1-19.1-23l-78.5-267.9l327.2-95.7C987.2,226.8,991,222,989.8,216.3z M704.6,594.2h-42.1h-34.4l-55.5-63.1c-1.3-1.3-2.2-1.9-2.9-1.9h-1c-12.8-15.3-28.7-20.4-47.8-15.3l-28.7,5.7l15.3-151.2L628.1,334L704.6,594.2z"
         id="path1572" /><path
         d="M607,424.8c-12.8-4.5-25.2-3.8-37.3,1.9c-12.1,5.7-20.4,14.7-24.9,26.8c-4.5,12.1-3.5,24.2,2.9,36.4c6.4,12.1,15.6,20.4,27.7,24.9c12.1,4.5,24.2,3.8,36.4-1.9c12.1-5.7,20.4-15,24.9-27.7c4.5-12.8,3.8-24.9-1.9-36.4C629,437.3,619.8,429.3,607,424.8z"
         id="path1574" /></g></g><g
     id="g1580" /><g
     id="g1582" /><g
     id="g1584" /><g
     id="g1586" /><g
     id="g1588" /><g
     id="g1590" /><g
     id="g1592" /><g
     id="g1594" /><g
     id="g1596" /><g
     id="g1598" /><g
     id="g1600" /><g
     id="g1602" /><g
     id="g1604" /><g
     id="g1606" /><g
     id="g1608" /></g>
<path
   style="fill:#c80000;fill-opacity:0.999957;stroke-width:2.62318;filter:url(#filter3075)"
   d="m 155.31028,812.57978 c -11.10442,-1.91419 -21.38139,-9.35484 -25.80988,-18.68665 -1.63975,-3.4553 -1.8113,-4.6055 -1.8113,-12.14434 0,-8.11358 0.0591,-8.43653 2.30094,-12.5689 2.04959,-3.77803 14.29242,-15.47098 112.07495,-107.04124 60.3757,-56.53995 111.44498,-103.9235 113.48727,-105.29679 9.58876,-6.44774 11.79295,-7.11483 64.43357,-19.50057 l 49.40984,-11.62558 0.38144,-2.44842 c 1.04503,-6.70812 15.01825,-146.61443 14.67723,-146.95544 -0.29217,-0.29217 -224.1156,64.58016 -228.42122,66.20494 -0.40316,0.15214 -2.65977,-2.95789 -5.01468,-6.91119 -12.83868,-21.55282 -28.85684,-37.74783 -52.66682,-53.2483 -14.30193,-9.31064 -26.23918,-14.55076 -43.33086,-19.02101 -17.08909,-4.46957 -40.63128,-7.70382 -61.890122,-8.50252 l -11.657703,-0.43799 0.554303,-6.6566 C 83.630555,328.48499 81.88848,306.1751 77.415695,288.68142 70.867253,263.06956 61.692108,247.73282 40.87042,227.59406 30.741262,217.79713 24.259845,212.688 17.486685,209.16128 l -5.638561,-2.93595 2.403488,-0.39726 c 5.371362,-0.88779 67.927028,-5.80587 101.987108,-8.01814 120.08247,-7.79959 211.99119,-10.42805 364.67731,-10.42924 217.33829,-0.002 366.71922,5.32798 477.7932,17.04688 18.85094,1.98888 23.13782,2.98991 27.0145,6.30821 6.44129,5.51354 4.82367,12.76989 -3.8755,17.38479 -2.82269,1.49744 -53.61554,16.63818 -167.13622,49.82129 -89.69466,26.21855 -163.30179,47.87401 -163.57141,48.12323 -0.74692,0.69045 77.96683,268.66079 78.91651,268.66079 1.74865,0 9.29063,4.30322 11.78113,6.72193 11.39542,11.06713 6.68098,30.36753 -9.3397,38.23566 -4.45385,2.18738 1.31104,2.12402 -73.9281,0.81261 -46.78608,-0.81547 -48.45691,-0.96394 -54.50148,-4.84271 -2.65965,-1.7067 -21.90639,-21.43114 -32.24384,-33.04411 l -2.77585,-3.11836 -13.53227,3.18152 c -7.44275,1.74984 -15.24982,3.68555 -17.34906,4.30158 -2.09924,0.61602 -47.41565,11.30617 -100.70314,23.75588 l -96.88635,22.63584 -80.85794,76.10316 c -44.47188,41.85673 -82.28499,77.19242 -84.02914,78.52377 -5.29165,4.0392 -13.21484,5.82246 -20.38109,4.58713 z M 704.47214,592.81749 c -0.76321,-3.46535 -75.85871,-258.32851 -76.2243,-258.6941 -0.4125,-0.4125 -120.03986,33.52011 -120.7131,34.24059 -0.46022,0.4925 -15.834,150.87757 -15.46821,151.30873 0.11281,0.13298 8.42387,-1.42508 18.46901,-3.46235 14.33363,-2.90702 19.60793,-3.69667 24.50957,-3.6695 11.06436,0.0614 20.72972,4.22584 29.27867,12.61528 2.43085,2.3855 4.86498,4.33727 5.40916,4.33727 0.54419,0 13.88503,14.67313 29.6463,32.60695 l 28.65685,32.60695 38.42817,0.009 38.42818,0.009 -0.4203,-1.90839 z"
   id="path2179" /><path
   style="fill:#00c800;fill-opacity:0.99995703;stroke-width:2.62318;filter:url(#filter3063)"
   d="m 585.26685,516.97892 c -16.81173,-2.58229 -30.52137,-13.28844 -38.48211,-30.05151 -7.15314,-15.06248 -5.43781,-30.74767 4.95537,-45.3124 3.95198,-5.53821 10.15689,-10.59434 17.30916,-14.10454 7.62616,-3.74278 13.23492,-5.09025 21.16586,-5.08496 21.50336,0.0143 40.08215,13.14772 46.91015,33.16089 1.57983,4.63053 1.89794,6.76074 1.91722,12.83831 0.0282,8.8843 -1.20798,14.02977 -5.41836,22.55378 -3.59236,7.27284 -7.78918,12.30923 -13.87763,16.65386 -10.54278,7.52316 -23.49415,11.03396 -34.47966,9.34657 z"
   id="path2181" /><path
   style="fill:#00c800;fill-opacity:0.999957;stroke-width:2.62318;filter:url(#filter3051)"
   d="m 152.11056,811.58863 c -9.11054,-2.50455 -18.1812,-9.59351 -21.96554,-17.16665 -1.9941,-3.99053 -2.10893,-4.66928 -2.10893,-12.4647 0,-9.65203 0.72719,-11.64264 6.49578,-17.78151 8.40816,-8.94787 137.20887,-129.9067 200.65203,-188.43557 23.26009,-21.45837 25.43683,-22.96911 38.5546,-26.75835 8.11697,-2.3447 11.05842,-3.06066 60.28502,-14.67339 19.24728,-4.54051 35.20527,-8.59559 35.46219,-9.01128 0.52974,-0.85715 1.25315,-7.47997 6.55324,-59.99531 5.99597,-59.41045 8.77421,-88.6312 8.457,-88.94841 -0.16166,-0.16167 -6.96666,1.61741 -15.12222,3.95349 -49.33007,14.13016 -173.30449,50.07896 -198.93358,57.68469 -11.14551,3.30756 -14.29139,4.00802 -15.076,3.35686 -0.54532,-0.45258 -2.77513,-3.67986 -4.95511,-7.17174 C 234.48607,408.6716 210.6268,387.16744 183.00415,373.4253 161.36768,362.66126 131.7503,356.41777 94.210208,354.70709 c -6.581332,-0.29991 -12.062894,-0.67756 -12.181256,-0.83923 -0.118362,-0.16168 0.08907,-4.82206 0.460951,-10.35641 1.14229,-16.9996 -0.96238,-39.84188 -5.147279,-55.86398 C 73.540008,273.08895 67.262412,259.07307 59.949165,248.8134 54.64878,241.37755 39.270694,225.29997 30.406494,217.92693 26.901059,215.0112 21.508582,211.19985 18.423212,209.45728 l -5.609762,-3.1683 3.30875,-0.42565 c 9.035255,-1.16231 73.844087,-6.08755 110.52596,-8.39958 100.20149,-6.31561 156.29775,-8.22112 278.469,-9.45919 148.32914,-1.50314 315.78825,1.14678 421.04523,6.66276 69.35947,3.63477 142.23025,9.92353 153.36037,13.23503 5.25038,1.56212 9.72082,5.97611 9.72082,9.59805 0,5.21266 -3.5923,9.04057 -10.82248,11.53236 -8.65476,2.98274 -60.39896,18.44468 -123.80625,36.99512 -62.84878,18.38706 -157.56907,46.18949 -176.61346,51.83983 -11.83206,3.51049 -22.6839,6.69475 -24.1152,7.07613 -1.7819,0.47479 -2.60236,1.08575 -2.60236,1.93784 0,3.08209 68.18682,236.20425 76.74622,262.38561 l 1.73199,5.29782 4.30701,2.13279 c 5.85316,2.89837 8.82977,5.51994 11.27002,9.92559 1.83026,3.30439 2.05857,4.37232 2.05857,9.62983 0,5.26896 -0.24573,6.41244 -2.25531,10.4945 -2.4483,4.97317 -6.26933,8.93996 -11.66773,12.11291 l -3.42602,2.01366 -31.5753,-0.18102 c -40.85374,-0.23422 -81.12076,-1.30232 -86.38433,-2.29136 -2.28238,-0.42887 -5.09293,-1.24975 -6.24567,-1.82419 -2.21796,-1.10527 -22.1193,-21.07848 -30.89533,-31.0069 -2.86259,-3.2385 -5.75703,-5.91048 -6.43208,-5.93773 -0.67504,-0.0273 -13.32251,2.8968 -28.10548,6.4979 -14.78296,3.60111 -65.75737,15.64386 -113.27646,26.76169 -72.05674,16.85877 -86.68631,20.47728 -88.13324,21.79902 -0.95419,0.87165 -25.62456,24.03907 -54.82304,51.48315 -70.27065,66.04844 -102.91932,96.55474 -107.54637,100.4893 -6.33519,5.38705 -15.87138,7.30216 -24.52072,4.92438 z M 704.71895,593.77788 c 0,-1.33946 -26.27084,-91.1106 -61.15512,-208.97566 -15.90349,-53.73381 -15.06039,-51.1308 -16.43548,-50.74352 -0.64578,0.18188 -14.75847,4.12812 -31.36152,8.76943 -34.6404,9.68356 -84.39859,23.94786 -87.03829,24.95147 -0.9839,0.37408 -1.78891,1.14079 -1.78891,1.70379 0,0.56301 -1.55381,15.79454 -3.4529,33.84785 -1.89909,18.05331 -5.17196,50.15592 -7.27305,71.33913 -2.10108,21.1832 -3.99315,39.99826 -4.2046,41.81124 -0.29414,2.5221 -0.16009,3.29632 0.57075,3.29632 0.52536,0 8.26512,-1.42181 17.19948,-3.15958 8.93435,-1.73777 18.76208,-3.34144 21.83938,-3.56371 14.52402,-1.04905 25.48758,4.27954 41.14426,19.99723 3.92314,3.93842 22.07357,24.19107 42.6782,47.62127 l 12.35805,14.05274 h 38.45987 c 32.04805,0 38.45988,-0.15804 38.45988,-0.948 z"
   id="path2183" /></svg>
