<svg width="22" height="22" viewBox="0 0 22 22" fill="none" xmlns="http://www.w3.org/2000/svg">
<path d="M14.1429 9C14.1429 11.8403 11.8404 14.1429 9.00003 14.1429C6.15971 14.1429 3.85718 11.8403 3.85718 9C3.85718 6.15968 6.15971 3.85714 9.00003 3.85714C11.8404 3.85714 14.1429 6.15968 14.1429 9Z" fill="white"/>
<mask id="path-2-outside-1_17_78" maskUnits="userSpaceOnUse" x="3" y="3" width="12" height="12" fill="black">
<rect fill="white" x="3" y="3" width="12" height="12"/>
<path fill-rule="evenodd" clip-rule="evenodd" d="M14 9C14 11.7614 11.7614 14 9 14C6.23858 14 4 11.7614 4 9C4 6.23858 6.23858 4 9 4C11.7614 4 14 6.23858 14 9ZM9 13.2857C11.3669 13.2857 13.2857 11.3669 13.2857 9C13.2857 6.63307 11.3669 4.71429 9 4.71429C6.63307 4.71429 4.71429 6.63307 4.71429 9C4.71429 11.3669 6.63307 13.2857 9 13.2857Z"/>
</mask>
<path fill-rule="evenodd" clip-rule="evenodd" d="M14 9C14 11.7614 11.7614 14 9 14C6.23858 14 4 11.7614 4 9C4 6.23858 6.23858 4 9 4C11.7614 4 14 6.23858 14 9ZM9 13.2857C11.3669 13.2857 13.2857 11.3669 13.2857 9C13.2857 6.63307 11.3669 4.71429 9 4.71429C6.63307 4.71429 4.71429 6.63307 4.71429 9C4.71429 11.3669 6.63307 13.2857 9 13.2857Z" fill="#444444"/>
<path fill-rule="evenodd" clip-rule="evenodd" d="M14 9C14 11.7614 11.7614 14 9 14C6.23858 14 4 11.7614 4 9C4 6.23858 6.23858 4 9 4C11.7614 4 14 6.23858 14 9ZM9 13.2857C11.3669 13.2857 13.2857 11.3669 13.2857 9C13.2857 6.63307 11.3669 4.71429 9 4.71429C6.63307 4.71429 4.71429 6.63307 4.71429 9C4.71429 11.3669 6.63307 13.2857 9 13.2857Z" stroke="white" stroke-width="2" mask="url(#path-2-outside-1_17_78)"/>
<path d="M9 4.5L13 11H5L9 4.5Z" fill="#444444"/>
</svg>
