<?xml version="1.0" encoding="UTF-8" standalone="no"?>
<svg
   version="1.1"
   viewBox="0 0 22 22"
   id="svg2"
   sodipodi:docname="map_teammate.svg"
   width="22"
   height="22"
   inkscape:version="1.2.2 (732a01da63, 2022-12-09)"
   xmlns:inkscape="http://www.inkscape.org/namespaces/inkscape"
   xmlns:sodipodi="http://sodipodi.sourceforge.net/DTD/sodipodi-0.dtd"
   xmlns="http://www.w3.org/2000/svg"
   xmlns:svg="http://www.w3.org/2000/svg">
  <defs
     id="defs6" />
  <sodipodi:namedview
     id="namedview4"
     pagecolor="#ff00ff"
     bordercolor="#666666"
     borderopacity="1.0"
     inkscape:showpageshadow="2"
     inkscape:pageopacity="0"
     inkscape:pagecheckerboard="true"
     inkscape:deskcolor="#d1d1d1"
     showgrid="false"
     inkscape:zoom="6.4183535"
     inkscape:cx="-32.017557"
     inkscape:cy="13.087469"
     inkscape:window-width="2560"
     inkscape:window-height="1417"
     inkscape:window-x="-8"
     inkscape:window-y="-8"
     inkscape:window-maximized="1"
     inkscape:current-layer="layer1" />
  <g
     inkscape:groupmode="layer"
     id="layer1"
     inkscape:label="Image">
    <g
       transform="matrix(1.9999747,0,0,1.9999747,-14.999471,-30.99933)"
       stroke-width="0.500002"
       id="g9697">
      <path
         d="m 17.725,21 a 4.725,4.725 0 0 1 -9.45,0 4.725,4.725 0 1 1 9.45,0 z"
         fill="#ffff00"
         fill-rule="evenodd"
         opacity="0.99"
         stroke-width="0.454553"
         id="path3387" />
      <path
         d="m 13.039,15.5 a 5.5,5.5 0 0 0 -5.5391,5.5 5.5,5.5 0 0 0 11,0 5.5,5.5 0 0 0 -5.4609,-5.5 z m -0.15039,1.002 a 4.5,4.5 0 0 1 4.6113,4.498 4.5,4.5 0 0 1 -9,0 4.5,4.5 0 0 1 4.3887,-4.498 z"
         fill-rule="evenodd"
         opacity="0.99"
         stroke-width="0.454553"
         id="path3384" />
      <path
         d="m 10.44,22.95 -0.27344,0.76758 c 1.993,0.70686 3.8227,0.74278 5.6836,-0.006 l -0.30274,-0.75586 c -1.6864,0.67842 -3.2494,0.65313 -5.1074,-0.006 z"
         color="#000000"
         color-rendering="auto"
         dominant-baseline="auto"
         image-rendering="auto"
         shape-rendering="auto"
         solid-color="#000000"
         stop-color="#000000"
         stroke-width="0.454553"
         style="font-variant-ligatures:normal;font-variant-position:normal;font-variant-caps:normal;font-variant-numeric:normal;font-variant-alternates:normal;font-variant-east-asian:normal;font-feature-settings:normal;font-variation-settings:normal;text-indent:0;text-decoration-line:none;text-decoration-style:solid;text-decoration-color:#000000;text-transform:none;text-orientation:mixed;white-space:normal;shape-padding:0;shape-margin:0;inline-size:0;isolation:auto;mix-blend-mode:normal"
         id="path3381" />
      <path
         d="m 12.998,18.75 -3.3418,0.043 c -1.0148,0.48385 -0.4417,2.7825 0.80078,2.7832 1.2278,7.2e-4 1.8467,-2.0776 2.5664,-2.0293 0.71972,-0.0483 1.3386,2.03 2.5664,2.0293 1.2425,-7.4e-4 1.8155,-2.2994 0.80078,-2.7832 l -3.3418,-0.043 z"
         stroke-width="0.500002"
         id="path3378" />
    </g>
  </g>
</svg>
