<svg width="22" height="22" viewBox="0 0 22 22" fill="none" xmlns="http://www.w3.org/2000/svg">
<mask id="path-1-outside-1_34_162" maskUnits="userSpaceOnUse" x="2.8392" y="2.30394" width="13.435" height="13.435" fill="black">
<rect fill="white" x="2.8392" y="2.30394" width="13.435" height="13.435"/>
<path d="M13.4458 3.71815L14.3529 4.62526L5.62486 13.3533L4.71775 12.4462L13.4458 3.71815Z"/>
</mask>
<path d="M13.4458 3.71815L14.3529 4.62526L5.62486 13.3533L4.71775 12.4462L13.4458 3.71815Z" fill="#444444"/>
<path d="M13.4458 3.71815L14.3529 4.62526L5.62486 13.3533L4.71775 12.4462L13.4458 3.71815Z" stroke="white" stroke-width="2" mask="url(#path-1-outside-1_34_162)"/>
<mask id="path-2-outside-2_34_162" maskUnits="userSpaceOnUse" x="3.30356" y="1.79683" width="13.435" height="13.435" fill="black">
<rect fill="white" x="3.30356" y="1.79683" width="13.435" height="13.435"/>
<path d="M4.71777 4.62526L5.62488 3.71815L14.3529 12.4462L13.4458 13.3533L4.71777 4.62526Z"/>
</mask>
<path d="M4.71777 4.62526L5.62488 3.71815L14.3529 12.4462L13.4458 13.3533L4.71777 4.62526Z" fill="#444444"/>
<path d="M4.71777 4.62526L5.62488 3.71815L14.3529 12.4462L13.4458 13.3533L4.71777 4.62526Z" stroke="white" stroke-width="2" mask="url(#path-2-outside-2_34_162)"/>
<path d="M13.4458 3.71815L14.3529 4.62526L5.62486 13.3533L4.71775 12.4462L13.4458 3.71815Z" fill="#444444"/>
</svg>
