<?xml version="1.0" encoding="UTF-8"?>
<svg version="1.1" viewBox="0 0 14 14" xmlns="http://www.w3.org/2000/svg">
 <g transform="translate(183.37 -226.33)" stroke-linecap="round" stroke-linejoin="round" stroke-width=".99999">
  <path d="m-181.17 227.92c-0.30202 0-0.54685 0.24483-0.54685 0.54685s0.24483 0.54685 0.54685 0.54685l9.5736-2e-5c0.30202 0 0.54685-0.24484 0.54685-0.54685 0-0.30202-0.24483-0.54685-0.54685-0.54685z" color="#000000" style="-inkscape-stroke:none"/>
  <path d="m-177.1 230.03c-0.13443-0.0546-0.28504-0.0535-0.41868 3e-3 -0.27809 0.11736-0.4085 0.43784-0.29137 0.71603 0.40939 0.96993 0.63448 1.6967 0.76048 3.0179s0.13869 1.6146 0.0812 4.8117c-6e-3 0.30204 0.23458 0.5515 0.53662 0.55709 0.30236 6e-3 0.55195-0.23508 0.55709-0.53745 0.0577-3.2072 0.0483-3.5229-0.0863-4.9347-0.13465-1.4118-0.40952-2.3154-0.84163-3.3392-0.0563-0.1335-0.16321-0.23921-0.29735-0.29393z" color="#000000" style="-inkscape-stroke:none"/>
  <path d="m-174.77 230.03c-0.13418-0.0543-0.28444-0.0533-0.41783 3e-3 -0.27809 0.11736-0.4085 0.43784-0.29137 0.71603 0.40939 0.96993 0.63448 1.6967 0.76047 3.0179 0.12601 1.3212 0.13869 1.614 0.0812 4.8112-6e-3 0.30204 0.23458 0.55149 0.53662 0.55709 0.30236 6e-3 0.55194-0.23509 0.55708-0.53745 0.0577-3.2072 0.0483-3.5223-0.0863-4.9341-0.13464-1.4118-0.40951-2.3154-0.84162-3.3392-0.0565-0.13366-0.16374-0.23939-0.2982-0.29393z" color="#000000" style="-inkscape-stroke:none"/>
  <path d="m-181.37 227.56c-0.29341 0.0705-0.47427 0.3653-0.40415 0.6588l1.7341 8.2561c0.0701 0.29375 0.36504 0.47508 0.6588 0.40501 0.29376-0.0701 0.47509-0.36504 0.40501-0.6588l-1.7341-8.2561c-0.0701-0.29417-0.3656-0.47561-0.65964-0.40501z" color="#000000" stroke-miterlimit="5.3" style="-inkscape-stroke:none"/>
  <path d="m-171.38 227.55c-0.29376-0.0701-0.58871 0.11125-0.6588 0.40501l-0.48952 4.011c-0.0701 0.29376 0.11125 0.58871 0.40501 0.6588 0.29376 0.0701 0.58871-0.11126 0.6588-0.40501l0.48952-4.011c0.0701-0.29376-0.11125-0.58871-0.40501-0.6588z" color="#000000" stroke-miterlimit="5.3" style="-inkscape-stroke:none"/>
 </g>
</svg>
