<?xml version="1.0" encoding="UTF-8"?>
<svg version="1.1" viewBox="0 0 14 14" xmlns="http://www.w3.org/2000/svg">
 <path d="m7.0449 0.68653a6.3174 6.3174 0 0 0-6.3623 6.3174 6.3174 6.3174 0 0 0 12.635 0 6.3174 6.3174 0 0 0-6.2724-6.3174zm-0.17275 1.1509a5.1688 5.1688 0 0 1 5.2966 5.1664 5.1688 5.1688 0 0 1-10.338 0 5.1688 5.1688 0 0 1 5.0409-5.1664z" fill="#f9f9f9" fill-rule="evenodd" opacity=".99" stroke-width=".90909"/>
 <path d="m6.8768 2.0625c2.7745-0.0686 5.0612 2.162 5.0616 4.9374 0 6.5855-9.8768 6.5855-9.8768 0 3.6e-4 -2.68 2.1361-4.8711 4.8152-4.9374z" fill="none" stroke="#2c5aa0" stroke-width="1.1339"/>
</svg>
