<svg width="22" height="22" viewBox="0 0 22 22" fill="none" xmlns="http://www.w3.org/2000/svg">
<mask id="path-1-outside-1_63_67" maskUnits="userSpaceOnUse" x="3.70986" y="4.34936" width="10.6066" height="10.6066" fill="black">
<rect fill="white" x="3.70986" y="4.34936" width="10.6066" height="10.6066"/>
<path fill-rule="evenodd" clip-rule="evenodd" d="M11.5002 6.02427C11.8316 6.02427 12.0002 6.1929 12.0002 6.52427L12.0002 8L8.00021 12L6.5 12C6.16863 12 6 11.8314 6 11.5C6 11.1686 6.16863 11 6.5 11L7.50021 11L11.0002 7.5L11.0001 6.5C11.0001 6.16863 11.1689 6.02427 11.5002 6.02427Z"/>
</mask>
<path fill-rule="evenodd" clip-rule="evenodd" d="M11.5002 6.02427C11.8316 6.02427 12.0002 6.1929 12.0002 6.52427L12.0002 8L8.00021 12L6.5 12C6.16863 12 6 11.8314 6 11.5C6 11.1686 6.16863 11 6.5 11L7.50021 11L11.0002 7.5L11.0001 6.5C11.0001 6.16863 11.1689 6.02427 11.5002 6.02427Z" fill="#444444"/>
<path fill-rule="evenodd" clip-rule="evenodd" d="M11.5002 6.02427C11.8316 6.02427 12.0002 6.1929 12.0002 6.52427L12.0002 8L8.00021 12L6.5 12C6.16863 12 6 11.8314 6 11.5C6 11.1686 6.16863 11 6.5 11L7.50021 11L11.0002 7.5L11.0001 6.5C11.0001 6.16863 11.1689 6.02427 11.5002 6.02427Z" stroke="white" stroke-width="2" stroke-linecap="round" mask="url(#path-1-outside-1_63_67)"/>
<mask id="path-2-outside-2_63_67" maskUnits="userSpaceOnUse" x="6.05615" y="6.67162" width="11.3137" height="11.3137" fill="black">
<rect fill="white" x="6.05615" y="6.67162" width="11.3137" height="11.3137"/>
<path fill-rule="evenodd" clip-rule="evenodd" d="M15 9.50004C15 9.16867 14.8313 9 14.5 9L12.9998 9.00004L8.99991 13L9.00022 14.5C9.00022 14.8314 9.16887 15 9.50024 15C9.83161 15 10.0002 14.8314 10.0002 14.5L10.0002 13.5L13.5002 10L14.5001 10C14.8314 10 15 9.83141 15 9.50004Z"/>
</mask>
<path fill-rule="evenodd" clip-rule="evenodd" d="M15 9.50004C15 9.16867 14.8313 9 14.5 9L12.9998 9.00004L8.99991 13L9.00022 14.5C9.00022 14.8314 9.16887 15 9.50024 15C9.83161 15 10.0002 14.8314 10.0002 14.5L10.0002 13.5L13.5002 10L14.5001 10C14.8314 10 15 9.83141 15 9.50004Z" fill="#444444"/>
<path fill-rule="evenodd" clip-rule="evenodd" d="M15 9.50004C15 9.16867 14.8313 9 14.5 9L12.9998 9.00004L8.99991 13L9.00022 14.5C9.00022 14.8314 9.16887 15 9.50024 15C9.83161 15 10.0002 14.8314 10.0002 14.5L10.0002 13.5L13.5002 10L14.5001 10C14.8314 10 15 9.83141 15 9.50004Z" stroke="white" stroke-width="2" stroke-linecap="round" mask="url(#path-2-outside-2_63_67)"/>
</svg>
