<?xml version="1.0" encoding="UTF-8"?>
<svg version="1.1" viewBox="0 0 14 14" xmlns="http://www.w3.org/2000/svg">
 <g transform="translate(-13.52 -9.8672)" stroke-dashoffset="2.1034" stroke-linecap="square" stroke-miterlimit="3">
  <path d="m16.109 11-1.1094 0.23242 0.11523 0.55469 1.7461 8.3164 0.11719 0.55468 1.1094-0.23437-0.11719-0.55469-1.5254-7.2656h8.2773l-0.35742 2.9746-0.0664 0.56445 1.125 0.13476 0.0684-0.56445 0.47852-3.9922 0.0684-0.56445-1.127-0.13476-0.0527 0.44921h-8.6523z" color="#000000" style="-inkscape-stroke:none;paint-order:stroke fill markers"/>
  <path d="m20.106 13.872-1.2621 0.0149 0.25976 0.5039c0.91124 1.7614 0.93826 5.1209 0.8418 7.7344l-0.0215 0.5664 1.1328 0.043 0.0215-0.5664c0.0975-2.6402 0.1895-6.0638-0.96679-8.2988z" color="#000000" style="-inkscape-stroke:none;paint-order:stroke fill markers"/>
  <path d="m22.416 13.872-1.2621 0.0149 0.25976 0.5039c0.91125 1.7614 0.93827 5.1209 0.8418 7.7344l-0.0215 0.5664 1.1328 0.043 0.0215-0.5664c0.0974-2.6402 0.1895-6.0638-0.96679-8.2988z" color="#000000" style="-inkscape-stroke:none;paint-order:stroke fill markers"/>
 </g>
</svg>
