<?xml version="1.0" encoding="utf-8"?>
<!-- Svg Vector Icons : http://www.onlinewebfonts.com/icon -->
<!DOCTYPE svg PUBLIC "-//W3C//DTD SVG 1.1//EN" "http://www.w3.org/Graphics/SVG/1.1/DTD/svg11.dtd">
<svg version="1.1" xmlns="http://www.w3.org/2000/svg" xmlns:xlink="http://www.w3.org/1999/xlink" x="0px" y="0px" viewBox="0 0 1000 1000" enable-background="new 0 0 1000 1000" xml:space="preserve">
<metadata> Svg Vector Icons : http://www.onlinewebfonts.com/icon </metadata>
<g><g><path d="M928.8,40.6v61.3h-61.3V40.6h-61.3v61.3H745V40.6h-61.2v61.3v122.5l61.2,61.3v245h-61.2v-61.3H561.3v61.3H438.8v-61.3H316.3v61.3H255v-245l61.2-61.3V101.9V40.6H255v61.3h-61.3V40.6h-61.3v61.3H71.3V40.6H10v61.3v122.5l61.3,61.3v245v428.7h306.3V836.9c0-67.7,54.8-122.5,122.5-122.5c67.7,0,122.5,54.8,122.5,122.5v122.5h306.3V530.6v-245l61.2-61.3V101.9V40.6H928.8z M132.5,530.6v-91.9c0-17,13.7-30.6,30.6-30.6c16.9,0,30.6,13.6,30.6,30.6v91.9H132.5z M806.3,530.6v-91.9c0-17,13.7-30.6,30.6-30.6c16.9,0,30.6,13.6,30.6,30.6v91.9H806.3z"/></g><g></g><g></g><g></g><g></g><g></g><g></g><g></g><g></g><g></g><g></g><g></g><g></g><g></g><g></g><g></g></g>
</svg>