<?xml version="1.0" encoding="UTF-8"?>
<svg version="1.1" width="26" height="26" viewBox="0 0 26 26" xmlns="http://www.w3.org/2000/svg">
 <g stroke-width="1.5">
  <path d="m12.471 1.208-11.164 11.26a0.74694 0.75321 0 0 0 0 1.0642l11.164 11.258a0.74694 0.75321 0 0 0 1.0577 0l11.164-11.258a0.74694 0.75321 0 0 0 0-1.0642l-11.164-11.26a0.74694 0.75321 0 0 0-1.0577 0zm0.52883 1.5998 10.109 10.191-10.109 10.194-10.109-10.194z" color="#000000" stroke-linecap="round" stroke-linejoin="round" stroke-miterlimit="10" style="-inkscape-stroke:none;paint-order:stroke fill markers"/>
  <path d="m12.252 6.752v5.5371h-5.4883v1.5039h5.4883v5.5371h1.4961v-5.5371h5.4883v-1.5039h-5.4883v-5.5371h-1.4961z" color="#000000" stroke-linejoin="bevel" stroke-miterlimit="5.3" style="-inkscape-stroke:none"/>
 </g>
</svg>
