<?xml version="1.0" encoding="UTF-8" standalone="no"?>
<svg
   version="1.1"
   viewBox="0 0 22 22"
   id="svg2"
   sodipodi:docname="map_dam.svg"
   width="22"
   height="22"
   inkscape:version="1.2.2 (732a01da63, 2022-12-09)"
   xmlns:inkscape="http://www.inkscape.org/namespaces/inkscape"
   xmlns:sodipodi="http://sodipodi.sourceforge.net/DTD/sodipodi-0.dtd"
   xmlns="http://www.w3.org/2000/svg"
   xmlns:svg="http://www.w3.org/2000/svg">
  <defs
     id="defs6" />
  <sodipodi:namedview
     id="namedview4"
     pagecolor="#ff00ff"
     bordercolor="#666666"
     borderopacity="1.0"
     inkscape:showpageshadow="2"
     inkscape:pageopacity="0"
     inkscape:pagecheckerboard="true"
     inkscape:deskcolor="#d1d1d1"
     showgrid="false"
     inkscape:zoom="12.836707"
     inkscape:cx="-6.5047834"
     inkscape:cy="23.604184"
     inkscape:window-width="2560"
     inkscape:window-height="1417"
     inkscape:window-x="-8"
     inkscape:window-y="-8"
     inkscape:window-maximized="1"
     inkscape:current-layer="layer1" />
  <g
     inkscape:groupmode="layer"
     id="layer1"
     inkscape:label="Image">
    <g
       id="g40277"
       transform="matrix(0.68746634,0,0,0.68746634,-0.05380493,9.2364869e-4)"
       style="stroke-width:1.45462">
      <path
         style="color:#000000;fill:#000000;stroke-width:1.45462;stroke-linecap:round;stroke-linejoin:round;-inkscape-stroke:none"
         d="m 3.1132813,2.09375 a 1.249995,1.249995 0 0 0 -1.2500001,1.25 1.249995,1.249995 0 0 0 1.2500001,1.25 H 29.162109 a 1.249995,1.249995 0 0 0 1.25,-1.25 1.249995,1.249995 0 0 0 -1.25,-1.25 z"
         id="path23487" />
      <path
         style="color:#000000;fill:#000000;stroke-width:1.45462;stroke-linecap:round;stroke-linejoin:round;-inkscape-stroke:none"
         d="m 12.076172,7.5 a 1.25,1.25 0 0 0 -0.957031,0.00586 1.25,1.25 0 0 0 -0.666016,1.6367187 c 0.935789,2.2171333 1.450258,3.8784343 1.738281,6.8984383 0.288024,3.020003 0.316995,7.377901 0.185547,14.685546 A 1.25,1.25 0 0 0 13.603516,32 1.25,1.25 0 0 0 14.876953,30.771484 C 15.008824,23.440306 14.987467,19.031843 14.679688,15.804688 14.371908,12.577532 13.743607,10.51211 12.755859,8.171875 A 1.25,1.25 0 0 0 12.076172,7.5 Z"
         id="path23489" />
      <path
         style="color:#000000;fill:#000000;stroke-width:1.45462;stroke-linecap:round;stroke-linejoin:round;-inkscape-stroke:none"
         d="m 17.394531,7.5 a 1.25,1.25 0 0 0 -0.955078,0.00586 1.25,1.25 0 0 0 -0.666015,1.6367187 c 0.935788,2.2171333 1.450257,3.8784343 1.738281,6.8984383 0.288023,3.020003 0.316993,7.377901 0.185547,14.685546 A 1.25,1.25 0 0 0 18.923828,32 1.25,1.25 0 0 0 20.197266,30.771484 C 20.329136,23.440306 20.30778,19.031843 20,15.804688 19.69222,12.577532 19.063919,10.51211 18.076172,8.171875 A 1.25,1.25 0 0 0 17.394531,7.5 Z"
         id="path23491" />
      <path
         style="color:#000000;fill:#000000;stroke-width:1.45462;stroke-linecap:round;stroke-linejoin:round;-inkscape-stroke:none"
         d="m 22.714844,7.5 a 1.25,1.25 0 0 0 -0.957032,0.00586 1.25,1.25 0 0 0 -0.666015,1.6367187 c 0.93579,2.2171323 1.450258,3.8784343 1.738281,6.8984383 0.288023,3.020003 0.316994,7.377901 0.185547,14.685546 A 1.25,1.25 0 0 0 24.244141,32 1.25,1.25 0 0 0 25.515625,30.771484 C 25.647495,23.440306 25.628092,19.031843 25.320312,15.804688 25.012533,12.577532 24.384233,10.51211 23.396484,8.171875 A 1.25,1.25 0 0 0 22.714844,7.5 Z"
         id="path23493" />
      <path
         style="color:#000000;fill:#000000;stroke-width:1.45462;stroke-linecap:round;stroke-linejoin:round;stroke-miterlimit:5.3;-inkscape-stroke:none"
         d="M 2.1816406,0.03320312 A 1.249995,1.249995 0 0 0 1.2578125,1.5390625 L 7.2304687,26.566406 a 1.249995,1.249995 0 0 0 1.5058594,0.925781 1.249995,1.249995 0 0 0 0.9257813,-1.505859 L 3.6894531,0.95898438 A 1.249995,1.249995 0 0 0 2.1816406,0.03320312 Z"
         id="path23497" />
      <path
         style="color:#000000;fill:#000000;stroke-width:1.45462;stroke-linecap:round;stroke-linejoin:round;stroke-miterlimit:5.3;-inkscape-stroke:none"
         d="M 29.974609,0.03320312 A 1.249995,1.249995 0 0 0 28.46875,0.95898438 L 25.933594,11.578125 a 1.249995,1.249995 0 0 0 0.925781,1.505859 1.249995,1.249995 0 0 0 1.505859,-0.925781 L 30.900391,1.5390625 A 1.249995,1.249995 0 0 0 29.974609,0.03320312 Z"
         id="path25131" />
    </g>
  </g>
</svg>
