<?xml version="1.0" encoding="UTF-8"?>
<svg version="1.1" viewBox="0 0 14 14" xmlns="http://www.w3.org/2000/svg">
 <path d="m7-7.243e-5a0.53434 0.53035 0 0 0-0.37902 0.15661l-6.4659 6.4698a0.53434 0.53035 0 0 0 0 0.7474l6.4659 6.4698a0.53434 0.53035 0 0 0 0.75802 0l6.4659-6.4698a0.53434 0.53035 0 0 0 0-0.7474l-6.4659-6.4698a0.53434 0.53035 0 0 0-0.37902-0.15661zm0 1.2835 5.7127 5.7168-5.7127 5.7168-5.7127-5.7168z" color="#000000" stroke-linecap="round" stroke-linejoin="round" stroke-miterlimit="10" style="-inkscape-stroke:none;paint-order:stroke fill markers"/>
 <path d="m6.4657 3.7874v6.4252h1.0686v-6.4252z" color="#000000" stroke-linejoin="bevel" stroke-miterlimit="5.3" style="-inkscape-stroke:none"/>
 <path d="m3.7874 6.4697v1.0606h6.4252v-1.0606z" color="#000000" stroke-linejoin="bevel" stroke-miterlimit="5.3" style="-inkscape-stroke:none"/>
</svg>
