<?xml version="1.0" encoding="utf-8"?>
<!-- Svg Vector Icons : http://www.onlinewebfonts.com/icon -->
<!DOCTYPE svg PUBLIC "-//W3C//DTD SVG 1.1//EN" "http://www.w3.org/Graphics/SVG/1.1/DTD/svg11.dtd">
<svg version="1.1" xmlns="http://www.w3.org/2000/svg" xmlns:xlink="http://www.w3.org/1999/xlink" x="0px" y="0px" viewBox="0 0 1000 1000" enable-background="new 0 0 1000 1000" xml:space="preserve">
<metadata> Svg Vector Icons : http://www.onlinewebfonts.com/icon </metadata>
<g><g transform="translate(0.000000,511.000000) scale(0.100000,-0.100000)"><path d="M2860.4,4973.2c-103.5-46-200.1-135.7-255.3-243.8c-41.4-80.5-43.7-147.2-43.7-1134.1V2548.6H1514.8c-986.8,0-1053.5-2.3-1134.1-43.7c-46-25.3-112.7-73.6-147.2-110.4c-140.3-144.9-133.4-43.7-133.4-2284.2c0-2240.5-6.9-2139.3,133.4-2284.2c34.5-36.8,101.2-85.1,147.2-110.4c80.5-41.4,147.2-43.7,1134.1-43.7h1046.6v-1046.6c0-991.4,2.3-1053.6,43.7-1136.4c59.8-115,186.3-223.1,294.4-253c119.6-34.5,4080.7-34.5,4200.4,0c108.1,29.9,234.6,138,294.4,253c41.4,82.8,43.7,144.9,43.7,1136.4V-2328h1046.6c991.4,0,1053.5,2.3,1136.4,43.7c115,59.8,223.1,186.3,253,294.4c34.5,119.6,34.5,4080.8,0,4200.4c-29.9,108.1-138,234.6-253,294.4c-82.8,41.4-144.9,43.7-1136.4,43.7H7438.1v1046.6c0,986.8-2.3,1053.5-43.7,1134.1c-57.5,110.4-151.8,200.1-259.9,243.8c-75.9,32.2-333.5,36.8-2139.3,36.8C3212.4,5007.7,2929.5,5003.1,2860.4,4973.2z M4516.7,3549.3v-494.6h483.1h483.1v494.6v494.6h494.6h494.6v-977.6c0-634.9,9.2-1016.7,25.3-1097.3c36.8-172.5,188.6-324.3,361.2-361.1c80.5-16.1,462.4-25.3,1097.3-25.3h977.6v-494.6V593.4h-494.6h-494.6V110.3v-483.1h494.6h494.6v-494.6v-494.6h-996c-1129.5,0-1161.7-4.6-1311.2-156.4c-149.5-154.1-154.1-186.3-154.1-1308.9v-996h-494.6h-494.6v494.6v494.6h-483.1h-483.1v-494.6v-494.6h-494.6h-494.6v977.6c0,634.9-9.2,1016.8-25.3,1097.3c-36.8,172.5-188.6,324.3-361.1,361.2c-80.5,16.1-462.4,25.3-1097.3,25.3h-977.6v494.6v494.6h494.6h494.6v483.1v483.1h-494.6h-494.6v494.6v494.6h977.6c634.9,0,1016.7,9.2,1097.3,25.3c172.5,36.8,324.3,188.6,361.1,361.1c16.1,80.5,25.3,462.4,25.3,1097.3v977.6h494.6h494.6V3549.3z"/><path d="M4516.7,2065.6v-483.1h483.1h483.1v483.1v483.1h-483.1h-483.1V2065.6z"/><path d="M2561.4,110.3v-483.1h483.1h483.1v483.1v483.1h-483.1h-483.1V110.3z"/><path d="M6471.9,110.3v-483.1H6955h483.1v483.1v483.1H6955h-483.1V110.3z"/><path d="M4516.7-1845V-2328h483.1h483.1v483.1v483.1h-483.1h-483.1V-1845z"/></g></g>
</svg>