<?xml version="1.0" encoding="UTF-8" standalone="no"?>
<svg
   version="1.1"
   viewBox="0 0 22 22"
   id="svg2"
   sodipodi:docname="map_pgtakeoff.svg"
   width="22"
   height="22"
   inkscape:version="1.2.2 (732a01da63, 2022-12-09)"
   xmlns:inkscape="http://www.inkscape.org/namespaces/inkscape"
   xmlns:sodipodi="http://sodipodi.sourceforge.net/DTD/sodipodi-0.dtd"
   xmlns="http://www.w3.org/2000/svg"
   xmlns:svg="http://www.w3.org/2000/svg">
  <defs
     id="defs6" />
  <sodipodi:namedview
     id="namedview4"
     pagecolor="#ff00ff"
     bordercolor="#666666"
     borderopacity="1.0"
     inkscape:showpageshadow="2"
     inkscape:pageopacity="0"
     inkscape:pagecheckerboard="true"
     inkscape:deskcolor="#d1d1d1"
     showgrid="false"
     inkscape:zoom="9.0769224"
     inkscape:cx="-15.919493"
     inkscape:cy="-3.525424"
     inkscape:window-width="2560"
     inkscape:window-height="1417"
     inkscape:window-x="-8"
     inkscape:window-y="-8"
     inkscape:window-maximized="1"
     inkscape:current-layer="layer1" />
  <g
     inkscape:groupmode="layer"
     id="layer1"
     inkscape:label="Image">
    <g
       id="g40379"
       transform="matrix(0.95796709,0,0,0.97705416,-1.6631993,0.23703587)"
       style="stroke-width:1.03363">
      <path
         style="color:#000000;fill:#000000;stroke-width:1.03363;stroke-linecap:round;stroke-linejoin:round;stroke-miterlimit:3;-inkscape-stroke:none;paint-order:stroke markers fill"
         d="M 23.806641,3.78125 2.6171875,3.9707031 A 0.88831502,0.88831502 0 0 0 1.7363281,4.8671875 0.88831502,0.88831502 0 0 0 2.6328125,5.7480469 L 20.449219,5.5878906 17.755859,7.1425781 a 0.88831502,0.88831502 0 0 0 -0.324218,1.2128907 0.88831502,0.88831502 0 0 0 1.21289,0.3261718 L 24.259766,5.4375 A 0.88840385,0.88840385 0 0 0 23.806641,3.78125 Z m -9.302735,5.2070313 -4.068359,2.3828127 a 0.88831502,0.88831502 0 0 0 -0.316406,1.214844 0.88831502,0.88831502 0 0 0 1.214843,0.318359 l 4.06836,-2.382813 A 0.88831502,0.88831502 0 0 0 15.720703,9.3066406 0.88831502,0.88831502 0 0 0 14.503906,8.9882813 Z"
         id="path10091-3" />
      <path
         style="color:#000000;fill:#000000;stroke-width:1.03363;stroke-linecap:round;stroke-linejoin:round;stroke-miterlimit:3;-inkscape-stroke:none;paint-order:stroke markers fill"
         d="m 15.005859,6.7441406 a 0.88831502,0.88831502 0 0 0 -0.175781,1.2441406 l 3.322266,4.4179688 2.292968,3.148438 A 0.88831502,0.88831502 0 0 0 21.685547,15.75 0.88831502,0.88831502 0 0 0 21.880859,14.509766 l -2.294922,-3.15625 a 0.88840385,0.88840385 0 0 0 -0.0098,-0.0098 L 16.25,6.9199219 A 0.88831502,0.88831502 0 0 0 15.005859,6.7441406 Z"
         id="path10093-1" />
      <path
         style="color:#000000;fill:#000000;stroke-width:1.03363;stroke-linecap:round;stroke-linejoin:round;stroke-miterlimit:3;-inkscape-stroke:none;paint-order:stroke markers fill"
         d="m 18.025391,11.621094 -5.640625,5.083984 a 0.88840385,0.88840385 0 0 0 1.029297,1.433594 l 5.925781,-3.333984 a 0.88831502,0.88831502 0 0 0 0.33789,-1.208985 0.88831502,0.88831502 0 0 0 -0.753906,-0.394531 l 0.291016,-0.261719 a 0.88831502,0.88831502 0 0 0 0.06445,-1.253906 0.88831502,0.88831502 0 0 0 -1.253906,-0.06445 z"
         id="path10095-7" />
      <path
         style="color:#000000;fill:#000000;stroke-width:1.03363;stroke-linecap:round;stroke-linejoin:round;stroke-miterlimit:3;-inkscape-stroke:none;paint-order:stroke markers fill"
         d="m 18.583984,13.201172 a 0.88831502,0.88831502 0 0 0 -0.492187,0.470703 0.88831502,0.88831502 0 0 0 0.453125,1.171875 l 2.257812,1 a 0.88831502,0.88831502 0 0 0 1.171875,-0.453125 0.88831502,0.88831502 0 0 0 -0.451172,-1.171875 l -2.259765,-1 a 0.88831502,0.88831502 0 0 0 -0.679688,-0.01758 z"
         id="path10097-4" />
      <g
         id="circle10099-5"
         style="stroke-width:1.03363">
        <path
           style="color:#000000;fill:#000000;stroke-width:1.03363;stroke-linecap:round;stroke-linejoin:round;stroke-miterlimit:3;-inkscape-stroke:none;paint-order:stroke markers fill"
           d="m 20.167969,10.810547 c -0.722136,0 -1.328125,0.602496 -1.328125,1.326172 0,0.723675 0.605989,1.328125 1.328125,1.328125 0.722136,0 1.328125,-0.60445 1.328125,-1.328125 0,-0.723676 -0.605989,-1.326172 -1.328125,-1.326172 z m 0,0.876953 c 0.235966,0 0.447265,0.21067 0.447265,0.449219 0,0.238548 -0.211299,0.449219 -0.447265,0.449219 -0.235967,0 -0.449219,-0.210671 -0.449219,-0.449219 0,-0.238549 0.213252,-0.449219 0.449219,-0.449219 z"
           id="path17649" />
        <path
           style="color:#000000;fill:#000000;stroke-width:2.58409;stroke-linecap:round;stroke-linejoin:round;stroke-miterlimit:3;-inkscape-stroke:none;paint-order:stroke markers fill"
           d="m 20.60772,12.13722 a 0.44014442,0.43920076 0 0 1 -0.440144,0.439201 0.44014442,0.43920076 0 0 1 -0.440145,-0.439201 0.44014442,0.43920076 0 0 1 0.440145,-0.4392 0.44014442,0.43920076 0 0 1 0.440144,0.4392 z"
           id="path17651" />
      </g>
    </g>
  </g>
</svg>
