<svg width="22" height="22" viewBox="0 0 22 22" fill="none" xmlns="http://www.w3.org/2000/svg">
<mask id="path-1-outside-1_61_88" maskUnits="userSpaceOnUse" x="-0.708984" y="0.299988" width="17" height="14" fill="black">
<rect fill="white" x="-0.708984" y="0.299988" width="17" height="14"/>
<path fill-rule="evenodd" clip-rule="evenodd" d="M1.33166 12.55C1.21619 12.75 1.36052 13 1.59146 13H14.4086C14.6396 13 14.7839 12.75 14.6684 12.55L8.25986 1.44999C8.14439 1.24999 7.85571 1.24999 7.74024 1.44999L1.33166 12.55ZM8.00005 2.99999L2.8039 12H13.1962L8.00005 2.99999Z"/>
</mask>
<path fill-rule="evenodd" clip-rule="evenodd" d="M1.33166 12.55C1.21619 12.75 1.36052 13 1.59146 13H14.4086C14.6396 13 14.7839 12.75 14.6684 12.55L8.25986 1.44999C8.14439 1.24999 7.85571 1.24999 7.74024 1.44999L1.33166 12.55ZM8.00005 2.99999L2.8039 12H13.1962L8.00005 2.99999Z" fill="#1C5C8C"/>
<path fill-rule="evenodd" clip-rule="evenodd" d="M1.33166 12.55C1.21619 12.75 1.36052 13 1.59146 13H14.4086C14.6396 13 14.7839 12.75 14.6684 12.55L8.25986 1.44999C8.14439 1.24999 7.85571 1.24999 7.74024 1.44999L1.33166 12.55ZM8.00005 2.99999L2.8039 12H13.1962L8.00005 2.99999Z" stroke="white" stroke-width="2" mask="url(#path-1-outside-1_61_88)"/>
<mask id="path-2-outside-2_61_88" maskUnits="userSpaceOnUse" x="6" y="6.99998" width="4" height="4" fill="black">
<rect fill="white" x="6" y="6.99998" width="4" height="4"/>
<path d="M9 8.99998C9 9.55227 8.55228 9.99998 8 9.99998C7.44772 9.99998 7 9.55227 7 8.99998C7 8.4477 7.44772 7.99998 8 7.99998C8.55228 7.99998 9 8.4477 9 8.99998Z"/>
</mask>
<path d="M9 8.99998C9 9.55227 8.55228 9.99998 8 9.99998C7.44772 9.99998 7 9.55227 7 8.99998C7 8.4477 7.44772 7.99998 8 7.99998C8.55228 7.99998 9 8.4477 9 8.99998Z" fill="#1C5C8C"/>
<path d="M9 8.99998C9 9.55227 8.55228 9.99998 8 9.99998C7.44772 9.99998 7 9.55227 7 8.99998C7 8.4477 7.44772 7.99998 8 7.99998C8.55228 7.99998 9 8.4477 9 8.99998Z" stroke="white" stroke-width="2" mask="url(#path-2-outside-2_61_88)"/>
</svg>
