<?xml version="1.0" encoding="UTF-8" standalone="no"?>
<svg
   xmlns:dc="http://purl.org/dc/elements/1.1/"
   xmlns:cc="http://creativecommons.org/ns#"
   xmlns:rdf="http://www.w3.org/1999/02/22-rdf-syntax-ns#"
   xmlns:svg="http://www.w3.org/2000/svg"
   xmlns="http://www.w3.org/2000/svg"
   xmlns:sodipodi="http://sodipodi.sourceforge.net/DTD/sodipodi-0.dtd"
   xmlns:inkscape="http://www.inkscape.org/namespaces/inkscape"
   version="1.1"
   x="0px"
   y="0px"
   viewBox="0 0 1000 1000"
   enable-background="new 0 0 1000 1000"
   xml:space="preserve"
   id="svg2095"
   sodipodi:docname="map_pass.svg"
   inkscape:version="1.0.2 (e86c870879, 2021-01-15)"><defs
   id="defs2099" /><sodipodi:namedview
   pagecolor="#ffffff"
   bordercolor="#666666"
   borderopacity="1"
   objecttolerance="10"
   gridtolerance="10"
   guidetolerance="10"
   inkscape:pageopacity="0"
   inkscape:pageshadow="2"
   inkscape:window-width="1364"
   inkscape:window-height="725"
   id="namedview2097"
   showgrid="false"
   inkscape:pagecheckerboard="true"
   inkscape:zoom="0.40800061"
   inkscape:cx="186.56578"
   inkscape:cy="810.45705"
   inkscape:window-x="0"
   inkscape:window-y="42"
   inkscape:window-maximized="0"
   inkscape:current-layer="g2061" />
<metadata
   id="metadata2052"> Svg Vector Icons : http://www.onlinewebfonts.com/icon <rdf:RDF><cc:Work
     rdf:about=""><dc:format>image/svg+xml</dc:format><dc:type
       rdf:resource="http://purl.org/dc/dcmitype/StillImage" /><dc:title></dc:title></cc:Work></rdf:RDF></metadata>
<g
   id="g2093"><g
     id="g2061"><g
       id="Layer_1_41_"
       style="stroke-width:5;stroke-miterlimit:4;stroke-dasharray:none;stroke:#ffffff;stroke-opacity:1"><g
         id="g2058"
         style="stroke-width:5;stroke-miterlimit:4;stroke-dasharray:none;stroke:#ffffff;stroke-opacity:1"><path
           d="M984,658.8L882.6,455.9c-130.2,13.2-174.3,39.7-189.7,59.6c-2.2,4.4-11,15.4-2.2,41.9c19.9,68.4,0,114.7-19.9,141.2c-48.5,66.2-158.8,94.9-353,94.9c-59.6,0-101.5,13.2-114.7,33.1c-13.2,19.9-4.4,55.1,0,66.2l0,0h522.8c19.9,0,37.5-11,46.3-26.5c11-15.4,11-37.5,2.2-52.9l-35.3-72.8h191.9c19.9,0,37.5-11,46.3-26.5C992.9,696.3,992.9,676.5,984,658.8z"
           id="path2054"
           style="stroke-width:5;stroke-miterlimit:4;stroke-dasharray:none;stroke:#ffffff;stroke-opacity:1" /><path
           d="M587,634.6c2.2-4.4,11-15.4,2.2-46.3c-17.6-61.8,0-105.9,17.6-132.4c35.3-52.9,105.9-83.8,227.2-101.5l-50.7-103.7c-8.8-19.9-28.7-30.9-50.7-30.9s-39.7,11-50.7,30.9l-90.4,183.1L448,138.2c-8.8-19.9-28.7-30.9-50.7-30.9s-39.7,11-50.7,30.9L15.6,811c-8.8,17.6-6.6,37.5,2.2,55.1c11,15.4,28.7,26.5,46.3,26.5H95c-6.6-33.1-8.8-79.4,19.9-123.5c35.3-55.1,103.7-83.8,205.2-83.8C518.6,685.3,573.7,654.4,587,634.6z"
           id="path2056"
           style="stroke-width:5;stroke-miterlimit:4;stroke-dasharray:none;stroke:#ffffff;stroke-opacity:1" /></g></g></g><g
     id="g2063" /><g
     id="g2065" /><g
     id="g2067" /><g
     id="g2069" /><g
     id="g2071" /><g
     id="g2073" /><g
     id="g2075" /><g
     id="g2077" /><g
     id="g2079" /><g
     id="g2081" /><g
     id="g2083" /><g
     id="g2085" /><g
     id="g2087" /><g
     id="g2089" /><g
     id="g2091" /></g>
<path
   style="fill:none;stroke:#000000;stroke-width:1px;stroke-linecap:butt;stroke-linejoin:miter;stroke-opacity:1"
   d="M 203.1,892.8 Z"
   id="path2101" /><path
   style="fill:none;stroke:#000000;stroke-width:1px;stroke-linecap:butt;stroke-linejoin:miter;stroke-opacity:1"
   d="m 95,892.6 108.1,0.2 z"
   id="path2105" /><path
   style="fill:none;stroke:#000000;stroke-width:1px;stroke-linecap:butt;stroke-linejoin:miter;stroke-opacity:1"
   d="M 882.6,455.9 834,354.4 Z"
   id="path2107" /><path
   style="fill:#ffffff;stroke:#ffffff;stroke-width:0;stroke-miterlimit:4;stroke-dasharray:none"
   d="m 95.550882,889.45402 c -2.780575,-4.49906 -4.598215,-38.15917 -2.88854,-53.49165 7.391998,-66.29204 52.352688,-115.8436 123.975438,-136.63435 31.9034,-9.26097 50.87465,-11.38682 116.9844,-13.10894 127.85467,-3.33048 188.39163,-11.97036 230.08309,-32.83761 29.2639,-14.64703 34.94813,-29.84684 25.39825,-67.91577 -6.10472,-24.33541 -7.50803,-55.74494 -3.39825,-76.06086 7.75606,-38.3407 31.86839,-73.40952 66.56558,-96.81267 24.77026,-16.70745 64.5082,-32.6186 108.30298,-43.36472 15.97116,-3.91891 67.60662,-13.94149 71.82536,-13.94149 0.32873,0 5.52242,10.33362 11.54154,22.96361 6.01913,12.62998 16.76977,35.1227 23.89033,49.98381 l 12.94648,27.02021 -24.44423,2.95038 c -32.06633,3.87037 -79.21019,13.41247 -99.83418,20.20683 -34.58083,11.39231 -58.88109,26.17979 -66.12788,40.24093 -5.15609,10.00451 -4.83331,23.72856 1.06948,45.47305 6.34383,23.36921 7.90137,56.07995 3.66565,76.98411 -13.77383,67.97664 -68.34797,111.82068 -166.51019,133.7718 -45.36678,10.14496 -97.53938,15.11664 -180.24264,17.17583 -66.53436,1.65662 -84.49774,3.41341 -107.55213,10.51847 -23.23704,7.16134 -36.49105,16.89718 -41.82667,30.72411 -3.84267,9.95802 -3.89987,34.82047 -0.11139,48.41667 l 2.5353,9.09879 H 164.27337 148.8952 c -28.8769,0 -52.881846,-0.61224 -53.344318,-1.36054 z"
   id="path2109"
   sodipodi:nodetypes="sssssssssssscssssssssssccss" /></svg>
