<?xml version="1.0" encoding="UTF-8"?>
<svg version="1.1" width="26" height="26" viewBox="0 0 26 26" xmlns="http://www.w3.org/2000/svg">
 <defs>
  <filter id="filter4574-5-3" color-interpolation-filters="sRGB">
   <feFlood flood-color="rgb(0,0,0)" flood-opacity=".49804" result="flood"/>
   <feComposite in="flood" in2="SourceGraphic" operator="in" result="composite1"/>
   <feGaussianBlur in="composite1" result="blur" stdDeviation="2.9965578e-05"/>
   <feOffset dx="6" dy="6" result="offset"/>
   <feComposite in="SourceGraphic" in2="offset" result="composite2"/>
  </filter>
  <filter id="filter4562-0-0" color-interpolation-filters="sRGB">
   <feFlood flood-color="rgb(0,0,0)" flood-opacity=".49804" result="flood"/>
   <feComposite in="flood" in2="SourceGraphic" operator="in" result="composite1"/>
   <feGaussianBlur in="composite1" result="blur" stdDeviation="2.9965578e-05"/>
   <feOffset dx="6" dy="6" result="offset"/>
   <feComposite in="SourceGraphic" in2="offset" result="composite2"/>
  </filter>
  <filter id="filter9046-7" x="-5.495e-5" y="-5.5253e-5" width="1.0001" height="1.0001" color-interpolation-filters="sRGB">
   <feGaussianBlur stdDeviation="3.7751922e-05"/>
  </filter>
  <filter id="filter9050-6" x="-5.5253e-5" y="-5.495e-5" width="1.0001" height="1.0001" color-interpolation-filters="sRGB">
   <feGaussianBlur stdDeviation="3.7751922e-05"/>
  </filter>
  <filter id="filter9054-7" x="-5.495e-5" y="-5.5253e-5" width="1.0001" height="1.0001" color-interpolation-filters="sRGB">
   <feGaussianBlur stdDeviation="3.7751922e-05"/>
  </filter>
  <filter id="filter9058-9" x="-5.5253e-5" y="-5.495e-5" width="1.0001" height="1.0001" color-interpolation-filters="sRGB">
   <feGaussianBlur stdDeviation="3.7751922e-05"/>
  </filter>
  <filter id="filter9062-8" x="-5.495e-5" y="-5.5253e-5" width="1.0001" height="1.0001" color-interpolation-filters="sRGB">
   <feGaussianBlur stdDeviation="3.7751922e-05"/>
  </filter>
  <filter id="filter9066-7" x="-5.5156e-5" y="-5.5047e-5" width="1.0001" height="1.0001" color-interpolation-filters="sRGB">
   <feGaussianBlur stdDeviation="3.775217e-05"/>
  </filter>
  <filter id="filter9070-9" x="-5.5047e-5" y="-5.5156e-5" width="1.0001" height="1.0001" color-interpolation-filters="sRGB">
   <feGaussianBlur stdDeviation="3.775217e-05"/>
  </filter>
  <filter id="filter9074-2" x="-5.5156e-5" y="-5.5047e-5" width="1.0001" height="1.0001" color-interpolation-filters="sRGB">
   <feGaussianBlur stdDeviation="3.775217e-05"/>
  </filter>
  <filter id="filter9078-0" x="-5.5047e-5" y="-5.5156e-5" width="1.0001" height="1.0001" color-interpolation-filters="sRGB">
   <feGaussianBlur stdDeviation="3.775217e-05"/>
  </filter>
  <filter id="filter9082-4" x="-5.4997e-5" y="-5.5207e-5" width="1.0001" height="1.0001" color-interpolation-filters="sRGB">
   <feGaussianBlur stdDeviation="3.775207e-05"/>
  </filter>
  <filter id="filter9086-8" x="-5.5207e-5" y="-5.4997e-5" width="1.0001" height="1.0001" color-interpolation-filters="sRGB">
   <feGaussianBlur stdDeviation="3.775207e-05"/>
  </filter>
  <filter id="filter9090-2" x="-5.4997e-5" y="-5.5207e-5" width="1.0001" height="1.0001" color-interpolation-filters="sRGB">
   <feGaussianBlur stdDeviation="3.775207e-05"/>
  </filter>
  <filter id="filter9094-2" x="-5.5207e-5" y="-5.4997e-5" width="1.0001" height="1.0001" color-interpolation-filters="sRGB">
   <feGaussianBlur stdDeviation="3.775207e-05"/>
  </filter>
  <filter id="filter9098-4" x="-5.5253e-5" y="-5.495e-5" width="1.0001" height="1.0001" color-interpolation-filters="sRGB">
   <feGaussianBlur stdDeviation="3.7751922e-05"/>
  </filter>
  <filter id="filter9102-5" x="-5.495e-5" y="-5.5253e-5" width="1.0001" height="1.0001" color-interpolation-filters="sRGB">
   <feGaussianBlur stdDeviation="3.7751922e-05"/>
  </filter>
  <filter id="filter9106-7" x="-5.5253e-5" y="-5.495e-5" width="1.0001" height="1.0001" color-interpolation-filters="sRGB">
   <feGaussianBlur stdDeviation="3.7751922e-05"/>
  </filter>
  <filter id="filter9110-4" x="-5.495e-5" y="-5.5253e-5" width="1.0001" height="1.0001" color-interpolation-filters="sRGB">
   <feGaussianBlur stdDeviation="3.7751922e-05"/>
  </filter>
  <filter id="filter9114-4" x="-5.5206e-5" y="-5.4998e-5" width="1.0001" height="1.0001" color-interpolation-filters="sRGB">
   <feGaussianBlur stdDeviation="3.7752072e-05"/>
  </filter>
  <filter id="filter9118-6" x="-5.4998e-5" y="-5.5206e-5" width="1.0001" height="1.0001" color-interpolation-filters="sRGB">
   <feGaussianBlur stdDeviation="3.7752072e-05"/>
  </filter>
  <filter id="filter9122-5" x="-5.5206e-5" y="-5.4998e-5" width="1.0001" height="1.0001" color-interpolation-filters="sRGB">
   <feGaussianBlur stdDeviation="3.7752072e-05"/>
  </filter>
  <filter id="filter9126-3" x="-5.4998e-5" y="-5.5206e-5" width="1.0001" height="1.0001" color-interpolation-filters="sRGB">
   <feGaussianBlur stdDeviation="3.7752072e-05"/>
  </filter>
  <filter id="filter9130-6" x="-5.5102e-5" y="-5.5101e-5" width="1.0001" height="1.0001" color-interpolation-filters="sRGB">
   <feGaussianBlur stdDeviation="3.7752207e-05"/>
  </filter>
  <filter id="filter9134-4" x="-5.5101e-5" y="-5.5102e-5" width="1.0001" height="1.0001" color-interpolation-filters="sRGB">
   <feGaussianBlur stdDeviation="3.7752207e-05"/>
  </filter>
  <filter id="filter9138-0" x="-5.5102e-5" y="-5.5101e-5" width="1.0001" height="1.0001" color-interpolation-filters="sRGB">
   <feGaussianBlur stdDeviation="3.7752207e-05"/>
  </filter>
  <filter id="filter9142-9" x="-5.5101e-5" y="-5.5102e-5" width="1.0001" height="1.0001" color-interpolation-filters="sRGB">
   <feGaussianBlur stdDeviation="3.7752207e-05"/>
  </filter>
  <filter id="filter9146-9" x="-5.5016e-5" y="-5.5187e-5" width="1.0001" height="1.0001" color-interpolation-filters="sRGB">
   <feGaussianBlur stdDeviation="3.7752115e-05"/>
  </filter>
  <filter id="filter9150-1" x="-5.5187e-5" y="-5.5016e-5" width="1.0001" height="1.0001" color-interpolation-filters="sRGB">
   <feGaussianBlur stdDeviation="3.7752115e-05"/>
  </filter>
  <filter id="filter9154-3" x="-5.5016e-5" y="-5.5187e-5" width="1.0001" height="1.0001" color-interpolation-filters="sRGB">
   <feGaussianBlur stdDeviation="3.7752115e-05"/>
  </filter>
  <filter id="filter9158-0" x="-5.5187e-5" y="-5.5016e-5" width="1.0001" height="1.0001" color-interpolation-filters="sRGB">
   <feGaussianBlur stdDeviation="3.7752115e-05"/>
  </filter>
  <filter id="filter9162-6" x="-5.496e-5" y="-5.5243e-5" width="1.0001" height="1.0001" color-interpolation-filters="sRGB">
   <feGaussianBlur stdDeviation="3.7751958e-05"/>
  </filter>
  <filter id="filter9166-3" x="-5.5243e-5" y="-5.496e-5" width="1.0001" height="1.0001" color-interpolation-filters="sRGB">
   <feGaussianBlur stdDeviation="3.7751958e-05"/>
  </filter>
  <filter id="filter9170-7" x="-5.496e-5" y="-5.5243e-5" width="1.0001" height="1.0001" color-interpolation-filters="sRGB">
   <feGaussianBlur stdDeviation="3.7751958e-05"/>
  </filter>
  <filter id="filter9174-1" x="-5.5243e-5" y="-5.496e-5" width="1.0001" height="1.0001" color-interpolation-filters="sRGB">
   <feGaussianBlur stdDeviation="3.7751958e-05"/>
  </filter>
  <filter id="filter9178-2" x="-5.5253e-5" y="-5.495e-5" width="1.0001" height="1.0001" color-interpolation-filters="sRGB">
   <feGaussianBlur stdDeviation="3.7751922e-05"/>
  </filter>
  <filter id="filter9182-5" x="-5.495e-5" y="-5.5253e-5" width="1.0001" height="1.0001" color-interpolation-filters="sRGB">
   <feGaussianBlur stdDeviation="3.7751922e-05"/>
  </filter>
  <filter id="filter9186-6" x="-5.5253e-5" y="-5.495e-5" width="1.0001" height="1.0001" color-interpolation-filters="sRGB">
   <feGaussianBlur stdDeviation="3.7751922e-05"/>
  </filter>
  <filter id="filter9190-1" x="-5.495e-5" y="-5.5253e-5" width="1.0001" height="1.0001" color-interpolation-filters="sRGB">
   <feGaussianBlur stdDeviation="3.7751922e-05"/>
  </filter>
  <filter id="filter9194-2" x="-5.5223e-5" y="-5.4981e-5" width="1.0001" height="1.0001" color-interpolation-filters="sRGB">
   <feGaussianBlur stdDeviation="3.7752025e-05"/>
  </filter>
  <filter id="filter9198-8" x="-5.4981e-5" y="-5.5223e-5" width="1.0001" height="1.0001" color-interpolation-filters="sRGB">
   <feGaussianBlur stdDeviation="3.7752025e-05"/>
  </filter>
  <filter id="filter9202-6" x="-5.5223e-5" y="-5.4981e-5" width="1.0001" height="1.0001" color-interpolation-filters="sRGB">
   <feGaussianBlur stdDeviation="3.7752025e-05"/>
  </filter>
  <filter id="filter9206-3" x="-5.4981e-5" y="-5.5223e-5" width="1.0001" height="1.0001" color-interpolation-filters="sRGB">
   <feGaussianBlur stdDeviation="3.7752025e-05"/>
  </filter>
  <filter id="filter9210-5" x="-5.4958e-5" y="-5.5246e-5" width="1.0001" height="1.0001" color-interpolation-filters="sRGB">
   <feGaussianBlur stdDeviation="3.7751948e-05"/>
  </filter>
  <filter id="filter9214-5" x="-5.5246e-5" y="-5.4958e-5" width="1.0001" height="1.0001" color-interpolation-filters="sRGB">
   <feGaussianBlur stdDeviation="3.7751948e-05"/>
  </filter>
  <filter id="filter9218-5" x="-5.4958e-5" y="-5.5246e-5" width="1.0001" height="1.0001" color-interpolation-filters="sRGB">
   <feGaussianBlur stdDeviation="3.7751948e-05"/>
  </filter>
  <filter id="filter9222-6" x="-5.5246e-5" y="-5.4958e-5" width="1.0001" height="1.0001" color-interpolation-filters="sRGB">
   <feGaussianBlur stdDeviation="3.7751948e-05"/>
  </filter>
  <filter id="filter9226-3" x="-5.4998e-5" y="-5.5205e-5" width="1.0001" height="1.0001" color-interpolation-filters="sRGB">
   <feGaussianBlur stdDeviation="3.7752074e-05"/>
  </filter>
  <filter id="filter9230-4" x="-5.5205e-5" y="-5.4998e-5" width="1.0001" height="1.0001" color-interpolation-filters="sRGB">
   <feGaussianBlur stdDeviation="3.7752074e-05"/>
  </filter>
  <filter id="filter9234-5" x="-5.4998e-5" y="-5.5205e-5" width="1.0001" height="1.0001" color-interpolation-filters="sRGB">
   <feGaussianBlur stdDeviation="3.7752074e-05"/>
  </filter>
  <filter id="filter9238-8" x="-5.5205e-5" y="-5.4998e-5" width="1.0001" height="1.0001" color-interpolation-filters="sRGB">
   <feGaussianBlur stdDeviation="3.7752074e-05"/>
  </filter>
  <filter id="filter9242-2" x="-5.5036e-5" y="-5.5167e-5" width="1.0001" height="1.0001" color-interpolation-filters="sRGB">
   <feGaussianBlur stdDeviation="3.7752153e-05"/>
  </filter>
  <filter id="filter9246-3" x="-5.5167e-5" y="-5.5036e-5" width="1.0001" height="1.0001" color-interpolation-filters="sRGB">
   <feGaussianBlur stdDeviation="3.7752153e-05"/>
  </filter>
  <filter id="filter9250-1" x="-5.5036e-5" y="-5.5167e-5" width="1.0001" height="1.0001" color-interpolation-filters="sRGB">
   <feGaussianBlur stdDeviation="3.7752153e-05"/>
  </filter>
  <filter id="filter9254-6" x="-5.5167e-5" y="-5.5036e-5" width="1.0001" height="1.0001" color-interpolation-filters="sRGB">
   <feGaussianBlur stdDeviation="3.7752153e-05"/>
  </filter>
  <filter id="filter9258-8" x="-5.5128e-5" y="-5.5075e-5" width="1.0001" height="1.0001" color-interpolation-filters="sRGB">
   <feGaussianBlur stdDeviation="3.7752198e-05"/>
  </filter>
  <filter id="filter9262-4" x="-5.5075e-5" y="-5.5128e-5" width="1.0001" height="1.0001" color-interpolation-filters="sRGB">
   <feGaussianBlur stdDeviation="3.7752198e-05"/>
  </filter>
  <filter id="filter9266-6" x="-5.5128e-5" y="-5.5075e-5" width="1.0001" height="1.0001" color-interpolation-filters="sRGB">
   <feGaussianBlur stdDeviation="3.7752198e-05"/>
  </filter>
  <filter id="filter9270-6" x="-5.5075e-5" y="-5.5128e-5" width="1.0001" height="1.0001" color-interpolation-filters="sRGB">
   <feGaussianBlur stdDeviation="3.7752198e-05"/>
  </filter>
  <filter id="filter9274-0" x="-.11875" y="-.11941" width="1.2375" height="1.2388" color-interpolation-filters="sRGB">
   <feGaussianBlur stdDeviation="3.7751914e-05"/>
  </filter>
 </defs>
 <g transform="translate(-26.496 -14.873)">
  <g fill="#2c5aa0">
   <g>
    <ellipse transform="matrix(.99673 .080865 -.081765 .99665 -162.93 -165.63)" cx="218.08" cy="176.54" rx=".82442" ry=".8199" filter="url(#filter9046-7)"/>
    <ellipse transform="matrix(.081765 -.99665 .99673 .080865 -162.93 -165.63)" cx="-171.97" cy="218.08" rx=".8199" ry=".82442" filter="url(#filter9050-6)"/>
    <ellipse transform="matrix(.99673 .080865 -.081765 .99665 -162.93 -165.63)" cx="222.6" cy="176.47" rx=".82442" ry=".8199" filter="url(#filter9054-7)"/>
    <ellipse transform="matrix(-.081765 .99665 -.99673 -.080865 -162.93 -165.63)" cx="180.97" cy="-218.08" rx=".8199" ry=".82442" filter="url(#filter9058-9)"/>
    <ellipse transform="matrix(-.99673 -.080865 .081765 -.99665 -162.93 -165.63)" cx="-213.56" cy="-176.47" rx=".82442" ry=".8199" filter="url(#filter9062-8)"/>
    <ellipse transform="matrix(.56981 -.82177 .82473 .56553 -162.93 -165.63)" cx="-40.325" cy="277.04" rx=".82135" ry=".82298" filter="url(#filter9066-7)"/>
    <ellipse transform="matrix(.82473 .56553 -.56981 .82177 -162.93 -165.63)" cx="281.55" cy="44.83" rx=".82298" ry=".82135" filter="url(#filter9070-9)"/>
    <ellipse transform="matrix(-.56981 .82177 -.82473 -.56553 -162.93 -165.63)" cx="49.336" cy="-277.04" rx=".82135" ry=".82298" filter="url(#filter9074-2)"/>
    <ellipse transform="matrix(-.82473 -.56553 .56981 -.82177 -162.93 -165.63)" cx="-272.53" cy="-44.83" rx=".82298" ry=".82135" filter="url(#filter9078-0)"/>
    <ellipse transform="matrix(.91826 -.39597 .3997 .91665 -162.93 -165.63)" cx="113.19" cy="258.06" rx=".82373" ry=".8206" filter="url(#filter9082-4)"/>
    <ellipse transform="matrix(.3997 .91665 -.91826 .39597 -162.93 -165.63)" cx="262.56" cy="-108.68" rx=".8206" ry=".82373" filter="url(#filter9086-8)"/>
    <ellipse transform="matrix(-.91826 .39597 -.3997 -.91665 -162.93 -165.63)" cx="-104.16" cy="-258.06" rx=".82373" ry=".8206" filter="url(#filter9090-2)"/>
    <ellipse transform="matrix(-.3997 -.91665 .91826 -.39597 -162.93 -165.63)" cx="-253.56" cy="108.68" rx=".8206" ry=".82373" filter="url(#filter9094-2)"/>
    <ellipse transform="matrix(.081765 -.99665 .99673 .080865 -162.93 -165.63)" cx="-169.87" cy="218.08" rx=".8199" ry=".82442" filter="url(#filter9098-4)"/>
    <ellipse transform="matrix(.99673 .080865 -.081765 .99665 -162.93 -165.63)" cx="224.68" cy="176.43" rx=".82442" ry=".8199" filter="url(#filter9102-5)"/>
    <ellipse transform="matrix(-.081765 .99665 -.99673 -.080865 -162.93 -165.63)" cx="182.99" cy="-218.08" rx=".8199" ry=".82442" filter="url(#filter9106-7)"/>
    <ellipse transform="matrix(-.99673 -.080865 .081765 -.99665 -162.93 -165.63)" cx="-211.49" cy="-176.43" rx=".82442" ry=".8199" filter="url(#filter9110-4)"/>
    <ellipse transform="matrix(.40269 -.91534 .91698 .39894 -162.93 -165.63)" cx="-89.888" cy="263.67" rx=".82061" ry=".82372" filter="url(#filter9114-4)"/>
    <ellipse transform="matrix(.91698 .39894 -.40269 .91534 -162.93 -165.63)" cx="270.26" cy="96.453" rx=".82372" ry=".82061" filter="url(#filter9118-6)"/>
    <ellipse transform="matrix(-.40269 .91534 -.91698 -.39894 -162.93 -165.63)" cx="103.02" cy="-263.67" rx=".82061" ry=".82372" filter="url(#filter9122-5)"/>
    <ellipse transform="matrix(-.91698 -.39894 .40269 -.91534 -162.93 -165.63)" cx="-257.08" cy="-96.453" rx=".82372" ry=".82061" filter="url(#filter9126-3)"/>
    <ellipse transform="matrix(.70826 -.70595 .70989 .70432 -162.93 -165.63)" cx="12.165" cy="280.3" rx=".82216" ry=".82217" filter="url(#filter9130-6)"/>
    <ellipse transform="matrix(.70989 .70432 -.70826 .70595 -162.93 -165.63)" cx="286.88" cy="-5.5877" rx=".82217" ry=".82216" filter="url(#filter9134-4)"/>
    <ellipse transform="matrix(-.70826 .70595 -.70989 -.70432 -162.93 -165.63)" cx=".98959" cy="-280.3" rx=".82216" ry=".82217" filter="url(#filter9138-0)"/>
    <ellipse transform="matrix(-.70989 -.70432 .70826 -.70595 -162.93 -165.63)" cx="-273.73" cy="5.5877" rx=".82217" ry=".82216" filter="url(#filter9142-9)"/>
    <ellipse transform="matrix(.88397 -.46755 .47162 .8818 -162.93 -165.63)" cx="94.293" cy="265.92" rx=".82344" ry=".82088" filter="url(#filter9146-9)"/>
    <ellipse transform="matrix(.47162 .8818 -.88397 .46755 -162.93 -165.63)" cx="272.48" cy="-87.706" rx=".82088" ry=".82344" filter="url(#filter9150-1)"/>
    <ellipse transform="matrix(-.88397 .46755 -.47162 -.8818 -162.93 -165.63)" cx="-81.118" cy="-265.92" rx=".82344" ry=".82088" filter="url(#filter9154-3)"/>
    <ellipse transform="matrix(-.47162 -.8818 .88397 -.46755 -162.93 -165.63)" cx="-259.35" cy="87.706" rx=".82088" ry=".82344" filter="url(#filter9158-0)"/>
    <ellipse transform="matrix(.98036 -.19723 .19935 .97993 -162.93 -165.63)" cx="166.89" cy="229.7" rx=".82427" ry=".82005" filter="url(#filter9162-6)"/>
    <ellipse transform="matrix(.19935 .97993 -.98036 .19723 -162.93 -165.63)" cx="236.26" cy="-160.3" rx=".82005" ry=".82427" filter="url(#filter9166-3)"/>
    <ellipse transform="matrix(-.98036 .19723 -.19935 -.97993 -162.93 -165.63)" cx="-153.7" cy="-229.7" rx=".82427" ry=".82005" filter="url(#filter9170-7)"/>
    <ellipse transform="matrix(-.19935 -.97993 .98036 -.19723 -162.93 -165.63)" cx="-223.14" cy="160.3" rx=".82005" ry=".82427" filter="url(#filter9174-1)"/>
    <ellipse transform="matrix(.081765 -.99665 .99673 .080865 -162.93 -165.63)" cx="-167.84" cy="218.08" rx=".8199" ry=".82442" filter="url(#filter9178-2)"/>
    <ellipse transform="matrix(.99673 .080865 -.081765 .99665 -162.93 -165.63)" cx="226.75" cy="176.46" rx=".82442" ry=".8199" filter="url(#filter9182-5)"/>
    <ellipse transform="matrix(-.081765 .99665 -.99673 -.080865 -162.93 -165.63)" cx="185.08" cy="-218.08" rx=".8199" ry=".82442" filter="url(#filter9186-6)"/>
    <ellipse transform="matrix(-.99673 -.080865 .081765 -.99665 -162.93 -165.63)" cx="-209.41" cy="-176.46" rx=".82442" ry=".8199" filter="url(#filter9190-1)"/>
    <ellipse transform="matrix(.32726 -.94493 .94605 .32402 -162.93 -165.63)" cx="-108.69" cy="255.09" rx=".82036" ry=".82397" filter="url(#filter9194-2)"/>
    <ellipse transform="matrix(.94605 .32402 -.32726 .94493 -162.93 -165.63)" cx="263.76" cy="117.31" rx=".82397" ry=".82036" filter="url(#filter9198-8)"/>
    <ellipse transform="matrix(-.32726 .94493 -.94605 -.32402 -162.93 -165.63)" cx="125.94" cy="-255.09" rx=".82036" ry=".82397" filter="url(#filter9202-6)"/>
    <ellipse transform="matrix(-.94605 -.32402 .32726 -.94493 -162.93 -165.63)" cx="-246.43" cy="-117.31" rx=".82397" ry=".82036" filter="url(#filter9206-3)"/>
    <ellipse transform="matrix(.98507 -.17218 .17405 .98474 -162.93 -165.63)" cx="174.83" cy="225.56" rx=".82431" ry=".82001" filter="url(#filter9210-5)"/>
    <ellipse transform="matrix(.17405 .98474 -.98507 .17218 -162.93 -165.63)" cx="234.18" cy="-166.16" rx=".82001" ry=".82431" filter="url(#filter9214-5)"/>
    <ellipse transform="matrix(-.98507 .17218 -.17405 -.98474 -162.93 -165.63)" cx="-157.5" cy="-225.56" rx=".82431" ry=".82001" filter="url(#filter9218-5)"/>
    <ellipse transform="matrix(-.17405 -.98474 .98507 -.17218 -162.93 -165.63)" cx="-216.94" cy="166.16" rx=".82001" ry=".82431" filter="url(#filter9222-6)"/>
    <ellipse transform="matrix(.91572 -.40181 .40557 .91406 -162.93 -165.63)" cx="115.68" cy="258.74" rx=".82371" ry=".82062" filter="url(#filter9226-3)"/>
    <ellipse transform="matrix(.40557 .91406 -.91572 .40181 -162.93 -165.63)" cx="267.37" cy="-107.02" rx=".82062" ry=".82371" filter="url(#filter9230-4)"/>
    <ellipse transform="matrix(-.91572 .40181 -.40557 -.91406 -162.93 -165.63)" cx="-98.359" cy="-258.74" rx=".82371" ry=".82062" filter="url(#filter9234-5)"/>
    <ellipse transform="matrix(-.40557 -.91406 .91572 -.40181 -162.93 -165.63)" cx="-250.11" cy="107.02" rx=".82062" ry=".82371" filter="url(#filter9238-8)"/>
    <ellipse transform="matrix(.84617 .53291 -.53716 .84348 -162.93 -165.63)" cx="283.78" cy="55.592" rx=".82314" ry=".82119" filter="url(#filter9242-2)"/>
    <ellipse transform="matrix(-.53716 .84348 -.84617 -.53291 -162.93 -165.63)" cx="64.226" cy="-275.12" rx=".82119" ry=".82314" filter="url(#filter9246-3)"/>
    <ellipse transform="matrix(-.84617 -.53291 .53716 -.84348 -162.93 -165.63)" cx="-266.47" cy="-55.592" rx=".82314" ry=".82119" filter="url(#filter9250-1)"/>
    <ellipse transform="matrix(.53716 -.84348 .84617 .53291 -162.93 -165.63)" cx="-46.958" cy="275.12" rx=".82119" ry=".82314" filter="url(#filter9254-6)"/>
    <ellipse transform="matrix(.64535 .76388 -.76741 .64115 -162.93 -165.63)" cx="287.26" cy="-30.143" rx=".82177" ry=".82256" filter="url(#filter9258-8)"/>
    <ellipse transform="matrix(-.76741 .64115 -.64535 -.76388 -162.93 -165.63)" cx="-21.494" cy="-278.62" rx=".82256" ry=".82177" filter="url(#filter9262-4)"/>
    <ellipse transform="matrix(-.64535 -.76388 .76741 -.64115 -162.93 -165.63)" cx="-269.98" cy="30.143" rx=".82177" ry=".82256" filter="url(#filter9266-6)"/>
    <ellipse transform="matrix(.76741 -.64115 .64535 .76388 -162.93 -165.63)" cx="38.792" cy="278.62" rx=".82256" ry=".82177" filter="url(#filter9270-6)"/>
   </g>
  </g>
  <ellipse cx="40.004" cy="27.948" rx="3.1584" ry="3.1408" fill="none" filter="url(#filter9274-0)" stroke="#2c5aa0" stroke-miterlimit="3" stroke-width="1.5"/>
 </g>
</svg>
