<?xml version="1.0" encoding="UTF-8"?>
<svg version="1.1" width="26" height="26" viewBox="0 0 26 26" xmlns="http://www.w3.org/2000/svg">
 <g transform="translate(-587.04 -180.91)" fill="#2c5aa0">
  <path d="m600.04 184.21c-5.3291 0-9.6621 4.3491-9.6621 9.6914 0 5.3424 4.333 9.6914 9.6621 9.6914 5.3292 1e-5 9.6641-4.3491 9.6641-9.6914-1e-5 -5.3423-4.3349-9.6914-9.6641-9.6914zm0 1.5c4.5159-1e-5 8.164 3.6571 8.1641 8.1914 0 4.5343-3.6482 8.1914-8.1641 8.1914-4.5158-1e-5 -8.1621-3.6571-8.1621-8.1914 1e-5 -4.5343 3.6463-8.1914 8.1621-8.1914z" color="#000000" style="-inkscape-stroke:none"/>
  <path d="m593.47 198.51c0.0141-0.0288 1.5012-2.8514 3.3076-6.2724l3.2844-6.2202 0.0811 0.15397c0.19516 0.37122 6.463 12.32 6.4802 12.354 0.0153 0.0299-1.315 0.0374-6.5786 0.0374-6.2677 0-6.5965-3e-3 -6.5745-0.0522z" stroke-width="1.5"/>
 </g>
</svg>
