<?xml version="1.0" encoding="UTF-8"?>
<svg version="1.1" width="26" height="26" viewBox="0 0 26 26" xmlns="http://www.w3.org/2000/svg">
 <path d="m6.1152 3.1191-0.046875 0.70117-1.0098 14.998h3.0508v3.3105a0.74888 0.75128 0 0 0 0.74805 0.75195h11.336a0.74888 0.75128 0 0 0 0.74805-0.75195v-9.877a0.74888 0.75128 0 0 0-0.74805-0.75h-1.875v-1.8926a0.7488 0.75121 0 0 0-0.74805-0.75 0.7488 0.75121 0 0 0-0.74805 0.75v1.8926h-1.5488v-1.8926a0.7488 0.75121 0 0 0-0.75-0.75 0.7488 0.75121 0 0 0-0.74805 0.75v1.8926h-1.5469v-1.8926a0.7488 0.75121 0 0 0-0.74805-0.75 0.7488 0.75121 0 0 0-0.75 0.75v1.8926h-1.7461l-0.5918-8.3828h-2.2773zm1.1465 5.252 0.63086 8.9453h-1.2324l0.60156-8.9453zm2.3438 4.6328h1.125v1.873a0.7488 0.75121 0 0 0 0.75 0.75195 0.7488 0.75121 0 0 0 0.74805-0.75195v-1.873h1.5469v1.873a0.7488 0.75121 0 0 0 0.74805 0.75195 0.7488 0.75121 0 0 0 0.75-0.75195v-1.873h1.5488v1.873a0.7488 0.75121 0 0 0 0.74805 0.75195 0.7488 0.75121 0 0 0 0.74805-0.75195v-1.873h1.127v8.375h-9.8398v-8.375z" color="#000000" stroke-linecap="square" stroke-miterlimit="5.3" stroke-width="1.5" style="-inkscape-stroke:none"/>
</svg>
