<?xml version="1.0" encoding="UTF-8"?>
<svg version="1.1" viewBox="0 0 14 14" xmlns="http://www.w3.org/2000/svg">
 <g transform="rotate(45 531.72 -608.96)" stroke-linecap="round" stroke-miterlimit="3" stroke-width="1.1339">
  <path d="m599.08 191.35-1.2988 1.3008v9.9492l1.2988 1.3008a0.56693 0.56693 0 0 0 0.80274 0 0.56693 0.56693 0 0 0 0-0.80273l-0.96875-0.9668v-9.0098l0.96875-0.96875a0.56693 0.56693 0 0 0 0-0.80273 0.56693 0.56693 0 0 0-0.80274 0z" color="#000000" style="-inkscape-stroke:none;paint-order:stroke fill markers"/>
  <path d="m592.59 191.35a0.56693 0.56693 0 0 0 0 0.80273l0.96679 0.96875v9.0098l-0.96679 0.9668a0.56693 0.56693 0 0 0 0 0.80273 0.56693 0.56693 0 0 0 0.80078 0l1.3008-1.3008v-9.9492l-1.3008-1.3008a0.56693 0.56693 0 0 0-0.80078 0z" color="#000000" style="-inkscape-stroke:none;paint-order:stroke fill markers"/>
 </g>
</svg>
