<?xml version="1.0" encoding="UTF-8"?>
<svg version="1.1" viewBox="0 0 14 14" xmlns="http://www.w3.org/2000/svg">
 <g transform="translate(3.0801 -.40548)" stroke-miterlimit="3">
  <path d="m6.3828 1.0297c-0.4223 0.14152-0.94024 0.17178-1.5039 0.34961-0.56367 0.17783-1.1718 0.59928-1.4863 1.377a0.56693 0.56693 0 0 0 0.31445 0.73828 0.56693 0.56693 0 0 0 0.73828-0.31446c0.20094-0.49677 0.4009-0.60316 0.77344-0.7207 0.37255-0.11753 0.91905-0.15033 1.5254-0.35351a0.56693 0.56693 0 0 0 0.35742-0.71875 0.56693 0.56693 0 0 0-0.71875-0.35743z" color="#000000" stroke-linecap="round" stroke-linejoin="bevel" style="-inkscape-stroke:none;paint-order:stroke fill markers"/>
  <path d="m2.25 3.1098-1.1289 0.10938 0.0547 0.56445c0.36553 3.7994-0.68611 6.4148-1.875 8.6016l-0.30078 0.55469 0.58399 0.24023c0.57304 0.23516 1.3965 0.36461 2.2383 0.46875 0.84177 0.10415 1.6555 0.16201 2.1211 0.16211 0.92546 2.2e-4 3.0377-0.18674 4.2598-0.60156l0.63671-0.2168-0.32226-0.59179c-1.206-2.2182-2.1177-4.0518-1.8828-8.3047l0.0312-0.56641-1.1309-0.0625-0.0312 0.56641c-0.22101 4.0011 0.65031 6.15 1.709 8.1894-1.0605 0.23437-2.6549 0.45522-3.2695 0.45508-0.3632-8e-5 -1.1787-0.0551-1.9805-0.1543-0.57094-0.0706-0.98334-0.17906-1.3867-0.27929 1.1094-2.1856 2.0854-4.8605 1.7285-8.5703z" color="#000000" stroke-linecap="square" style="-inkscape-stroke:none;paint-order:stroke fill markers"/>
 </g>
</svg>
