<?xml version="1.0" encoding="UTF-8" standalone="no"?>
<svg
   version="1.1"
   viewBox="0 0 22 22"
   id="svg2"
   sodipodi:docname="map_bridge.svg"
   width="22"
   height="22"
   inkscape:version="1.2.2 (732a01da63, 2022-12-09)"
   xmlns:inkscape="http://www.inkscape.org/namespaces/inkscape"
   xmlns:sodipodi="http://sodipodi.sourceforge.net/DTD/sodipodi-0.dtd"
   xmlns="http://www.w3.org/2000/svg"
   xmlns:svg="http://www.w3.org/2000/svg">
  <defs
     id="defs6" />
  <sodipodi:namedview
     id="namedview4"
     pagecolor="#ff00ff"
     bordercolor="#666666"
     borderopacity="1.0"
     inkscape:showpageshadow="2"
     inkscape:pageopacity="0"
     inkscape:pagecheckerboard="true"
     inkscape:deskcolor="#d1d1d1"
     showgrid="false"
     inkscape:zoom="4.5384614"
     inkscape:cx="-90.008477"
     inkscape:cy="2.4237289"
     inkscape:window-width="2560"
     inkscape:window-height="1417"
     inkscape:window-x="-8"
     inkscape:window-y="-8"
     inkscape:window-maximized="1"
     inkscape:current-layer="layer1" />
  <g
     inkscape:groupmode="layer"
     id="layer1"
     inkscape:label="Image">
    <g
       id="g20489"
       transform="matrix(0.67602926,0,0,0.67600351,-242.36837,-66.554238)"
       style="stroke-width:3.69813">
      <path
         style="color:#000000;fill:#000000;stroke-width:3.69813;stroke-linecap:round;stroke-linejoin:round;-inkscape-stroke:none"
         d="m 386.58398,108.69922 a 1.2713371,1.2713371 0 0 0 -0.90234,0.375 l -16.02734,16.10742 a 1.2713371,1.2713371 0 0 0 -0.36914,0.89649 v 3.2207 a 1.27121,1.27121 0 0 0 1.27148,1.27148 1.27121,1.27121 0 0 0 1.27148,-1.27148 v -2.69531 l 15.28321,-15.36133 h 2.67773 a 1.27121,1.27121 0 0 0 1.27149,-1.27149 1.27121,1.27121 0 0 0 -1.27149,-1.27148 z"
         id="path4045" />
      <path
         style="color:#000000;fill:#000000;stroke-width:3.69813;stroke-linecap:round;stroke-linejoin:round;-inkscape-stroke:none"
         d="M 379.02148,98.878906 A 1.27121,1.27121 0 0 0 377.75,100.15039 v 2.69727 l -15.2832,15.36132 h -2.67774 a 1.27121,1.27121 0 0 0 -1.27148,1.27149 1.27121,1.27121 0 0 0 1.27148,1.26953 h 3.20508 a 1.2713371,1.2713371 0 0 0 0.90234,-0.37305 l 16.02735,-16.10742 a 1.2713371,1.2713371 0 0 0 0.36914,-0.89648 v -3.22266 a 1.27121,1.27121 0 0 0 -1.27149,-1.271484 z"
         id="path4047" />
    </g>
  </g>
</svg>
