<?xml version="1.0" encoding="UTF-8" standalone="no"?>
<svg
   version="1.1"
   viewBox="0 0 22 22"
   id="svg2"
   sodipodi:docname="map_tunnel.svg"
   width="22"
   height="22"
   inkscape:version="1.2.2 (732a01da63, 2022-12-09)"
   xmlns:inkscape="http://www.inkscape.org/namespaces/inkscape"
   xmlns:sodipodi="http://sodipodi.sourceforge.net/DTD/sodipodi-0.dtd"
   xmlns="http://www.w3.org/2000/svg"
   xmlns:svg="http://www.w3.org/2000/svg">
  <defs
     id="defs6" />
  <sodipodi:namedview
     id="namedview4"
     pagecolor="#ff00ff"
     bordercolor="#666666"
     borderopacity="1.0"
     inkscape:showpageshadow="2"
     inkscape:pageopacity="0"
     inkscape:pagecheckerboard="true"
     inkscape:deskcolor="#d1d1d1"
     showgrid="false"
     inkscape:zoom="18.153845"
     inkscape:cx="-6.913136"
     inkscape:cy="7.9872886"
     inkscape:window-width="2560"
     inkscape:window-height="1417"
     inkscape:window-x="-8"
     inkscape:window-y="-8"
     inkscape:window-maximized="1"
     inkscape:current-layer="layer1" />
  <g
     inkscape:groupmode="layer"
     id="layer1"
     inkscape:label="Image">
    <g
       id="g4547"
       transform="matrix(0.69437838,0,0,0.69437838,-116.44284,-166.15532)"
       style="stroke-width:1.44014">
      <path
         style="color:#000000;fill:#000000;stroke-width:1.44014;stroke-linecap:round;stroke-linejoin:round;stroke-miterlimit:3;-inkscape-stroke:none;paint-order:stroke fill markers"
         d="m 183.53516,240.72656 c -7.60332,-1e-5 -13.72852,6.49825 -13.72852,14.40235 v 13.15039 a 1.25,1.25 0 0 0 1.25,1.25 1.25,1.25 0 0 0 1.25,-1.25 v -13.15039 c 0,-6.62217 5.0492,-11.90236 11.22852,-11.90235 6.1793,1e-5 11.22851,5.2802 11.22851,11.90235 v 13.15039 a 1.25,1.25 0 0 0 1.25,1.25 1.25,1.25 0 0 0 1.25,-1.25 v -13.15039 c 0,-7.90408 -6.12521,-14.40234 -13.72851,-14.40235 z"
         id="path4059" />
      <path
         id="path4061"
         style="fill:#000000;stroke-width:3.60034;stroke-linecap:square;stroke-linejoin:round;stroke-miterlimit:3;paint-order:stroke fill markers"
         d="m 188.93291,264.07207 h -10.79576 v -5.68621 c 0,-3.14043 2.41671,-5.68624 5.39789,-5.68624 2.98114,0 5.39787,2.54581 5.39787,5.68624 z"
         sodipodi:nodetypes="cccscc" />
    </g>
  </g>
</svg>
