<svg width="22" height="22" viewBox="0 0 22 22" fill="none" xmlns="http://www.w3.org/2000/svg">
<mask id="path-1-outside-1_16_644" maskUnits="userSpaceOnUse" x="4.22183" y="4.58579" width="11.3137" height="11.3137" fill="black">
<rect fill="white" x="4.22183" y="4.58579" width="11.3137" height="11.3137"/>
<path fill-rule="evenodd" clip-rule="evenodd" d="M12 6.24853C12.3314 6.24853 12.6 6.51716 12.6 6.84853V8.36985L8.00589 12.964L6.48457 12.964C6.1532 12.964 5.88457 12.6953 5.88457 12.364C5.88457 12.0326 6.1532 11.764 6.48457 11.764L7.50883 11.764L11.4 7.87279L11.4 6.84853C11.4 6.51716 11.6686 6.24853 12 6.24853Z"/>
</mask>
<path fill-rule="evenodd" clip-rule="evenodd" d="M12 6.24853C12.3314 6.24853 12.6 6.51716 12.6 6.84853V8.36985L8.00589 12.964L6.48457 12.964C6.1532 12.964 5.88457 12.6953 5.88457 12.364C5.88457 12.0326 6.1532 11.764 6.48457 11.764L7.50883 11.764L11.4 7.87279L11.4 6.84853C11.4 6.51716 11.6686 6.24853 12 6.24853Z" fill="#444444"/>
<path fill-rule="evenodd" clip-rule="evenodd" d="M12 6.24853C12.3314 6.24853 12.6 6.51716 12.6 6.84853V8.36985L8.00589 12.964L6.48457 12.964C6.1532 12.964 5.88457 12.6953 5.88457 12.364C5.88457 12.0326 6.1532 11.764 6.48457 11.764L7.50883 11.764L11.4 7.87279L11.4 6.84853C11.4 6.51716 11.6686 6.24853 12 6.24853Z" stroke="white" stroke-width="2" stroke-linecap="round" mask="url(#path-1-outside-1_16_644)"/>
<mask id="path-2-outside-2_16_644" maskUnits="userSpaceOnUse" x="6.34343" y="6.70709" width="11.3137" height="11.3137" fill="black">
<rect fill="white" x="6.34343" y="6.70709" width="11.3137" height="11.3137"/>
<path fill-rule="evenodd" clip-rule="evenodd" d="M15.9944 10.2426C15.9944 9.91126 15.7258 9.64263 15.3944 9.64263H13.8731L9.27896 14.2367L9.27896 15.7581C9.27896 16.0894 9.54759 16.3581 9.87896 16.3581C10.2103 16.3581 10.479 16.0894 10.479 15.7581L10.479 14.7338L14.3701 10.8426L15.3944 10.8426C15.7258 10.8426 15.9944 10.574 15.9944 10.2426Z"/>
</mask>
<path fill-rule="evenodd" clip-rule="evenodd" d="M15.9944 10.2426C15.9944 9.91126 15.7258 9.64263 15.3944 9.64263H13.8731L9.27896 14.2367L9.27896 15.7581C9.27896 16.0894 9.54759 16.3581 9.87896 16.3581C10.2103 16.3581 10.479 16.0894 10.479 15.7581L10.479 14.7338L14.3701 10.8426L15.3944 10.8426C15.7258 10.8426 15.9944 10.574 15.9944 10.2426Z" fill="#444444"/>
<path fill-rule="evenodd" clip-rule="evenodd" d="M15.9944 10.2426C15.9944 9.91126 15.7258 9.64263 15.3944 9.64263H13.8731L9.27896 14.2367L9.27896 15.7581C9.27896 16.0894 9.54759 16.3581 9.87896 16.3581C10.2103 16.3581 10.479 16.0894 10.479 15.7581L10.479 14.7338L14.3701 10.8426L15.3944 10.8426C15.7258 10.8426 15.9944 10.574 15.9944 10.2426Z" stroke="white" stroke-width="2" stroke-linecap="round" mask="url(#path-2-outside-2_16_644)"/>
</svg>
