<?xml version="1.0" encoding="UTF-8"?>
<svg version="1.1" viewBox="0 0 14 14" xmlns="http://www.w3.org/2000/svg">
 <g transform="matrix(.43749 0 0 .43749 -1.0064 -20.852)" stroke-linecap="round" stroke-linejoin="round" stroke-miterlimit="3" stroke-width="2.2858">
  <path d="m18.301 71.35a1.25 1.25 0 0 0-1.25 1.25v2.3867a1.25 1.25 0 0 0 1.25 1.25 1.25 1.25 0 0 0 1.25-1.25v-2.3867a1.25 1.25 0 0 0-1.25-1.25z" color="#000000" stroke-width="2.2858" style="-inkscape-stroke:none;paint-order:stroke markers fill"/>
  <path d="m18.301 72.6v2.3856" color="#000000" stroke-width="5.7145" style="-inkscape-stroke:none;paint-order:stroke markers fill"/>
  <path d="m11.174 65.975a1.2501 1.2501 0 0 0-1.2402 1.0938l-1.4062 11.191a1.2501 1.2501 0 0 0 1.2402 1.4043h17.066a1.2501 1.2501 0 0 0 1.2402-1.4043l-1.4062-11.191a1.25 1.25 0 0 0-0.0332-0.05859 1.25 1.25 0 0 0-0.41602-0.73047 1.25 1.25 0 0 0-0.08789-0.05859 1.25 1.25 0 0 0-0.70312-0.24609zm1.1035 2.5h12.047l1.0938 8.6895h-14.232z" color="#000000" style="-inkscape-stroke:none;paint-order:stroke markers fill"/>
  <path d="m18.289 47.664c-4.0692 0.03541-8.2899 0.98908-11.365 2.8887-1.5376 0.9498-2.8076 2.1566-3.5215 3.6816-0.71389 1.525-0.79259 3.3538-0.085937 5.1914a1.25 1.25 0 0 0 1.6152 0.71875 1.25 1.25 0 0 0 0.71875-1.6152c-0.50099-1.3028-0.42437-2.2944 0.015625-3.2344 0.43999-0.93993 1.322-1.843 2.5723-2.6152 2.4978-1.5429 6.3884-2.4798 10.063-2.5137 3.6741 0.03391 7.5647 0.97079 10.062 2.5137 1.2503 0.77227 2.1323 1.6753 2.5723 2.6152s0.51662 1.9316 0.01563 3.2344a1.25 1.25 0 0 0 0.71875 1.6152 1.25 1.25 0 0 0 1.6152-0.71875c0.70665-1.8376 0.62796-3.6664-0.08594-5.1914-0.71389-1.525-1.9838-2.7318-3.5215-3.6816-3.0753-1.8996-7.2961-2.8533-11.365-2.8887a1.2501 1.2501 0 0 0-0.02344 0z" color="#000000" style="-inkscape-stroke:none;paint-order:stroke markers fill"/>
 </g>
</svg>
