<svg width="22" height="22" viewBox="0 0 22 22" fill="none" xmlns="http://www.w3.org/2000/svg">
<rect x="11" y="7" width="7" height="5" fill="white"/>
<rect x="2" y="1" width="5" height="11" fill="white"/>
<path d="M5 8C5.5 8 5.5 8.1875 6 8.1875C6.5 8.1875 6.5 8 7 8L7 9C6.5 9 6.5 9.1875 6 9.1875C5.5 9.1875 5.5 9 5 9C4.50703 9 4.5 9.18298 4.01054 9.18483C3.52109 9.18667 3.4999 9 3 9V8C3.4999 8 3.52109 8.18667 4.01054 8.18483C4.5 8.18298 4.50703 8 5 8Z" fill="#444444"/>
<path d="M5 6C5.5 6 5.5 6.1875 6 6.1875C6.5 6.1875 6.5 6 7 6L7 7C6.5 7 6.5 7.1875 6 7.1875C5.5 7.1875 5.5 7 5 7C4.50703 7 4.5 7.18298 4.01054 7.18483C3.52109 7.18667 3.4999 7 3 7V6C3.4999 6 3.52109 6.18667 4.01054 6.18483C4.5 6.18298 4.50703 6 5 6Z" fill="#444444"/>
<path d="M5 4C5.5 4 5.5 4.1875 6 4.1875C6.5 4.1875 6.5 4 7 4L7 5C6.5 5 6.5 5.1875 6 5.1875C5.5 5.1875 5.5 5 5 5C4.50703 5 4.5 5.18298 4.01054 5.18483C3.52109 5.18667 3.4999 5 3 5V4C3.4999 4 3.52109 4.18667 4.01054 4.18483C4.5 4.18298 4.50703 4 5 4Z" fill="#444444"/>
<path d="M5 2C5.5 2 5.5 2.1875 6 2.1875C6.5 2.1875 6.5 2 7 2L7 3C6.5 3 6.5 3.1875 6 3.1875C5.5 3.1875 5.5 3 5 3C4.50703 3 4.5 3.18298 4.01054 3.18483C3.52109 3.18667 3.4999 3 3 3V2C3.4999 2 3.52109 2.18667 4.01054 2.18483C4.5 2.18298 4.50703 2 5 2Z" fill="#444444"/>
<path d="M11 8C11.5 8 11.5 8.1875 12 8.1875C12.5 8.1875 12.5 8 13 8L13 9C12.5 9 12.5 9.1875 12 9.1875C11.5 9.1875 11.5 9 11 9C10.507 9 10.5 9.18298 10.0105 9.18483C9.52109 9.18667 9.4999 9 9 9V8C9.4999 8 9.52109 8.18667 10.0105 8.18483C10.5 8.18298 10.507 8 11 8Z" fill="#444444"/>
<path d="M15 8C15.5 8 15.5 8.1875 16 8.1875C16.5 8.1875 16.5 8 17 8V9C16.5 9 16.5 9.1875 16 9.1875C15.5 9.1875 15.5 9 15 9C14.507 9 14.5 9.18298 14.0105 9.18483C13.5211 9.18667 13.4999 9 13 9L13 8C13.4999 8 13.5211 8.18667 14.0105 8.18483C14.5 8.18298 14.507 8 15 8Z" fill="#444444"/>
<path d="M5 10C5.5 10 5.5 10.1875 6 10.1875C6.5 10.1875 6.5 10 7 10L7 11C6.5 11 6.5 11.1875 6 11.1875C5.5 11.1875 5.5 11 5 11C4.50703 11 4.5 11.183 4.01054 11.1848C3.52109 11.1867 3.4999 11 3 11V10C3.4999 10 3.52109 10.1867 4.01054 10.1848C4.5 10.183 4.50703 10 5 10Z" fill="#444444"/>
<path d="M11 10C11.5 10 11.5 10.1875 12 10.1875C12.5 10.1875 12.5 10 13 10L13 11C12.5 11 12.5 11.1875 12 11.1875C11.5 11.1875 11.5 11 11 11C10.507 11 10.5 11.183 10.0105 11.1848C9.52109 11.1867 9.4999 11 9 11V10C9.4999 10 9.52109 10.1867 10.0105 10.1848C10.5 10.183 10.507 10 11 10Z" fill="#444444"/>
<path d="M15 10C15.5 10 15.5 10.1875 16 10.1875C16.5 10.1875 16.5 10 17 10V11C16.5 11 16.5 11.1875 16 11.1875C15.5 11.1875 15.5 11 15 11C14.507 11 14.5 11.183 14.0105 11.1848C13.5211 11.1867 13.4999 11 13 11L13 10C13.4999 10 13.5211 10.1867 14.0105 10.1848C14.5 10.183 14.507 10 15 10Z" fill="#444444"/>
<mask id="path-10-outside-1_34_111" maskUnits="userSpaceOnUse" x="7" y="0" width="9" height="12" fill="black">
<rect fill="white" x="7" width="9" height="12"/>
<path d="M8 1H10C10 5 12 10 13 11H8V1Z"/>
</mask>
<path d="M8 1H10C10 5 12 10 13 11H8V1Z" fill="#444444"/>
<path d="M8 1H10C10 5 12 10 13 11H8V1Z" stroke="white" stroke-width="2" mask="url(#path-10-outside-1_34_111)"/>
</svg>
