<svg width="22" height="22" viewBox="0 0 22 22" fill="none" xmlns="http://www.w3.org/2000/svg">
<path d="M11.4301 7.20433C10.9881 5.80784 9.01192 5.80785 8.56992 7.20433L8.0012 9.0012L6.20433 9.56992L6.50609 10.5233L6.20433 9.56992C4.80784 10.0119 4.80785 11.9881 6.20433 12.4301L8.0012 12.9988L8.56992 14.7957C9.01193 16.1922 10.9881 16.1922 11.4301 14.7957L11.9988 12.9988L13.7957 12.4301C15.1922 11.9881 15.1922 10.0119 13.7957 9.56992L11.9988 9.0012L11.4301 7.20433Z" fill="#624E90" stroke="#624E90" stroke-width="2"/>
<path d="M10.9534 7.35521C10.6587 6.42421 9.34128 6.42422 9.04661 7.35521L8.39956 9.39956L6.35521 10.0466C5.42421 10.3413 5.42422 11.6587 6.35521 11.9534L8.39956 12.6004L9.04661 14.6448C9.34128 15.5758 10.6587 15.5758 10.9534 14.6448L11.6004 12.6004L13.6448 11.9534C14.5758 11.6587 14.5758 10.3413 13.6448 10.0466L11.6004 9.39956L10.9534 7.35521Z" fill="#444444" stroke="white"/>
<circle cx="10" cy="11" r="1.5" fill="#444444" stroke="white"/>
</svg>
