<?xml version="1.0" encoding="UTF-8"?>
<svg version="1.1" width="26" height="26" viewBox="0 0 26 26" xmlns="http://www.w3.org/2000/svg">
 <path d="m17.242 3.2598-1.498 0.0078125 0.003906 0.75 0.005859 1.5078h-2.0781v-1.5117-0.75h-1.498v0.75 1.5117h-2.0723v-1.5117-0.75h-1.498v0.75 2.2637 10.041l-2.7695 5.3242a0.7488 0.75121 0 0 0 0.31836 1.0137 0.7488 0.75121 0 0 0 1.0117-0.31836l2.5605-4.9297 2.2578 0.72852a0.74888 0.75128 0 0 0 0.81836-0.25l3.6211-4.6152 5.0195 8.9629a0.7488 0.75121 0 0 0 1.0195 0.28516 0.7488 0.75121 0 0 0 0.28711-1.0215l-5.4727-9.7773-0.025391-5.375a0.7488 0.75121 0 0 0 0.009766-0.068359 0.7488 0.75121 0 0 0-0.009766-0.074219l-0.009765-2.1914-0.001953-0.75195zm-7.1367 3.7676h2.0723 1.498 2.084l0.019531 4.6367-3.8301 4.8828-1.8438-0.59375v-8.9258z" color="#000000" stroke-linecap="round" stroke-linejoin="round" stroke-miterlimit="3" stroke-width="1.5" style="-inkscape-stroke:none"/>
</svg>
