<?xml version="1.0" encoding="UTF-8"?>
<svg version="1.1" width="26" height="26" viewBox="0 0 26 26" xmlns="http://www.w3.org/2000/svg">
 <g transform="matrix(1.0501 0 0 1.0535 14.323 -34.975)" stroke-width="1.4261">
  <path d="m0.087891 36.893-3.877 5.9551-2.2656-4.7871-0.63867 1.3887-6.7539 14.697h4.9766l0.14062-0.06641c2.0266-0.92923 4.393-2.2997 5.8594-3.8672 0.73321-0.78374 1.2826-1.6426 1.2988-2.6211 0.013703-0.82543-0.5135-1.5815-1.3203-2.2031 0.51421-0.10352 1.1199-0.18452 1.8477-0.0059 0.91011 0.22342 1.8231 0.6823 2.4238 1.2812 0.60071 0.59895 0.90701 1.2736 0.76758 2.1602-0.13943 0.88653-0.79142 2.0624-2.3887 3.4473-0.20494 0.17655-0.2739 0.23978-0.71875 0.63086l-1.4141 1.2441 12.902 0.03711zm-0.023438 2.6484 8.2812 13.209-6.6895-0.019531c1.3041-1.2853 2.1158-2.5198 2.2988-3.6836 0.21282-1.3531-0.32616-2.5532-1.168-3.3926-0.84181-0.83934-1.9666-1.382-3.0918-1.6582-0.86959-0.21347-1.7138-0.2096-2.4941-0.054688zm-6.0996 1.8945 2.2285 4.707 0.1875 0.11133c0.8488 0.50077 1.0284 0.89734 1.0215 1.3145-0.00692 0.41711-0.30688 1.0228-0.91406 1.6719-1.1896 1.2715-3.3997 2.5984-5.291 3.4785h-2.418z" color="#000000" stroke-linecap="round" stroke-miterlimit="3" style="-inkscape-stroke:none"/>
 </g>
</svg>
