<?xml version="1.0" encoding="UTF-8" standalone="no"?>
<svg
   version="1.1"
   viewBox="0 0 22 22"
   id="svg2"
   sodipodi:docname="map_mountain_top.svg"
   width="22"
   height="22"
   inkscape:version="1.2.2 (732a01da63, 2022-12-09)"
   xmlns:inkscape="http://www.inkscape.org/namespaces/inkscape"
   xmlns:sodipodi="http://sodipodi.sourceforge.net/DTD/sodipodi-0.dtd"
   xmlns="http://www.w3.org/2000/svg"
   xmlns:svg="http://www.w3.org/2000/svg">
  <defs
     id="defs6" />
  <sodipodi:namedview
     id="namedview4"
     pagecolor="#ff00ff"
     bordercolor="#666666"
     borderopacity="1.0"
     inkscape:showpageshadow="2"
     inkscape:pageopacity="0"
     inkscape:pagecheckerboard="true"
     inkscape:deskcolor="#d1d1d1"
     showgrid="false"
     inkscape:zoom="4.5384614"
     inkscape:cx="-52.33051"
     inkscape:cy="18.288136"
     inkscape:window-width="2560"
     inkscape:window-height="1417"
     inkscape:window-x="-8"
     inkscape:window-y="-8"
     inkscape:window-maximized="1"
     inkscape:current-layer="layer1" />
  <g
     inkscape:groupmode="layer"
     id="layer1"
     inkscape:label="Image">
    <path
       style="color:#000000;fill:#000000;stroke-width:1;stroke-linecap:round;-inkscape-stroke:none"
       d="M 11.00164,1.3233477 0.12356197,19.373356 a 0.85939636,0.85939636 0 0 0 0.2927319,1.180328 0.85939636,0.85939636 0 0 0 1.17898443,-0.292732 l 8.8880387,-14.7480468 0.935936,6.7717748 -2.3096278,1.908128 0.374643,5.67873 a 0.85939636,0.85939636 0 0 0 0.9131088,0.801655 0.85939636,0.85939636 0 0 0 0.801655,-0.914451 L 10.88213,14.958208 13.252184,12.999053 12.425015,7.0155062 20.405316,20.258267 a 0.85939636,0.85939636 0 0 0 1.178984,0.292731 0.85939636,0.85939636 0 0 0 0.292732,-1.178984 z"
       id="path5518" />
  </g>
</svg>
