<?xml version="1.0" encoding="UTF-8"?>
<svg version="1.1" viewBox="0 0 14 14" xmlns="http://www.w3.org/2000/svg">
 <g transform="translate(-71.76 -273.15)" stroke-miterlimit="3">
  <path d="m81.259 285.86h-4.9977v-2.6322c0-1.4538 1.1187-2.6323 2.4988-2.6323 1.38 0 2.4988 1.1785 2.4988 2.6323z" stroke-linecap="square" stroke-linejoin="round" stroke-width="2.5" style="paint-order:stroke fill markers"/>
  <path transform="scale(1,-1)" d="m78.76-274.19c-0.95367 0-1.9064-0.24956-2.7598-0.74805-1.5434-0.90152-2.5479-2.4929-2.7266-4.2598h-0.03125v-6.9199h1.1348v6.3535c0 1.5901 0.8368 3.0553 2.1934 3.8477 1.3566 0.79239 3.0224 0.79239 4.3789 0 1.3566-0.7924 2.1953-2.2576 2.1953-3.8477v-6.3535h1.1328v6.9199h-0.03125c-0.1784 1.7668-1.1812 3.3582-2.7246 4.2598-0.8534 0.49849-1.808 0.74805-2.7617 0.74805z" color="#000000" stroke-dashoffset="2.1" stroke-linecap="round" style="-inkscape-stroke:none;paint-order:stroke markers fill"/>
 </g>
</svg>
