<?xml version="1.0" encoding="UTF-8" standalone="no"?>
<svg
   version="1.1"
   viewBox="0 0 22 22"
   id="svg2"
   sodipodi:docname="map_pass.svg"
   width="22"
   height="22"
   inkscape:version="1.2.2 (732a01da63, 2022-12-09)"
   xmlns:inkscape="http://www.inkscape.org/namespaces/inkscape"
   xmlns:sodipodi="http://sodipodi.sourceforge.net/DTD/sodipodi-0.dtd"
   xmlns="http://www.w3.org/2000/svg"
   xmlns:svg="http://www.w3.org/2000/svg">
  <defs
     id="defs6" />
  <sodipodi:namedview
     id="namedview4"
     pagecolor="#ff00ff"
     bordercolor="#666666"
     borderopacity="1.0"
     inkscape:showpageshadow="2"
     inkscape:pageopacity="0"
     inkscape:pagecheckerboard="true"
     inkscape:deskcolor="#d1d1d1"
     showgrid="false"
     inkscape:zoom="4.5384613"
     inkscape:cx="10.245763"
     inkscape:cy="26.661018"
     inkscape:window-width="2560"
     inkscape:window-height="1417"
     inkscape:window-x="-8"
     inkscape:window-y="-8"
     inkscape:window-maximized="1"
     inkscape:current-layer="layer1" />
  <g
     inkscape:groupmode="layer"
     id="layer1"
     inkscape:label="Image">
    <path
       style="color:#000000;fill:#000000;stroke-width:1;stroke-miterlimit:3;-inkscape-stroke:none"
       d="M 12.323974,2.4505613 8.766968,9.0919188 6.834717,5.1481927 6.069336,6.7568358 0,19.517212 h 4.7749023 l 0.166504,-0.07385 c 1.7847897,-0.790646 3.8604207,-1.943955 5.1844487,-3.311279 0.662013,-0.683662 1.191032,-1.45332 1.207153,-2.39148 0.0102,-0.593737 -0.306613,-1.130033 -0.747925,-1.615356 0.324854,-0.0024 0.548984,-0.08826 0.921142,0 0.76168,0.180645 1.526017,0.559434 2.007447,1.023193 0.481429,0.46376 0.698525,0.928438 0.592163,1.581787 -0.106363,0.65335 -0.62745,1.59855 -1.994019,2.743287 -0.179755,0.14961 -0.241056,0.204078 -0.628418,0.533081 L 9.708252,19.514527 22,19.549439 Z m 0.04163,3.5623774 6.682983,11.8096933 -4.90918,-0.01477 c 0.884634,-0.950062 1.514324,-1.88482 1.663697,-2.802368 0.200879,-1.233939 -0.320296,-2.346853 -1.097046,-3.095093 -0.77675,-0.74824 -1.790183,-1.216534 -2.803711,-1.456909 -0.632494,-0.150006 -1.2518,-0.173364 -1.851685,-0.12085 z m -5.5094,3.0897221 1.76709,3.6040042 0.229614,0.130249 c 0.697681,0.397667 0.76544,0.636277 0.761353,0.874145 -0.0041,0.237868 -0.21532,0.702278 -0.722412,1.225952 -0.986538,1.018799 -2.880873,2.126562 -4.5063479,2.861451 H 2.720459 Z"
       id="path397" />
  </g>
</svg>
