<svg width="22" height="22" viewBox="0 0 22 22" fill="none" xmlns="http://www.w3.org/2000/svg">
<mask id="path-1-outside-1_16_633" maskUnits="userSpaceOnUse" x="5" y="5" width="9" height="8" fill="black">
<rect fill="white" x="5" y="5" width="9" height="8"/>
<path d="M9.32726 6.29615C9.40444 6.16385 9.5956 6.16385 9.67277 6.29615L12.8245 11.6992C12.9023 11.8326 12.8062 12 12.6518 12H6.34821C6.19385 12 6.09768 11.8326 6.17545 11.6992L9.32726 6.29615Z"/>
</mask>
<path d="M9.32726 6.29615C9.40444 6.16385 9.5956 6.16385 9.67277 6.29615L12.8245 11.6992C12.9023 11.8326 12.8062 12 12.6518 12H6.34821C6.19385 12 6.09768 11.8326 6.17545 11.6992L9.32726 6.29615Z" fill="#444444"/>
<path d="M9.32726 6.29615C9.40444 6.16385 9.5956 6.16385 9.67277 6.29615L12.8245 11.6992C12.9023 11.8326 12.8062 12 12.6518 12H6.34821C6.19385 12 6.09768 11.8326 6.17545 11.6992L9.32726 6.29615Z" stroke="white" stroke-width="2" mask="url(#path-1-outside-1_16_633)"/>
</svg>
