<?xml version="1.0" encoding="UTF-8"?>
<svg version="1.1" viewBox="0 0 14 14" xmlns="http://www.w3.org/2000/svg">
 <g transform="translate(0 -4.8105)">
  <path d="m13.996 8.892-13.994 0.00622 0.00124 1.1458 13.994-5e-3z" color="#000000" style="-inkscape-stroke:none"/>
  <path d="m0.009154 10.696-0.00871 1.147c0.39406 0.0028 0.7867 0.10726 1.1383 0.31474 0.70315 0.41495 1.1288 1.1728 1.1171 1.9892l-0.00871 0.58221h2.4619v-0.5735c0-0.82004 0.43981-1.6167 1.1358-2.0141 0.70902-0.40486 1.5784-0.39878 2.2816 0.01617 0.70315 0.41496 1.1288 1.1728 1.1171 1.9892l-0.0087 0.58221h2.5801l-0.0087-0.58221c-0.01168-0.81638 0.41399-1.5743 1.1171-1.9892 0.36778-0.21704 0.67659-0.30444 1.0761-0.30728l-0.0087-1.147c-0.58727 0.0041-1.139 0.16573-1.6508 0.46776-0.8778 0.51802-1.368 1.4253-1.5326 2.4109h-0.56481c-0.16464-0.98575-0.65604-1.8929-1.5339-2.4109-1.056-0.62317-2.3675-0.63288-3.4323-0.024881-0.8995 0.51362-1.3926 1.4412-1.5637 2.4358h-0.4578c-0.16468-0.98567-0.65485-1.8929-1.5326-2.4109-0.52797-0.31157-1.1203-0.47101-1.713-0.47522z" color="#000000" style="-inkscape-stroke:none"/>
 </g>
</svg>
