<?xml version="1.0" encoding="UTF-8"?>
<svg version="1.1" viewBox="0 0 14 14" xmlns="http://www.w3.org/2000/svg">
 <g transform="translate(-70.097 -131.38)">
  <path d="m71.051 134.51h-2e-3l0.01572 7.7324h2e-3v2e-3l3.4746-2e-3 -2e-3 -1.6094c-0.0032-0.86704 0.46836-1.6708 1.252-2.1113 0.78359-0.44055 1.7541-0.44152 2.5371 0 0.78299 0.44153 1.2543 1.2462 1.25 2.1133l-2e-3 1.6094 3.5684-8e-3v-7.7266zm1.1367 1.1328h9.8223v5.4629l-1.3008 2e-3 2e-3 -0.46679c0.0064-1.283-0.69596-2.4681-1.8262-3.1055-0.56511-0.31867-1.1942-0.47812-1.8242-0.47852-0.62999-3.9e-4 -1.2607 0.15666-1.8262 0.47461-1.131 0.6359-1.8348 1.8224-1.8301 3.1055l2e-3 0.47266h-1.2109z" color="#000000" stroke-dashoffset="2.1" stroke-linecap="square" stroke-miterlimit="3" style="-inkscape-stroke:none;paint-order:stroke markers fill"/>
 </g>
</svg>
