<?xml version="1.0" encoding="UTF-8" standalone="no"?>
<svg
   xmlns:dc="http://purl.org/dc/elements/1.1/"
   xmlns:cc="http://creativecommons.org/ns#"
   xmlns:rdf="http://www.w3.org/1999/02/22-rdf-syntax-ns#"
   xmlns:svg="http://www.w3.org/2000/svg"
   xmlns="http://www.w3.org/2000/svg"
   xmlns:sodipodi="http://sodipodi.sourceforge.net/DTD/sodipodi-0.dtd"
   xmlns:inkscape="http://www.inkscape.org/namespaces/inkscape"
   width="210mm"
   height="297mm"
   viewBox="0 0 210 297"
   version="1.1"
   id="svg854"
   sodipodi:docname="map_reporting_point.svg"
   inkscape:version="1.0.2 (e86c870879, 2021-01-15)">
  <defs
     id="defs848">
    <filter
       style="color-interpolation-filters:sRGB;"
       inkscape:label="Drop Shadow"
       id="filter1556">
      <feFlood
         flood-opacity="0.498039"
         flood-color="rgb(0,0,0)"
         result="flood"
         id="feFlood1546" />
      <feComposite
         in="flood"
         in2="SourceGraphic"
         operator="in"
         result="composite1"
         id="feComposite1548" />
      <feGaussianBlur
         in="composite1"
         stdDeviation="3"
         result="blur"
         id="feGaussianBlur1550" />
      <feOffset
         dx="6"
         dy="6"
         result="offset"
         id="feOffset1552" />
      <feComposite
         in="SourceGraphic"
         in2="offset"
         operator="over"
         result="composite2"
         id="feComposite1554" />
    </filter>
    <filter
       style="color-interpolation-filters:sRGB;"
       inkscape:label="Drop Shadow"
       id="filter1568">
      <feFlood
         flood-opacity="0.498039"
         flood-color="rgb(0,0,0)"
         result="flood"
         id="feFlood1558" />
      <feComposite
         in="flood"
         in2="SourceGraphic"
         operator="in"
         result="composite1"
         id="feComposite1560" />
      <feGaussianBlur
         in="composite1"
         stdDeviation="3"
         result="blur"
         id="feGaussianBlur1562" />
      <feOffset
         dx="6"
         dy="6"
         result="offset"
         id="feOffset1564" />
      <feComposite
         in="SourceGraphic"
         in2="offset"
         operator="over"
         result="composite2"
         id="feComposite1566" />
    </filter>
  </defs>
  <sodipodi:namedview
     id="base"
     pagecolor="#ffffff"
     bordercolor="#666666"
     borderopacity="1.0"
     inkscape:pageopacity="0.0"
     inkscape:pageshadow="2"
     inkscape:zoom="0.35"
     inkscape:cx="1594.8107"
     inkscape:cy="1535.3095"
     inkscape:document-units="mm"
     inkscape:current-layer="layer1"
     inkscape:document-rotation="0"
     showgrid="false"
     inkscape:window-width="3836"
     inkscape:window-height="2119"
     inkscape:window-x="0"
     inkscape:window-y="37"
     inkscape:window-maximized="1" />
  <metadata
     id="metadata851">
    <rdf:RDF>
      <cc:Work
         rdf:about="">
        <dc:format>image/svg+xml</dc:format>
        <dc:type
           rdf:resource="http://purl.org/dc/dcmitype/StillImage" />
      </cc:Work>
    </rdf:RDF>
  </metadata>
  <g
     inkscape:label="Layer 1"
     inkscape:groupmode="layer"
     id="layer1">
    <path
       id="path1491"
       style="fill:#00b0f7;fill-opacity:1;stroke-width:0.43572;stroke-miterlimit:4;stroke-dasharray:none"
       d="m 104.99991,49.016277 a 99.483807,99.483807 0 0 0 -99.4836954,99.483703 99.483807,99.483807 0 0 0 99.4836954,99.4837 99.483807,99.483807 0 0 0 99.48398,-99.4837 99.483807,99.483807 0 0 0 -99.48398,-99.483703 z m -0.45384,21.775254 a 77.708512,77.708512 0 0 1 77.70845,77.708449 77.708512,77.708512 0 0 1 -77.70845,77.70845 77.708512,77.708512 0 0 1 -77.708445,-77.70845 77.708512,77.708512 0 0 1 77.708445,-77.708449 z" />
    <ellipse
       style="fill:#00ec00;fill-opacity:1;stroke-width:0.43572;stroke-miterlimit:4;stroke-dasharray:none"
       id="path1515"
       cx="63.78429"
       cy="94.089691"
       rx="0.7113325"
       ry="0.11588395" />
    <path
       style="fill:#00b0f7;fill-opacity:1;stroke-width:0.955058;stroke-miterlimit:4;stroke-dasharray:none;filter:url(#filter1568)"
       d="m 44.926509,190.42775 c 0.116394,-0.2619 13.71309,-25.96379 30.214882,-57.11531 l 30.003249,-56.639126 0.73947,1.401987 c 1.78292,3.380285 59.03978,112.182939 59.19653,112.488509 0.13921,0.27135 -12.01194,0.34012 -60.09564,0.34012 -57.255269,0 -60.25953,-0.0238 -60.058491,-0.47618 z"
       id="path1518" />
    <path
       style="fill:#00b0f7;fill-opacity:1;stroke-width:0.880284;stroke-miterlimit:4;stroke-dasharray:none;filter:url(#filter1556)"
       d="M 95.416169,247.48749 C 64.400747,244.24851 37.487565,227.63217 20.882333,201.46994 4.2419138,175.25227 1.0101857,141.3738 12.397504,112.5228 29.305391,69.684831 72.563422,44.11559 118.04262,50.077394 c 20.6976,2.713217 40.39008,12.158439 55.55731,26.64728 23.40136,22.354688 34.45643,54.770546 29.60615,86.811676 -2.94572,19.45955 -11.97935,38.18097 -25.36662,52.57024 -16.03528,17.23547 -36.71539,27.82464 -60.74218,31.10279 -4.50027,0.61401 -16.93706,0.77354 -21.681111,0.27811 z m 20.503641,-21.93118 c 16.82393,-2.56432 31.79021,-10.1334 43.6834,-22.09257 4.1795,-4.20268 6.46802,-7.00626 9.79666,-12.00152 7.02959,-10.54923 11.26885,-22.47238 12.57845,-35.3776 0.43597,-4.2962 0.20001,-14.93459 -0.41949,-18.91246 -1.80436,-11.58614 -5.86753,-22.06261 -12.30801,-31.73491 C 163.63174,96.998506 156.13345,89.479484 147.71379,83.840648 133.77372,74.504675 116.90478,69.922045 100.16864,70.924497 92.730784,71.370006 87.359273,72.370442 80.609123,74.567429 68.29297,78.575996 58.723597,84.479445 49.419887,93.808406 36.673927,106.58896 29.277178,122.0385 27.186188,140.24779 c -0.566183,4.93058 -0.417777,14.70789 0.292835,19.29259 2.063415,13.31266 7.010504,25.30128 14.633261,35.46178 13.309195,17.74005 32.914601,28.7924 55.133204,31.08083 3.997982,0.41179 14.451612,0.11694 18.674322,-0.52668 z"
       id="path1520" />
  </g>
</svg>
