<?xml version="1.0" encoding="utf-8"?>
<!-- Svg Vector Icons : http://www.onlinewebfonts.com/icon -->
<!DOCTYPE svg PUBLIC "-//W3C//DTD SVG 1.1//EN" "http://www.w3.org/Graphics/SVG/1.1/DTD/svg11.dtd">
<svg version="1.1" xmlns="http://www.w3.org/2000/svg" xmlns:xlink="http://www.w3.org/1999/xlink" x="0px" y="0px" viewBox="0 0 1000 1000" enable-background="new 0 0 1000 1000" xml:space="preserve">
<metadata> Svg Vector Icons : http://www.onlinewebfonts.com/icon </metadata>
<g><g transform="translate(0.000000,511.000000) scale(0.100000,-0.100000)"><path d="M2891.1,3681.5c-80.1-42-122.1-80.1-168.2-154.1l-60.1-98.1l-14-662.7c-42-2120.1-348.3-3491.5-985-4426.4c-166.2-244.2-514.5-590.6-750.7-748.8c-104.1-68.1-274.3-164.1-380.4-214.2c-106.1-50-214.2-102.1-242.2-116.1c-70.1-38-172.2-194.2-186.2-284.3c-26-168.2,68.1-360.4,216.2-436.4c80.1-42,92.1-42,2312.3-48c1541.5-4,2280.2,0,2386.4,16c346.3,50.1,660.7,202.2,944.9,460.5l112.1,104.1l138.1-130.1c646.7-608.6,1641.6-598.6,2304.3,24c60.1,56.1,114.1,102.1,120.1,102.1c6,0,56.1-46,110.1-102.1c250.3-254.3,632.6-430.4,1017-470.4l134.1-12v418.4v418.4l-126.1,22c-368.4,62.1-678.7,378.4-708.7,724.7l-12,122.1h-414.4h-416.4l-24-134.1c-112.1-646.6-848.8-940.9-1371.4-546.5c-178.2,134.1-330.3,408.4-330.3,600.6v80.1h-418.4h-418.4l-22-132.1c-14-74.1-52-188.2-84.1-254.3c-60.1-118.1-210.2-286.3-294.3-332.3l-44-24v620.6v620.6l84.1,24c202.2,54.1,488.5,228.2,682.7,414.4c92.1,90.1,94.1,92.1,124.1,52.1c40-60.1,282.3-252.2,400.4-322.3c328.3-192.2,774.8-272.3,1141.1-204.2c304.3,56.1,682.7,254.2,888.9,464.5l86.1,90.1L8796.9-943c280.3-242.2,624.6-392.4,958.9-420.4l144.2-12V-955v420.4l-114.1,12c-166.2,18-380.4,128.1-498.5,260.3c-118.1,130.1-208.2,316.3-222.2,462.5l-12,112.1h-414.4h-416.4l-22-122.1c-28-168.2-102.1-318.3-212.2-436.4c-196.2-210.2-400.4-292.3-692.7-278.3c-152.2,8-194.2,18-324.3,82.1c-254.2,126.1-442.5,382.4-468.5,642.6l-12,112.1h-416.4h-416.4l-12-74.1c-26-160.2-58.1-254.3-130.1-362.3c-68.1-108.1-244.2-284.3-282.3-284.3c-10,0-18,280.3-18,620.6c0,550.5,4,620.6,32,620.6c56,0,324.3,120.1,452.5,204.2c68,44,178.2,134.1,246.2,198.2l122.1,118.1l80.1-82.1c200.2-208.2,504.5-382.4,798.8-460.5c224.2-58.1,578.6-58.1,800.8,0c296.3,78.1,592.6,248.2,788.8,450.4l88.1,90.1l126.1-118.1c70.1-64.1,166.2-144.1,218.2-180.2c214.2-148.1,528.5-260.3,806.8-286.3l124.1-14V1171v418.4l-122.1,22c-234.2,40-468.5,194.2-588.6,382.4c-66.1,106.1-130.1,292.3-130.1,380.4v80.1h-418.4h-418.4l-22-124.1c-66.1-378.4-346.3-656.6-728.7-720.7c-156.2-26-326.3,0-486.5,72.1c-126.1,58.1-306.3,220.2-376.4,340.3c-58,100.1-112.1,276.3-112.1,366.4v66.1h-418.4h-418.4l-22-124.1c-40-226.2-186.2-454.4-376.4-586.6l-44-30l-6,856.8l-6,858.9l-60.1,98.1c-46,74.1-88.1,112.1-168.2,154.1l-110.1,54.1h-932.9h-932.9L2891.1,3681.5z M4374.5,112v-2782.7H3153.3c-670.7,0-1221.2,4-1221.2,10c0,4,58.1,72.1,128.1,150.2c384.4,428.4,710.7,1015,930.9,1675.7c290.3,866.8,430.4,1773.7,486.5,3135.1l24,594.6h436.4h436.4V112z"/></g></g>
</svg>