<?xml version="1.0" encoding="UTF-8"?>
<svg version="1.1" viewBox="0 0 14 14" xmlns="http://www.w3.org/2000/svg">
 <path d="m3.7255 9.8057c-0.99212 0-1.815-0.84762-1.815-1.9385 0-0.96155 0.65052-1.7168 1.4802-1.8845l0.36299-0.074658 0.054063-0.36815c0.12364-0.85881 0.9527-1.6712 1.9385-1.972 0.98585-0.30079 2.0079-0.13878 2.68 0.85471l0.19566 0.28833 0.3424-0.066934c0.49188-0.096581 0.96693-0.032345 1.3489 0.18535 0.38206 0.2177 0.69233 0.58375 0.85728 1.2023l0.04634 0.16992 0.13645 0.1107c0.44485 0.34907 0.73628 0.9026 0.73628 1.555 0 1.0909-0.82285 1.9385-1.815 1.9385l-2.6901 1.02e-5v1.0555l2.6901-6e-6c1.5925 0 2.8679-1.3621 2.8679-2.9941 0-0.93523-0.43959-1.7551-1.0993-2.3067-0.25362-0.71738-0.64923-1.3281-1.21-1.6476-0.53986-0.30762-1.1671-0.32388-1.7789-0.26002-0.44166-0.53365-0.95213-0.9591-1.542-1.1276l1.028e-4 -5.67e-5c-0.68329-0.19514-1.415-0.1679-2.075 0.033468-1.2198 0.37218-2.2221 1.3338-2.5358 2.5616-1.162 0.38699-2.0441 1.4268-2.0441 2.7469 0 1.6319 1.2754 2.9941 2.8679 2.9941l2.8035-4e-6v-1.0555z" color="#000000" color-rendering="auto" dominant-baseline="auto" fill="#666" image-rendering="auto" shape-rendering="auto" solid-color="#000000" stop-color="#000000" stroke-width=".56756" style="font-feature-settings:normal;font-variant-alternates:normal;font-variant-caps:normal;font-variant-east-asian:normal;font-variant-ligatures:normal;font-variant-numeric:normal;font-variant-position:normal;font-variation-settings:normal;inline-size:0;isolation:auto;mix-blend-mode:normal;shape-margin:0;shape-padding:0;text-decoration-color:#000000;text-decoration-line:none;text-decoration-style:solid;text-indent:0;text-orientation:mixed;text-transform:none;white-space:normal"/>
 <path d="m6.486 3.4346c-0.24495 0.01159-0.49377 0.05762-0.74023 0.13281-0.98583 0.30079-1.8139 1.1119-1.9375 1.9707l-0.054688 0.36914-0.36328 0.07422c-0.8297 0.16766-1.4805 0.92321-1.4805 1.8848 0 1.0909 0.82233 1.9395 1.8145 1.9395h2.8047v-2.5938l-0.49219 0.45898c-0.21376 0.19894-0.54801 0.18722-0.74609-0.027344-0.19787-0.21273-0.18671-0.54559 0.025391-0.74414l1.3535-1.2617c0.0017-0.0017 0.00413-0.0042 0.00586-0.0059l0.00195-2e-3 0.017578-0.01758c0.00507-0.0044 0.010395-0.0095 0.015625-0.01367h0.00195l0.00195-2e-3h0.00195c0.00752-0.0071 0.015518-0.01484 0.023437-0.02148l0.00195-2e-3c0.00593-0.0044 0.011494-0.0095 0.017594-0.01368h0.00195l0.00195-2e-3h0.00195l0.00195-2e-3c0.010091-0.0064 0.020752-0.01387 0.03125-0.01953 0.00931-0.0046 0.019737-0.0077 0.029297-0.01172 0.010126-0.0055 0.020787-0.01081 0.03125-0.01563 0.00766-0.0027 0.013704-0.0054 0.021484-0.0078 0.016044-0.0059 0.032283-0.01127 0.048828-0.01563 0.010244-2e-3 0.020904-0.0044 0.03125-0.0059 0.00854-0.0019 0.016771-0.0024 0.025391-0.0039 0.014546-0.0015 0.030304-0.0037 0.044922-0.0039 0.00599-9.57e-4 0.011558-0.0012 0.017578-0.0019 0.00257-1.9e-5 0.00524-1.9e-5 0.00781 0 0.015477 1.8e-4 0.031474 4.13e-4 0.046875 0.0019 0.00688 7.2e-4 0.012681 0.0029 0.019531 0.0039 0.014688 2e-3 0.030451 0.0046 0.044922 0.0078 0.00516 7.8e-4 0.010485 1e-3 0.015625 2e-3 0.019203 0.0049 0.038116 0.01051 0.056641 0.01758 0.011299 0.0039 0.022196 9e-3 0.033203 0.01367 0.0087 0.0041 0.016931 0.0072 0.025391 0.01172h0.00195l0.00195 2e-3v2e-3h0.00195c8.117e-4 3.09e-4 0.00507 0.0017 0.00586 2e-3h0.00195l0.00195 0.0019c0.00876 0.0058 0.016991 0.01327 0.025391 0.01953 0.00783 0.0041 0.015828 0.0072 0.023437 0.01172 0.00435 0.0034 0.00748 0.0082 0.011719 0.01172 0.00435 0.0034 0.00943 0.0063 0.013672 0.0098h0.00195c0.00526 5e-3 0.010585 0.01037 0.015625 0.01563 0.00347 0.0025 0.00832 0.0052 0.011719 0.0078 0.0026 0.0025 0.00526 0.0052 0.00781 0.0078 0.00615 0.0059 0.011718 0.01143 0.017578 0.01758l1.3457 1.2539c0.21381 0.19881 0.225 0.53303 0.025391 0.74609-0.19881 0.21381-0.53303 0.225-0.74609 0.02539l-0.48438-0.45117v2.5938h2.6914c0.99217 0 1.8145-0.84854 1.8145-1.9395 0-0.65237-0.29148-1.2056-0.73633-1.5547l-0.13672-0.11133-0.04687-0.16992c-0.16495-0.61835-0.47536-0.98332-0.85743-1.201-0.38201-0.2177-0.85578-0.28213-1.3477-0.18555l-0.34375 0.066407-0.19531-0.28906c-0.50407-0.74512-1.2046-1.0211-1.9395-0.98633z" fill="#e6e6e6" shape-rendering="auto" stroke-width=".56756" style="font-feature-settings:normal;font-variant-alternates:normal;font-variant-caps:normal;font-variant-east-asian:normal;font-variant-ligatures:normal;font-variant-numeric:normal;font-variant-position:normal;font-variation-settings:normal;inline-size:0;isolation:auto;mix-blend-mode:normal;shape-margin:0;shape-padding:0;text-decoration-color:#000000;text-decoration-line:none;text-decoration-style:solid;text-indent:0;text-orientation:mixed;text-transform:none;white-space:normal"/>
</svg>
