<svg width="22" height="22" viewBox="0 0 22 22" fill="none" xmlns="http://www.w3.org/2000/svg">
<path d="M15 9C15 12.3137 12.3137 15 9 15C5.68629 15 3 12.3137 3 9C3 5.68629 5.68629 3 9 3C12.3137 3 15 5.68629 15 9Z" fill="white"/>
<path d="M11.5908 9.00002C11.5908 10.4309 10.4308 11.5909 8.99984 11.5909C7.56893 11.5909 6.40894 10.4309 6.40894 9.00002C6.40894 7.5691 7.56893 6.40911 8.99984 6.40911C10.4308 6.40911 11.5908 7.5691 11.5908 9.00002Z" fill="#444444"/>
<path d="M10 9C10 9.55228 9.55228 10 9 10C8.44772 10 8 9.55228 8 9C8 8.44772 8.44772 8 9 8C9.55228 8 10 8.44772 10 9Z" fill="white"/>
<mask id="path-4-outside-1_17_73" maskUnits="userSpaceOnUse" x="2" y="2" width="14" height="14" fill="black">
<rect fill="white" x="2" y="2" width="14" height="14"/>
<path fill-rule="evenodd" clip-rule="evenodd" d="M9 13.5C11.4853 13.5 13.5 11.4853 13.5 9C13.5 6.51472 11.4853 4.5 9 4.5C6.51472 4.5 4.5 6.51472 4.5 9C4.5 11.4853 6.51472 13.5 9 13.5ZM9 15C12.3137 15 15 12.3137 15 9C15 5.68629 12.3137 3 9 3C5.68629 3 3 5.68629 3 9C3 12.3137 5.68629 15 9 15Z"/>
</mask>
<path fill-rule="evenodd" clip-rule="evenodd" d="M9 13.5C11.4853 13.5 13.5 11.4853 13.5 9C13.5 6.51472 11.4853 4.5 9 4.5C6.51472 4.5 4.5 6.51472 4.5 9C4.5 11.4853 6.51472 13.5 9 13.5ZM9 15C12.3137 15 15 12.3137 15 9C15 5.68629 12.3137 3 9 3C5.68629 3 3 5.68629 3 9C3 12.3137 5.68629 15 9 15Z" fill="#444444"/>
<path fill-rule="evenodd" clip-rule="evenodd" d="M9 13.5C11.4853 13.5 13.5 11.4853 13.5 9C13.5 6.51472 11.4853 4.5 9 4.5C6.51472 4.5 4.5 6.51472 4.5 9C4.5 11.4853 6.51472 13.5 9 13.5ZM9 15C12.3137 15 15 12.3137 15 9C15 5.68629 12.3137 3 9 3C5.68629 3 3 5.68629 3 9C3 12.3137 5.68629 15 9 15Z" stroke="white" stroke-width="2" mask="url(#path-4-outside-1_17_73)"/>
</svg>
