<?xml version="1.0" encoding="UTF-8"?>
<svg version="1.1" width="26" height="26" viewBox="0 0 26 26" xmlns="http://www.w3.org/2000/svg">
 <path d="m4.543 2.9512a0.75 0.75 0 0 0-0.082031 0.015625 0.75 0.75 0 0 0-0.095703 0.0039062 0.75 0.75 0 0 0-0.054688 0.025391 0.75 0.75 0 0 0-0.12891 0.058594 0.75 0.75 0 0 0-0.12109 0.080078 0.75 0.75 0 0 0-0.099609 0.10742 0.75 0.75 0 0 0-0.080078 0.11719 0.75 0.75 0 0 0-0.052734 0.14062 0.75 0.75 0 0 0-0.027344 0.13672 0.75 0.75 0 0 0-0.011719 0.058594l-0.091797 15.779a0.75 0.75 0 0 0 0 0.001953 0.75 0.75 0 0 0 0 0.001954 0.75 0.75 0 0 0 0.021484 0.10938 0.75 0.75 0 0 0 0.035156 0.17578 0.75 0.75 0 0 0 0.080078 0.12109 0.75 0.75 0 0 0 0.080078 0.12109 0.75 0.75 0 0 0 0.11914 0.080079 0.75 0.75 0 0 0 0.12305 0.083984 0.75 0.75 0 0 0 0.29102 0.058594h3.8496a0.75008 0.75008 0 0 0 0.72852-0.92383l-3.2207-13.533h14.781l-0.83984 8.1035a0.75 0.75 0 0 0 0.66797 0.82227 0.75 0.75 0 0 0 0.82422-0.66797l1.0625-10.252a0.75 0.75 0 0 0-0.66992-0.82227 0.75 0.75 0 0 0-0.82226 0.66797l-0.066406 0.64844h-15.295l-0.17773-0.74414a0.75 0.75 0 0 0-0.0039062-0.0097657 0.75 0.75 0 0 0-0.11328-0.24414 0.75 0.75 0 0 0-0.019531-0.025391 0.75 0.75 0 0 0-0.19336-0.17969 0.75 0.75 0 0 0-0.023438-0.013672 0.75 0.75 0 0 0-0.24414-0.089844 0.75 0.75 0 0 0-0.021484-0.0058594 0.75 0.75 0 0 0-0.0019531 0 0.75 0.75 0 0 0-0.10547-0.0078125zm0.70898 6.9844 2.0938 8.793h-2.1445l0.050781-8.793z" color="#000000" stroke-linecap="round" stroke-linejoin="round" style="-inkscape-stroke:none"/>
 <g transform="matrix(1.0501 0 0 1.0535 101.49 -146.18)" stroke-linecap="round" stroke-linejoin="round" stroke-width="1.4261">
  <path d="m-86.582 146.04a0.71304 0.71304 0 0 0-0.54688 4e-3 0.71304 0.71304 0 0 0-0.37891 0.9336c0.56114 1.3285 0.8702 2.3286 1.043 4.1387 0.17276 1.8101 0.19006 4.4196 0.11133 8.793a0.71304 0.71304 0 0 0 0.70117 0.72461 0.71304 0.71304 0 0 0 0.72461-0.69922c0.07897-4.3868 0.06686-7.0248-0.11719-8.9531-0.18405-1.9284-0.55762-3.1598-1.1484-4.5586a0.71304 0.71304 0 0 0-0.38867-0.38281z" color="#000000" style="-inkscape-stroke:none"/>
  <path d="m-83.396 146.04a0.71304 0.71304 0 0 0-0.54688 4e-3 0.71304 0.71304 0 0 0-0.37891 0.9336c0.56115 1.3285 0.87021 2.3286 1.043 4.1387 0.17276 1.8101 0.19006 4.4196 0.11133 8.793a0.71304 0.71304 0 0 0 0.70117 0.72461 0.71304 0.71304 0 0 0 0.72461-0.69922c0.07897-4.3868 0.06686-7.0248-0.11719-8.9531-0.18405-1.9284-0.55762-3.1598-1.1484-4.5586a0.71304 0.71304 0 0 0-0.38867-0.38281z" color="#000000" style="-inkscape-stroke:none"/>
  <path d="m-80.758 146.04a0.71304 0.71304 0 0 0-0.37891 0.9336c0.56115 1.3285 0.87216 2.3286 1.0449 4.1387 0.17276 1.8101 0.1881 4.4196 0.10938 8.793a0.71304 0.71304 0 0 0 0.70117 0.72461 0.71304 0.71304 0 0 0 0.72461-0.69922c0.07897-4.3868 0.06686-7.0248-0.11719-8.9531-0.18405-1.9284-0.55762-3.1598-1.1484-4.5586a0.71304 0.71304 0 0 0-0.93555-0.37891z" color="#000000" style="-inkscape-stroke:none"/>
 </g>
</svg>
