<?xml version="1.0" encoding="UTF-8"?>
<svg version="1.1" width="26" height="26" viewBox="0 0 26 26" xmlns="http://www.w3.org/2000/svg">
 <g transform="matrix(1.0501 0 0 1.0535 -516.1 -218.77)" stroke-linecap="square" stroke-linejoin="round" stroke-miterlimit="3" stroke-width="1.4261">
  <path d="m503.84 211.02c-4.7431 0-8.5664 4.0455-8.5664 8.9746v0.71289h1.4258v-0.71289c0-4.1964 3.2082-7.5488 7.1406-7.5488 3.9324 0 7.1406 3.3524 7.1406 7.5488v0.71289h1.4277v-0.71289c-1e-5 -4.9291-3.8252-8.9746-8.5684-8.9746z" color="#000000" style="-inkscape-stroke:none;paint-order:stroke fill markers"/>
  <path d="m495.27 220.71v8.2617h1.4258v-8.2617zm15.707 0v8.2617h1.4277v-8.2617z" color="#000000" style="-inkscape-stroke:none;paint-order:stroke fill markers"/>
  <path d="m506.86 225.01h-6.0552v-3.1847c0-1.7588 1.3555-3.1847 3.0276-3.1847 1.6721 0 3.0276 1.4258 3.0276 3.1847z" style="paint-order:stroke fill markers"/>
 </g>
</svg>
