<svg width="22" height="22" viewBox="0 0 22 22" fill="none" xmlns="http://www.w3.org/2000/svg">
<path d="M12.4301 7.20433C11.9881 5.80784 10.0119 5.80785 9.56992 7.20433L9.0012 9.0012L7.20433 9.56992L7.50609 10.5233L7.20433 9.56992C5.80784 10.0119 5.80785 11.9881 7.20433 12.4301L9.0012 12.9988L9.56992 14.7957C10.0119 16.1922 11.9881 16.1922 12.4301 14.7957L12.9988 12.9988L14.7957 12.4301C16.1922 11.9881 16.1922 10.0119 14.7957 9.56992L12.9988 9.0012L12.4301 7.20433Z" fill="#3F3260" stroke="#3F3260" stroke-width="2"/>
<path d="M11.9534 7.35521C11.6587 6.42421 10.3413 6.42422 10.0466 7.35521L9.39956 9.39956L7.35521 10.0466C6.42421 10.3413 6.42422 11.6587 7.35521 11.9534L9.39956 12.6004L10.0466 14.6448C10.3413 15.5758 11.6587 15.5758 11.9534 14.6448L12.6004 12.6004L14.6448 11.9534C15.5758 11.6587 15.5758 10.3413 14.6448 10.0466L12.6004 9.39956L11.9534 7.35521Z" fill="#3F3260" stroke="white"/>
<circle cx="11" cy="11" r="1.5" fill="#3F3260" stroke="white"/>
</svg>
