<?xml version="1.0" encoding="UTF-8"?>
<svg version="1.1" viewBox="0 0 14 14" xmlns="http://www.w3.org/2000/svg">
 <g transform="matrix(.43748 0 0 .43748 -.034305 .00052282)" stroke-linecap="round" stroke-linejoin="round" stroke-width="2.2858">
  <path d="m3.1133 2.0938a1.25 1.25 0 0 0-1.25 1.25 1.25 1.25 0 0 0 1.25 1.25h26.049a1.25 1.25 0 0 0 1.25-1.25 1.25 1.25 0 0 0-1.25-1.25z" color="#000000" style="-inkscape-stroke:none"/>
  <path d="m12.076 7.5a1.25 1.25 0 0 0-0.95703 0.00586 1.25 1.25 0 0 0-0.66602 1.6367c0.93579 2.2171 1.4503 3.8784 1.7383 6.8984 0.28802 3.02 0.317 7.3779 0.18555 14.686a1.25 1.25 0 0 0 1.2266 1.2734 1.25 1.25 0 0 0 1.2734-1.2285c0.13187-7.3312 0.11051-11.74-0.19726-14.967-0.30778-3.2272-0.93608-5.2926-1.9238-7.6328a1.25 1.25 0 0 0-0.67969-0.67188z" color="#000000" style="-inkscape-stroke:none"/>
  <path d="m17.395 7.5a1.25 1.25 0 0 0-0.95508 0.00586 1.25 1.25 0 0 0-0.66602 1.6367c0.93579 2.2171 1.4503 3.8784 1.7383 6.8984 0.28802 3.02 0.31699 7.3779 0.18555 14.686a1.25 1.25 0 0 0 1.2266 1.2734 1.25 1.25 0 0 0 1.2734-1.2285c0.13187-7.3312 0.11051-11.74-0.19727-14.967-0.30778-3.2272-0.93608-5.2926-1.9238-7.6328a1.25 1.25 0 0 0-0.68164-0.67188z" color="#000000" style="-inkscape-stroke:none"/>
  <path d="m22.715 7.5a1.25 1.25 0 0 0-0.95703 0.00586 1.25 1.25 0 0 0-0.66602 1.6367c0.93579 2.2171 1.4503 3.8784 1.7383 6.8984 0.28802 3.02 0.31699 7.3779 0.18555 14.686a1.25 1.25 0 0 0 1.2285 1.2734 1.25 1.25 0 0 0 1.2715-1.2285c0.13187-7.3312 0.11247-11.74-0.19531-14.967-0.30778-3.2272-0.93608-5.2926-1.9238-7.6328a1.25 1.25 0 0 0-0.68164-0.67188z" color="#000000" style="-inkscape-stroke:none"/>
  <path d="m2.1816 0.033203a1.25 1.25 0 0 0-0.92383 1.5059l5.9727 25.027a1.25 1.25 0 0 0 1.5059 0.92578 1.25 1.25 0 0 0 0.92578-1.5059l-5.9727-25.027a1.25 1.25 0 0 0-1.5078-0.92578z" color="#000000" stroke-miterlimit="5.3" style="-inkscape-stroke:none"/>
  <path d="m29.975 0.033203a1.25 1.25 0 0 0-1.5059 0.92578l-2.5352 10.619a1.25 1.25 0 0 0 0.92578 1.5059 1.25 1.25 0 0 0 1.5059-0.92578l2.5352-10.619a1.25 1.25 0 0 0-0.92578-1.5059z" color="#000000" stroke-miterlimit="5.3" style="-inkscape-stroke:none"/>
 </g>
</svg>
