<?xml version="1.0" encoding="UTF-8" standalone="no"?>
<svg
   version="1.1"
   viewBox="0 0 22 22"
   id="svg2"
   sodipodi:docname="map_thermal_hotspot.svg"
   width="22"
   height="22"
   inkscape:version="1.2.2 (732a01da63, 2022-12-09)"
   xmlns:inkscape="http://www.inkscape.org/namespaces/inkscape"
   xmlns:sodipodi="http://sodipodi.sourceforge.net/DTD/sodipodi-0.dtd"
   xmlns="http://www.w3.org/2000/svg"
   xmlns:svg="http://www.w3.org/2000/svg">
  <defs
     id="defs6" />
  <sodipodi:namedview
     id="namedview4"
     pagecolor="#ff00ff"
     bordercolor="#666666"
     borderopacity="1.0"
     inkscape:showpageshadow="2"
     inkscape:pageopacity="0"
     inkscape:pagecheckerboard="true"
     inkscape:deskcolor="#d1d1d1"
     showgrid="false"
     inkscape:zoom="12.836707"
     inkscape:cx="-32.446016"
     inkscape:cy="16.593041"
     inkscape:window-width="2560"
     inkscape:window-height="1417"
     inkscape:window-x="-8"
     inkscape:window-y="-8"
     inkscape:window-maximized="1"
     inkscape:current-layer="layer1" />
  <g
     inkscape:groupmode="layer"
     id="layer1"
     inkscape:label="Image">
    <g
       transform="matrix(2.3604638,0,0,2.3604638,0.37794595,-1.5178696)"
       shape-rendering="auto"
       stroke-width="0.423644"
       id="g13838">
      <path
         d="M 4.8887,1.9082 C 4.37031,1.76015 3.8152,1.78082 3.3145,1.933591 c -0.92543,0.28236 -1.6858,1.0119 -1.9238,1.9434 -0.88154,0.2936 -1.5508,1.0825 -1.5508,2.084 0,1.2381 0.96762,2.2715 2.1758,2.2715 H 3.213 V 7.431711 H 2.0157 c -0.75269,0 -1.377,-0.64306 -1.377,-1.4707 -1e-8,-0.7295 0.49353,-1.3025 1.123,-1.4297 L 2.03709,4.47467 2.078106,4.19537 c 0.093804,-0.65155 0.72278,-1.2679 1.4707,-1.4961 0.74793,-0.2282 1.5233,-0.10529 2.0332,0.64844 l 0.14844,0.21875 0.25977,-0.050781 c 0.37317,-0.073273 0.73358,-0.024539 1.0234,0.14062 0.28986,0.16516 0.52525,0.44287 0.65039,0.91211 l 0.035156,0.12891 0.10352,0.083984 c 0.33749,0.26483 0.55859,0.68477 0.55859,1.1797 0,0.82764 -0.62427,1.4707 -1.377,1.4707 h -1.0957 v 0.80078 h 1.0957 c 1.2082,0 2.1758,-1.0334 2.1758,-2.2715 0,-0.70953 -0.3335,-1.3315 -0.83398,-1.75 -0.19241,-0.54425 -0.49255,-1.0076 -0.91797,-1.25 -0.40957,-0.23338 -0.88546,-0.24572 -1.3496,-0.19727 -0.33507,-0.40486 -0.72235,-0.72764 -1.1699,-0.85547 z"
         color="#000000"
         color-rendering="auto"
         dominant-baseline="auto"
         image-rendering="auto"
         solid-color="#000000"
         stop-color="#000000"
         style="font-variant-ligatures:normal;font-variant-position:normal;font-variant-caps:normal;font-variant-numeric:normal;font-variant-alternates:normal;font-variant-east-asian:normal;font-feature-settings:normal;font-variation-settings:normal;text-indent:0;text-decoration-line:none;text-decoration-style:solid;text-decoration-color:#000000;text-transform:none;text-orientation:mixed;white-space:normal;shape-padding:0;shape-margin:0;inline-size:0;isolation:auto;mix-blend-mode:normal;stroke-width:0.240447"
         id="path13834" />
      <path
         transform="translate(-2,1)"
         d="M 6.5371,3.75 A 0.4,0.4 0 0 0 6.523428,3.75195 0.4,0.4 0 0 0 6.490225,3.7539 0.4,0.4 0 0 0 6.470694,3.75781 0.4,0.4 0 0 0 6.447257,3.76172 0.4,0.4 0 0 0 6.410148,3.773439 0.4,0.4 0 0 0 6.39257,3.779299 0.4,0.4 0 0 0 6.369133,3.791018 0.4,0.4 0 0 0 6.347649,3.800788 0.4,0.4 0 0 0 6.324212,3.81446 0.4,0.4 0 0 0 6.322262,3.81641 0.4,0.4 0 0 0 6.318352,3.81836 0.4,0.4 0 0 0 6.30468,3.82813 0.4,0.4 0 0 0 6.30273,3.83008 0.4,0.4 0 0 0 6.285152,3.845705 0.4,0.4 0 0 0 6.281242,3.847655 0.4,0.4 0 0 0 6.269523,3.857425 L 6.255851,3.871097 a 0.4,0.4 0 0 0 -0.00195,0.00195 0.4,0.4 0 0 0 -0.00391,0.00391 l -1.0273,0.95703 A 0.4,0.4 0 0 0 5.20316,5.398437 0.4,0.4 0 0 0 5.76957,5.419921 l 0.37305,-0.34766 v 2.3262 a 0.4,0.4 0 0 0 0.40039,0.40039 0.4,0.4 0 0 0 0.40039,-0.40039 v -2.3262 l 0.36719,0.3418 A 0.4,0.4 0 0 0 7.877,5.39453 0.4,0.4 0 0 0 7.857469,4.82812 L 6.835969,3.87695 A 0.4,0.4 0 0 0 6.822297,3.863278 0.4,0.4 0 0 0 6.816437,3.857418 0.4,0.4 0 0 0 6.808627,3.851558 0.4,0.4 0 0 0 6.796908,3.839839 a 0.4,0.4 0 0 0 -0.00195,0 A 0.4,0.4 0 0 0 6.785188,3.832029 0.4,0.4 0 0 0 6.775418,3.824219 0.4,0.4 0 0 0 6.75784,3.814449 0.4,0.4 0 0 0 6.738309,3.800777 0.4,0.4 0 0 0 6.730499,3.796867 0.4,0.4 0 0 0 6.726589,3.794917 0.4,0.4 0 0 0 6.707058,3.785147 0.4,0.4 0 0 0 6.681667,3.775377 0.4,0.4 0 0 0 6.638698,3.761705 0.4,0.4 0 0 0 6.626979,3.759755 0.4,0.4 0 0 0 6.593781,3.753905 0.4,0.4 0 0 0 6.578156,3.751955 0.4,0.4 0 0 0 6.543,3.750005 a 0.4,0.4 0 0 0 -0.00586,0 z"
         color="#000000"
         color-rendering="auto"
         dominant-baseline="auto"
         image-rendering="auto"
         solid-color="#000000"
         stop-color="#000000"
         style="font-variant-ligatures:normal;font-variant-position:normal;font-variant-caps:normal;font-variant-numeric:normal;font-variant-alternates:normal;font-variant-east-asian:normal;font-feature-settings:normal;font-variation-settings:normal;text-indent:0;text-decoration-line:none;text-decoration-style:solid;text-decoration-color:#000000;text-transform:none;text-orientation:mixed;white-space:normal;shape-padding:0;shape-margin:0;inline-size:0;isolation:auto;mix-blend-mode:normal;stroke-width:0.240447"
         id="path13836" />
    </g>
  </g>
</svg>
