<?xml version="1.0" encoding="UTF-8"?>
<svg version="1.1" width="26" height="26" viewBox="0 0 26 26" xmlns="http://www.w3.org/2000/svg">
 <g transform="matrix(1.0501 0 0 1.0535 -561.67 -218.83)" stroke-width="1.4261">
  <g transform="translate(323.85 175.12)" stroke-linecap="round" stroke-linejoin="round">
   <path d="m230.35 41.414a0.71312 0.71312 0 0 0-0.50391 0.20898l-9.4785 9.4863a0.71312 0.71312 0 0 0-0.20898 0.50391v1.8965a0.71304 0.71304 0 0 0 0.71289 0.71289 0.71304 0.71304 0 0 0 0.71289-0.71289v-1.6016l9.0625-9.0684h1.5996a0.71304 0.71304 0 0 0 0.71289-0.71289 0.71304 0.71304 0 0 0-0.71289-0.71289z" color="#000000" style="-inkscape-stroke:none"/>
   <path d="m225.88 35.631a0.71304 0.71304 0 0 0-0.71484 0.71289v1.6035l-9.0606 9.0664h-1.5996a0.71304 0.71304 0 0 0-0.71484 0.71289 0.71304 0.71304 0 0 0 0.71484 0.71289h1.8945a0.71312 0.71312 0 0 0 0.50391-0.20898l9.4805-9.4844a0.71312 0.71312 0 0 0 0.20898-0.50391v-1.8984a0.71304 0.71304 0 0 0-0.71289-0.71289z" color="#000000" style="-inkscape-stroke:none"/>
  </g>
 </g>
</svg>
