<?xml version="1.0" encoding="UTF-8"?>
<svg version="1.1" viewBox="0 0 14 14" xmlns="http://www.w3.org/2000/svg">
 <g transform="matrix(1.3181 0 0 1.3181 1.0686 .010006)" fill="#666" shape-rendering="auto" stroke-width=".43059">
  <path d="m4.8887 1.9082c-0.51839-0.14805-1.0735-0.12738-1.5742 0.025391-0.92543 0.28236-1.6858 1.0119-1.9238 1.9434-0.88154 0.2936-1.5508 1.0825-1.5508 2.084 0 1.2381 0.96762 2.2715 2.1758 2.2715h1.1973v-0.80078h-1.1973c-0.75269 0-1.377-0.64306-1.377-1.4707-1e-8 -0.7295 0.49353-1.3025 1.123-1.4297l0.27539-0.056641 0.041016-0.2793c0.093804-0.65155 0.72278-1.2679 1.4707-1.4961 0.74793-0.2282 1.5233-0.10529 2.0332 0.64844l0.14844 0.21875 0.25977-0.050781c0.37317-0.073273 0.73358-0.024539 1.0234 0.14062 0.28986 0.16516 0.52525 0.44287 0.65039 0.91211l0.035156 0.12891 0.10352 0.083984c0.33749 0.26483 0.55859 0.68477 0.55859 1.1797 0 0.82764-0.62427 1.4707-1.377 1.4707h-1.0957v0.80078h1.0957c1.2082 0 2.1758-1.0334 2.1758-2.2715 0-0.70953-0.3335-1.3315-0.83398-1.75-0.19241-0.54425-0.49255-1.0076-0.91797-1.25-0.40957-0.23338-0.88546-0.24572-1.3496-0.19727-0.33507-0.40486-0.72235-0.72764-1.1699-0.85547z" color="#000000" color-rendering="auto" dominant-baseline="auto" image-rendering="auto" solid-color="#000000" stop-color="#000000" style="font-feature-settings:normal;font-variant-alternates:normal;font-variant-caps:normal;font-variant-east-asian:normal;font-variant-ligatures:normal;font-variant-numeric:normal;font-variant-position:normal;font-variation-settings:normal;inline-size:0;isolation:auto;mix-blend-mode:normal;shape-margin:0;shape-padding:0;text-decoration-color:#000000;text-decoration-line:none;text-decoration-style:solid;text-indent:0;text-orientation:mixed;text-transform:none;white-space:normal"/>
  <path transform="translate(-2,1)" d="m6.5371 3.75a0.4 0.4 0 0 0-0.013672 0.00195 0.4 0.4 0 0 0-0.033203 0.00195 0.4 0.4 0 0 0-0.019531 0.00391 0.4 0.4 0 0 0-0.023437 0.00391 0.4 0.4 0 0 0-0.037109 0.011719 0.4 0.4 0 0 0-0.017578 0.00586 0.4 0.4 0 0 0-0.023437 0.011719 0.4 0.4 0 0 0-0.021484 0.00977 0.4 0.4 0 0 0-0.023437 0.013672 0.4 0.4 0 0 0-0.00195 0.00195 0.4 0.4 0 0 0-0.00391 0.00195 0.4 0.4 0 0 0-0.013672 0.00977 0.4 0.4 0 0 0-0.00195 0.00195 0.4 0.4 0 0 0-0.017578 0.015625 0.4 0.4 0 0 0-0.00391 0.00195 0.4 0.4 0 0 0-0.011719 0.00977l-0.013672 0.013672a0.4 0.4 0 0 0-0.00195 0.00195 0.4 0.4 0 0 0-0.00391 0.00391l-1.0273 0.95703a0.4 0.4 0 0 0-0.019531 0.56445 0.4 0.4 0 0 0 0.56641 0.021484l0.37305-0.34766v2.3262a0.4 0.4 0 0 0 0.40039 0.40039 0.4 0.4 0 0 0 0.40039-0.40039v-2.3262l0.36719 0.3418a0.4 0.4 0 0 0 0.56641-0.019531 0.4 0.4 0 0 0-0.019531-0.56641l-1.0215-0.95117a0.4 0.4 0 0 0-0.013672-0.013672 0.4 0.4 0 0 0-0.00586-0.00586 0.4 0.4 0 0 0-0.00781-0.00586 0.4 0.4 0 0 0-0.011719-0.011719 0.4 0.4 0 0 0-0.00195 0 0.4 0.4 0 0 0-0.00977-0.00781 0.4 0.4 0 0 0-0.00977-0.00781 0.4 0.4 0 0 0-0.017578-0.00977 0.4 0.4 0 0 0-0.019531-0.013672 0.4 0.4 0 0 0-0.00781-0.00391 0.4 0.4 0 0 0-0.00391-0.00195 0.4 0.4 0 0 0-0.019531-0.00977 0.4 0.4 0 0 0-0.025391-0.00977 0.4 0.4 0 0 0-0.042969-0.013672 0.4 0.4 0 0 0-0.011719-0.00195 0.4 0.4 0 0 0-0.033198-0.00585 0.4 0.4 0 0 0-0.015625-0.00195 0.4 0.4 0 0 0-0.035156-0.00195 0.4 0.4 0 0 0-0.00586 0z" color="#000000" color-rendering="auto" dominant-baseline="auto" image-rendering="auto" solid-color="#000000" stop-color="#000000" style="font-feature-settings:normal;font-variant-alternates:normal;font-variant-caps:normal;font-variant-east-asian:normal;font-variant-ligatures:normal;font-variant-numeric:normal;font-variant-position:normal;font-variation-settings:normal;inline-size:0;isolation:auto;mix-blend-mode:normal;shape-margin:0;shape-padding:0;text-decoration-color:#000000;text-decoration-line:none;text-decoration-style:solid;text-indent:0;text-orientation:mixed;text-transform:none;white-space:normal"/>
 </g>
</svg>
