<?xml version="1.0" encoding="UTF-8" standalone="no"?>
<svg
   version="1.1"
   viewBox="0 0 22 22"
   id="svg2"
   sodipodi:docname="map_thermal_source.svg"
   width="22"
   height="22"
   inkscape:version="1.2.2 (732a01da63, 2022-12-09)"
   xmlns:inkscape="http://www.inkscape.org/namespaces/inkscape"
   xmlns:sodipodi="http://sodipodi.sourceforge.net/DTD/sodipodi-0.dtd"
   xmlns="http://www.w3.org/2000/svg"
   xmlns:svg="http://www.w3.org/2000/svg">
  <defs
     id="defs6" />
  <sodipodi:namedview
     id="namedview4"
     pagecolor="#ff00ff"
     bordercolor="#666666"
     borderopacity="1.0"
     inkscape:showpageshadow="2"
     inkscape:pageopacity="0"
     inkscape:pagecheckerboard="true"
     inkscape:deskcolor="#d1d1d1"
     showgrid="false"
     inkscape:zoom="6.4183534"
     inkscape:cx="-61.775969"
     inkscape:cy="32.562869"
     inkscape:window-width="2560"
     inkscape:window-height="1417"
     inkscape:window-x="-8"
     inkscape:window-y="-8"
     inkscape:window-maximized="1"
     inkscape:current-layer="layer1" />
  <g
     inkscape:groupmode="layer"
     id="layer1"
     inkscape:label="Image">
    <g
       id="g15812"
       transform="matrix(0.6875,0,0,0.6875,-17.886655,-15.538666)"
       style="stroke-width:1.45455">
      <circle
         style="display:inline;fill:#000000;stroke-width:1.14421"
         cx="42.016953"
         cy="38.601696"
         id="circle4703"
         r="16" />
      <path
         transform="matrix(3.5555556,0,0,3.5555556,132.38495,-1.3983005)"
         sodipodi:type="inkscape:offset"
         inkscape:radius="-0.25194043"
         inkscape:original="M -25.40625 7.25 C -27.69499 7.25 -29.40625 9.0038152 -29.40625 11.3125 C -29.40625 12.190939 -28.904048 14.166161 -27 15.03125 C -25.993272 15.489605 -24.747101 15.255318 -23.90625 14.40625 C -22.914522 13.406769 -22.057999 11.98176 -23.625 10.1875 C -23.625 10.1875 -24.951 8.9404967 -26.15625 10.15625 C -27.3615 11.372002 -25.78125 12.59375 -25.78125 12.59375 C -25.373618 12.962214 -25.536493 13.42247 -26.125 13.46875 C -26.857327 13.52571 -28.1875 13.14859 -28.1875 11.3125 C -28.1875 9.6989131 -26.730613 8.40625 -25.40625 8.40625 C -23.2428 8.40625 -22.319769 9.7685181 -22.03125 10.8125 C -21.45333 12.896902 -22.587943 13.639738 -22.625 13.78125 C -22.625 13.78125 -21.40625 12.920648 -21.40625 11.28125 C -21.40625 9.3107694 -22.904871 7.25 -25.40625 7.25 z "
         style="display:inline;fill:#0ab9f3;stroke-width:0.409091"
         id="path4700"
         d="m -25.40625,7.5019531 c -2.160035,0 -3.748047,1.6263588 -3.748047,3.8105469 0,0.391208 0.117716,1.078064 0.460938,1.75 0.343221,0.671936 0.903001,1.33411 1.796875,1.740234 0.905903,0.412451 2.040965,0.202884 2.810546,-0.574218 0.479241,-0.482988 0.906349,-1.054348 1.033204,-1.683594 0.126383,-0.626908 -0.01631,-1.330799 -0.75586,-2.181641 -0.01578,-0.01442 -0.298552,-0.27219 -0.708984,-0.4082029 -0.422002,-0.1398471 -0.919204,-0.1655787 -1.458984,0.3789059 -0.26708,0.269407 -0.362123,0.509821 -0.378907,0.734375 -0.01678,0.224555 0.04965,0.445035 0.15625,0.644532 0.213194,0.398992 0.572266,0.68164 0.572266,0.68164 a 0.25196562,0.25196562 0 0 1 0.01367,0.01172 c 0.254912,0.230418 0.376484,0.554052 0.269531,0.835938 -0.106953,0.281885 -0.404202,0.4504 -0.761719,0.478515 -0.420778,0.03273 -0.99034,-0.0549 -1.476562,-0.417969 -0.486222,-0.36307 -0.857422,-1.011349 -0.857422,-1.990234 0,-1.7652361 1.5449,-3.1582031 3.033203,-3.1582031 1.134605,0 1.974735,0.3647841 2.556641,0.875 0.581906,0.5102159 0.905407,1.1554361 1.060547,1.7167971 0.06025,0.217323 0.09151,0.41239 0.11914,0.605468 6.76e-4,-0.02618 0.01172,-0.04367 0.01172,-0.07031 0,-1.8427408 -1.385043,-3.7792969 -3.748047,-3.7792969 z" />
    </g>
  </g>
</svg>
