<?xml version="1.0" encoding="UTF-8"?>
<svg version="1.1" width="26" height="26" viewBox="0 0 26 26" xmlns="http://www.w3.org/2000/svg">
 <g transform="matrix(1.0501 0 0 1.0535 110.04 62.62)" stroke-width="1.4261">
  <path d="m-96.082-56.432a0.71312 0.71312 0 0 0-0.71094 0.77734s0.82174 9.74-3.5547 16.799a0.71312 0.71312 0 0 0 0.60547 1.0879h14.668a0.71312 0.71312 0 0 0 0.60547-1.0879c-4.3764-7.0588-3.5547-16.799-3.5547-16.799a0.71312 0.71312 0 0 0-0.71094-0.77734zm0.69531 1.4277h5.957c-0.08599 1.1157-0.47488 8.86 3.2773 15.811h-12.514c3.7523-6.9505 3.3653-14.695 3.2793-15.811z" color="#000000" stroke-linecap="round" stroke-linejoin="round" style="-inkscape-stroke:none"/>
 </g>
</svg>
