<?xml version="1.0" encoding="utf-8"?>
<!-- Svg Vector Icons : http://www.onlinewebfonts.com/icon -->
<!DOCTYPE svg PUBLIC "-//W3C//DTD SVG 1.1//EN" "http://www.w3.org/Graphics/SVG/1.1/DTD/svg11.dtd">
<svg version="1.1" xmlns="http://www.w3.org/2000/svg" xmlns:xlink="http://www.w3.org/1999/xlink" x="0px" y="0px" viewBox="0 0 1000 1000" enable-background="new 0 0 1000 1000" xml:space="preserve">
<metadata> Svg Vector Icons : http://www.onlinewebfonts.com/icon </metadata>
<g><g><g id="Layer_1_41_"><g><path d="M984,658.8L882.6,455.9c-130.2,13.2-174.3,39.7-189.7,59.6c-2.2,4.4-11,15.4-2.2,41.9c19.9,68.4,0,114.7-19.9,141.2c-48.5,66.2-158.8,94.9-353,94.9c-59.6,0-101.5,13.2-114.7,33.1c-13.2,19.9-4.4,55.1,0,66.2l0,0h522.8c19.9,0,37.5-11,46.3-26.5c11-15.4,11-37.5,2.2-52.9l-35.3-72.8h191.9c19.9,0,37.5-11,46.3-26.5C992.9,696.3,992.9,676.5,984,658.8z"/><path d="M587,634.6c2.2-4.4,11-15.4,2.2-46.3c-17.6-61.8,0-105.9,17.6-132.4c35.3-52.9,105.9-83.8,227.2-101.5l-50.7-103.7c-8.8-19.9-28.7-30.9-50.7-30.9s-39.7,11-50.7,30.9l-90.4,183.1L448,138.2c-8.8-19.9-28.7-30.9-50.7-30.9s-39.7,11-50.7,30.9L15.6,811c-8.8,17.6-6.6,37.5,2.2,55.1c11,15.4,28.7,26.5,46.3,26.5H95c-6.6-33.1-8.8-79.4,19.9-123.5c35.3-55.1,103.7-83.8,205.2-83.8C518.6,685.3,573.7,654.4,587,634.6z"/></g></g></g><g></g><g></g><g></g><g></g><g></g><g></g><g></g><g></g><g></g><g></g><g></g><g></g><g></g><g></g><g></g></g>
</svg>