<?xml version="1.0" encoding="UTF-8"?>
<svg version="1.1" viewBox="0 0 14 14" xmlns="http://www.w3.org/2000/svg">
 <g transform="matrix(.6096 0 0 .62174 -1.0582 .15105)" stroke-linecap="round" stroke-linejoin="round" stroke-miterlimit="3" stroke-width="1.6243">
  <path d="m23.807 3.7812-21.189 0.18945a0.88832 0.88832 0 0 0-0.88086 0.89648 0.88832 0.88832 0 0 0 0.89648 0.88086l17.816-0.16016-2.6934 1.5547a0.88832 0.88832 0 0 0-0.32422 1.2129 0.88832 0.88832 0 0 0 1.2129 0.32617l5.6152-3.2441a0.8884 0.8884 0 0 0-0.45312-1.6562zm-9.3027 5.207-4.0684 2.3828a0.88832 0.88832 0 0 0-0.31641 1.2148 0.88832 0.88832 0 0 0 1.2148 0.31836l4.0684-2.3828a0.88832 0.88832 0 0 0 0.31836-1.2148 0.88832 0.88832 0 0 0-1.2168-0.31836z" color="#000000" style="-inkscape-stroke:none;paint-order:stroke markers fill"/>
  <path d="m15.006 6.7441a0.88832 0.88832 0 0 0-0.17578 1.2441l3.3223 4.418 2.293 3.1484a0.88832 0.88832 0 0 0 1.2402 0.19531 0.88832 0.88832 0 0 0 0.19531-1.2402l-2.2949-3.1562a0.8884 0.8884 0 0 0-0.0098-0.0098l-3.3261-4.4238a0.88832 0.88832 0 0 0-1.2441-0.17578z" color="#000000" style="-inkscape-stroke:none;paint-order:stroke markers fill"/>
  <path d="m18.025 11.621-5.6406 5.084a0.8884 0.8884 0 0 0 1.0293 1.4336l5.9258-3.334a0.88832 0.88832 0 0 0 0.33789-1.209 0.88832 0.88832 0 0 0-0.75391-0.39453l0.29102-0.26172a0.88832 0.88832 0 0 0 0.06445-1.2539 0.88832 0.88832 0 0 0-1.2539-0.06445z" color="#000000" style="-inkscape-stroke:none;paint-order:stroke markers fill"/>
  <path d="m18.584 13.201a0.88832 0.88832 0 0 0-0.49219 0.4707 0.88832 0.88832 0 0 0 0.45312 1.1719l2.2578 1a0.88832 0.88832 0 0 0 1.1719-0.45312 0.88832 0.88832 0 0 0-0.45117-1.1719l-2.2598-1a0.88832 0.88832 0 0 0-0.67969-0.01758z" color="#000000" style="-inkscape-stroke:none;paint-order:stroke markers fill"/>
  <path d="m20.168 10.811c-0.72214 0-1.3281 0.6025-1.3281 1.3262 0 0.72368 0.60599 1.3281 1.3281 1.3281s1.3281-0.60445 1.3281-1.3281c0-0.72368-0.60599-1.3262-1.3281-1.3262zm0 0.87695c0.23597 0 0.44726 0.21067 0.44726 0.44922 0 0.23855-0.2113 0.44922-0.44726 0.44922-0.23597 0-0.44922-0.21067-0.44922-0.44922 0-0.23855 0.21325-0.44922 0.44922-0.44922z" color="#000000" stroke-width="1.6243" style="-inkscape-stroke:none;paint-order:stroke markers fill"/>
  <path d="m20.608 12.137a0.44014 0.4392 0 0 1-0.44014 0.4392 0.44014 0.4392 0 0 1-0.44014-0.4392 0.44014 0.4392 0 0 1 0.44014-0.4392 0.44014 0.4392 0 0 1 0.44014 0.4392z" color="#000000" stroke-width="4.0608" style="-inkscape-stroke:none;paint-order:stroke markers fill"/>
 </g>
</svg>
