<?xml version="1.0" encoding="UTF-8" standalone="no"?>
<svg
   version="1.1"
   viewBox="0 0 22 22"
   id="svg2"
   sodipodi:docname="map_tower.svg"
   width="22"
   height="22"
   inkscape:version="1.2.2 (732a01da63, 2022-12-09)"
   xmlns:inkscape="http://www.inkscape.org/namespaces/inkscape"
   xmlns:sodipodi="http://sodipodi.sourceforge.net/DTD/sodipodi-0.dtd"
   xmlns="http://www.w3.org/2000/svg"
   xmlns:svg="http://www.w3.org/2000/svg">
  <defs
     id="defs6" />
  <sodipodi:namedview
     id="namedview4"
     pagecolor="#ff00ff"
     bordercolor="#666666"
     borderopacity="1.0"
     inkscape:showpageshadow="2"
     inkscape:pageopacity="0"
     inkscape:pagecheckerboard="true"
     inkscape:deskcolor="#d1d1d1"
     showgrid="false"
     inkscape:zoom="9.0769225"
     inkscape:cx="-43.902545"
     inkscape:cy="29.084748"
     inkscape:window-width="2560"
     inkscape:window-height="1417"
     inkscape:window-x="-8"
     inkscape:window-y="-8"
     inkscape:window-maximized="1"
     inkscape:current-layer="layer1" />
  <g
     inkscape:groupmode="layer"
     id="layer1"
     inkscape:label="Image">
    <g
       id="g8389"
       style="stroke-width:2.12375"
       transform="matrix(1.1777239,0,0,1.1766132,119.83135,66.416644)">
      <path
         style="color:#000000;fill:#000000;stroke-width:2.12375;stroke-linecap:round;stroke-linejoin:round;-inkscape-stroke:none"
         d="m -96.082031,-56.447266 a 0.73004798,0.73004798 0 0 0 -0.728516,0.794922 c 0,0 0.82153,9.734943 -3.550783,16.78711 a 0.72997499,0.72997499 0 0 0 0.23438,1.005859 0.72997499,0.72997499 0 0 0 1.005856,-0.236328 c 4.413159,-7.11805 3.841845,-15.69608 3.75,-16.892578 h 5.923828 c -0.09184,1.196457 -0.661217,9.774508 3.751954,16.892578 a 0.72997499,0.72997499 0 0 0 1.005859,0.236328 0.72997499,0.72997499 0 0 0 0.234375,-1.005859 c -4.372312,-7.052167 -3.550781,-16.78711 -3.550781,-16.78711 a 0.73004798,0.73004798 0 0 0 -0.728516,-0.794922 z"
         id="path4809" />
    </g>
  </g>
</svg>
