<?xml version="1.0" encoding="UTF-8" standalone="no"?>
<svg
   xmlns:dc="http://purl.org/dc/elements/1.1/"
   xmlns:cc="http://creativecommons.org/ns#"
   xmlns:rdf="http://www.w3.org/1999/02/22-rdf-syntax-ns#"
   xmlns:svg="http://www.w3.org/2000/svg"
   xmlns="http://www.w3.org/2000/svg"
   xmlns:sodipodi="http://sodipodi.sourceforge.net/DTD/sodipodi-0.dtd"
   xmlns:inkscape="http://www.inkscape.org/namespaces/inkscape"
   version="1.1"
   x="0px"
   y="0px"
   viewBox="0 0 1000 1000"
   enable-background="new 0 0 1000 1000"
   xml:space="preserve"
   id="svg499"
   sodipodi:docname="map_tower.svg"
   inkscape:version="1.0.2 (e86c870879, 2021-01-15)"><defs
   id="defs503" /><sodipodi:namedview
   pagecolor="#ffffff"
   bordercolor="#666666"
   borderopacity="1"
   objecttolerance="10"
   gridtolerance="10"
   guidetolerance="10"
   inkscape:pageopacity="0"
   inkscape:pageshadow="2"
   inkscape:window-width="1364"
   inkscape:window-height="725"
   id="namedview501"
   showgrid="false"
   inkscape:zoom="0.70710678"
   inkscape:cx="305.4192"
   inkscape:cy="487.30981"
   inkscape:window-x="0"
   inkscape:window-y="42"
   inkscape:window-maximized="0"
   inkscape:current-layer="g495" />
<metadata
   id="metadata489"> Svg Vector Icons : http://www.onlinewebfonts.com/icon <rdf:RDF><cc:Work
     rdf:about=""><dc:format>image/svg+xml</dc:format><dc:type
       rdf:resource="http://purl.org/dc/dcmitype/StillImage" /><dc:title></dc:title></cc:Work></rdf:RDF></metadata>
<g
   id="g497"><g
     transform="translate(0.000000,512.000000) scale(0.100000,-0.100000)"
     id="g495"><path
       d="M1478.1,3354.8V1689.5h593.4h593.4v-3234.8V-4780H5000h2335.2v3234.8v3234.8h593.4h593.4v1665.2V5020H7718h-803.9v-880.5v-880.5H6359h-555.1v880.5V5020H5000h-803.9v-880.5v-880.5H3641h-555.1v880.5V5020H2282h-803.9V3354.8z M5208.6,876.1c359.8-86.1,645-380.9,710.1-736.9c11.5-65.1,17.2-472.8,15.3-1062.3l-5.7-957l-932.2-5.7l-934.1-3.8v964.7c0,570.4,7.7,1004.9,19.1,1066.1C4178.9,655.9,4699.5,994.7,5208.6,876.1z"
       id="path491"
       style="fill:#ff0000;stroke-width:266.6666667;stroke-miterlimit:4;stroke-dasharray:none;stroke:#000000" /><path
       style="fill:#ff0000;fill-opacity:0;stroke:#000000;stroke-width:0.1;stroke-miterlimit:4;stroke-dasharray:none"
       d="m 266.9192,443.59375 v -101.5 h -59.5 -59.5 v -166 -166 h 80 80 v 88 88 h 56 56 v -88 -88 h 80 80 v 88 88 h 56 56 v -88 -88 h 80 80 v 165.99207 165.99207 l -59.25,0.25793 -59.25,0.25793 -0.25476,101.25 -0.25476,101.25 H 663.5729 594.23613 l -1.01532,-24.75 c -0.96937,-23.62973 -1.15658,-25.18 -4.1361,-34.25 -13.42236,-40.8592 -55.25449,-68.22608 -97.66551,-63.89348 -4.95,0.50568 -12.15,1.78162 -16,2.83542 -33.79646,9.25057 -61.11851,38.18128 -67.10699,71.05806 -0.75136,4.125 -1.64667,16.8375 -1.98957,28.25 l -0.62346,20.75 H 336.30919 266.9192 Z"
       id="path1563"
       transform="matrix(10,0,0,-10,0,5120)" /><path
       style="fill:#ff0000;fill-opacity:0;stroke:#000000;stroke-width:0.1;stroke-miterlimit:4;stroke-dasharray:none"
       d="M 266.9192,443.6006 V 342.09375 h -59.5 -59.5 v -166 -166 h 79.99457 79.99456 l 0.25544,88.25 0.25543,88.25 h 55.5 55.5 l 0.25543,-88.25 0.25544,-88.25 h 79.98913 79.98913 l 0.25544,88.25 0.25543,88.25 h 55.5 55.5 l 0.25543,-88.25 0.25544,-88.25 h 79.99456 79.99457 v 166 166 h -59.49524 -59.49524 l -0.25476,101.25 -0.25476,101.25 h -69 -69 l -1.09323,-25 c -1.0047,-22.97565 -1.31341,-25.64779 -3.81247,-33 -12.05464,-35.46462 -43.45762,-60.70097 -80.2856,-64.51984 -10.29236,-1.06726 -22.54967,-0.12171 -32.66286,2.51968 -33.67144,8.79439 -61.67455,37.60081 -68.04809,70.00016 -0.87855,4.46602 -1.91036,17.27671 -2.33575,29 l -0.762,21 -69.25,0.25685 -69.25,0.25684 z"
       id="path1565"
       transform="matrix(10,0,0,-10,0,5120)" /></g></g>
</svg>
