<?xml version="1.0" encoding="UTF-8"?>
<svg version="1.1" viewBox="0 0 14 14" xmlns="http://www.w3.org/2000/svg">
 <g transform="matrix(.76108 0 0 .76925 137.51 -28.575)" fill="#2c5aa0" stroke-width="3.2673">
  <path transform="matrix(.29024 0 0 .29059 -107.87 59.499)" d="m-248.42-73.38c-1.3599 0.0026-2.4604 1.1056-2.458 2.4639v50.616c2e-3 1.3549 1.1015 2.4526 2.458 2.4552h14.545l0.053 0.0087h29.222l0.0531-0.0087h14.58c1.36 0.0023 2.4644-1.0969 2.4669-2.4552v-50.616c2e-3 -1.3618-1.1035-2.4663-2.4669-2.4639h-43.856zm2.4669 4.9192h7.8692l-7.8692 13.63zm13.555 0h26.384l13.183 22.857-13.174 22.84h-26.402l-13.183-22.84zm32.06 0h7.9046v13.691zm7.9046 32.014v13.683h-7.9046zm-53.52 0.06116 7.8692 13.622h-7.8692z" style="-inkscape-stroke:none"/>
  <path d="m-171.49 44.078c-1.1882 0-2.166 0.97974-2.166 2.168s0.97782 2.168 2.166 2.168c1.1882 0 2.166-0.97974 2.166-2.168s-0.97782-2.168-2.166-2.168zm0 1.4297c0.41476 0 0.73632 0.32164 0.73632 0.73828s-0.32156 0.73828-0.73632 0.73828c-0.41477 0-0.73633-0.32164-0.73633-0.73828s0.32156-0.73828 0.73633-0.73828z" color="#000000" style="-inkscape-stroke:none"/>
 </g>
</svg>
