<?xml version="1.0" encoding="UTF-8"?>
<svg version="1.1" viewBox="0 0 14 14" xmlns="http://www.w3.org/2000/svg">
 <path d="m4.2968 1.0928 1.0938 6e-3 -2e-3 0.54688-4e-3 1.0742h1.4902v-1.623h1.0938v1.623h1.4883v-1.623h1.0938v9.6367l0.95117 1.2656a0.56693 0.56693 0 0 1-0.11328 0.79492 0.56693 0.56693 0 0 1-0.79297-0.11328l-0.99219-1.3203-4.5215-2.6738-1.6074 3.791a0.56693 0.56693 0 0 1-0.74414 0.30078 0.56693 0.56693 0 0 1-0.30078-0.74414l1.8379-4.3281 2e-3 -0.38867 0.0176-3.9941a0.54684 0.54684 0 0 1-4e-3 -0.0566 0.54684 0.54684 0 0 1 4e-3 -0.0234l8e-3 -1.6035zm5.1602 2.7207h-4.0781l-0.0156 3.5098-2e-3 0.20899 4.0957 2.4238z" color="#000000" stroke-dashoffset="2.1" stroke-linecap="round" stroke-miterlimit="3" style="-inkscape-stroke:none;paint-order:stroke markers fill"/>
</svg>
