<?xml version="1.0" encoding="UTF-8"?>
<svg version="1.1" viewBox="0 0 14 14" xmlns="http://www.w3.org/2000/svg">
 <g transform="matrix(.72392 0 0 .72179 4.5278 -8.1089)" fill="#2c5aa0">
  <path d="m3.416 11.234c-5.3327 0-9.6699 4.3514-9.6699 9.6973-1e-7 5.3459 4.3373 9.6992 9.6699 9.6992 5.3327 1.1e-5 9.668-4.3533 9.668-9.6992-1e-5 -5.3459-4.3353-9.6973-9.668-9.6973zm0 1.5137c4.5123-9e-6 8.1562 3.6529 8.1563 8.1836 0 4.5308-3.6439 8.1856-8.1563 8.1855-4.5123-9e-6 -8.1562-3.6548-8.1562-8.1855 9.2e-6 -4.5307 3.644-8.1836 8.1562-8.1836z" color="#000000" stroke-width="1.3834" style="-inkscape-stroke:none"/>
  <path d="m-3.161 25.537c0.0141-0.0288 1.5012-2.8514 3.3076-6.2724l3.2844-6.2202 0.0811 0.15397c0.19516 0.37122 6.463 12.32 6.4802 12.354 0.0153 0.0299-1.315 0.0374-6.5786 0.0374-6.2677 0-6.5965-3e-3 -6.5745-0.0522z" stroke-width="2.0751"/>
 </g>
</svg>
