<svg width="22" height="22" viewBox="0 0 22 22" fill="none" xmlns="http://www.w3.org/2000/svg">
<mask id="path-1-outside-1_16_633" maskUnits="userSpaceOnUse" x="4" y="4" width="10" height="9" fill="black">
<rect fill="white" x="4" y="4" width="10" height="9"/>
<path d="M8.82637 5.30388C8.90315 5.16952 9.09689 5.16952 9.17367 5.30389L12.829 11.7008C12.9052 11.8341 12.8089 12 12.6554 12H5.34464C5.19107 12 5.0948 11.8341 5.17099 11.7008L8.82637 5.30388Z"/>
</mask>
<path d="M8.82637 5.30388C8.90315 5.16952 9.09689 5.16952 9.17367 5.30389L12.829 11.7008C12.9052 11.8341 12.8089 12 12.6554 12H5.34464C5.19107 12 5.0948 11.8341 5.17099 11.7008L8.82637 5.30388Z" fill="#444444"/>
<path d="M8.82637 5.30388C8.90315 5.16952 9.09689 5.16952 9.17367 5.30389L12.829 11.7008C12.9052 11.8341 12.8089 12 12.6554 12H5.34464C5.19107 12 5.0948 11.8341 5.17099 11.7008L8.82637 5.30388Z" stroke="white" stroke-width="2" mask="url(#path-1-outside-1_16_633)"/>
</svg>
