<?xml version="1.0" encoding="UTF-8" standalone="no"?>
<svg
   xmlns:dc="http://purl.org/dc/elements/1.1/"
   xmlns:cc="http://creativecommons.org/ns#"
   xmlns:rdf="http://www.w3.org/1999/02/22-rdf-syntax-ns#"
   xmlns:svg="http://www.w3.org/2000/svg"
   xmlns="http://www.w3.org/2000/svg"
   xmlns:sodipodi="http://sodipodi.sourceforge.net/DTD/sodipodi-0.dtd"
   xmlns:inkscape="http://www.inkscape.org/namespaces/inkscape"
   version="1.1"
   x="0px"
   y="0px"
   viewBox="0 0 1000 1000"
   enable-background="new 0 0 1000 1000"
   xml:space="preserve"
   id="svg146"
   sodipodi:docname="map_tunnel.svg"
   inkscape:version="1.0.2 (e86c870879, 2021-01-15)"><defs
   id="defs150" /><sodipodi:namedview
   pagecolor="#ffffff"
   bordercolor="#666666"
   borderopacity="1"
   objecttolerance="10"
   gridtolerance="10"
   guidetolerance="10"
   inkscape:pageopacity="0"
   inkscape:pageshadow="2"
   inkscape:window-width="1364"
   inkscape:window-height="725"
   id="namedview148"
   showgrid="false"
   inkscape:zoom="0.577"
   inkscape:cx="457.44641"
   inkscape:cy="407.34587"
   inkscape:window-x="0"
   inkscape:window-y="42"
   inkscape:window-maximized="0"
   inkscape:current-layer="g142"
   inkscape:document-rotation="0"
   inkscape:pagecheckerboard="true" />
<metadata
   id="metadata138"> Svg Vector Icons : http://www.onlinewebfonts.com/icon <rdf:RDF><cc:Work
     rdf:about=""><dc:format>image/svg+xml</dc:format><dc:type
       rdf:resource="http://purl.org/dc/dcmitype/StillImage" /><dc:title></dc:title></cc:Work></rdf:RDF></metadata>
<g
   id="g144"><g
     transform="translate(0.000000,511.000000) scale(0.100000,-0.100000)"
     id="g142"><path
       d="M4527.9,4552.9c-1082.4-111-2133.3-594.6-2912.2-1344.1C763.7,2388.1,248.6,1341.4,120.9,166.9c-12.6-111-20.9-1084.5-20.9-2349v-2162.7h2219.2h2219.2v450.1v450.1H4999h460.6v-450.1v-450.1h2219.2H9900l-8.4,2277.8c-6.3,2432.7-4.2,2351.1-111,2820.1c-161.2,703.4-492,1388-946.3,1968c-62.8,79.6-238.7,270.1-389.4,420.8c-753.7,753.7-1664.4,1210.1-2748.9,1379.7C5444.9,4561.3,4785.4,4578,4527.9,4552.9z M5413.5,3671.5c477.3-50.2,896.1-171.7,1323.1-376.8c1252-602.9,2097.8-1783.7,2261.1-3159.2c14.7-131.9,20.9-615.5,16.7-1450.8l-6.3-1252l-1111.7,833.2L6782.7-900.8l-8.4,429.2c-8.4,305.7-20.9,464.8-46.1,554.8c-182.1,661.6-657.4,1141-1300.1,1310.6c-234.5,60.7-623.9,60.7-858.4,0c-669.9-178-1172.4-703.4-1310.6-1373.4c-29.3-140.3-39.8-282.6-39.8-554.8l-2.1-366.4l-1090.8-816.5c-598.7-448-1103.3-824.9-1120.1-833.2c-25.1-16.8-29.3,171.7-20.9,1371.3l6.3,1388l56.5,253.3c236.6,1080.3,831.2,1959.6,1720.9,2554.2C3550.2,3535.4,4502.8,3772,5413.5,3671.5z M5300.4,514.4c234.5-81.6,445.9-284.7,538-519.2c41.9-104.7,50.3-167.5,56.5-450.1l8.4-330.8h-902.3h-902.3v291c0,230.3,8.4,318.2,41.9,425C4291.3,422.3,4814.7,686.1,5300.4,514.4z M5459.5-2115.1v-450.1H4999h-460.6v450.1v450.1H4999h460.6V-2115.1z"
       id="path140" /><path
       style="fill:#ffffff;fill-opacity:1;stroke:#ffffff;stroke-width:2.45098"
       d="m 455.89742,722.9968 v -44.11758 h 44.11758 44.11758 v 44.11758 44.11758 H 500.015 455.89742 Z"
       id="path2673"
       transform="matrix(10,0,0,-10,0,5110)" /><path
       style="fill:#ffffff;fill-opacity:1;stroke:#ffffff;stroke-width:2.45098"
       d="m 411.11052,556.94313 c 1.36229,-37.48158 6.34189,-52.94795 23.01961,-71.49759 37.11721,-41.28327 102.79747,-38.42327 136.27416,5.93396 12.69891,16.8263 16.1051,29.19351 18.05759,65.56363 l 1.67762,31.24995 h -90.08238 -90.08239 z"
       id="path3236"
       transform="matrix(10,0,0,-10,0,5110)" /><path
       style="fill:#ffffff;fill-opacity:1;stroke:#ffffff;stroke-width:1.22549;stroke-opacity:1"
       d="m 453.96428,899.73912 v -44.11758 h 45.95581 45.95582 v 44.11758 l 0.141,45.10537 c -30.65384,-0.16678 -61.30722,-0.0588 -91.961,0.0322 z"
       id="path3244"
       transform="matrix(10,0,0,-10,0,5110)"
       sodipodi:nodetypes="cccccccc" /><path
       d="M4527.9,4552.9c-1082.4-111-2133.3-594.6-2912.2-1344.1C763.7,2388.1,248.6,1341.4,120.9,166.9c-12.6-111-20.9-1084.5-20.9-2349v-2162.7h2219.2h2219.2v450.1v450.1H4999h460.6v-450.1v-450.1h2219.2H9900l-8.4,2277.8c-6.3,2432.7-4.2,2351.1-111,2820.1c-161.2,703.4-492,1388-946.3,1968c-62.8,79.6-238.7,270.1-389.4,420.8c-753.7,753.7-1664.4,1210.1-2748.9,1379.7C5444.9,4561.3,4785.4,4578,4527.9,4552.9z M5413.5,3671.5c477.3-50.2,896.1-171.7,1323.1-376.8c1252-602.9,2097.8-1783.7,2261.1-3159.2c14.7-131.9,20.9-615.5,16.7-1450.8l-6.3-1252l-1111.7,833.2L6782.7-900.8l-8.4,429.2c-8.4,305.7-20.9,464.8-46.1,554.8c-182.1,661.6-657.4,1141-1300.1,1310.6c-234.5,60.7-623.9,60.7-858.4,0c-669.9-178-1172.4-703.4-1310.6-1373.4c-29.3-140.3-39.8-282.6-39.8-554.8l-2.1-366.4l-1090.8-816.5c-598.7-448-1103.3-824.9-1120.1-833.2c-25.1-16.8-29.3,171.7-20.9,1371.3l6.3,1388l56.5,253.3c236.6,1080.3,831.2,1959.6,1720.9,2554.2C3550.2,3535.4,4502.8,3772,5413.5,3671.5z M5300.4,514.4c234.5-81.6,445.9-284.7,538-519.2c41.9-104.7,50.3-167.5,56.5-450.1l8.4-330.8h-902.3h-902.3v291c0,230.3,8.4,318.2,41.9,425C4291.3,422.3,4814.7,686.1,5300.4,514.4z M5459.5-2115.1v-450.1H4999h-460.6v450.1v450.1H4999h460.6V-2115.1z"
       id="path3246" /><path
       style="fill:#ffffff;fill-opacity:1;stroke:#ffffff;stroke-width:1.7331;stroke-opacity:1"
       d="m 99.40758,755.15571 c -0.682873,-5.4202 -0.703317,-67.95715 -0.04543,-138.97102 l 1.19615,-129.11612 6.74337,-27.72963 c 3.70885,-15.2513 9.572,-35.91855 13.02923,-45.92721 7.54218,-21.83463 26.33129,-61.1905 38.814,-81.30023 72.14919,-116.23285 202.81014,-189.06372 339.18649,-189.06372 66.1285,0 123.0023,13.40589 181.63334,42.81334 126.47534,63.43598 212.11159,191.76193 219.51085,328.93709 1.69021,31.33491 1.77352,173.14114 0.12894,219.3534 L 898.521,764.59684 789.11033,682.78156 679.69965,600.96627 678.51329,565.68119 c -1.99362,-59.29482 -4.64248,-72.16762 -21.47367,-104.35702 -25.0164,-47.84331 -71.83331,-82.84884 -123.33671,-92.22017 -15.47452,-2.81567 -48.38187,-3.16614 -64.12478,-0.68295 -69.53992,10.96886 -129.17997,68.60097 -144.07539,139.2247 -2.41851,11.46691 -3.63609,26.47719 -4.4264,54.56882 l -1.09021,38.75083 -75.55062,56.69033 c -41.55284,31.17969 -90.90366,68.08986 -109.66849,82.0226 l -34.11785,25.33227 z"
       id="path3248"
       transform="matrix(10,0,0,-10,0,5110)" /></g></g>
</svg>
