<svg width="22" height="22" viewBox="0 0 22 22" fill="none" xmlns="http://www.w3.org/2000/svg">
<mask id="path-1-outside-1_35_67" maskUnits="userSpaceOnUse" x="1" y="0" width="13" height="16" fill="black">
<rect fill="white" x="1" width="13" height="16"/>
<path fill-rule="evenodd" clip-rule="evenodd" d="M2 3H2.625L3.49084 1.02094C3.49433 1.01295 3.50567 1.01295 3.50916 1.02094L4.375 3H5V10H6V9H7V10H8V9H9V10H10V9H11V10H12V9H13V15H11V12.6C11 11.7163 9.82843 11 9 11C8.17157 11 7 11.7163 7 12.6V15H2V3ZM4 6V4.8C4 4.35817 3.77614 4 3.5 4C3.22386 4 3 4.35817 3 4.8V6H4Z"/>
</mask>
<path fill-rule="evenodd" clip-rule="evenodd" d="M2 3H2.625L3.49084 1.02094C3.49433 1.01295 3.50567 1.01295 3.50916 1.02094L4.375 3H5V10H6V9H7V10H8V9H9V10H10V9H11V10H12V9H13V15H11V12.6C11 11.7163 9.82843 11 9 11C8.17157 11 7 11.7163 7 12.6V15H2V3ZM4 6V4.8C4 4.35817 3.77614 4 3.5 4C3.22386 4 3 4.35817 3 4.8V6H4Z" fill="#444444"/>
<path fill-rule="evenodd" clip-rule="evenodd" d="M2 3H2.625L3.49084 1.02094C3.49433 1.01295 3.50567 1.01295 3.50916 1.02094L4.375 3H5V10H6V9H7V10H8V9H9V10H10V9H11V10H12V9H13V15H11V12.6C11 11.7163 9.82843 11 9 11C8.17157 11 7 11.7163 7 12.6V15H2V3ZM4 6V4.8C4 4.35817 3.77614 4 3.5 4C3.22386 4 3 4.35817 3 4.8V6H4Z" stroke="white" stroke-width="2" mask="url(#path-1-outside-1_35_67)"/>
</svg>
