<?xml version="1.0" encoding="UTF-8"?>
<svg version="1.1" viewBox="0 0 14 14" xmlns="http://www.w3.org/2000/svg">
 <g transform="matrix(.4302 0 0 .43018 -154.23 -42.353)" stroke-linecap="round" stroke-linejoin="round" stroke-width="5.8114">
  <path d="m386.58 108.7a1.2713 1.2713 0 0 0-0.90234 0.375l-16.027 16.107a1.2713 1.2713 0 0 0-0.36914 0.89649v3.2207a1.2712 1.2712 0 0 0 1.2715 1.2715 1.2712 1.2712 0 0 0 1.2715-1.2715v-2.6953l15.283-15.361h2.6777a1.2712 1.2712 0 0 0 1.2715-1.2715 1.2712 1.2712 0 0 0-1.2715-1.2715z" color="#000000" style="-inkscape-stroke:none"/>
  <path d="m379.02 98.879a1.2712 1.2712 0 0 0-1.2715 1.2715v2.6973l-15.283 15.361h-2.6777a1.2712 1.2712 0 0 0-1.2715 1.2715 1.2712 1.2712 0 0 0 1.2715 1.2695h3.2051a1.2713 1.2713 0 0 0 0.90234-0.37305l16.027-16.107a1.2713 1.2713 0 0 0 0.36914-0.89648v-3.2227a1.2712 1.2712 0 0 0-1.2715-1.2715z" color="#000000" style="-inkscape-stroke:none"/>
 </g>
</svg>
