<svg width="22" height="22" viewBox="0 0 22 22" fill="none" xmlns="http://www.w3.org/2000/svg">
<mask id="path-1-outside-1_38_302" maskUnits="userSpaceOnUse" x="5" y="1" width="11" height="11" fill="black">
<rect fill="white" x="5" y="1" width="11" height="11"/>
<path d="M12.756 2C12.8822 2 12.9763 2.11822 12.9542 2.24247C12.1102 6.98439 14.9129 8.73367 14.998 10.8998C15.0002 10.9549 14.9552 11 14.9 11H6.1C6.04477 11 5.99981 10.9549 6.00197 10.8998C6.08706 8.73367 8.8898 6.98439 8.04584 2.24247C8.02372 2.11822 8.11775 2 8.24396 2H12.756Z"/>
</mask>
<path d="M12.756 2C12.8822 2 12.9763 2.11822 12.9542 2.24247C12.1102 6.98439 14.9129 8.73367 14.998 10.8998C15.0002 10.9549 14.9552 11 14.9 11H6.1C6.04477 11 5.99981 10.9549 6.00197 10.8998C6.08706 8.73367 8.8898 6.98439 8.04584 2.24247C8.02372 2.11822 8.11775 2 8.24396 2H12.756Z" fill="#444444"/>
<path d="M12.756 2C12.8822 2 12.9763 2.11822 12.9542 2.24247C12.1102 6.98439 14.9129 8.73367 14.998 10.8998C15.0002 10.9549 14.9552 11 14.9 11H6.1C6.04477 11 5.99981 10.9549 6.00197 10.8998C6.08706 8.73367 8.8898 6.98439 8.04584 2.24247C8.02372 2.11822 8.11775 2 8.24396 2H12.756Z" stroke="white" stroke-width="2" mask="url(#path-1-outside-1_38_302)"/>
</svg>
