<?xml version="1.0" encoding="UTF-8"?>
<svg version="1.1" width="26" height="26" viewBox="0 0 26 26" xmlns="http://www.w3.org/2000/svg">
 <g transform="matrix(1.0406 0 0 1.0406 -.58023 -14.046)" stroke-width=".96098">
  <g transform="matrix(1.4641,0,0,1.4641,1156,-562.37)">
   <path transform="translate(0,13)" d="m-780.65 380.37a8.488 8.488 0 0 0-8.4883 8.4883 8.488 8.488 0 0 0 8.4883 8.4883 8.488 8.488 0 0 0 8.4883-8.4883 8.488 8.488 0 0 0-2.1328-5.625l0.46094-0.40821c0.64831-0.57303 0.80323-1.4494 0.34765-1.9648-0.45558-0.51543-1.3439-0.46952-1.9922 0.10352l-0.74218 0.65625a8.488 8.488 0 0 0-4.4297-1.25z" fill="#fff" opacity=".99" stroke-width=".65791"/>
   <path d="m-775.3 397.13c0.0757 0.0786-0.0512-0.0639 0.0209 0.018l-2e-5 7e-5c1.1072 1.2592 1.7784 2.911 1.778 4.7195-9.2e-4 3.947-3.2008 7.1461-7.1478 7.1461s-7.1469-3.1992-7.1478-7.1461c-9.3e-4 -3.9483 3.1995-7.1495 7.1478-7.1495 0.42691 0 0.84508 0.0374 1.2514 0.10918 0.15572 0.0275-0.34645 3e-3 -0.34645 3e-3 -4.1696 0.34345-6.8703 3.1999-6.906 6.2143-0.0334 2.8254 2.2019 5.7102 4.2069 5.5485 1.9488-0.15716 2.5979-2.5844 0.87669-3.9074l2.16-1.9331 1.6306 1.8334c-0.60519 0.52097-0.75708 1.308-0.35476 1.7632 0.40233 0.45521 1.202 0.40111 1.793-0.12129l1.7007-1.5033c0.59099-0.5224 0.74288-1.3094 0.34055-1.7646-0.40232-0.4552-1.202-0.4011-1.793 0.12129l-1.6208-1.8211z" stroke-width=".65636"/>
   <path d="m-777.44 403.07c-0.2063 0.18296-0.22554 0.4984-0.043 0.70507 0.18259 0.20816 0.49958 0.22829 0.70704 0.0449l1.7891-1.582c0.20631-0.18296 0.22554-0.49841 0.043-0.70508-0.093-0.10584-0.22632-0.16754-0.36719-0.16992v3e-5c-0.12425-2e-3 -0.24471 0.0428-0.33789 0.125l-0.52383 0.4627-2.4922-2.8242 4.5395-4.0252c0.20816-0.18259 0.22829-0.49958 0.0449-0.70704-0.0933-0.10512-0.22662-0.16608-0.36719-0.16796v-3e-5c-0.12492-2e-3 -0.24616 0.0423-0.33984 0.125l-4.5412 4.0242-1.2546-1.4194c-0.1828-0.20751-0.49875-0.22792-0.70568-0.0456l-4e-5 -4e-5c-0.20743 0.18272-0.22653 0.49966-0.0426 0.70703l1.2544 1.4192-4.5501 4.0139c-0.20687 0.18241-0.22696 0.49789-0.0449 0.70507 0.18314 0.20759 0.50009 0.22686 0.70703 0.043l4.5497-4.0214 2.4984 2.8311z" color="#000000" color-rendering="auto" dominant-baseline="auto" image-rendering="auto" shape-rendering="auto" solid-color="#000000" stop-color="#000000" stroke-width=".64986" style="font-feature-settings:normal;font-variant-alternates:normal;font-variant-caps:normal;font-variant-east-asian:normal;font-variant-ligatures:normal;font-variant-numeric:normal;font-variant-position:normal;font-variation-settings:normal;inline-size:0;isolation:auto;mix-blend-mode:normal;shape-margin:0;shape-padding:0;text-decoration-color:#000000;text-decoration-line:none;text-decoration-style:solid;text-indent:0;text-orientation:mixed;text-transform:none;white-space:normal"/>
  </g>
 </g>
</svg>
