<?xml version="1.0" encoding="UTF-8"?>
<svg version="1.1" viewBox="0 0 22 22" xmlns="http://www.w3.org/2000/svg">
 <g transform="matrix(.68749 0 0 .68749 .00012144 .00011812)" stroke-width="1.4546">
  <g fill="#fff" stroke-width="1.178">
   <path d="m15.945 1.6842h8.5302c4.1685 0 7.5244 3.3559 7.5244 7.5244v13.583c0 4.1685-3.3559 7.5244-7.5244 7.5244h-8.5302c-4.1685 0-7.5244-3.3559-7.5244-7.5244v-13.583c0-4.1685 3.3559-7.5244 7.5244-7.5244z" opacity=".99"/>
   <path d="m10.105 25.263a5.0526 5.0526 0 0 1-10.105 0 5.0526 5.0526 0 1 1 10.105 0z" opacity=".99"/>
   <path d="m3.7622 1.6842h2.5809c2.0843 0 3.7622 1.6779 3.7622 3.7622v12.686c0 2.0843-1.6779 3.7622-3.7622 3.7622h-2.5809c-2.0843 0-3.7622-1.6779-3.7622-3.7622v-12.686c0-2.0843 1.6779-3.7622 3.7622-3.7622z" opacity=".99"/>
  </g>
  <g fill="#f00">
   <path d="m16.438 3.3684h7.5443c3.5086 0 6.3331 2.521 6.3331 5.6524v13.958c0 3.1314-2.8246 5.6524-6.3331 5.6524h-7.5443c-3.5086 0-6.3331-2.521-6.3331-5.6524v-13.958c0-3.1314 2.8246-5.6524 6.3331-5.6524z" opacity=".99" stroke-width="1.4545"/>
   <path d="m8.4211 25.263a3.3684 3.3684 0 1 1-6.7368 0 3.3684 3.3684 0 1 1 6.7368 0z" stroke-width="1.5002"/>
   <path d="m5.0526 3.3684c1.8661 0 3.3684 1.6779 3.3684 3.7622v9.3177c0 2.0843-1.5023 3.7622-3.3684 3.7622s-3.3684-1.6779-3.3684-3.7622v-9.3177c0-2.0843 1.5023-3.7622 3.3684-3.7622z" stroke-width="1.4545"/>
  </g>
  <g fill="#fff">
   <path d="m20.211 14.75s-1.5246-0.01698-3.0859 0.76367c-1.5613 0.78065-3.2168 2.5961-3.2168 5.5391v4.2109h2.5v-4.2109c0-2.1096 0.87092-2.8202 1.8359-3.3027 0.96501-0.48251 1.9668-0.5 1.9668-0.5h5.0527v-2.5z" color="#000000" stroke-width="1.4546" style="-inkscape-stroke:none"/>
   <path d="m21.382 12.01v7.9564l6.0776-3.9781-6.0776-3.9781" opacity=".99" stroke-width="1.4545"/>
   <path d="m17.139 5.9355-0.5293 0.53125-3.918 3.916-0.53125 0.53125 1.0605 1.0605 0.53125-0.5293 3.918-3.918 0.5293-0.53125z" color="#000000" stroke-linecap="square" stroke-width="1.4546" style="-inkscape-stroke:none"/>
   <path d="m13.221 5.9355-1.0605 1.0605 4.9785 4.9785 1.0605-1.0605-0.5293-0.53125-3.918-3.916z" color="#000000" stroke-linecap="square" stroke-width="1.4546" style="-inkscape-stroke:none"/>
  </g>
 </g>
</svg>
