<?xml version="1.0" encoding="UTF-8"?>
<svg version="1.1" viewBox="0 0 22 22" xmlns="http://www.w3.org/2000/svg">
 <g transform="matrix(.84615 0 0 .84615 -.013538 -.0016922)">
  <circle cx="13.016" cy="13.002" r="13" fill="#fff" opacity=".99" stroke-width="1.1254"/>
  <path d="m20.138 14.638c0.42221 0.12018 0.85549-0.10186 0.96697-0.49558 0.1121-0.39229-0.13777-0.80754-0.55851-0.92814l-3.516-0.9953 3.2917-1.8476c0.3703-0.20667 0.50228-0.67483 0.29447-1.0445-0.13771-0.24474-0.39828-0.39452-0.67908-0.39038-0.12821 0.00187-0.25388 0.035894-0.36553 0.098929l-4.5233 2.5391-2.8548-7.444c-0.11156-0.29241-0.38976-0.48757-0.70268-0.49295l-7e-6 -1.85e-5c-0.09773-0.00154-0.19486 0.015634-0.28614 0.050595-0.39511 0.15099-0.59312 0.59359-0.44234 0.98878l2.5038 6.5387-7.5389-1.8811 0.35937-2.7782c0.053499-0.42005-0.24379-0.80388-0.66392-0.85703-0.029784-0.00397-0.059642-0.00499-0.089648-0.00598l1.21e-5 7.76e-5c-0.38868-0.0034182-0.71852 0.28422-0.76739 0.6698l-0.42626 3.3509c-0.088731 0.37374 0.17758 0.78261 0.60378 0.88857l9.1496 2.2737 0.23357 0.61171c0.151 0.3951 0.59361 0.59312 0.98882 0.44235 0.26213-0.10064 0.43882-0.33085 0.48172-0.59318z" color="#000000" color-rendering="auto" dominant-baseline="auto" image-rendering="auto" shape-rendering="auto" solid-color="#000000" stop-color="#000000" stroke-linecap="round" stroke-linejoin="round" stroke-width="1.1552" style="font-feature-settings:normal;font-variant-alternates:normal;font-variant-caps:normal;font-variant-east-asian:normal;font-variant-ligatures:normal;font-variant-numeric:normal;font-variant-position:normal;font-variation-settings:normal;inline-size:0;isolation:auto;mix-blend-mode:normal;shape-margin:0;shape-padding:0;text-decoration-color:#000000;text-decoration-line:none;text-decoration-style:solid;text-indent:0;text-orientation:mixed;text-transform:none;white-space:normal"/>
  <path d="m2.7799 16.879a10.947 10.947 0 0 0 20.471 0.0092z" opacity=".99" stroke-width="1.1254"/>
 </g>
</svg>
