<?xml version="1.0" encoding="UTF-8" standalone="no"?>
<!-- Created with Inkscape (http://www.inkscape.org/) -->

<svg
   xmlns:dc="http://purl.org/dc/elements/1.1/"
   xmlns:cc="http://creativecommons.org/ns#"
   xmlns:rdf="http://www.w3.org/1999/02/22-rdf-syntax-ns#"
   xmlns:svg="http://www.w3.org/2000/svg"
   xmlns="http://www.w3.org/2000/svg"
   xmlns:sodipodi="http://sodipodi.sourceforge.net/DTD/sodipodi-0.dtd"
   xmlns:inkscape="http://www.inkscape.org/namespaces/inkscape"
   version="1.1"
   width="19"
   height="19"
   id="svg2816"
   inkscape:version="0.48.3.1 r9886"
   sodipodi:docname="mode_finalglide.svg">
  <metadata
     id="metadata15">
    <rdf:RDF>
      <cc:Work
         rdf:about="">
        <dc:format>image/svg+xml</dc:format>
        <dc:type
           rdf:resource="http://purl.org/dc/dcmitype/StillImage" />
      </cc:Work>
    </rdf:RDF>
  </metadata>
  <sodipodi:namedview
     pagecolor="#ff00ff"
     bordercolor="#666666"
     borderopacity="1"
     objecttolerance="10"
     gridtolerance="10"
     guidetolerance="10"
     inkscape:pageopacity="1"
     inkscape:pageshadow="2"
     inkscape:window-width="1280"
     inkscape:window-height="774"
     id="namedview13"
     showgrid="false"
     inkscape:zoom="23.6"
     inkscape:cx="7.1176627"
     inkscape:cy="9.2123413"
     inkscape:window-x="-4"
     inkscape:window-y="-4"
     inkscape:window-maximized="1"
     inkscape:current-layer="layer4"
     showguides="true"
     inkscape:guide-bbox="true" />
  <defs
     id="defs2818" />
  <g
     transform="translate(0,3)"
     id="layer1" />
  <g
     inkscape:groupmode="layer"
     id="layer3"
     inkscape:label="MASK_Background"
     transform="translate(0,-13)">
    <path
       d="m 1.2077345,14.593276 c -0.2657228,0.399571 -0.2766803,0.909457 -0.03196,1.397629 l 7.127024,14.20561 C 8.5539115,30.698584 9.00226,31 9.501746,31 c 0.499485,0 0.947835,-0.300547 1.199861,-0.803485 L 17.82498,15.990036 C 18.0697,15.500997 18.056916,14.991978 17.792106,14.592407 17.54282,14.217158 17.110906,14 16.607769,14 L 2.3957231,14 c -0.504964,0 -0.93779,0.216289 -1.1879897,0.593276 z"
       id="path112-1"
       style="opacity:0.98999999;fill:#ffffff" />
    <rect
       width="3"
       height="12"
       rx="1.5"
       ry="3"
       x="8"
       y="19"
       id="rect2863-7"
       style="fill:#ffffff" />
    <rect
       width="19"
       height="3"
       rx="2"
       ry="1.5"
       x="0"
       y="25"
       id="rect2865-4"
       style="opacity:0.98999999;fill:#ffffff" />
  </g>
  <g
     inkscape:groupmode="layer"
     id="layer2"
     inkscape:label="Layer"
     transform="translate(0,-13)">
    <path
       d="m 2.4750221,15 c -0.4179772,0 -0.5940153,0.331219 -0.389992,0.734997 L 9.131057,29.696525 c 0.204023,0.404633 0.538043,0.404633 0.742067,0 L 16.915539,15.734997 C 17.118659,15.331219 16.942625,15 16.524644,15 L 2.4750221,15 z"
       id="path114" />
    <rect
       width="7"
       height="2.9999998"
       rx="1.440678"
       ry="1.4999999"
       x="6"
       y="19"
       id="rect2839"
       style="fill:#ffffff" />
    <rect
       width="3"
       height="11"
       rx="1.5"
       ry="2.75"
       x="8"
       y="19"
       id="rect2863"
       style="fill:#ffffff" />
    <path
       style="opacity:0.98999999;fill:#ffffff"
       d="m 6,25 7,0 c 0,0 -2,3 -2,3 L 8,28 C 8,28 6,25 6,25 z"
       id="rect2865"
       sodipodi:nodetypes="ccccc" />
  </g>
  <g
     inkscape:groupmode="layer"
     id="layer4"
     inkscape:label="Glider">
    <g
       transform="matrix(-0.34182551,0,0,-1.0054553,-17.823603,-5.827101)"
       id="g4370-4-1"
       style="fill:none;stroke:#000000;stroke-width:1.70977354;stroke-linecap:round;stroke-linejoin:round;stroke-opacity:1">
      <path
         style="fill:none;stroke:#000000;stroke-width:1.70575404;stroke-linecap:round;stroke-linejoin:round;stroke-opacity:1"
         d="m -79.934358,-13.752078 0,-8.453886"
         id="path3033-8-5-7"
         sodipodi:nodetypes="cc" />
    </g>
    <path
       style="fill:none;stroke:#000000;stroke-width:0.99999988;stroke-linecap:round;stroke-linejoin:round;stroke-opacity:1"
       d="m 17.499908,13.5 -15.9999081,0"
       id="path3033-5"
       sodipodi:nodetypes="cc" />
    <path
       style="fill:none;stroke:#000000;stroke-width:1;stroke-linecap:round;stroke-linejoin:round;stroke-opacity:1"
       d="M 11.235837,7.5 7.5,7.5"
       id="path3033-2-1"
       sodipodi:nodetypes="cc" />
  </g>
</svg>
