<?xml version="1.0" encoding="UTF-8"?>
<svg version="1.1" width="26" height="26" viewBox="0 0 26 26" xmlns="http://www.w3.org/2000/svg">
 <g transform="matrix(1.0466 0 0 1.0466 -.66261 -14.215)" stroke-width=".95544">
  <g transform="matrix(1.4641,0,0,1.4641,1070.5,-561.38)">
   <circle cx="-722.25" cy="401.19" r="8.4835" fill="#fff" opacity=".99" stroke-width=".62142"/>
   <path transform="translate(0,13)" d="m-728.93 390.71a7.144 7.144 0 0 0 13.359 6e-3z" opacity=".99" stroke-width=".62141"/>
   <path transform="translate(0,13)" d="m-723.88 385.06c-0.35813 0-0.64648 0.20559-0.64648 0.46093 0 0.25535 0.28835 0.46094 0.64648 0.46094h1.1934v1.3477h-6.75a0.5 0.5 0 0 0-0.5 0.5 0.5 0.5 0 0 0 0.5 0.5h6.75v0.11133c0 0.29692 0.20523 0.53515 0.46094 0.53515s0.46093-0.23823 0.46093-0.53515v-0.11524l6.7559 4e-3a0.5 0.5 0 0 0 0.5-0.5 0.5 0.5 0 0 0-0.5-0.5l-6.7559-4e-3v-1.3438h1.209c0.35813 0 0.64648-0.20559 0.64648-0.46094 0-0.25534-0.28835-0.46093-0.64648-0.46093h-1.6699z" stroke-width="0"/>
  </g>
 </g>
</svg>
