<?xml version="1.0" encoding="UTF-8" standalone="no"?>
<svg
   version="1.1"
   viewBox="0 0 32 32"
   id="svg2"
   sodipodi:docname="mode_climb.svg"
   width="32"
   height="32"
   inkscape:version="1.2.2 (732a01da63, 2022-12-09)"
   xmlns:inkscape="http://www.inkscape.org/namespaces/inkscape"
   xmlns:sodipodi="http://sodipodi.sourceforge.net/DTD/sodipodi-0.dtd"
   xmlns="http://www.w3.org/2000/svg"
   xmlns:svg="http://www.w3.org/2000/svg">
  <defs
     id="defs6" />
  <sodipodi:namedview
     id="namedview4"
     pagecolor="#ff00ff"
     bordercolor="#666666"
     borderopacity="1.0"
     inkscape:showpageshadow="2"
     inkscape:pageopacity="0"
     inkscape:pagecheckerboard="true"
     inkscape:deskcolor="#d1d1d1"
     showgrid="false"
     inkscape:zoom="4.5384613"
     inkscape:cx="-30.516951"
     inkscape:cy="57.949156"
     inkscape:window-width="2560"
     inkscape:window-height="1417"
     inkscape:window-x="-8"
     inkscape:window-y="-8"
     inkscape:window-maximized="1"
     inkscape:current-layer="layer1" />
  <g
     inkscape:groupmode="layer"
     id="layer1"
     inkscape:label="Image">
    <g
       transform="matrix(1.2874445,0,0,1.2874445,-0.80158202,-17.461631)"
       stroke-width="0.776729"
       id="g2522">
      <path
         d="M 13.050335,13.563017 A 12.427281,12.427281 0 0 0 0.62261497,25.990737 12.427281,12.427281 0 0 0 13.050335,38.418457 12.427281,12.427281 0 0 0 25.478055,25.990737 12.427281,12.427281 0 0 0 22.355423,17.755175 l 0.674862,-0.597661 c 0.94919,-0.838973 1.176009,-2.122066 0.508994,-2.876663 -0.667015,-0.754641 -1.967604,-0.687425 -2.91678,0.151563 L 19.535873,15.39323 A 12.427281,12.427281 0 0 0 13.05035,13.563105 Z"
         fill="#ffffff"
         opacity="0.99"
         stroke-width="0.77856"
         id="path2514" />
      <path
         d="m 20.88327,19.068033 c 0.110832,0.115078 -0.07496,-0.09356 0.0306,0.02635 l -3e-5,1.02e-4 c 1.621052,1.843595 2.603756,4.261995 2.60317,6.90982 -0.0013,5.778803 -4.686291,10.462605 -10.465094,10.462605 -5.7788025,0 -10.4637761,-4.683948 -10.4650938,-10.462605 -0.00136,-5.780706 4.684388,-10.467583 10.4650938,-10.467583 0.625039,0 1.237282,0.05476 1.832175,0.159851 0.22799,0.04026 -0.507237,0.0044 -0.507237,0.0044 -6.1047118,0.502845 -10.0588067,4.684974 -10.1110751,9.098357 -0.048901,4.136668 3.2238018,8.360303 6.1593221,8.123559 2.853238,-0.230098 3.803586,-3.783821 1.283562,-5.720825 l 3.162456,-2.830252 2.387362,2.684281 c -0.886059,0.762753 -1.108441,1.915043 -0.519405,2.581502 0.589052,0.666472 1.759849,0.587265 2.625132,-0.177581 l 2.489995,-2.200982 c 0.865268,-0.764846 1.08765,-1.917092 0.498599,-2.583551 -0.589037,-0.666458 -1.759848,-0.58725 -2.625131,0.177581 L 17.354657,22.18679 Z"
         stroke-width="0.776727"
         id="path2516" />
      <path
         d="m 17.750096,27.764787 c -0.302044,0.267872 -0.330213,0.729707 -0.06296,1.032293 0.26733,0.304767 0.731435,0.334239 1.035177,0.06574 l 2.619421,-2.316206 c 0.302059,-0.267872 0.330213,-0.729722 0.06296,-1.032308 -0.136162,-0.15496 -0.331356,-0.245295 -0.537603,-0.24878 v 4.4e-5 c -0.181915,-0.0029 -0.35828,0.06266 -0.494705,0.183013 l -0.76694,0.677439 -3.64883,-4.134911 6.646282,-5.893296 c 0.304767,-0.26733 0.33424,-0.731435 0.06574,-1.035177 -0.1366,-0.153906 -0.331794,-0.243158 -0.537602,-0.24591 v -4.4e-5 c -0.182896,-0.0029 -0.360403,0.06193 -0.49756,0.183012 l -6.648771,5.891832 -1.83686,-2.078144 c -0.267637,-0.303815 -0.73022,-0.333698 -1.033186,-0.06676 l -5.9e-5,-5.8e-5 c -0.303698,0.26752 -0.331662,0.731552 -0.06237,1.035162 l 1.836567,2.077851 -6.6618016,5.876751 c -0.3028784,0.267066 -0.3322922,0.728961 -0.065738,1.032293 0.2681353,0.303932 0.7321818,0.332146 1.0351626,0.06296 l 6.661216,-5.887732 3.657907,4.145014 z"
         color="#000000"
         color-rendering="auto"
         dominant-baseline="auto"
         image-rendering="auto"
         shape-rendering="auto"
         solid-color="#000000"
         stop-color="#000000"
         stroke-width="0.769035"
         style="font-variant-ligatures:normal;font-variant-position:normal;font-variant-caps:normal;font-variant-numeric:normal;font-variant-alternates:normal;font-variant-east-asian:normal;font-feature-settings:normal;font-variation-settings:normal;text-indent:0;text-decoration-line:none;text-decoration-style:solid;text-decoration-color:#000000;text-transform:none;text-orientation:mixed;white-space:normal;shape-padding:0;shape-margin:0;inline-size:0;isolation:auto;mix-blend-mode:normal"
         id="path2518" />
    </g>
  </g>
</svg>
