<?xml version="1.0" encoding="UTF-8"?>
<svg version="1.1" viewBox="0 0 22 22" xmlns="http://www.w3.org/2000/svg">
 <g transform="matrix(.88512 0 0 .88512 -.55082 -12.005)">
  <path d="m13.05 13.563a12.427 12.427 0 0 0-12.428 12.428 12.427 12.427 0 0 0 12.428 12.428 12.427 12.427 0 0 0 12.428-12.428 12.427 12.427 0 0 0-3.1226-8.2356l0.67486-0.59766c0.94919-0.83897 1.176-2.1221 0.50899-2.8767-0.66702-0.75464-1.9676-0.68742-2.9168 0.15156l-1.0866 0.96082a12.427 12.427 0 0 0-6.4855-1.8301z" fill="#fff" opacity=".99" stroke-width="1.1324"/>
  <path d="m20.883 19.068c0.11083 0.11508-0.07496-0.09356 0.0306 0.02635l-3e-5 1.02e-4c1.6211 1.8436 2.6038 4.262 2.6032 6.9098-0.0013 5.7788-4.6863 10.463-10.465 10.463-5.7788 0-10.464-4.6839-10.465-10.463-0.00136-5.7807 4.6844-10.468 10.465-10.468 0.62504 0 1.2373 0.05476 1.8322 0.15985 0.22799 0.04026-0.50724 0.0044-0.50724 0.0044-6.1047 0.50284-10.059 4.685-10.111 9.0984-0.048901 4.1367 2.4964 7.1663 5.4349 6.9699 2.6385-0.17644 3.6158-2.952 2.008-4.5671l3.1625-2.8303 2.3874 2.6843c-0.88606 0.76275-1.1084 1.915-0.5194 2.5815 0.58905 0.66647 1.7598 0.58726 2.6251-0.17758l2.49-2.201c0.86527-0.76485 1.0876-1.9171 0.4986-2.5836-0.58904-0.66646-1.7598-0.58725-2.6251 0.17758l-2.373-2.6663z" stroke-width="1.1298"/>
  <path d="m17.75 27.765c-0.30204 0.26787-0.33021 0.72971-0.06296 1.0323 0.26733 0.30477 0.73144 0.33424 1.0352 0.06574l2.6194-2.3162c0.30206-0.26787 0.33021-0.72972 0.06296-1.0323-0.13616-0.15496-0.33136-0.2453-0.5376-0.24878v4.4e-5c-0.18192-0.0029-0.35828 0.06266-0.4947 0.18301l-0.76694 0.67744-3.6488-4.1349 6.6463-5.8933c0.30477-0.26733 0.33424-0.73144 0.06574-1.0352-0.1366-0.15391-0.33179-0.24316-0.5376-0.24591v-4.4e-5c-0.1829-0.0029-0.3604 0.06193-0.49756 0.18301l-6.6488 5.8918-1.8369-2.0781c-0.26764-0.30382-0.73022-0.3337-1.0332-0.06676l-5.9e-5 -5.8e-5c-0.3037 0.26752-0.33166 0.73155-0.06237 1.0352l1.8366 2.0779-6.6618 5.8768c-0.30288 0.26707-0.33229 0.72896-0.065738 1.0323 0.26814 0.30393 0.73218 0.33215 1.0352 0.06296l6.6612-5.8877 3.6579 4.145z" color="#000000" color-rendering="auto" dominant-baseline="auto" image-rendering="auto" shape-rendering="auto" solid-color="#000000" stop-color="#000000" stroke-width="1.1186" style="font-feature-settings:normal;font-variant-alternates:normal;font-variant-caps:normal;font-variant-east-asian:normal;font-variant-ligatures:normal;font-variant-numeric:normal;font-variant-position:normal;font-variation-settings:normal;inline-size:0;isolation:auto;mix-blend-mode:normal;shape-margin:0;shape-padding:0;text-decoration-color:#000000;text-decoration-line:none;text-decoration-style:solid;text-indent:0;text-orientation:mixed;text-transform:none;white-space:normal"/>
 </g>
</svg>
