<?xml version="1.0" encoding="UTF-8"?>
<svg version="1.1" viewBox="0 0 22 22" xmlns="http://www.w3.org/2000/svg">
 <g transform="translate(-325.78 -321.37)">
  <path d="m328.37 322.52c-1.4329 0-2.5879 1.155-2.5879 2.5879v8.7207c0 0.9432 0.50167 1.763 1.252 2.2148-0.79786 0.66381-1.2571 1.6496-1.252 2.6875 0.0493 3.8032 5.296 4.7727 6.7012 1.2383 0.9313 1.3521 2.4888 2.2363 4.2617 2.2363h5.8652c2.8658 0 5.1719-2.308 5.1719-5.1738v-9.3379c0-2.8658-2.3061-5.1738-5.1719-5.1738h-5.8652c-1.6658 0-3.1391 0.7824-4.084 1.998-0.2656-1.1468-1.2878-1.998-2.5176-1.998z" fill="#fff" stroke-width=".80986"/>
  <g fill="#f00">
   <path d="m337.08 323.68h5.1866c2.4121 0 4.3539 1.7332 4.3539 3.886v9.596c0 2.1528-1.9419 3.886-4.3539 3.886h-5.1866c-2.4121 0-4.3539-1.7332-4.3539-3.886v-9.596c0-2.1528 1.9419-3.886 4.3539-3.886z" opacity=".99" stroke-width=".99995"/>
   <path d="m331.57 338.73a2.3157 2.3157 0 1 1-4.6315 0 2.3157 2.3157 0 1 1 4.6315 0z" stroke-width="1.0314"/>
   <path d="m329.26 323.68c1.2829 0 2.3157 1.1535 2.3157 2.5865v6.4058c0 1.4329-1.0328 2.5865-2.3157 2.5865-1.2829 0-2.3157-1.1535-2.3157-2.5865v-6.4058c0-1.4329 1.0328-2.5865 2.3157-2.5865z" stroke-width=".99995"/>
  </g>
  <path d="m340.48 329.62v1.8828h-0.80469s-1.0497-0.0113-2.123 0.52539c-1.0734 0.53669-2.2109 1.7853-2.2109 3.8086v2.8945h1.7188v-2.8945c0-1.4503 0.59831-1.9398 1.2617-2.2715 0.66344-0.33172 1.3535-0.34375 1.3535-0.34375h0.80469v1.8672l4.1777-2.7344z" fill="#fff" style="-inkscape-stroke:none"/>
  <path d="m334.87 325.45-0.72852 0.72852 1.3457 1.3476-1.3457 1.3457 0.72852 0.73047 1.3477-1.3477 1.3457 1.3477 0.73047-0.73047-1.3477-1.3457 1.3477-1.3476-0.73047-0.72852-1.3457 1.3477z" fill="#fff" style="-inkscape-stroke:none"/>
 </g>
</svg>
