<?xml version="1.0" encoding="UTF-8"?>
<svg version="1.1" width="26" height="26" viewBox="0 0 26 26" xmlns="http://www.w3.org/2000/svg">
 <g transform="translate(0,-13)">
  <g transform="matrix(1.5235 0 0 1.5235 13.727 24.12)" stroke-width=".65636">
   <g transform="matrix(.89534 0 0 .89534 -49.256 -136.58)" stroke-width=".7331">
    <g fill="#fff" stroke-width=".7331">
     <rect x="49.981" y="145.43" width="14" height="17" rx="4.4676" ry="4.4676" opacity=".99"/>
     <path d="m50.981 159.43a3 3 0 0 1-6 0 3 3 0 1 1 6 0z" opacity=".99"/>
     <rect x="44.981" y="145.43" width="6" height="12" rx="2.2338" ry="2.2338" opacity=".99"/>
    </g>
    <g fill="#f00">
     <rect x="50.981" y="146.43" width="12" height="15" rx="3.7603" ry="3.3561" opacity=".99" stroke-width=".7331"/>
     <path d="m49.981 159.43a2 2 0 1 1-4 0 2 2 0 1 1 4 0z" stroke-width=".75613"/>
     <rect x="45.981" y="146.43" width="4" height="10" rx="2.2338" ry="2.2338" stroke-width=".7331"/>
    </g>
    <path d="m53.981 159.43v-2.5c0-3 3-3 3-3h3" fill="none" stroke="#fff" stroke-width="1.4662"/>
    <path d="m56.981 150.65v6.5457l5-3.2728-5-3.2728" fill="#fff" opacity=".99"/>
    <text x="52.308727" y="151.39201" fill="#ffffff" font-family="sans-serif" font-size="5.6958px" letter-spacing="0px" stroke="#ffffff" stroke-width=".36654" word-spacing="0px" style="line-height:1.25" xml:space="preserve"><tspan x="52.308727" y="151.39201" stroke="#ffffff" stroke-width=".36654">x</tspan></text>
   </g>
  </g>
 </g>
</svg>
