<?xml version="1.0" encoding="UTF-8" standalone="no"?>
<svg
   xmlns:dc="http://purl.org/dc/elements/1.1/"
   xmlns:cc="http://creativecommons.org/ns#"
   xmlns:rdf="http://www.w3.org/1999/02/22-rdf-syntax-ns#"
   xmlns:svg="http://www.w3.org/2000/svg"
   xmlns="http://www.w3.org/2000/svg"
   xmlns:sodipodi="http://sodipodi.sourceforge.net/DTD/sodipodi-0.dtd"
   xmlns:inkscape="http://www.inkscape.org/namespaces/inkscape"
   version="1.1"
   width="19"
   height="19"
   id="svg2816"
   inkscape:version="1.0.2 (e86c870879, 2021-01-15)"
   sodipodi:docname="mode_climb.svg">
  <metadata
     id="metadata20">
    <rdf:RDF>
      <cc:Work
         rdf:about="">
        <dc:format>image/svg+xml</dc:format>
        <dc:type
           rdf:resource="http://purl.org/dc/dcmitype/StillImage" />
      </cc:Work>
    </rdf:RDF>
  </metadata>
  <sodipodi:namedview
     pagecolor="#ff00ff"
     bordercolor="#666666"
     borderopacity="1"
     objecttolerance="10"
     gridtolerance="10"
     guidetolerance="10"
     inkscape:pageopacity="0"
     inkscape:pageshadow="2"
     inkscape:window-width="1680"
     inkscape:window-height="1027"
     id="namedview18"
     showgrid="false"
     inkscape:zoom="7.1155248"
     inkscape:cx="36.057142"
     inkscape:cy="17.784168"
     inkscape:window-x="-8"
     inkscape:window-y="-8"
     inkscape:window-maximized="1"
     inkscape:current-layer="layer5"
     showguides="true"
     inkscape:guide-bbox="true"
     inkscape:document-rotation="0" />
  <defs
     id="defs2818" />
  <g
     transform="translate(0,3)"
     id="layer1" />
  <g
     inkscape:groupmode="layer"
     id="layer4"
     inkscape:label="MASK_Background"
     style="display:inline" />
  <g
     inkscape:groupmode="layer"
     id="layer5"
     inkscape:label="NOAA_Glider"
     transform="translate(0,-13)"
     style="display:inline">
    <g
       id="g1688"
       transform="translate(790.15039,-378.34961)"
       style="display:inline">
      <path
         id="rect4150"
         style="opacity:0.99;fill:#ffffff;stroke-width:1.00235"
         d="m -780.65039,380.37305 a 8.4880123,8.4880123 0 0 0 -8.48828,8.48828 8.4880123,8.4880123 0 0 0 8.48828,8.48828 8.4880123,8.4880123 0 0 0 8.48828,-8.48828 8.4880123,8.4880123 0 0 0 -2.13281,-5.625 l 0.46094,-0.40821 c 0.64831,-0.57303 0.80323,-1.4494 0.34765,-1.96484 -0.45558,-0.51543 -1.34387,-0.46952 -1.99219,0.10352 l -0.74218,0.65625 a 8.4880123,8.4880123 0 0 0 -4.42969,-1.25 z"
         transform="translate(0,13)" />
      <path
         id="path4146"
         style="display:inline;fill:#000000;stroke-width:0.999995"
         d="m -775.30141,397.12583 c 0.0757,0.0786 -0.0512,-0.0639 0.0209,0.018 l -2e-5,7e-5 c 1.10716,1.25917 1.77842,2.91095 1.778,4.71948 -9.2e-4,3.94696 -3.20084,7.14611 -7.1478,7.14611 -3.94696,0 -7.14687,-3.19915 -7.1478,-7.14611 -9.3e-4,-3.94828 3.19952,-7.14949 7.1478,-7.14949 0.42691,0 0.84508,0.0374 1.25141,0.10918 0.15572,0.0275 -0.34645,0.003 -0.34645,0.003 -4.16958,0.34345 -6.87029,3.19992 -6.90596,6.21429 -0.0334,2.82542 2.20187,5.71022 4.20688,5.54853 1.94885,-0.15716 2.59792,-2.58436 0.87669,-3.90744 l 2.16005,-1.93309 1.63064,1.83345 c -0.60519,0.52097 -0.75708,1.30798 -0.35476,1.76318 0.40233,0.45521 1.20201,0.40111 1.793,-0.12129 l 1.7007,-1.50329 c 0.59099,-0.5224 0.74288,-1.30942 0.34055,-1.76462 -0.40232,-0.4552 -1.20199,-0.4011 -1.79299,0.12129 l -1.6208,-1.82111 z"
         sodipodi:nodetypes="cssssssscsscccssssccc" />
      <path
         id="path4168"
         style="color:#000000;font-style:normal;font-variant:normal;font-weight:normal;font-stretch:normal;font-size:medium;line-height:normal;font-family:sans-serif;font-variant-ligatures:normal;font-variant-position:normal;font-variant-caps:normal;font-variant-numeric:normal;font-variant-alternates:normal;font-variant-east-asian:normal;font-feature-settings:normal;font-variation-settings:normal;text-indent:0;text-align:start;text-decoration:none;text-decoration-line:none;text-decoration-style:solid;text-decoration-color:#000000;letter-spacing:normal;word-spacing:normal;text-transform:none;writing-mode:lr-tb;direction:ltr;text-orientation:mixed;dominant-baseline:auto;baseline-shift:baseline;text-anchor:start;white-space:normal;shape-padding:0;shape-margin:0;inline-size:0;clip-rule:nonzero;display:inline;overflow:visible;visibility:visible;opacity:1;isolation:auto;mix-blend-mode:normal;color-interpolation:sRGB;color-interpolation-filters:linearRGB;solid-color:#000000;solid-opacity:1;vector-effect:none;fill:#000000;fill-opacity:1;fill-rule:nonzero;stroke:none;stroke-linecap:round;stroke-linejoin:round;stroke-miterlimit:4;stroke-dasharray:none;stroke-dashoffset:0;stroke-opacity:1;color-rendering:auto;image-rendering:auto;shape-rendering:auto;text-rendering:auto;enable-background:accumulate;stop-color:#000000;stop-opacity:1"
         d="m -777.44141,403.06641 c -0.2063,0.18296 -0.22554,0.4984 -0.043,0.70507 0.18259,0.20816 0.49958,0.22829 0.70704,0.0449 l 1.78906,-1.58203 c 0.20631,-0.18296 0.22554,-0.49841 0.043,-0.70508 -0.093,-0.10584 -0.22632,-0.16754 -0.36719,-0.16992 v 3e-5 c -0.12425,-0.002 -0.24471,0.0428 -0.33789,0.125 l -0.52383,0.4627 -2.49217,-2.82418 4.53946,-4.02521 c 0.20816,-0.18259 0.22829,-0.49958 0.0449,-0.70704 -0.0933,-0.10512 -0.22662,-0.16608 -0.36719,-0.16796 v -3e-5 c -0.12492,-0.002 -0.24616,0.0423 -0.33984,0.125 l -4.54121,4.02415 -1.25461,-1.41943 c -0.1828,-0.20751 -0.49875,-0.22792 -0.70568,-0.0456 l -4e-5,-4e-5 c -0.20743,0.18272 -0.22653,0.49966 -0.0426,0.70703 l 1.25438,1.41917 -4.55009,4.01394 c -0.20687,0.18241 -0.22696,0.49789 -0.0449,0.70507 0.18314,0.20759 0.50009,0.22686 0.70703,0.043 l 4.54969,-4.02139 2.49842,2.83111 z"
         sodipodi:nodetypes="cccccsscccccsscccsscccccccc" />
    </g>
  </g>
</svg>
