<?xml version="1.0" encoding="UTF-8" standalone="no"?>
<svg
   xmlns:dc="http://purl.org/dc/elements/1.1/"
   xmlns:cc="http://creativecommons.org/ns#"
   xmlns:rdf="http://www.w3.org/1999/02/22-rdf-syntax-ns#"
   xmlns:svg="http://www.w3.org/2000/svg"
   xmlns="http://www.w3.org/2000/svg"
   xmlns:sodipodi="http://sodipodi.sourceforge.net/DTD/sodipodi-0.dtd"
   xmlns:inkscape="http://www.inkscape.org/namespaces/inkscape"
   version="1.1"
   width="19"
   height="19"
   id="svg2816"
   inkscape:version="1.0.2 (e86c870879, 2021-01-15)"
   sodipodi:docname="mode_finalglide.svg">
  <metadata
     id="metadata15">
    <rdf:RDF>
      <cc:Work
         rdf:about="">
        <dc:format>image/svg+xml</dc:format>
        <dc:type
           rdf:resource="http://purl.org/dc/dcmitype/StillImage" />
      </cc:Work>
    </rdf:RDF>
  </metadata>
  <sodipodi:namedview
     pagecolor="#ff00ff"
     bordercolor="#666666"
     borderopacity="1"
     objecttolerance="10"
     gridtolerance="10"
     guidetolerance="10"
     inkscape:pageopacity="1"
     inkscape:pageshadow="2"
     inkscape:window-width="1680"
     inkscape:window-height="1027"
     id="namedview13"
     showgrid="false"
     inkscape:zoom="11.329471"
     inkscape:cx="9.0556422"
     inkscape:cy="0.013244454"
     inkscape:window-x="-8"
     inkscape:window-y="-8"
     inkscape:window-maximized="1"
     inkscape:current-layer="layer4"
     showguides="true"
     inkscape:guide-bbox="true"
     inkscape:document-rotation="0" />
  <defs
     id="defs2818" />
  <g
     transform="translate(0,3)"
     id="layer1" />
  <g
     inkscape:groupmode="layer"
     id="layer3"
     inkscape:label="MASK_Background"
     transform="translate(0,-13)" />
  <g
     inkscape:groupmode="layer"
     id="layer4"
     inkscape:label="Glider">
    <g
       id="g1683"
       transform="translate(752.04895,-391.25746)"
       style="display:inline">
      <circle
         cx="-742.54895"
         cy="401.77396"
         id="circle4064"
         style="display:inline;opacity:0.99;fill:#ffffff;stroke-width:0.952242"
         r="8.4834995" />
      <g
         id="g4133"
         transform="translate(18.649941,1.5909903)">
        <g
           transform="matrix(-0.24453195,1.0082405,-1.0816082,-0.26235502,-800.15372,475.50987)"
           id="g4084"
           style="fill:none;stroke:#000000;stroke-width:0.930615;stroke-linecap:round;stroke-linejoin:round;stroke-miterlimit:4;stroke-dasharray:none;stroke-opacity:1">
          <path
             id="path4082"
             style="color:#000000;font-style:normal;font-variant:normal;font-weight:normal;font-stretch:normal;font-size:medium;line-height:normal;font-family:sans-serif;font-variant-ligatures:normal;font-variant-position:normal;font-variant-caps:normal;font-variant-numeric:normal;font-variant-alternates:normal;font-variant-east-asian:normal;font-feature-settings:normal;font-variation-settings:normal;text-indent:0;text-align:start;text-decoration:none;text-decoration-line:none;text-decoration-style:solid;text-decoration-color:#000000;letter-spacing:normal;word-spacing:normal;text-transform:none;writing-mode:lr-tb;direction:ltr;text-orientation:mixed;dominant-baseline:auto;baseline-shift:baseline;text-anchor:start;white-space:normal;shape-padding:0;shape-margin:0;inline-size:0;clip-rule:nonzero;display:inline;overflow:visible;visibility:visible;opacity:1;isolation:auto;mix-blend-mode:normal;color-interpolation:sRGB;color-interpolation-filters:linearRGB;solid-color:#000000;solid-opacity:1;vector-effect:none;fill:#000000;fill-opacity:1;fill-rule:nonzero;stroke:none;stroke-linecap:round;stroke-linejoin:round;stroke-miterlimit:4;stroke-dasharray:none;stroke-dashoffset:0;stroke-opacity:1;color-rendering:auto;image-rendering:auto;shape-rendering:auto;text-rendering:auto;enable-background:accumulate;stop-color:#000000;stop-opacity:1"
             d="m -79.660167,-22.558594 c 0.0019,-0.257383 -0.205504,-0.46742 -0.462891,-0.46875 -0.256626,-0.0019 -0.466347,0.204316 -0.46875,0.460938 l -0.0105,2.271317 -1.673138,-1.570477 c -0.187505,-0.176859 -0.493457,-0.178106 -0.682605,-0.0028 -0.12521,0.116142 -0.172224,0.286831 -0.122525,0.444838 0.02268,0.07215 0.06442,0.137834 0.121392,0.191045 l 2.299202,2.15814 -4.032635,2.778873 c -0.158497,0.108834 -0.230048,0.296587 -0.180731,0.474242 l -1e-5,7e-6 c 0.01549,0.05546 0.04222,0.107649 0.07875,0.153747 0.15792,0.199599 0.459477,0.242155 0.673692,0.09507 l 3.542756,-2.438846 0.126541,4.554253 -1.51242,0.203109 c -0.263609,0.03556 -0.446322,0.263654 -0.407937,0.509356 0.0026,0.01745 0.007,0.03448 0.01144,0.05159 l 4.5e-5,-1.9e-5 c 0.06324,0.22015 0.293019,0.361469 0.534956,0.328692 l 1.870802,-0.255019 c 0.241463,-0.0084 0.44455,-0.222909 0.437155,-0.480321 l -0.159222,-5.525924 0.331548,-0.227775 c 0.214125,-0.147199 0.259775,-0.4283 0.101984,-0.627989 -0.105054,-0.132347 -0.27429,-0.196127 -0.44051,-0.179281 z"
             sodipodi:nodetypes="cccccsscccsscccccssscccccccc" />
        </g>
      </g>
      <path
         id="path4068"
         style="display:inline;opacity:0.99;fill:#000000;stroke-width:0.952233"
         d="m -749.22897,404.30193 a 7.1440002,7.1440002 0 0 0 13.35938,0.006 z" />
    </g>
  </g>
</svg>
