<?xml version="1.0" encoding="UTF-8"?>
<svg version="1.1" viewBox="0 0 22 22" xmlns="http://www.w3.org/2000/svg">
 <g transform="matrix(.88562 0 0 .88562 -.56088 -12.028)">
  <circle cx="13.054" cy="26.002" r="12.421" fill="#fff" opacity=".99" stroke-width="1.0752"/>
  <path d="m3.2736 29.692c3.4107 8.9999 16.14 9.0057 19.559 0.0088l-9.6907-0.0044z" opacity=".99" stroke-width="1.0752"/>
  <path d="m9.1172 18.676c-0.28259-1e-6 -0.50678 0.08272-0.6582 0.22656-0.15143 0.14385-0.22461 0.34384-0.22461 0.55469 0 0.21086 0.073179 0.41282 0.22461 0.55664 0.15143 0.14383 0.37562 0.22656 0.6582 0.22656h3.1953l-0.0039 4.3965h-9.7774c-0.46196 0-0.83789 0.37593-0.83789 0.83789s0.37593 0.83984 0.83789 0.83984h9.7754v0.13672c-6e-6 0.48388 0.35787 0.80859 0.7832 0.80859 0.42533 0 0.78124-0.32471 0.78125-0.80859v-0.14258l9.7852 0.0059c0.46196 0 0.83789-0.37788 0.83789-0.83984s-0.37593-0.83789-0.83789-0.83789l-9.7852-0.0059 0.0039-4.3906h3.1953c0.28259-1e-6 0.50999-0.08363 0.66602-0.22656 0.15603-0.14293 0.23633-0.34398 0.23633-0.55664 0-0.21265-0.0803-0.41176-0.23633-0.55469-0.15603-0.14293-0.38343-0.22656-0.66602-0.22656h-3.9766z" color="#000000" style="-inkscape-stroke:none"/>
 </g>
</svg>
