<?xml version="1.0" encoding="UTF-8" standalone="no"?>
<!-- Created with Inkscape (http://www.inkscape.org/) -->

<svg
   xmlns:dc="http://purl.org/dc/elements/1.1/"
   xmlns:cc="http://creativecommons.org/ns#"
   xmlns:rdf="http://www.w3.org/1999/02/22-rdf-syntax-ns#"
   xmlns:svg="http://www.w3.org/2000/svg"
   xmlns="http://www.w3.org/2000/svg"
   xmlns:sodipodi="http://sodipodi.sourceforge.net/DTD/sodipodi-0.dtd"
   xmlns:inkscape="http://www.inkscape.org/namespaces/inkscape"
   version="1.1"
   width="19"
   height="19"
   id="svg4754"
   inkscape:version="0.48.3.1 r9886"
   sodipodi:docname="mode_abort.svg"
   inkscape:label="Layer">
  <metadata
     id="metadata18">
    <rdf:RDF>
      <cc:Work
         rdf:about="">
        <dc:format>image/svg+xml</dc:format>
        <dc:type
           rdf:resource="http://purl.org/dc/dcmitype/StillImage" />
      </cc:Work>
    </rdf:RDF>
  </metadata>
  <sodipodi:namedview
     pagecolor="#ff00ff"
     bordercolor="#666666"
     borderopacity="1"
     objecttolerance="10"
     gridtolerance="10"
     guidetolerance="10"
     inkscape:pageopacity="0"
     inkscape:pageshadow="2"
     inkscape:window-width="722"
     inkscape:window-height="750"
     id="namedview16"
     showgrid="false"
     inkscape:zoom="10"
     inkscape:cx="16"
     inkscape:cy="16"
     inkscape:window-x="501"
     inkscape:window-y="13"
     inkscape:window-maximized="0"
     inkscape:current-layer="Abort" />
  <defs
     id="defs4756" />
  <g
     inkscape:groupmode="layer"
     id="layer2"
     inkscape:label="MASK_Background"
     transform="translate(0,-13)">
    <rect
       width="14"
       height="17"
       rx="4"
       ry="4.0000005"
       x="5"
       y="15"
       id="rect4791-7"
       style="opacity:0.98999999;fill:#ffffff" />
    <path
       d="m 6,29 a 3,3 0 0 1 -6,0 3,3 0 1 1 6,0 z"
       id="path4797"
       style="opacity:0.98999999;fill:#ffffff" />
    <rect
       width="6"
       height="12"
       rx="2"
       ry="2"
       x="-7.4386598e-08"
       y="15"
       id="rect4799"
       style="opacity:0.98999999;fill:#ffffff" />
  </g>
  <g
     inkscape:groupmode="layer"
     id="layer3"
     inkscape:label="Object"
     transform="translate(0,-13)">
    <g
       transform="translate(0,16)"
       id="layer1">
      <g
         transform="translate(-3.728,23.628)"
         id="Abort">
        <rect
           width="12"
           height="15"
           rx="3.9999998"
           ry="4.0000005"
           x="9.7279997"
           y="-23.628"
           id="rect4791"
           style="opacity:0.98999999;fill:#ff0000" />
        <path
           d="m 4.9999999,17.047224 a 1.9254757,1.952779 0 1 1 -3.8509515,0 1.9254757,1.952779 0 1 1 3.8509515,0 z"
           transform="matrix(1.0387043,0,0,1.0241827,3.5344784,-28.087471)"
           id="path4795"
           style="fill:#ff0000" />
        <rect
           width="4"
           height="10"
           rx="2"
           ry="2.0000002"
           x="4.7280002"
           y="-23.628"
           id="rect4801"
           style="fill:#ff0000" />
        <path
           d="m 12.728,-10.628 0,-2.5 c 0,-3 3,-3 3,-3 l 3,0"
           id="path4836"
           style="fill:none;stroke:#ffffff;stroke-width:2;stroke-linecap:butt;stroke-linejoin:miter;stroke-miterlimit:4;stroke-opacity:1;stroke-dasharray:none"
           sodipodi:nodetypes="cccc" />
        <path
           d="m 15.728,-21.628 0,11 5,-5.5 -5,-5.5"
           id="path5348"
           style="opacity:0.98999999;fill:#ffffff;stroke:none" />
        <rect
           width="2"
           height="4"
           rx="4.0885992"
           ry="0"
           x="11.728"
           y="-21.628"
           id="rect5587"
           style="opacity:0.98999999;fill:#ffffff;stroke:none" />
      </g>
    </g>
  </g>
</svg>
