<?xml version="1.0" encoding="UTF-8"?>
<svg version="1.1" width="26" height="26" viewBox="0 0 26 26" xmlns="http://www.w3.org/2000/svg">
 <circle cx="13.016" cy="13.002" r="13" fill="#fff" opacity=".99" stroke-width=".95226"/>
 <g transform="matrix(1.5316 .049724 -.049724 1.5316 1198.6 -562.05)" stroke-width=".65257">
  <g transform="matrix(-.24453 1.0082 -1.0816 -.26236 -800.15 475.51)" fill="none" stroke="#000" stroke-linecap="round" stroke-linejoin="round" stroke-width=".6073">
   <path d="m-79.658-22.43c0.0019-0.25738-0.2055-0.46742-0.46289-0.46875-0.25663-0.0019-0.46635 0.20432-0.46875 0.46094l-0.0125 2.1425-1.6731-1.5705c-0.1875-0.17686-0.49346-0.17811-0.6826-0.0028-0.12521 0.11614-0.17222 0.28683-0.12252 0.44484 0.02268 0.07215 0.06442 0.13783 0.12139 0.19104l2.2992 2.1581-4.0326 2.7789c-0.1585 0.10883-0.23005 0.29659-0.18073 0.47424l-1e-5 7e-6c0.01549 0.05546 0.04222 0.10765 0.07875 0.15375 0.15792 0.1996 0.45948 0.24216 0.67369 0.09507l3.5428-2.4388 0.12654 4.5543-1.7444 0.23206c-0.26361 0.03556-0.44632 0.26365-0.40794 0.50936 0.0026 0.01745 7e-3 0.03448 0.01144 0.05159l4.5e-5 -1.9e-5c0.06324 0.22015 0.29302 0.36147 0.53496 0.32869l2.1028-0.28396c0.24146-0.0084 0.44455-0.22291 0.43716-0.48032l-0.15922-5.5259 0.33155-0.22778c0.21412-0.1472 0.25978-0.4283 0.10198-0.62799-0.10505-0.13235-0.27429-0.19613-0.44051-0.17928z" color="#000000" color-rendering="auto" dominant-baseline="auto" fill="#000" image-rendering="auto" shape-rendering="auto" solid-color="#000000" stop-color="#000000" stroke="none" stroke-width=".59361" style="font-feature-settings:normal;font-variant-alternates:normal;font-variant-caps:normal;font-variant-east-asian:normal;font-variant-ligatures:normal;font-variant-numeric:normal;font-variant-position:normal;font-variation-settings:normal;inline-size:0;isolation:auto;mix-blend-mode:normal;shape-margin:0;shape-padding:0;text-decoration-color:#000000;text-decoration-line:none;text-decoration-style:solid;text-indent:0;text-orientation:mixed;text-transform:none;white-space:normal"/>
  </g>
 </g>
 <path d="m2.7799 16.879a10.947 10.947 0 0 0 20.471 0.0092z" opacity=".99" stroke-width=".95225"/>
</svg>
