<?xml version="1.0" encoding="UTF-8"?>
<svg version="1.1" viewBox="0 0 22 22" xmlns="http://www.w3.org/2000/svg">
 <g transform="matrix(.88562 0 0 .88562 -.56067 -12.028)">
  <circle cx="13.054" cy="26.002" r="12.421" fill="#fff" opacity=".99" stroke-width="1.0752"/>
  <path d="m3.2736 29.692a10.46 10.46 0 0 0 19.559 0.0088z" opacity=".99" stroke-width="1.0752"/>
  <path d="m10.667 21.42c-0.52434 0-0.94651 0.301-0.94651 0.67485 0 0.37386 0.42217 0.67486 0.94651 0.67486h1.7473v1.9732h-9.8827a0.73205 0.73205 0 0 0-0.73205 0.73205 0.73205 0.73205 0 0 0 0.73205 0.73205h9.8827v0.163c0 0.43472 0.30048 0.78351 0.67486 0.78351s0.67485-0.34879 0.67485-0.78351v-0.16872l9.8913 0.0059a0.73205 0.73205 0 0 0 0.73205-0.73205 0.73205 0.73205 0 0 0-0.73205-0.73205l-9.8913-0.0059v-1.9675h1.7701c0.52434 0 0.94651-0.301 0.94651-0.67486 0-0.37384-0.42217-0.67485-0.94651-0.67485h-2.4449z" stroke-width="0"/>
 </g>
</svg>
