<?xml version="1.0" encoding="UTF-8" standalone="no"?>
<svg
   version="1.1"
   viewBox="0 0 22 22"
   id="svg1"
   sodipodi:docname="plane_small.svg"
   inkscape:version="1.4.2 (ebf0e940d0, 2025-05-08)"
   xmlns:inkscape="http://www.inkscape.org/namespaces/inkscape"
   xmlns:sodipodi="http://sodipodi.sourceforge.net/DTD/sodipodi-0.dtd"
   xmlns="http://www.w3.org/2000/svg"
   xmlns:svg="http://www.w3.org/2000/svg">
  <defs
     id="defs1" />
  <sodipodi:namedview
     id="namedview1"
     pagecolor="#ffffff"
     bordercolor="#000000"
     borderopacity="0.25"
     inkscape:showpageshadow="2"
     inkscape:pageopacity="0.0"
     inkscape:pagecheckerboard="0"
     inkscape:deskcolor="#d1d1d1"
     inkscape:zoom="36"
     inkscape:cx="14.805556"
     inkscape:cy="10.111111"
     inkscape:window-width="1920"
     inkscape:window-height="1008"
     inkscape:window-x="0"
     inkscape:window-y="0"
     inkscape:window-maximized="1"
     inkscape:current-layer="svg1" />
  <path
     d="M 19.556619,8.3327301 15.138098,10.51611 9.5668426,6.6140892 C 8.9060454,6.2241545 8.883775,6.1494815 8.4192371,6.3802104 L 6.4372767,7.3612528 C 5.8214402,7.6602315 6.1144056,7.939654 7.0557226,9.2782126 l 2.789337,3.8534744 -7.0117118,3.463402 c 0.6980094,0.139641 4.9427679,0.562119 5.9063553,0.08781 L 20.314337,10.964574 C 20.870681,10.691583 21.148897,9.8793115 20.940214,9.1515653 20.731623,8.4236785 20.110658,8.0565894 19.556732,8.3327301 Z M 6.305537,14.301336 3.9484382,12.699359 C 3.2505197,12.211915 2.9798249,12.215196 1.9365719,12.731929 l -1.07546204,0.532718 2.03674644,2.7228 3.4077828,-1.68637 z"
     id="path1"
     style="overflow:hidden;fill:currentColor;stroke-width:0.0233559" />
</svg>
