<?xml version="1.0" encoding="UTF-8" standalone="no"?>
<svg
   version="1.1"
   viewBox="0 0 22 22"
   id="svg1"
   sodipodi:docname="radio_small.svg"
   inkscape:version="1.4.2 (ebf0e940d0, 2025-05-08)"
   xmlns:inkscape="http://www.inkscape.org/namespaces/inkscape"
   xmlns:sodipodi="http://sodipodi.sourceforge.net/DTD/sodipodi-0.dtd"
   xmlns="http://www.w3.org/2000/svg"
   xmlns:svg="http://www.w3.org/2000/svg">
  <defs
     id="defs1" />
  <sodipodi:namedview
     id="namedview1"
     pagecolor="#ffffff"
     bordercolor="#000000"
     borderopacity="0.25"
     inkscape:showpageshadow="2"
     inkscape:pageopacity="0.0"
     inkscape:pagecheckerboard="0"
     inkscape:deskcolor="#d1d1d1"
     inkscape:zoom="18"
     inkscape:cx="2.1666667"
     inkscape:cy="11.5"
     inkscape:window-width="1920"
     inkscape:window-height="1008"
     inkscape:window-x="0"
     inkscape:window-y="0"
     inkscape:window-maximized="1"
     inkscape:current-layer="svg1" />
  <path
     d="m 11.111112,6.1935513 a 2.968255,3.3127793 0 0 0 -0.989416,6.4378327 0.98941837,1.1042598 0 0 0 0,0.187726 v 6.625557 a 0.98941837,1.1042599 0 0 0 1.978835,0 V 12.81911 a 0.98941837,1.1042598 0 0 0 0,-0.187726 2.968255,3.3127793 0 0 0 -0.989419,-6.4378327 z M 2.7010564,9.50633 A 6.7973039,7.5862645 0 0 1 5.3131215,3.7310525 0.99065441,1.1056393 0 1 0 4.0466667,2.0304921 8.746458,9.7616561 0 0 0 0.7222206,9.50633 8.746458,9.7616561 0 0 0 4.0466667,16.982169 0.99065441,1.1056393 0 1 0 5.3131215,15.281609 6.7973039,7.5862645 0 0 1 2.7010564,9.50633 Z"
     id="path1"
     style="overflow:hidden;fill:currentColor;stroke-width:0.0244984" />
  <path
     d="m 15.702014,4.2500538 a 0.98941837,1.1042598 0 0 0 -1.266455,1.6784742 4.2347104,4.7262317 0 0 1 1.622648,3.577802 4.2347104,4.7262317 0 0 1 -1.622648,3.577801 0.98941837,1.1042598 0 0 0 0.633227,1.943498 0.98941837,1.1042598 0 0 0 0.633228,-0.265022 A 6.1343936,6.8464104 0 0 0 18.037042,9.50633 6.1343936,6.8464104 0 0 0 15.702014,4.2500538 Z M 7.9053967,4.382565 A 0.98941837,1.1042598 0 0 0 6.5202118,4.2500538 6.1343936,6.8464104 0 0 0 4.1851838,9.50633 6.1343936,6.8464104 0 0 0 6.5202118,14.762607 0.98941837,1.1042598 0 0 0 7.9053967,14.630094 0.98941837,1.1042598 0 0 0 7.7866678,13.084131 4.2347104,4.7262317 0 0 1 6.1640215,9.50633 4.2347104,4.7262317 0 0 1 7.7866678,5.928528 0.98941837,1.1042598 0 0 0 7.9053967,4.382565 Z"
     id="path2"
     style="overflow:hidden;fill:currentColor;stroke-width:0.0244984" />
  <path
     d="M 18.17556,2.0304921 A 0.99065441,1.1056393 0 1 0 16.909106,3.7310525 6.7973039,7.5862645 0 0 1 19.52117,9.50633 6.7973039,7.5862645 0 0 1 16.909106,15.281609 0.99065441,1.1056393 0 0 0 18.17556,16.982169 8.746458,9.7616561 0 0 0 21.500007,9.50633 8.746458,9.7616561 0 0 0 18.17556,2.0304921 Z"
     id="path3"
     style="overflow:hidden;fill:currentColor;stroke-width:0.0244984" />
</svg>
