<?xml version="1.0" encoding="UTF-8"?>
<svg version="1.1" viewBox="0 0 24 24" xmlns="http://www.w3.org/2000/svg">
 <g transform="translate(-.32547 -441.19)" stroke-miterlimit="3">
  <g stroke-linejoin="round">
   <g transform="matrix(.6875 0 0 .6875 -126.29 432.44)" stroke-width="1.4546">
    <g transform="translate(186.68 5.524)" stroke-width=".90857">
     <path d="m8.7639 8.0396c-0.3811 0.00713-0.77732 0.031842-1.1932 0.076705l-3.8068 13.469c3.5767-0.29003 4.8367 0.16142 7.3835 1.5653 2.5469 1.4039 3.7674 2.0614 5.0909 2.5625 2.3194 0.8781 4.1526 0.90803 5.2898 0.77557l3.821-13.455c-1.7944 0.22826-3.5119-0.13595-5.2102-0.6875-1.2223-0.4622-2.3937-1.0886-3.571-1.7301l-0.0057 0.0085c-3.1766-1.7638-5.1306-2.6351-7.7983-2.5852zm0.2642 1.2784c1.3672-0.00463 2.5521 0.29801 3.6506 0.7358l-0.9858 3.4773c1.1688 0.4658 2.291 1.0804 3.4233 1.7017l0.98011-3.4545c1.4381 0.78275 2.4926 1.324 3.5966 1.7415 0.01676 0.0063 0.03432 0.01082 0.05114 0.01704l-0.98011 3.4659c1.2178 0.45481 2.5055 0.76648 3.9205 0.78693l-1.1534 4.0653c-1.4153-0.01896-2.6981-0.32889-3.9148-0.78693l-0.98296 3.4517c-1.0465-0.40035-2.0984-0.94222-3.642-1.7841l0.97443-3.4347c-1.1352-0.62095-2.2597-1.241-3.4261-1.7102l-0.97443 3.4403c-1.1858-0.45232-2.5005-0.75032-4.142-0.7358l0.99716-3.517c1.4734-0.04598 2.8201 0.2926 4.1165 0.81534l1.1562-4.0625c-1.292-0.52479-2.6406-0.86469-4.1222-0.81818l0.95739-3.3807c0.16967-0.0096 0.33567-0.013648 0.5-0.014205z" style="-inkscape-stroke:none;paint-order:stroke markers fill"/>
    </g>
   </g>
   <g transform="matrix(.6875 0 0 .6875 -108.61 432.83)" stroke-width="1.4546">
    <g transform="translate(186.68 5.524)" stroke-width=".90857">
     <path d="m-16.945 7.4707c-0.3811 0.00713-0.77732 0.031842-1.1932 0.076705l-3.8068 13.469c3.5767-0.29003 4.8367 0.16142 7.3835 1.5653 2.5469 1.4039 3.7674 2.0614 5.0909 2.5625 2.3194 0.8781 4.1526 0.90803 5.2898 0.77557l3.821-13.455c-1.7944 0.22826-3.5119-0.13595-5.2102-0.6875-1.2223-0.4622-2.3937-1.0886-3.571-1.7301l-0.0057 0.0085c-3.1766-1.7638-5.1306-2.6351-7.7983-2.5852z" fill="none" stroke="#1a1a1a" stroke-linejoin="miter" stroke-width="1.4568" style="paint-order:stroke markers fill"/>
    </g>
   </g>
   <path d="m12.448 446.71c0.45591 0.24744 0.91451 0.49589 1.384 0.72469 0.21014 0.1024 0.42249 0.20087 0.63775 0.29361 0.16027 0.0691 0.32213 0.13493 0.48396 0.20089l-0.78897 2.7943c-0.8734-0.32953-1.6955-0.77248-2.5081-1.2147z" color="#000000" stroke-width=".99701" style="-inkscape-stroke:none;paint-order:stroke markers fill"/>
  </g>
  <path d="m19.778 444.46-5.8049 20.395" stroke="#1a1a1a" stroke-dashoffset="2.1" stroke-width="1.8898" style="paint-order:stroke markers fill"/>
 </g>
</svg>
