<?xml version="1.0" encoding="UTF-8"?>
<svg version="1.1" width="26" height="26" viewBox="0 0 26 26" xml:space="preserve" xmlns="http://www.w3.org/2000/svg"><g transform="matrix(-1.0181 0 0 1.0181 26.236 16.054)" stroke-miterlimit="3" stroke-width=".98219"><g stroke-linejoin="round" stroke-width=".97632"><path d="m12.834-13.687c-0.93882 0.51156-1.8721 1.0123-2.8457 1.3809l0.35547 0.93555c1.056-0.39971 2.0275-0.9246 2.9688-1.4375z" color="#000000" style="-inkscape-stroke:none;paint-order:stroke markers fill"/><path d="m7.9176-8.1105-0.96289 0.27344 0.91797 3.2402 0.96289-0.27344z" color="#000000" style="-inkscape-stroke:none;paint-order:stroke markers fill"/><path d="m15.588-3.964c-0.93837 0.5113-1.8706 1.0124-2.8438 1.3809l0.35352 0.93555c1.0554-0.39957 2.0279-0.92484 2.9688-1.4375z" color="#000000" style="-inkscape-stroke:none;paint-order:stroke markers fill"/></g><g transform="translate(-7.8598,16.536)"><path d="m18.025-28.374c-1.117 0.42283-2.3102 0.6888-3.6476 0.62342l0.91808 3.2401c1.3367 0.06553 2.5293-0.20012 3.6481-0.61795z" color="#000000" stroke-linejoin="round" stroke-width=".97925" style="-inkscape-stroke:none;paint-order:stroke markers fill"/><path d="m18.025-28.374c-1.117 0.42283-2.3102 0.6888-3.6476 0.62342l0.91808 3.2401c1.3367 0.06553 2.5293-0.20012 3.6481-0.61795z" color="#000000" stroke-width="0" style="-inkscape-stroke:none;paint-order:stroke markers fill"/><path d="m20.78-18.652-0.92127-3.2354c-1.1162 0.42024-2.3042 0.68327-3.6401 0.61758l0.91347 3.2413c1.3376 0.06539 2.5309-0.20069 3.6479-0.62354z" color="#000000" stroke-linejoin="round" stroke-width=".97925" style="-inkscape-stroke:none;paint-order:stroke markers fill"/><path d="m20.78-18.652-0.92127-3.2354c-1.1162 0.42024-2.3042 0.68327-3.6401 0.61758l0.91347 3.2413c1.3376 0.06539 2.5309-0.20069 3.6479-0.62354z" color="#000000" stroke-width="0" style="-inkscape-stroke:none;paint-order:stroke markers fill"/></g><path d="m19.675-15.716c-1.4917-0.16148-2.8282 0.14832-4.0605 0.64453l0.375 0.92774c1.0367-0.41744 2.0964-0.63201 3.2559-0.56641l0.8125 2.8691 0.96289-0.27344-0.91797-3.2402a0.50005 0.50005 0 0 0-0.42774-0.36133z" color="#000000" stroke-linejoin="round" stroke-width=".97925" style="-inkscape-stroke:none;paint-order:stroke markers fill"/><path d="m21.945-8.8722-0.96289 0.27148 0.74023 2.6328c-1.2005-0.01062-2.3218 0.20367-3.3496 0.61719l0.37305 0.92774c1.1363-0.45717 2.2829-0.71616 3.5762-0.57617a0.50005 0.50005 0 0 0 0.53516-0.63281z" color="#000000" stroke-linejoin="round" stroke-width=".97925" style="-inkscape-stroke:none;paint-order:stroke markers fill"/><g transform="translate(-7.8598,16.536)"><path d="m24.581-27.899-0.91948-3.2438c-0.92964 0.37433-1.8238 0.86632-2.7262 1.3675l0.91676 3.235c0.90292-0.49543 1.7969-0.98732 2.7289-1.3587z" color="#000000" stroke-linejoin="round" stroke-width=".97925" style="-inkscape-stroke:none;paint-order:stroke markers fill"/><path d="m24.581-27.899-0.91948-3.2438c-0.92964 0.37433-1.8238 0.86632-2.7262 1.3675l0.91676 3.235c0.90292-0.49543 1.7969-0.98732 2.7289-1.3587z" color="#000000" stroke-width="0" style="-inkscape-stroke:none;paint-order:stroke markers fill"/><path d="m22.77-23.296c0.90521-0.49517 1.8025-0.98945 2.7327-1.3636l0.91527 3.2374c-0.93028 0.37427-1.8258 0.86703-2.7291 1.3688z" color="#000000" stroke-linejoin="round" stroke-width=".97925" style="-inkscape-stroke:none;paint-order:stroke markers fill"/><path d="m22.77-23.296c0.90521-0.49517 1.8025-0.98945 2.7327-1.3636l0.91527 3.2374c-0.93028 0.37427-1.8258 0.86703-2.7291 1.3688z" color="#000000" stroke-width="0" style="-inkscape-stroke:none;paint-order:stroke markers fill"/><path d="m28.4-28.514c-1.3937-0.15106-2.6363 0.13421-3.819 0.61462l0.92252 3.2399c1.1883-0.47917 2.4309-0.76449 3.8174-0.61277z" color="#000000" stroke-linejoin="round" stroke-width=".97925" style="-inkscape-stroke:none;paint-order:stroke markers fill"/><path d="m28.4-28.514c-1.3937-0.15106-2.6363 0.13421-3.819 0.61462l0.92252 3.2399c1.1883-0.47917 2.4309-0.76449 3.8174-0.61277z" color="#000000" stroke-width="0" style="-inkscape-stroke:none;paint-order:stroke markers fill"/><path d="m21.85-26.542c-0.5288 0.287-1.0607 0.57518-1.6053 0.84058-0.24374 0.11877-0.49004 0.23298-0.73971 0.34055-0.18589 0.08009-0.37364 0.1565-0.56134 0.233l0.91512 3.241c1.013-0.38221 1.9666-0.89598 2.9091-1.4089z" color="#000000" stroke-linejoin="round" stroke-width=".97925" style="-inkscape-stroke:none;paint-order:stroke markers fill"/><path d="m21.85-26.542c-0.5288 0.287-1.0607 0.57518-1.6053 0.84058-0.24374 0.11877-0.49004 0.23298-0.73971 0.34055-0.18589 0.08009-0.37364 0.1565-0.56134 0.233l0.91512 3.241c1.013-0.38221 1.9666-0.89598 2.9091-1.4089z" color="#000000" stroke-width="0" style="-inkscape-stroke:none;paint-order:stroke markers fill"/></g><g stroke-linejoin="round"><path d="m15.615-15.071c-0.9674 0.38953-1.8777 0.8927-2.7812 1.3945l0.48438 0.87305c0.90122-0.50056 1.78-0.98072 2.6719-1.3398z" color="#000000" stroke-width=".97925" style="-inkscape-stroke:none;paint-order:stroke markers fill"/><path d="m18.373-5.3507c-0.96818 0.38952-1.8807 0.89413-2.7852 1.3965l0.48438 0.87305c0.9022-0.50109 1.7815-0.98278 2.6738-1.3418z" color="#000000" stroke-width=".97925" style="-inkscape-stroke:none;paint-order:stroke markers fill"/><g transform="translate(-7.8598,16.536)" stroke-width=".97632"><path d="m28.881-28.65-0.96289 0.27344 0.92188 3.2422 0.96094-0.27344z" color="#000000" style="-inkscape-stroke:none;paint-order:stroke markers fill"/><path d="m29.321-25.272-0.92101-3.2417" color="#000000" style="-inkscape-stroke:none;paint-order:stroke markers fill"/></g><g stroke-width=".97632"><path d="m9.9879-12.306c-1.0717 0.40567-2.1885 0.65324-3.4453 0.5918a0.50005 0.50005 0 0 0-0.50586 0.63672l0.91797 3.2402 0.96289-0.27344-0.76953-2.7148c1.1358-0.03754 2.2305-0.17972 3.1953-0.54492z" color="#000000" style="-inkscape-stroke:none;paint-order:stroke markers fill"/><path d="m8.8395-4.8683-0.96094 0.26953 0.91211 3.2422a0.50005 0.50005 0 0 0 0.45703 0.36328c1.4181 0.06933 2.6874-0.21429 3.8496-0.6543l-0.35352-0.93555c-0.96651 0.36591-1.9994 0.53529-3.1094 0.5332z" color="#000000" style="-inkscape-stroke:none;paint-order:stroke markers fill"/><path d="m3.859-12.4a1 1 0 0 0-0.69922 1.2285l5.5293 20.195a1 1 0 0 0 1.2285 0.69922 1 1 0 0 0 0.70117-1.2285l-5.5313-20.195a1 1 0 0 0-1.2285-0.69922z" color="#000000" stroke-linecap="round" style="-inkscape-stroke:none;paint-order:stroke markers fill"/></g></g></g></svg>
