<?xml version="1.0" encoding="UTF-8" standalone="no"?>
<svg
   version="1.1"
   viewBox="0 0 32 32"
   id="svg2"
   sodipodi:docname="settings.svg"
   width="32"
   height="32"
   inkscape:version="1.2.2 (732a01da63, 2022-12-09)"
   xmlns:inkscape="http://www.inkscape.org/namespaces/inkscape"
   xmlns:sodipodi="http://sodipodi.sourceforge.net/DTD/sodipodi-0.dtd"
   xmlns="http://www.w3.org/2000/svg"
   xmlns:svg="http://www.w3.org/2000/svg">
  <defs
     id="defs6" />
  <sodipodi:namedview
     id="namedview4"
     pagecolor="#ff00ff"
     bordercolor="#666666"
     borderopacity="1.0"
     inkscape:showpageshadow="2"
     inkscape:pageopacity="0"
     inkscape:pagecheckerboard="true"
     inkscape:deskcolor="#d1d1d1"
     showgrid="false"
     inkscape:zoom="6.4183535"
     inkscape:cx="-80.939761"
     inkscape:cy="19.631203"
     inkscape:window-width="2560"
     inkscape:window-height="1417"
     inkscape:window-x="-8"
     inkscape:window-y="-8"
     inkscape:window-maximized="1"
     inkscape:current-layer="layer1" />
  <g
     inkscape:groupmode="layer"
     id="layer1"
     inkscape:label="Image">
    <g
       transform="matrix(1.2334087,0,0,1.2334087,-0.03433777,19.700004)"
       id="g7876"
       style="stroke-width:0.810761">
      <path
         d="m 10.568,-15.972 c -0.44917,0 -0.81008,0.36091 -0.81008,0.81008 v 4.3333 l -3.064,-3.064 c -0.31761,-0.31761 -0.82862,-0.31761 -1.1462,0 l -3.4405,3.4405 c -0.31761,0.31761 -0.31761,0.82862 0,1.1462 l 3.0621,3.0621 h -4.3314 c -0.44917,0 -0.81008,0.36275 -0.81008,0.81192 v 4.8641 c 0,0.44917 0.36091,0.81008 0.81008,0.81008 h 4.3333 l -3.064,3.064 c -0.31761,0.31761 -0.31761,0.82862 0,1.1462 l 3.4405,3.4405 c 0.31761,0.31761 0.82862,0.31761 1.1462,0 l 3.064,-3.064 v 4.3333 c 0,0.44917 0.36091,0.81008 0.81008,0.81008 h 4.8641 c 0.44917,0 0.81192,-0.36091 0.81192,-0.81008 v -4.3314 l 3.0621,3.0621 c 0.31761,0.31761 0.82862,0.31761 1.1462,0 l 3.4405,-3.4405 c 0.31761,-0.31761 0.31761,-0.82862 0,-1.1462 l -3.064,-3.064 h 4.3333 c 0.44917,0 0.81008,-0.36091 0.81008,-0.81008 v -4.8641 c 0,-0.44917 -0.36091,-0.81192 -0.81008,-0.81192 h -4.3314 l 3.0621,-3.0621 c 0.31761,-0.31761 0.31761,-0.82862 0,-1.1462 l -3.4405,-3.4405 c -0.31761,-0.31761 -0.82862,-0.31761 -1.1462,0 l -3.0621,3.0621 v -4.3314 c 0,-0.44917 -0.36275,-0.81008 -0.81192,-0.81008 z m 2.4321,9.7283 a 3.2431,3.2431 0 0 1 3.244,3.244 3.2431,3.2431 0 0 1 -3.244,3.2422 3.2431,3.2431 0 0 1 -3.2422,-3.2422 3.2431,3.2431 0 0 1 3.2422,-3.244 z"
         id="path7874"
         style="stroke-width:0.810761" />
    </g>
  </g>
</svg>
