<?xml version="1.0" encoding="UTF-8" standalone="no"?>
<svg
   xmlns:dc="http://purl.org/dc/elements/1.1/"
   xmlns:cc="http://creativecommons.org/ns#"
   xmlns:rdf="http://www.w3.org/1999/02/22-rdf-syntax-ns#"
   xmlns:svg="http://www.w3.org/2000/svg"
   xmlns="http://www.w3.org/2000/svg"
   xmlns:sodipodi="http://sodipodi.sourceforge.net/DTD/sodipodi-0.dtd"
   xmlns:inkscape="http://www.inkscape.org/namespaces/inkscape"
   width="32"
   height="32"
   id="svg2985"
   version="1.1"
   inkscape:version="1.0.2 (e86c870879, 2021-01-15)"
   inkscape:export-filename="C:\Documents and Settings\Administrator\Desktop\task.png"
   inkscape:export-xdpi="180"
   inkscape:export-ydpi="180"
   sodipodi:docname="settings.svg">
  <defs
     id="defs2987" />
  <sodipodi:namedview
     id="base"
     pagecolor="#ffffff"
     bordercolor="#666666"
     borderopacity="1.0"
     inkscape:pageopacity="0.0"
     inkscape:pageshadow="2"
     inkscape:zoom="8.6357616"
     inkscape:cx="13.047572"
     inkscape:cy="19.248378"
     inkscape:current-layer="layer1"
     showgrid="true"
     inkscape:grid-bbox="true"
     inkscape:document-units="px"
     inkscape:window-width="1680"
     inkscape:window-height="1027"
     inkscape:window-x="-8"
     inkscape:window-y="-8"
     inkscape:window-maximized="1"
     inkscape:document-rotation="0">
    <inkscape:grid
       type="xygrid"
       id="grid2993"
       empspacing="5"
       visible="true"
       enabled="true"
       snapvisiblegridlinesonly="true"
       spacingx="1"
       spacingy="1"
       originx="0"
       originy="0" />
  </sodipodi:namedview>
  <metadata
     id="metadata2990">
    <rdf:RDF>
      <cc:Work
         rdf:about="">
        <dc:format>image/svg+xml</dc:format>
        <dc:type
           rdf:resource="http://purl.org/dc/dcmitype/StillImage" />
        <dc:title />
      </cc:Work>
    </rdf:RDF>
  </metadata>
  <g
     id="layer1"
     inkscape:label="Layer 1"
     inkscape:groupmode="layer"
     transform="translate(0,16)">
    <path
       id="rect3900"
       style="fill:#000000;fill-opacity:1;stroke:none"
       d="M 13.457031 2.1640625 C 12.979445 2.1640625 12.595703 2.5478044 12.595703 3.0253906 L 12.595703 7.6328125 L 9.3378906 4.375 C 9.0001862 4.0372956 8.456845 4.0372956 8.1191406 4.375 L 4.4609375 8.0332031 C 4.1232331 8.3709075 4.1232331 8.9142487 4.4609375 9.2519531 L 7.7167969 12.507812 L 3.1113281 12.507812 C 2.633742 12.507812 2.25 12.893508 2.25 13.371094 L 2.25 18.542969 C 2.25 19.020555 2.633742 19.404297 3.1113281 19.404297 L 7.71875 19.404297 L 4.4609375 22.662109 C 4.1232331 22.999814 4.1232331 23.543155 4.4609375 23.880859 L 8.1191406 27.539062 C 8.456845 27.876767 9.0001862 27.876767 9.3378906 27.539062 L 12.595703 24.28125 L 12.595703 28.888672 C 12.595703 29.366258 12.979445 29.75 13.457031 29.75 L 18.628906 29.75 C 19.106492 29.75 19.492188 29.366258 19.492188 28.888672 L 19.492188 24.283203 L 22.748047 27.539062 C 23.085751 27.876767 23.629092 27.876767 23.966797 27.539062 L 27.625 23.880859 C 27.962704 23.543155 27.962704 22.999814 27.625 22.662109 L 24.367188 19.404297 L 28.974609 19.404297 C 29.452196 19.404297 29.835938 19.020555 29.835938 18.542969 L 29.835938 13.371094 C 29.835938 12.893508 29.452196 12.507813 28.974609 12.507812 L 24.369141 12.507812 L 27.625 9.2519531 C 27.962704 8.9142487 27.962704 8.3709075 27.625 8.0332031 L 23.966797 4.375 C 23.629092 4.0372956 23.085751 4.0372956 22.748047 4.375 L 19.492188 7.6308594 L 19.492188 3.0253906 C 19.492188 2.5478044 19.106492 2.1640625 18.628906 2.1640625 L 13.457031 2.1640625 z M 16.042969 12.507812 A 3.4482758 3.4482758 0 0 1 19.492188 15.957031 A 3.4482758 3.4482758 0 0 1 16.042969 19.404297 A 3.4482758 3.4482758 0 0 1 12.595703 15.957031 A 3.4482758 3.4482758 0 0 1 16.042969 12.507812 z "
       transform="translate(0,-16)" />
  </g>
</svg>
