<?xml version="1.0" encoding="UTF-8" standalone="no"?>
<svg
   version="1.1"
   width="26"
   height="26"
   viewBox="0 0 26 26"
   id="svg6"
   sodipodi:docname="settings.svg"
   inkscape:version="1.2.2 (732a01da63, 2022-12-09)"
   xmlns:inkscape="http://www.inkscape.org/namespaces/inkscape"
   xmlns:sodipodi="http://sodipodi.sourceforge.net/DTD/sodipodi-0.dtd"
   xmlns="http://www.w3.org/2000/svg"
   xmlns:svg="http://www.w3.org/2000/svg">
  <defs
     id="defs10" />
  <sodipodi:namedview
     id="namedview8"
     pagecolor="#ffffff"
     bordercolor="#666666"
     borderopacity="1.0"
     inkscape:showpageshadow="2"
     inkscape:pageopacity="0.0"
     inkscape:pagecheckerboard="0"
     inkscape:deskcolor="#d1d1d1"
     showgrid="false"
     inkscape:zoom="9.0769231"
     inkscape:cx="-3.3601695"
     inkscape:cy="13"
     inkscape:window-width="2560"
     inkscape:window-height="1417"
     inkscape:window-x="-8"
     inkscape:window-y="-8"
     inkscape:window-maximized="1"
     inkscape:current-layer="svg6" />
  <g
     transform="translate(0,16)"
     id="g4"
     style="fill:#000000">
    <path
       d="m10.568-15.972c-0.44917 0-0.81008 0.36091-0.81008 0.81008v4.3333l-3.064-3.064c-0.31761-0.31761-0.82862-0.31761-1.1462 0l-3.4405 3.4405c-0.31761 0.31761-0.31761 0.82862 0 1.1462l3.0621 3.0621h-4.3314c-0.44917 0-0.81008 0.36275-0.81008 0.81192v4.8641c0 0.44917 0.36091 0.81008 0.81008 0.81008h4.3333l-3.064 3.064c-0.31761 0.31761-0.31761 0.82862 0 1.1462l3.4405 3.4405c0.31761 0.31761 0.82862 0.31761 1.1462 0l3.064-3.064v4.3333c0 0.44917 0.36091 0.81008 0.81008 0.81008h4.8641c0.44917 0 0.81192-0.36091 0.81192-0.81008v-4.3314l3.0621 3.0621c0.31761 0.31761 0.82862 0.31761 1.1462 0l3.4405-3.4405c0.31761-0.31761 0.31761-0.82862 0-1.1462l-3.064-3.064h4.3333c0.44917 0 0.81008-0.36091 0.81008-0.81008v-4.8641c0-0.44917-0.36091-0.81192-0.81008-0.81192h-4.3314l3.0621-3.0621c0.31761-0.31761 0.31761-0.82862 0-1.1462l-3.4405-3.4405c-0.31761-0.31761-0.82862-0.31761-1.1462 0l-3.0621 3.0621v-4.3314c0-0.44917-0.36275-0.81008-0.81192-0.81008zm2.4321 9.7283a3.2431 3.2431 0 0 1 3.244 3.244 3.2431 3.2431 0 0 1-3.244 3.2422 3.2431 3.2431 0 0 1-3.2422-3.2422 3.2431 3.2431 0 0 1 3.2422-3.244z"
       id="path2"
       style="fill:#000000" />
  </g>
</svg>

