<?xml version="1.0" encoding="UTF-8"?>
<svg version="1.1" viewBox="0 0 22 22" xmlns="http://www.w3.org/2000/svg">
 <g transform="matrix(.80942 0 0 .80942 .47752 13.428)" stroke-width="1.2354">
  <path d="m10.568-15.972c-0.44917 0-0.81008 0.36091-0.81008 0.81008v4.3333l-3.064-3.064c-0.31761-0.31761-0.82862-0.31761-1.1462 0l-3.4405 3.4405c-0.31761 0.31761-0.31761 0.82862 0 1.1462l3.0621 3.0621h-4.3314c-0.44917 0-0.81008 0.36275-0.81008 0.81192v4.8641c0 0.44917 0.36091 0.81008 0.81008 0.81008h4.3333l-3.064 3.064c-0.31761 0.31761-0.31761 0.82862 0 1.1462l3.4405 3.4405c0.31761 0.31761 0.82862 0.31761 1.1462 0l3.064-3.064v4.3333c0 0.44917 0.36091 0.81008 0.81008 0.81008h4.8641c0.44917 0 0.81192-0.36091 0.81192-0.81008v-4.3314l3.0621 3.0621c0.31761 0.31761 0.82862 0.31761 1.1462 0l3.4405-3.4405c0.31761-0.31761 0.31761-0.82862 0-1.1462l-3.064-3.064h4.3333c0.44917 0 0.81008-0.36091 0.81008-0.81008v-4.8641c0-0.44917-0.36091-0.81192-0.81008-0.81192h-4.3314l3.0621-3.0621c0.31761-0.31761 0.31761-0.82862 0-1.1462l-3.4405-3.4405c-0.31761-0.31761-0.82862-0.31761-1.1462 0l-3.0621 3.0621v-4.3314c0-0.44917-0.36275-0.81008-0.81192-0.81008zm2.4321 9.7283a3.2431 3.2431 0 0 1 3.244 3.244 3.2431 3.2431 0 0 1-3.244 3.2422 3.2431 3.2431 0 0 1-3.2422-3.2422 3.2431 3.2431 0 0 1 3.2422-3.244z" stroke-width="1.2354"/>
 </g>
</svg>
