<?xml version="1.0" encoding="UTF-8"?>
<svg version="1.1" viewBox="0 0 22 22" xmlns="http://www.w3.org/2000/svg">
 <g transform="matrix(.65401 0 0 .65401 45.033 1.9981)" stroke-width="1.529">
  <g stroke-linecap="round">
   <path d="m-58.735 12.614-2.1631 2.6118" color="#000000" fill="#fff" style="-inkscape-stroke:none"/>
   <path d="m-58.256 12.035a0.75254 0.75254 0 0 0-1.0586 0.09961l-2.1641 2.6113a0.75254 0.75254 0 0 0 0.09961 1.0586 0.75254 0.75254 0 0 0 1.0605-0.09766l2.1621-2.6133a0.75254 0.75254 0 0 0-0.09961-1.0586z" color="#000000" style="-inkscape-stroke:none"/>
   <path d="m-60.899 15.226-3.0666-1.4494" color="#000000" fill="#fff" style="-inkscape-stroke:none"/>
   <path d="m-64.219 13.068a0.75254 0.75254 0 0 0-0.42578 0.38672 0.75254 0.75254 0 0 0 0.35742 1.002l3.0664 1.4492a0.75254 0.75254 0 0 0 1.002-0.35938 0.75254 0.75254 0 0 0-0.35742-1.002l-3.0664-1.4492a0.75254 0.75254 0 0 0-0.57617-0.02734z" color="#000000" style="-inkscape-stroke:none"/>
  </g>
  <path d="m-63.574 1.6348-0.36914 0.65625-0.73047 0.17188 0.20508 0.87891 0.60547-0.14258 0.69336 0.39062 0.73828-1.3125zm2.4551 1.3809-0.73828 1.3105 2.623 1.4766 0.73828-1.3125zm-1.5391 1.4473-1.4648 0.3457 0.68945 2.9297 1.4648-0.3457zm5.4746 0.76562-0.73828 1.3125 2.623 1.4746 0.73828-1.3105zm3.9336 2.2129-0.73633 1.3125 2.623 1.4766 0.73828-1.3125zm-8.373 1.416-1.4668 0.3457 0.68945 2.9297 1.4668-0.34375zm12.309 0.79883-0.73633 1.3105 2.623 1.4766 0.73828-1.3125zm3.9355 2.2129-0.73633 1.3125 2.623 1.4746 0.73828-1.3105zm-15.211 1.3848-1.4648 0.34375 0.68945 2.9297 1.4648-0.34375zm19.146 0.82812-0.73633 1.3125 0.65625 0.36914 0.57031 1.0859 1.0664-0.55859a0.75262 0.75262 0 0 0 0.01758-1.3223zm-1.541 2.1348-2.666 1.4004 0.69922 1.332 2.666-1.3984zm-16.57 1.4316-1.4648 0.3457 0.68945 2.9297 1.4648-0.3457zm12.572 0.66797-2.666 1.4004 0.70117 1.332 2.6641-1.4004zm-3.998 2.0996-2.6641 1.4004 0.69922 1.332 2.6641-1.4004zm-7.541 1.627-1.4648 0.3457 0.68945 2.9297 1.4648-0.34375zm3.543 0.47266-2.6641 1.3984 0.69922 1.334 2.666-1.4004z" color="#000000" stroke-dasharray="4.58707, 2.29353" stroke-dashoffset="3.211" stroke-linejoin="round" style="-inkscape-stroke:none"/>
  <g stroke-linecap="round">
   <path d="m-51.752 18.667 3.0884 1.4017" color="#000000" fill="#fff" style="-inkscape-stroke:none"/>
   <path d="m-52.016 17.963a0.75254 0.75254 0 0 0-0.42188 0.39258 0.75254 0.75254 0 0 0 0.375 0.99609l3.0879 1.4023a0.75254 0.75254 0 0 0 0.99609-0.37305 0.75254 0.75254 0 0 0-0.37305-0.99805l-3.0898-1.4004a0.75254 0.75254 0 0 0-0.57422-0.01953z" color="#000000" style="-inkscape-stroke:none"/>
   <path d="m-48.663 20.069-0.59531 3.3383" color="#000000" fill="#fff" style="-inkscape-stroke:none"/>
   <path d="m-48.531 19.328a0.75254 0.75254 0 0 0-0.87305 0.60938l-0.5957 3.3379a0.75254 0.75254 0 0 0 0.60938 0.87305 0.75254 0.75254 0 0 0 0.87305-0.60938l0.5957-3.3379a0.75254 0.75254 0 0 0-0.60938-0.87305z" color="#000000" style="-inkscape-stroke:none"/>
   <path d="m-51.559 12.307-0.53039-3.3491" color="#000000" fill="#fff" style="-inkscape-stroke:none"/>
   <path d="m-52.207 8.2148a0.75254 0.75254 0 0 0-0.625 0.86133l0.5293 3.3477a0.75254 0.75254 0 0 0 0.86133 0.62695 0.75254 0.75254 0 0 0 0.625-0.86133l-0.5293-3.3496a0.75254 0.75254 0 0 0-0.86133-0.625z" color="#000000" style="-inkscape-stroke:none"/>
   <path d="m-52.09 8.9578 3.1151-1.3419" color="#000000" fill="#fff" style="-inkscape-stroke:none"/>
   <path d="m-49.271 6.9238-3.1152 1.3438a0.75254 0.75254 0 0 0-0.39453 0.98828 0.75254 0.75254 0 0 0 0.99023 0.39258l3.1133-1.3418a0.75254 0.75254 0 0 0 0.39453-0.98828 0.75254 0.75254 0 0 0-0.98828-0.39453z" color="#000000" style="-inkscape-stroke:none"/>
  </g>
  <g transform="matrix(.28202 .95941 -.96159 .27448 0 0)" stroke-linecap="round" stroke-linejoin="round">
   <path d="m11.923 63.235a3.7091 3.6909 0 0 1-3.7091 3.6909 3.7091 3.6909 0 0 1-3.7091-3.6909 3.7091 3.6909 0 0 1 3.7091-3.6909 3.7091 3.6909 0 0 1 3.7091 3.6909z" color="#000000" style="-inkscape-stroke:none"/>
   <path d="m8.2129 59.043c-2.3183 0-4.2109 1.8825-4.2109 4.1934s1.8926 4.1914 4.2109 4.1914c2.3183 1e-6 4.2109-1.8805 4.2109-4.1914 0-2.3109-1.8926-4.1934-4.2109-4.1934zm0 1.0039c1.7787 0 3.209 1.4235 3.209 3.1895 0 1.7659-1.4303 3.1875-3.209 3.1875-1.7787 0-3.207-1.4216-3.207-3.1875 2e-7 -1.7659 1.4283-3.1895 3.207-3.1895z" color="#000000" style="-inkscape-stroke:none"/>
   <path d="m-11.625 61.944a3.7091 3.6909 0 0 1-3.7091 3.6909 3.7091 3.6909 0 0 1-3.7091-3.6909 3.7091 3.6909 0 0 1 3.7091-3.6909 3.7091 3.6909 0 0 1 3.7091 3.6909z" color="#000000" style="-inkscape-stroke:none"/>
   <path d="m-15.334 57.752c-2.3183 0-4.2109 1.8825-4.2109 4.1934 0 2.3109 1.8926 4.1914 4.2109 4.1914 2.3183 0 4.2109-1.8805 4.2109-4.1914 0-2.3109-1.8926-4.1934-4.2109-4.1934zm0 1.0039c1.7787 0 3.207 1.4235 3.207 3.1895 0 1.7659-1.4283 3.1875-3.207 3.1875-1.7787 1e-6 -3.207-1.4216-3.207-3.1875 0-1.7659 1.4283-3.1895 3.207-3.1895z" color="#000000" style="-inkscape-stroke:none"/>
  </g>
  <g transform="matrix(.28187 .95945 -.96155 .27462 0 0)" stroke-linecap="round" stroke-linejoin="round">
   <path d="m7.6985 42.962a3.7099 3.6899 0 0 1-3.7099 3.6899 3.7099 3.6899 0 0 1-3.7099-3.6899 3.7099 3.6899 0 0 1 3.7099-3.6899 3.7099 3.6899 0 0 1 3.7099 3.6899z" color="#000000" style="-inkscape-stroke:none"/>
   <path d="m3.9883 38.77c-2.3186 0-4.2109 1.8809-4.2109 4.1914 1.3e-7 2.3105 1.8923 4.1934 4.2109 4.1934 2.3186 0 4.2129-1.8829 4.2129-4.1934-2e-7 -2.3105-1.8943-4.1914-4.2129-4.1914zm0 1.0039c1.7792 0 3.209 1.4222 3.209 3.1875-1e-7 1.7653-1.4297 3.1895-3.209 3.1895-1.7792 0-3.207-1.4242-3.207-3.1895 1e-7 -1.7653 1.4278-3.1875 3.207-3.1875z" color="#000000" style="-inkscape-stroke:none"/>
  </g>
 </g>
</svg>
