<?xml version="1.0" encoding="UTF-8"?>
<svg version="1.1" width="26" height="26" viewBox="0 0 26 26" xmlns="http://www.w3.org/2000/svg">
 <g transform="matrix(1.0364 0 0 1.0364 -.47293 16.11)" stroke-width=".96489">
  <g transform="matrix(.81 0 0 .81 33.72 11.314)" stroke-width="1.1912">
   <path d="m-37.496-30.664a3.6983 3.6359 73.512 0 0-0.94531 0.14063 3.6983 3.6359 73.512 0 0-2.4629 4.5625 3.6983 3.6359 73.512 0 0 3.8809 2.666l0.28906 1 1.248-0.36328-0.28906-1a3.6983 3.6359 73.512 0 0 1.1992-0.97265l1.166 0.65624 0.63672-1.1328-1.1855-0.66797a3.6983 3.6359 73.512 0 0 0.03906-2.207 3.6983 3.6359 73.512 0 0-3.5762-2.6816zm5.8555 6.1934-0.63672 1.1328 2.2656 1.2754 0.63867-1.1328zm7.3613 1.1621a0.65012 0.64988 1.8037e-4 0 0-0.26953 0.0527l-2.791 1.2032-0.90039-0.50586-0.63867 1.1328 0.88086 0.4961 0.48438 3.0547a0.65012 0.64988 1.8037e-4 0 0 0.32812 0.4668 0.65012 0.64988 1.8037e-4 0 0 0.41602 0.0742 0.65012 0.64988 1.8037e-4 0 0 0.53906-0.74414l-0.33789-2.1465 0.54883-0.98242 1.9844-0.85351a0.65012 0.64988 1.8037e-4 0 0 0.3418-0.85547 0.65012 0.64988 1.8037e-4 0 0-0.58594-0.39258zm-10.844 1.9004-1.25 0.36133 0.72461 2.498 1.248-0.36329zm10.281 0.76172-0.63672 1.1328 2.2656 1.2734 0.63672-1.1328zm-7.2773 1.6777a0.65012 0.64988 5.3162e-4 0 0-0.52734 0.26758l-1.2109 1.666-0.18164-0.62696-1.248 0.36133 0.18164 0.625-1.9121-0.75976a0.65012 0.64988 5.3162e-4 0 0-0.84375 0.36328 0.65012 0.64988 5.3162e-4 0 0 0.36133 0.84375l2.8535 1.1348 0.08398 0.28907 0.43945-0.12696a0.65012 0.64988 5.3162e-4 0 0 0.0098 0 0.65012 0.64988 5.3162e-4 0 0 0.04102-2e-3 0.65012 0.64988 5.3162e-4 0 0 0.04102-2e-3 0.65012 0.64988 5.3162e-4 0 0 0.01367-2e-3 0.65012 0.64988 5.3162e-4 0 0 0.03906-8e-3 0.65012 0.64988 5.3162e-4 0 0 0.02734-6e-3 0.65012 0.64988 5.3162e-4 0 0 0.01367-4e-3 0.65012 0.64988 5.3162e-4 0 0 0.03906-0.0117 0.65012 0.64988 5.3162e-4 0 0 0.01172-4e-3 0.65012 0.64988 5.3162e-4 0 0 0.03711-0.0156 0.65012 0.64988 5.3162e-4 0 0 0.02539-0.0117 0.65012 0.64988 5.3162e-4 0 0 0.0078-4e-3 0.65012 0.64988 5.3162e-4 0 0 0.05078-0.0293 0.65012 0.64988 5.3162e-4 0 0 0.01172-8e-3l0.43945-0.12695-0.08398-0.29102 1.8027-2.4805a0.65012 0.64988 5.3162e-4 0 0 0.09766-0.5625 0.65012 0.64988 5.3162e-4 0 0-0.24023-0.3457 0.65012 0.64988 5.3162e-4 0 0-0.38086-0.12305zm10.676 0.23438-0.63672 1.1328 2.2656 1.2734 0.63867-1.1328zm7.6094 1.3789a3.6983 3.6359 73.512 0 0-0.94531 0.14062 3.6983 3.6359 73.512 0 0-1.8066 1.2109l-1.457-0.81836-0.63672 1.1328 1.4746 0.82813a3.6983 3.6359 73.512 0 0-0.16406 1.5703l-1.4688 0.42578 0.36133 1.248 1.4707-0.42578a3.6983 3.6359 73.512 0 0 4.2852 1.9316 3.6983 3.6359 73.512 0 0 2.4629-4.5625 3.6983 3.6359 73.512 0 0-3.5762-2.6816zm-19.119 3.4375-1.248 0.36328 0.54102 1.8691a3.6983 3.6359 73.512 0 0-1.8555 4.3262 3.6983 3.6359 73.512 0 0 4.5215 2.5391 3.6983 3.6359 73.512 0 0 2.5898-3.9219l1.1875-0.34375-0.36133-1.25-1.1875 0.34375a3.6983 3.6359 73.512 0 0-3.6445-2.0547zm7.3301 0.26171a0.65012 0.64988 5.3162e-4 0 0-0.18359 0.0254 0.65012 0.64988 5.3162e-4 0 0-0.3457 0.24218 0.65012 0.64988 5.3162e-4 0 0 0.14453 0.90821l1.6641 1.209-1.9863 0.57422 0.36133 1.25 1.9883-0.57617-0.75977 1.9102a0.65012 0.64988 5.3162e-4 0 0 0.36133 0.84571 0.65012 0.64988 5.3162e-4 0 0 0.8457-0.36328l1.2441-3.1289 0.06641 0.22656 2.498-0.72265-0.36133-1.248-2.498 0.72265 0.06641 0.22852-0.0059-4e-3 -2.7207-1.9746a0.65012 0.64988 5.3162e-4 0 0-0.37891-0.125z" color="#000000" color-rendering="auto" dominant-baseline="auto" image-rendering="auto" shape-rendering="auto" solid-color="#000000" stop-color="#000000" stroke-width="1.1679" style="font-feature-settings:normal;font-variant-alternates:normal;font-variant-caps:normal;font-variant-east-asian:normal;font-variant-ligatures:normal;font-variant-numeric:normal;font-variant-position:normal;font-variation-settings:normal;inline-size:0;isolation:auto;mix-blend-mode:normal;shape-margin:0;shape-padding:0;text-decoration-color:#000000;text-decoration-line:none;text-decoration-style:solid;text-indent:0;text-orientation:mixed;text-transform:none;white-space:normal"/>
  </g>
 </g>
</svg>
