<?xml version="1.0" encoding="UTF-8" standalone="no"?>
<svg
   xmlns:dc="http://purl.org/dc/elements/1.1/"
   xmlns:cc="http://creativecommons.org/ns#"
   xmlns:rdf="http://www.w3.org/1999/02/22-rdf-syntax-ns#"
   xmlns:svg="http://www.w3.org/2000/svg"
   xmlns="http://www.w3.org/2000/svg"
   xmlns:sodipodi="http://sodipodi.sourceforge.net/DTD/sodipodi-0.dtd"
   xmlns:inkscape="http://www.inkscape.org/namespaces/inkscape"
   width="32"
   height="32"
   id="svg2985"
   version="1.1"
   inkscape:version="1.0.2 (e86c870879, 2021-01-15)"
   inkscape:export-filename="C:\Documents and Settings\Administrator\Desktop\task.png"
   inkscape:export-xdpi="180"
   inkscape:export-ydpi="180"
   sodipodi:docname="task.svg">
  <defs
     id="defs2987" />
  <sodipodi:namedview
     id="base"
     pagecolor="#ffffff"
     bordercolor="#666666"
     borderopacity="1.0"
     inkscape:pageopacity="0.0"
     inkscape:pageshadow="2"
     inkscape:zoom="5.9810401"
     inkscape:cx="-7.0192273"
     inkscape:cy="-1.3371299"
     inkscape:current-layer="layer1"
     showgrid="true"
     inkscape:grid-bbox="true"
     inkscape:document-units="px"
     inkscape:window-width="1680"
     inkscape:window-height="1027"
     inkscape:window-x="-8"
     inkscape:window-y="-8"
     inkscape:window-maximized="1"
     inkscape:document-rotation="0"
     inkscape:snap-global="false">
    <inkscape:grid
       type="xygrid"
       id="grid2993"
       empspacing="5"
       visible="true"
       enabled="true"
       snapvisiblegridlinesonly="true" />
  </sodipodi:namedview>
  <metadata
     id="metadata2990">
    <rdf:RDF>
      <cc:Work
         rdf:about="">
        <dc:format>image/svg+xml</dc:format>
        <dc:type
           rdf:resource="http://purl.org/dc/dcmitype/StillImage" />
        <dc:title />
      </cc:Work>
    </rdf:RDF>
  </metadata>
  <g
     id="layer1"
     inkscape:label="Layer 1"
     inkscape:groupmode="layer"
     transform="translate(0,16)">
    <g
       id="g858"
       transform="translate(41.580835,17.671949)">
      <path
         id="path1830"
         style="color:#000000;font-style:normal;font-variant:normal;font-weight:normal;font-stretch:normal;font-size:medium;line-height:normal;font-family:sans-serif;font-variant-ligatures:normal;font-variant-position:normal;font-variant-caps:normal;font-variant-numeric:normal;font-variant-alternates:normal;font-variant-east-asian:normal;font-feature-settings:normal;font-variation-settings:normal;text-indent:0;text-align:start;text-decoration:none;text-decoration-line:none;text-decoration-style:solid;text-decoration-color:#000000;letter-spacing:normal;word-spacing:normal;text-transform:none;writing-mode:lr-tb;direction:ltr;text-orientation:mixed;dominant-baseline:auto;baseline-shift:baseline;text-anchor:start;white-space:normal;shape-padding:0;shape-margin:0;inline-size:0;clip-rule:nonzero;display:inline;overflow:visible;visibility:visible;isolation:auto;mix-blend-mode:normal;color-interpolation:sRGB;color-interpolation-filters:linearRGB;solid-color:#000000;solid-opacity:1;vector-effect:none;fill:#000000;fill-opacity:1;fill-rule:nonzero;stroke:none;stroke-width:1.3;stroke-linecap:round;stroke-linejoin:miter;stroke-miterlimit:4;stroke-dasharray:none;stroke-dashoffset:0;stroke-opacity:1;color-rendering:auto;image-rendering:auto;shape-rendering:auto;text-rendering:auto;enable-background:accumulate;stop-color:#000000"
         d="m -37.495874,-30.66426 a 3.698287,3.6358652 73.512212 0 0 -0.945312,0.14063 3.698287,3.6358652 73.512212 0 0 -2.462891,4.5625 3.698287,3.6358652 73.512212 0 0 3.880859,2.66601 l 0.289063,1 1.248047,-0.36328 -0.289063,-1 a 3.698287,3.6358652 73.512212 0 0 1.199219,-0.97265 l 1.166016,0.65624 0.636718,-1.13281 -1.185547,-0.66797 a 3.698287,3.6358652 73.512212 0 0 0.03906,-2.20703 3.698287,3.6358652 73.512212 0 0 -3.576172,-2.68164 z m 5.855469,6.19336 -0.636719,1.13281 2.265625,1.27539 0.638672,-1.13281 z m 7.361328,1.16211 a 0.65012188,0.64988111 1.8037114e-4 0 0 -0.269531,0.0527 l -2.791016,1.20316 -0.900391,-0.50586 -0.638671,1.13281 0.880859,0.4961 0.484375,3.05468 a 0.65012188,0.64988111 1.8037114e-4 0 0 0.328125,0.4668 0.65012188,0.64988111 1.8037114e-4 0 0 0.416015,0.0742 0.65012188,0.64988111 1.8037114e-4 0 0 0.539063,-0.74414 l -0.337891,-2.14649 0.548828,-0.98242 1.984376,-0.85351 a 0.65012188,0.64988111 1.8037114e-4 0 0 0.341796,-0.85547 0.65012188,0.64988111 1.8037114e-4 0 0 -0.585937,-0.39258 z m -10.84375,1.90039 -1.25,0.36133 0.724609,2.49805 1.248047,-0.36329 z m 10.28125,0.76172 -0.636719,1.13281 2.265625,1.27344 0.636719,-1.13281 z m -7.277344,1.67773 a 0.65012188,0.64988111 5.3161671e-4 0 0 -0.527344,0.26758 l -1.210937,1.66602 -0.181641,-0.62696 -1.248047,0.36133 0.181641,0.625 -1.912109,-0.75976 a 0.65012188,0.64988111 5.3161671e-4 0 0 -0.84375,0.36328 0.65012188,0.64988111 5.3161671e-4 0 0 0.361328,0.84375 l 2.853515,1.13476 0.08398,0.28907 0.439454,-0.12696 a 0.65012188,0.64988111 5.3161671e-4 0 0 0.0098,0 0.65012188,0.64988111 5.3161671e-4 0 0 0.04102,-0.002 0.65012188,0.64988111 5.3161671e-4 0 0 0.04102,-0.002 0.65012188,0.64988111 5.3161671e-4 0 0 0.01367,-0.002 0.65012188,0.64988111 5.3161671e-4 0 0 0.03906,-0.008 0.65012188,0.64988111 5.3161671e-4 0 0 0.02734,-0.006 0.65012188,0.64988111 5.3161671e-4 0 0 0.01367,-0.004 0.65012188,0.64988111 5.3161671e-4 0 0 0.03906,-0.0117 0.65012188,0.64988111 5.3161671e-4 0 0 0.01172,-0.004 0.65012188,0.64988111 5.3161671e-4 0 0 0.03711,-0.0156 0.65012188,0.64988111 5.3161671e-4 0 0 0.02539,-0.0117 0.65012188,0.64988111 5.3161671e-4 0 0 0.0078,-0.004 0.65012188,0.64988111 5.3161671e-4 0 0 0.05078,-0.0293 0.65012188,0.64988111 5.3161671e-4 0 0 0.01172,-0.008 l 0.439453,-0.12695 -0.08398,-0.29102 1.802734,-2.48047 a 0.65012188,0.64988111 5.3161671e-4 0 0 0.09766,-0.5625 0.65012188,0.64988111 5.3161671e-4 0 0 -0.240234,-0.3457 0.65012188,0.64988111 5.3161671e-4 0 0 -0.38086,-0.12305 z m 10.675781,0.23438 -0.636718,1.13281 2.265625,1.27344 0.638671,-1.13281 z m 7.609375,1.37891 a 3.698287,3.6358652 73.512212 0 0 -0.945312,0.14062 3.698287,3.6358652 73.512212 0 0 -1.806641,1.21094 l -1.457031,-0.81836 -0.636719,1.13281 1.47461,0.82813 a 3.698287,3.6358652 73.512212 0 0 -0.164063,1.57031 l -1.46875,0.42578 0.361328,1.24805 1.470703,-0.42578 a 3.698287,3.6358652 73.512212 0 0 4.285157,1.93164 3.698287,3.6358652 73.512212 0 0 2.46289,-4.5625 3.698287,3.6358652 73.512212 0 0 -3.576172,-2.68164 z m -19.11914,3.4375 -1.248047,0.36328 0.541016,1.86914 a 3.698287,3.6358652 73.512212 0 0 -1.855469,4.32617 3.698287,3.6358652 73.512212 0 0 4.521484,2.53906 3.698287,3.6358652 73.512212 0 0 2.589844,-3.92187 l 1.1875,-0.34375 -0.361328,-1.25 -1.1875,0.34375 a 3.698287,3.6358652 73.512212 0 0 -3.644531,-2.05469 z m 7.330078,0.26171 a 0.65012188,0.64988111 5.3161671e-4 0 0 -0.183594,0.0254 0.65012188,0.64988111 5.3161671e-4 0 0 -0.345703,0.24218 0.65012188,0.64988111 5.3161671e-4 0 0 0.144531,0.90821 l 1.664063,1.20898 -1.986328,0.57422 0.361328,1.25 1.988281,-0.57617 -0.759766,1.91015 a 0.65012188,0.64988111 5.3161671e-4 0 0 0.361329,0.84571 0.65012188,0.64988111 5.3161671e-4 0 0 0.845703,-0.36328 l 1.24414,-3.12891 0.06641,0.22656 2.498046,-0.72265 -0.361328,-1.24805 -2.498047,0.72265 0.06641,0.22852 -0.0059,-0.004 -2.720703,-1.97461 a 0.65012188,0.64988111 5.3161671e-4 0 0 -0.378906,-0.125 z" />
    </g>
  </g>
</svg>
