<?xml version="1.0" encoding="UTF-8"?>
<svg version="1.1" viewBox="0 0 22 22" xmlns="http://www.w3.org/2000/svg">
 <g transform="translate(-38.631 -443.17)">
  <g transform="matrix(.65401 0 0 .65401 83.665 445.17)">
   <g fill="#fff" stroke="#000" stroke-linecap="square" stroke-width="2.3116">
    <path d="m-58.735 12.614-2.1631 2.6118" color="#000000"/>
    <path d="m-60.899 15.226-3.0666-1.4494" color="#000000"/>
   </g>
   <path d="m-64.034-1.9086c-0.34624 0.0085521-0.69504 0.062156-1.0422 0.16126-2.2221 0.6343-3.4968 2.9661-2.843 5.1903 0.55368 1.8836 2.3158 3.1047 4.1929 3.0491l0.29267 1.2453 1.4663-0.34343-0.28669-1.2184c0.63503-0.26208 1.1753-0.67105 1.5947-1.1736l1.4245 0.80035 0.74062-1.311-1.4245-0.80035c0.27582-0.79488 0.31541-1.6806 0.059727-2.5504-0.55165-1.8767-2.3052-3.0953-4.175-3.0491zm6.8508 7.1375-0.73764 1.311 2.622 1.4753 0.73764-1.311-2.622-1.4753zm3.9331 2.2129-0.73465 1.311 2.622 1.4783 0.73764-1.314-2.625-1.4753zm-8.3708 1.4155-1.4693 0.34642 0.68986 2.9296 1.4663-0.34343-0.68687-2.9326zm12.307 0.80035-0.73465 1.308 2.622 1.4783 0.73764-1.314-2.625-1.4723zm8.986 1.7679c-0.34611 0.008576-0.6981 0.059136-1.0452 0.15828-0.84866 0.24238-1.5575 0.73347-2.0755 1.3708l-1.9292-1.0841-0.73764 1.311 1.9441 1.093c-0.26049 0.78206-0.29503 1.6508-0.044795 2.5026 0.007402 0.025196 0.016057 0.049702 0.023891 0.07466l-1.4574 0.76451 0.69881 1.3319 1.4574-0.76451c1.032 1.3228 2.8005 1.9689 4.4975 1.4842 2.2217-0.63451 3.4936-2.9687 2.8401-5.1933-0.55143-1.877-2.303-3.0954-4.172-3.0491zm-20.26 1.8277-1.4663 0.34343 0.68986 2.9296 1.4633-0.34343-0.68687-2.9296zm1.0333 4.396-1.4633 0.34642 0.68986 2.9296 1.4633-0.34642-0.68986-2.9296zm12.573 0.66596-2.6668 1.4006 0.7018 1.3319 2.6639-1.4006-0.69881-1.3319zm-3.9988 2.1024-2.6639 1.3976 0.69881 1.3319 2.6639-1.3976-0.69881-1.3319zm-7.6541 0.61818c-0.34624 0.008552-0.69803 0.062156-1.0452 0.16126-2.2221 0.6343-3.4939 2.9661-2.8401 5.1903s2.9951 3.5221 5.2172 2.8878 3.4968-2.9661 2.843-5.1903c-0.011866-0.040365-0.025855-0.079706-0.038823-0.11946l0.22099-0.11647-0.7018-1.3319-0.23294 0.12244c-0.82207-1.0276-2.0931-1.6365-3.4224-1.6037z" stroke-dasharray="4.59438, 2.29718" stroke-dashoffset="3.2161" stroke-width="1.5314"/>
   <g fill="#fff" stroke="#000" stroke-linecap="square" stroke-width="2.3116">
    <path d="m-51.752 18.667 3.0884 1.4017" color="#000000"/>
    <path d="m-48.663 20.069-0.59531 3.3383" color="#000000"/>
    <path d="m-51.559 12.307-0.53039-3.3491" color="#000000"/>
    <path d="m-52.09 8.9578 3.1151-1.3419" color="#000000"/>
   </g>
  </g>
 </g>
</svg>
