<?xml version="1.0" encoding="UTF-8"?>
<svg version="1.1" viewBox="0 0 22 22" xmlns="http://www.w3.org/2000/svg">
 <g transform="matrix(.65401 0 0 .65401 45.033 1.9996)" stroke-linecap="round" stroke-width="1.529">
  <path d="m-64.033-1.9099c-0.34623 0.00917-0.69504 0.06223-1.0422 0.16126-2.2221 0.63429-3.4968 2.9661-2.843 5.1903 0.55368 1.8836 2.3158 3.1047 4.1929 3.0491l0.29267 1.2453 1.4663-0.34343-0.28669-1.2184c0.63502-0.26208 1.1753-0.67106 1.5947-1.1736l1.4245 0.80035 0.74062-1.311-1.4245-0.80035c0.27579-0.79488 0.31535-1.6806 0.05973-2.5504-0.55164-1.8766-2.3053-3.0953-4.175-3.0491zm6.8508 7.1375-0.73764 1.311 2.622 1.4753 0.73764-1.311zm8.6247 0.77646-4.1003 1.7679-0.5913-0.33149-0.73465 1.311 0.56741 0.31954 0.70777 4.4646 2.2846-0.36135-0.5704-3.5986v-0.00299h3e-3l3.3477-1.4454zm-13.062 2.852-1.4693 0.34642 0.68985 2.9296 1.4663-0.34344zm12.307 0.80035-0.73465 1.308 2.622 1.4783 0.73764-1.314zm-9.6789 0.95863-2.3294 2.8102h-3e-3l-3.297-1.5619-0.98551 2.0905 4.0943 1.9382 0.14932 0.63311 1.4633-0.34344-0.15529-0.65999 2.843-3.4314zm18.665 0.80931c-0.34611 0.0092-0.6981 0.05917-1.0452 0.15828-0.84867 0.24238-1.5575 0.73347-2.0755 1.3708l-1.9292-1.0841-0.73764 1.311 1.9441 1.093c-0.2605 0.78207-0.29502 1.6508-0.0448 2.5026 0.0076 0.02523 0.01609 0.04974 0.02389 0.07466l-1.4574 0.76452 0.69881 1.3319 1.4574-0.76451c1.032 1.3228 2.8005 1.9689 4.4975 1.4842 2.2217-0.63452 3.4936-2.9687 2.8401-5.1933-0.55143-1.877-2.303-3.0954-4.172-3.0491zm-11.348 5.3367-0.95564 2.1054 3.3238 1.5081-0.63909 3.5926 2.2756 0.40615 0.78243-4.4079 0.60624-0.31954-0.69881-1.3319-0.5913 0.31058zm-7.8781 0.88696-1.4633 0.34642 0.68986 2.9296 1.4633-0.34642zm8.5739 2.7684-2.6639 1.3976 0.69881 1.3319 2.6639-1.3976zm-7.6541 0.61818c-0.34623 0.0092-0.69805 0.06223-1.0452 0.16126-2.2221 0.63429-3.4939 2.9661-2.8401 5.1903 0.6538 2.2242 2.9951 3.5221 5.2172 2.8878 2.2221-0.63426 3.4968-2.9661 2.843-5.1903-0.01223-0.04037-0.02583-0.0797-0.03882-0.11946l0.22099-0.11647-0.7018-1.3319-0.23294 0.12244c-0.82207-1.0276-2.0931-1.6365-3.4224-1.6037z" color="#000000" stroke-linecap="square" style="-inkscape-stroke:none"/>
 </g>
</svg>
