<?xml version="1.0" encoding="UTF-8" standalone="no"?>
<svg
   version="1.1"
   viewBox="0 0 28 28"
   xml:space="preserve"
   id="svg8"
   sodipodi:docname="5AcftTypeDropPlane.svg"
   inkscape:version="1.2.2 (732a01da63, 2022-12-09)"
   xmlns:inkscape="http://www.inkscape.org/namespaces/inkscape"
   xmlns:sodipodi="http://sodipodi.sourceforge.net/DTD/sodipodi-0.dtd"
   xmlns="http://www.w3.org/2000/svg"
   xmlns:svg="http://www.w3.org/2000/svg"><defs
     id="defs12" /><sodipodi:namedview
     id="namedview10"
     pagecolor="#ff00ff"
     bordercolor="#666666"
     borderopacity="1.0"
     inkscape:showpageshadow="2"
     inkscape:pageopacity="0"
     inkscape:pagecheckerboard="0"
     inkscape:deskcolor="#d1d1d1"
     showgrid="false"
     inkscape:zoom="8.4285714"
     inkscape:cx="22.186441"
     inkscape:cy="-36.542373"
     inkscape:window-width="2560"
     inkscape:window-height="1417"
     inkscape:window-x="-8"
     inkscape:window-y="-8"
     inkscape:window-maximized="1"
     inkscape:current-layer="svg8" /><g
     id="g8550"
     transform="matrix(0.81,0,0,0.81,124.88638,-242.91793)"
     style="stroke-width:1.23457"><path
       style="color:#000000;fill:#ffffff;stroke-width:1.23457;stroke-linecap:round;stroke-linejoin:round;stroke-miterlimit:3;stroke-dashoffset:2.1;-inkscape-stroke:none;paint-order:stroke markers fill"
       d="m -132.16272,331.4896 c -1.2705,0 -2.46611,0.97677 -2.46611,2.33714 0,1.36031 1.19561,2.3371 2.46611,2.3371 1.2705,0 2.46609,-0.97679 2.46609,-2.3371 0,-1.36037 -1.19559,-2.33714 -2.46609,-2.33714 z"
       id="path8468"
       sodipodi:nodetypes="sssss"
       transform="translate(0,-13)" /><path
       style="color:#000000;fill:none;stroke:#000000;stroke-width:1.23457;stroke-linecap:round;stroke-linejoin:round;stroke-miterlimit:3;stroke-dashoffset:2.1;-inkscape-stroke:none;paint-order:stroke markers fill"
       d="m -130.9636,333.82658 c 0,-0.65674 -0.53672,-1.18915 -1.19881,-1.18915 -0.66211,0 -1.19882,0.53241 -1.19882,1.18915 0,0.65673 0.53671,1.18911 1.19882,1.18911 0.66209,0 1.19881,-0.53238 1.19881,-1.18911 z"
       id="path8470"
       transform="translate(0,-13)" /><path
       style="color:#000000;fill:#ffffff;stroke-width:1.23457;stroke-linecap:round;stroke-linejoin:round;stroke-miterlimit:3;stroke-dashoffset:2.1;-inkscape-stroke:none;paint-order:stroke markers fill"
       d="m -128.926,336.15755 c -1.60575,0 -2.93475,1.32901 -2.93475,2.93478 0,1.60578 1.329,2.93793 2.93475,2.93793 1.60579,0 2.9348,-1.33215 2.9348,-2.93793 0,-1.60577 -1.32901,-2.93478 -2.9348,-2.93478 z"
       id="path8472"
       sodipodi:nodetypes="sssss"
       transform="translate(0,-13)" /><path
       style="color:#000000;fill:none;stroke:#000000;stroke-width:1.23457;stroke-linecap:round;stroke-linejoin:round;stroke-miterlimit:3;stroke-dashoffset:2.1;-inkscape-stroke:none;paint-order:stroke markers fill"
       d="m -127.54467,339.09376 c 0,-0.76317 -0.61866,-1.38187 -1.38185,-1.38187 -0.7632,0 -1.38186,0.61869 -1.38186,1.38187 0,0.76318 0.61866,1.38185 1.38186,1.38185 0.76319,0 1.38185,-0.61867 1.38185,-1.38185 z"
       id="path8474"
       transform="translate(0,-13)" /><path
       id="path8532"
       style="color:#000000;fill:#ffffff;stroke-width:1.23457;stroke-linecap:round;stroke-linejoin:round;-inkscape-stroke:none"
       d="m -138.94135,305.335 a 1.9328053,1.9328053 0 0 0 -1.91563,2.18928 l 0.0723,0.52847 h -5.08316 a 1.932612,1.932612 0 0 0 -1.9345,1.93132 1.932612,1.932612 0 0 0 1.9345,1.93136 h 5.60218 l 0.40577,3.00083 h -0.23277 a 1.932612,1.932612 0 0 0 -1.93135,1.93452 1.932612,1.932612 0 0 0 1.93135,1.93135 h 4.72144 a 1.932612,1.932612 0 0 0 1.93136,-1.93135 1.932612,1.932612 0 0 0 -1.93136,-1.93452 h -0.23589 l 0.40574,-3.00083 h 5.60534 a 1.932612,1.932612 0 0 0 1.93137,-1.93136 1.932612,1.932612 0 0 0 -1.93137,-1.93132 h -5.0863 l 0.0723,-0.52847 a 1.9328053,1.9328053 0 0 0 -1.91565,-2.18928 z" /><path
       id="path8534"
       style="color:#000000;fill:none;stroke:#000000;stroke-width:1.23457;stroke-linecap:round;stroke-linejoin:round;-inkscape-stroke:none"
       d="m -138.94135,306.6215 c -0.38978,10e-6 -0.69026,0.34345 -0.63853,0.72979 l 0.24533,1.82754 h -6.53324 c -0.44473,0 -0.80525,0.36052 -0.80525,0.80525 0,0.44473 0.36052,0.80526 0.80525,0.80526 h 6.75029 l 0.7109,5.25618 h -1.68601 c -0.44471,0 -0.80526,0.36054 -0.80526,0.80526 0,0.44471 0.36055,0.80525 0.80526,0.80525 h 4.72145 c 0.44472,0 0.80525,-0.36054 0.80525,-0.80525 0,-0.44472 -0.36053,-0.80526 -0.80525,-0.80526 h -1.68916 l 0.71089,-5.25618 h 6.75343 c 0.44475,0 0.80526,-0.36053 0.80526,-0.80526 0,-0.44473 -0.36051,-0.80525 -0.80526,-0.80525 h -6.53637 l 0.24534,-1.82754 c 0.0517,-0.38634 -0.24878,-0.72978 -0.63856,-0.72979 z"
       sodipodi:nodetypes="cccsssccssssssccssscccc" /></g></svg>
