<?xml version="1.0" encoding="UTF-8" standalone="no"?>
<svg
   version="1.1"
   viewBox="0 0 28 28"
   xml:space="preserve"
   id="svg8"
   sodipodi:docname="AAcftTypeUnknown.svg"
   inkscape:version="1.2.2 (732a01da63, 2022-12-09)"
   xmlns:inkscape="http://www.inkscape.org/namespaces/inkscape"
   xmlns:sodipodi="http://sodipodi.sourceforge.net/DTD/sodipodi-0.dtd"
   xmlns="http://www.w3.org/2000/svg"
   xmlns:svg="http://www.w3.org/2000/svg"><defs
     id="defs12" /><sodipodi:namedview
     id="namedview10"
     pagecolor="#ff00ff"
     bordercolor="#666666"
     borderopacity="1.0"
     inkscape:showpageshadow="2"
     inkscape:pageopacity="0"
     inkscape:pagecheckerboard="0"
     inkscape:deskcolor="#d1d1d1"
     showgrid="false"
     inkscape:zoom="4.2142857"
     inkscape:cx="-38.440678"
     inkscape:cy="-78.542373"
     inkscape:window-width="2560"
     inkscape:window-height="1417"
     inkscape:window-x="-8"
     inkscape:window-y="-8"
     inkscape:window-maximized="1"
     inkscape:current-layer="svg8" /><g
     id="g6184"
     transform="translate(129.88782,-320.72209)"><path
       style="color:#000000;fill:none;stroke:#000000;stroke-width:3.2;stroke-linecap:round;stroke-linejoin:round;stroke-miterlimit:3;stroke-dasharray:none"
       d="m -115.88672,327.47775 c -0.29626,2.8e-4 -0.55697,0.19851 -0.63476,0.48438 l -3.59571,13.17383 c -0.0954,0.34958 0.11329,0.71324 0.46289,0.80859 0.34959,0.0954 0.71325,-0.11328 0.8086,-0.46289 l 2.95898,-10.84766 2.95899,10.84766 c 0.0953,0.34961 0.459,0.55833 0.80859,0.46289 0.34961,-0.0953 0.55637,-0.45901 0.46094,-0.80859 l -3.59375,-13.17383 c -0.0778,-0.28587 -0.33851,-0.4841 -0.63477,-0.48438 z"
       id="path6186"
       sodipodi:nodetypes="cccsccccccc" /><path
       style="color:#000000;fill:none;stroke-linecap:round;stroke-linejoin:round;stroke-miterlimit:3;-inkscape-stroke:none;stroke:#000000;stroke-width:1.2"
       d="m -115.88672,327.47775 c -0.29626,2.8e-4 -0.55697,0.19851 -0.63476,0.48438 l -3.59571,13.17383 c -0.0954,0.34958 0.11329,0.71324 0.46289,0.80859 0.34959,0.0954 0.71325,-0.11328 0.8086,-0.46289 l 2.95898,-10.84766 2.95899,10.84766 c 0.0953,0.34961 0.459,0.55833 0.80859,0.46289 0.34961,-0.0953 0.55637,-0.45901 0.46094,-0.80859 l -3.59375,-13.17383 c -0.0778,-0.28587 -0.33851,-0.4841 -0.63477,-0.48438 z"
       id="path6178"
       sodipodi:nodetypes="cccsccccccc" /></g></svg>
