<?xml version="1.0" encoding="UTF-8" standalone="no"?>
<svg
   version="1.1"
   viewBox="0 0 28 28"
   xml:space="preserve"
   id="svg8"
   sodipodi:docname="13AcftTypeAirship.svg"
   inkscape:version="1.2.2 (732a01da63, 2022-12-09)"
   xmlns:inkscape="http://www.inkscape.org/namespaces/inkscape"
   xmlns:sodipodi="http://sodipodi.sourceforge.net/DTD/sodipodi-0.dtd"
   xmlns="http://www.w3.org/2000/svg"
   xmlns:svg="http://www.w3.org/2000/svg"><defs
     id="defs12" /><sodipodi:namedview
     id="namedview10"
     pagecolor="#ff00ff"
     bordercolor="#666666"
     borderopacity="1.0"
     inkscape:showpageshadow="2"
     inkscape:pageopacity="0"
     inkscape:pagecheckerboard="0"
     inkscape:deskcolor="#d1d1d1"
     showgrid="false"
     inkscape:zoom="8.4285714"
     inkscape:cx="13.169492"
     inkscape:cy="-35.59322"
     inkscape:window-width="2560"
     inkscape:window-height="1417"
     inkscape:window-x="-8"
     inkscape:window-y="-8"
     inkscape:window-maximized="1"
     inkscape:current-layer="svg8" /><g
     id="g1159"
     transform="translate(412.6397,-302.3618)"><path
       id="path2398"
       style="color:#000000;fill:#ffffff;stroke-width:1;stroke-linecap:round;stroke-linejoin:round;stroke-miterlimit:3;stroke-dashoffset:2.1;-inkscape-stroke:none;paint-order:stroke markers fill"
       d="m -398.80948,306.01704 c -0.85859,0.0198 -1.70127,0.3877 -2.27622,0.88647 -0.65706,0.57003 -1.06581,1.25707 -1.38117,1.98739 -0.63073,1.46069 -0.9012,3.18777 -0.95224,5.09861 -0.0408,1.52556 0.0682,3.16464 0.36032,4.80409 l -0.55762,0.56619 c -0.38001,0.38449 -0.59275,0.90351 -0.59195,1.44409 l 0.01,2.72517 c 0.002,1.12908 0.91837,2.04322 2.04748,2.04457 h 1.65855 c 0.0542,0.0834 0.10417,0.1695 0.16012,0.25166 0.025,0.0293 0.0507,0.0581 0.0772,0.0858 0.0546,0.0705 0.11398,0.13734 0.17729,0.20017 0.0628,0.0634 0.12978,0.12258 0.20017,0.1773 0.0278,0.0265 0.0565,0.0523 0.0858,0.0772 0.0439,0.0244 0.0888,0.0474 0.13441,0.0688 0.0773,0.0452 0.15759,0.0852 0.24018,0.12003 0.0802,0.0318 0.16235,0.0585 0.24594,0.0801 0.0902,0.0253 0.18181,0.0443 0.2745,0.0572 0.0863,0.011 0.1733,0.015 0.26025,0.0146 0.086,6.5e-4 0.17195,-0.003 0.25735,-0.0146 0.0927,-0.0133 0.18443,-0.0319 0.27452,-0.0572 0.0836,-0.0216 0.16572,-0.0482 0.24592,-0.0801 0.0825,-0.0348 0.16286,-0.0748 0.24021,-0.12003 0.0457,-0.0211 0.0905,-0.044 0.13441,-0.0688 0.0596,-0.0418 0.11688,-0.0866 0.17155,-0.13441 0.003,-10e-4 0.005,-0.003 0.0121,-0.004 0.003,-0.003 0.008,-0.006 0.0121,-0.0121 0.12885,-0.11217 0.24316,-0.23987 0.34029,-0.38031 10e-4,-0.002 0.003,-0.004 0.004,-0.01 0.0559,-0.0822 0.10571,-0.16836 0.16011,-0.25165 h 1.65858 c 1.1302,2e-4 2.04735,-0.9144 2.05029,-2.04458 l 0.004,-2.72519 c 10e-4,-0.54018 -0.21011,-1.05912 -0.58906,-1.44408 l -0.55761,-0.56619 c 0.29263,-1.63946 0.40105,-3.27854 0.36029,-4.80409 -0.051,-1.91086 -0.32435,-3.63792 -0.95508,-5.09861 -0.31537,-0.73034 -0.72126,-1.41736 -1.37832,-1.9874 -0.60903,-0.52837 -1.52263,-0.90712 -2.43349,-0.88361 -0.011,-3.6e-4 -0.021,2.8e-4 -0.0315,0 -0.0509,-10e-4 -0.10362,-0.003 -0.15443,-0.002 z"
       sodipodi:nodetypes="ssssccccccccccccccccccccccccscccccccssscss" /><path
       id="path2400"
       style="color:#000000;fill:none;stroke:#000000;stroke-width:1;stroke-linecap:round;stroke-linejoin:round;stroke-miterlimit:3;stroke-dashoffset:2.1;-inkscape-stroke:none;paint-order:stroke markers fill"
       d="m -398.79518,307.33529 c -0.53139,0.01 -1.03844,0.22629 -1.42692,0.56336 -0.44398,0.38517 -0.77253,0.90436 -1.03515,1.51271 -0.52536,1.21665 -0.79858,2.81989 -0.84644,4.61247 -0.0437,1.63575 0.10494,3.42677 0.48041,5.19012 l -1.0552,1.07235 a 0.73212321,0.73212321 0 0 0 -0.21161,0.51472 l 0.004,2.72517 a 0.73212321,0.73212321 0 0 0 0.73205,0.72917 h 2.39632 c 0.16097,0.27962 0.32685,0.55398 0.50615,0.81786 0.002,0.002 0.002,0.009 0.004,0.0121 a 0.73205,0.73205 0 0 0 0.19443,0.19159 0.73205,0.73205 0 0 0 0.1973,0.0829 0.73205,0.73205 0 0 0 0.0657,0.0286 0.73205,0.73205 0 0 0 0.004,0 0.73205,0.73205 0 0 0 0.14304,0.002 0.73205,0.73205 0 0 0 0.14012,-0.002 0.73205,0.73205 0 0 0 0.11725,-0.0456 0.73205,0.73205 0 0 0 0.1487,-0.0629 0.73205,0.73205 0 0 0 0.004,-0.002 0.73205,0.73205 0 0 0 0.17729,-0.18015 0.73205,0.73205 0 0 0 0.0146,-0.0121 c 0.18182,-0.26698 0.35174,-0.54614 0.51471,-0.8293 h 2.39348 a 0.73212321,0.73212321 0 0 0 0.73205,-0.72917 l 0.01,-2.72517 a 0.73212321,0.73212321 0 0 0 -0.21161,-0.51472 l -1.05803,-1.07235 c 0.37522,-1.76346 0.52408,-3.55451 0.4804,-5.19012 -0.048,-1.79258 -0.32107,-3.39582 -0.84643,-4.61247 -0.26269,-0.60835 -0.58832,-1.12754 -1.03229,-1.51271 -0.42665,-0.37014 -0.99633,-0.5937 -1.58422,-0.55764 -0.0525,-0.002 -0.10516,-0.008 -0.15727,-0.004 z m 0.15728,1.45839 a 0.73205,0.73205 0 0 0 0.0715,0.01 c 0.20518,-0.0201 0.34464,0.0232 0.55189,0.20305 0.20723,0.17978 0.44499,0.5138 0.64912,0.98654 0.40829,0.94551 0.68197,2.4109 0.72633,4.07205 0.0785,2.9396 -0.55371,6.50448 -1.99883,9.19351 -1.44562,-2.68918 -2.08022,-6.25345 -2.00171,-9.19351 0.0443,-1.66115 0.32093,-3.12654 0.72921,-4.07205 0.20414,-0.47274 0.43901,-0.80676 0.64625,-0.98654 0.20723,-0.17979 0.34957,-0.22306 0.55475,-0.20305 a 0.73205,0.73205 0 0 0 0.0715,-0.01 z m -2.55931,12.07311 c 0.19939,0.65756 0.43498,1.30245 0.70631,1.92448 h -0.92936 l -0.004,-1.69285 z m 5.11576,0 0.22876,0.23162 -0.002,1.69286 h -0.92936 c 0.27111,-0.62187 0.50427,-1.2671 0.70345,-1.92448 z" /><g
       id="g2404"
       transform="matrix(1.4641,0,0,1.4641,110.46857,141.68889)"
       style="stroke-width:0.683014"><path
         style="color:#000000;fill:none;stroke:#000000;stroke-width:1.2.683014;stroke-linecap:round;stroke-linejoin:round;-inkscape-stroke:none"
         d="m -347.72656,113.402 c -0.27614,0 -0.5,0.22386 -0.5,0.5 v 10.534 c 0,0.27614 0.22386,0.5 0.5,0.5 0.27614,0 0.5,-0.22386 0.5,-0.5 v -10.534 c 0,-0.27614 -0.22386,-0.5 -0.5,-0.5 z"
         id="path2402"
         sodipodi:nodetypes="sssssss" /></g></g></svg>
