<?xml version="1.0" encoding="UTF-8" standalone="no"?>
<svg
   version="1.1"
   viewBox="0 0 28 28"
   xml:space="preserve"
   id="svg8"
   sodipodi:docname="8AcftTypePistonE.svg"
   inkscape:version="1.2.2 (732a01da63, 2022-12-09)"
   xmlns:inkscape="http://www.inkscape.org/namespaces/inkscape"
   xmlns:sodipodi="http://sodipodi.sourceforge.net/DTD/sodipodi-0.dtd"
   xmlns="http://www.w3.org/2000/svg"
   xmlns:svg="http://www.w3.org/2000/svg"><defs
     id="defs12" /><sodipodi:namedview
     id="namedview10"
     pagecolor="#ff00ff"
     bordercolor="#666666"
     borderopacity="1.0"
     inkscape:showpageshadow="2"
     inkscape:pageopacity="0"
     inkscape:pagecheckerboard="0"
     inkscape:deskcolor="#d1d1d1"
     showgrid="false"
     inkscape:zoom="11.9198"
     inkscape:cx="9.983389"
     inkscape:cy="-19.547308"
     inkscape:window-width="2560"
     inkscape:window-height="1417"
     inkscape:window-x="-8"
     inkscape:window-y="-8"
     inkscape:window-maximized="1"
     inkscape:current-layer="svg8" /><g
     id="g8567"
     transform="matrix(0.81,0,0,0.81,222.62793,-241.56119)"
     style="stroke-width:1.23457"><path
       id="path8520"
       style="color:#000000;fill:#ffffff;stroke-width:1.23457;stroke-linecap:round;stroke-linejoin:round;-inkscape-stroke:none"
       d="m -257.56233,305.70933 c -1.45856,-6e-5 -2.67947,1.14264 -2.83097,2.55729 a 1.7717381,1.7717381 0 0 0 -0.53788,1.51614 l 0.0756,0.56936 h -7.5713 c -1.55916,2e-5 -2.84354,1.30811 -2.84354,2.85613 0,1.54805 1.28438,2.85299 2.84354,2.853 h 8.26645 c 0.0294,0.0657 0.0601,0.1319 0.0944,0.19504 l 0.44667,3.33738 h -1.09149 c -1.55919,-3e-5 -2.84671,1.30808 -2.84669,2.85614 -2e-5,1.54807 1.2875,2.85615 2.84669,2.85614 h 6.29737 c 1.55914,0 2.84671,-1.30808 2.84667,-2.85614 4e-5,-1.54805 -1.28753,-2.85614 -2.84667,-2.85614 h -1.09467 l 0.44666,-3.3311 c 0.0359,-0.0657 0.0699,-0.1327 0.10065,-0.20132 h 8.257 c 1.55919,1e-5 2.84356,-1.30494 2.84356,-2.853 0,-1.54805 -1.28437,-2.85616 -2.84356,-2.85613 h -7.56811 l 0.0756,-0.56936 a 1.7717381,1.7717381 0 0 0 -0.53474,-1.51614 c -0.15155,-1.41463 -1.37243,-2.55733 -2.83097,-2.55729 z" /><path
       id="path8522"
       style="color:#000000;fill:none;stroke:#000000;stroke-width:1.23457;stroke-linecap:round;stroke-linejoin:round;-inkscape-stroke:none"
       d="m -257.56233,307.48024 c -0.59325,-5e-4 -1.07471,0.4838 -1.07577,1.08207 v 0.34287 h -0.53789 c -0.38978,1e-5 -0.69026,0.34343 -0.63854,0.72975 l 0.33344,2.48812 h -8.94588 c -0.59324,0.001 -1.0733,0.48694 -1.07262,1.0852 0.001,0.59703 0.48061,1.08079 1.07262,1.08207 h 9.23527 l 0.94366,7.07743 h -2.46296 c -0.59325,-5.1e-4 -1.07472,0.48378 -1.07576,1.08206 -6.9e-4,0.59949 0.4813,1.08572 1.07576,1.08523 h 6.29737 c 0.59322,-10e-4 1.07329,-0.48697 1.07261,-1.08523 -0.001,-0.59702 -0.48059,-1.08082 -1.07261,-1.08206 h -2.46927 l 0.9468,-7.07743 h 9.23214 c 0.59198,-0.001 1.07157,-0.48504 1.07263,-1.08207 6.7e-4,-0.59826 -0.4794,-1.08395 -1.07263,-1.0852 h -8.94274 l 0.33343,-2.48812 c 0.0517,-0.38633 -0.24876,-0.72974 -0.63854,-0.72975 h -0.5379 v -0.34287 c -10e-4,-0.59704 -0.4806,-1.08081 -1.07262,-1.08207 z"
       sodipodi:nodetypes="cccsccccccccccccccccccccsccc" /></g></svg>
