<?xml version="1.0" encoding="UTF-8" standalone="no"?>
<svg
   version="1.1"
   viewBox="0 0 28 28"
   xml:space="preserve"
   id="svg8"
   sodipodi:docname="AcftTypeTowPlanel.svg"
   inkscape:version="1.2.2 (732a01da63, 2022-12-09)"
   xmlns:inkscape="http://www.inkscape.org/namespaces/inkscape"
   xmlns:sodipodi="http://sodipodi.sourceforge.net/DTD/sodipodi-0.dtd"
   xmlns="http://www.w3.org/2000/svg"
   xmlns:svg="http://www.w3.org/2000/svg"><defs
     id="defs12" /><sodipodi:namedview
     id="namedview10"
     pagecolor="#ff00ff"
     bordercolor="#666666"
     borderopacity="1.0"
     inkscape:showpageshadow="2"
     inkscape:pageopacity="0"
     inkscape:pagecheckerboard="0"
     inkscape:deskcolor="#d1d1d1"
     showgrid="false"
     inkscape:zoom="16.857143"
     inkscape:cx="8.3050848"
     inkscape:cy="4.5084746"
     inkscape:window-width="2560"
     inkscape:window-height="1417"
     inkscape:window-x="-8"
     inkscape:window-y="-8"
     inkscape:window-maximized="1"
     inkscape:current-layer="svg8" /><g
     id="g8559"
     transform="matrix(0.81,0,0,0.81,154.46982,-243.14977)"
     style="stroke-width:1.23457"><path
       id="path8476"
       style="color:#000000;fill:#ffffff;stroke-width:1.23457;stroke-linecap:round;stroke-linejoin:round;stroke-miterlimit:3;stroke-dashoffset:2.1;-inkscape-stroke:none;paint-order:stroke markers fill"
       d="m -174.62736,305.22176 a 1.9328053,1.9328053 0 0 0 -1.91561,2.19242 l 0.0723,0.52847 h -5.08631 a 1.932612,1.932612 0 0 0 -1.93137,1.93133 1.932612,1.932612 0 0 0 1.93137,1.93136 h 5.60532 l 0.40576,3.00083 h -0.23591 a 1.932612,1.932612 0 0 0 -1.93135,1.93451 1.932612,1.932612 0 0 0 0.44038,1.20787 c -0.7546,0.0271 -1.43046,0.069 -1.8716,0.15414 -0.60188,0.11604 -1.15079,10e-4 -1.92506,1.00971 -0.38713,0.50429 -0.48899,1.52936 -0.24219,2.0792 0.24676,0.54982 0.54197,0.76399 0.77693,0.9405 0.93988,0.70607 1.82282,0.92128 3.05433,1.31485 0.39152,0.12524 0.8126,0.25001 1.24559,0.37745 -0.50387,0.62292 -0.80839,1.41316 -0.80839,2.26793 0,1.98601 1.63763,3.62365 3.62367,3.62365 1.33281,0 2.50673,-0.73897 3.13609,-1.82442 1.27329,-0.0455 2.26658,-0.12417 3.01969,-0.25162 0.64399,-0.10901 1.121,-0.10835 1.859,-0.7109 0.36899,-0.30122 0.83429,-1.03095 0.77696,-1.77406 -0.0573,-0.74314 -0.42597,-1.15615 -0.67943,-1.40292 -0.50696,-0.49354 -0.90951,-0.64466 -1.39032,-0.8556 -0.48085,-0.21093 -1.02102,-0.40777 -1.61995,-0.60706 -1.19789,-0.39863 -2.62722,-0.80461 -4.05461,-1.20788 -0.17465,-0.0494 -0.31348,-0.0922 -0.48754,-0.14157 a 1.8522717,1.8522717 0 0 0 1.29279,-1.29284 v -0.9751 h 0.50645 a 1.932612,1.932612 0 0 0 1.93136,-1.93135 1.932612,1.932612 0 0 0 -1.93136,-1.93453 h -0.23278 l 0.40579,-3.00081 h 5.60217 a 1.932612,1.932612 0 0 0 1.93449,-1.93137 1.932612,1.932612 0 0 0 -1.93449,-1.93134 h -5.08316 l 0.0723,-0.52846 a 1.9328053,1.9328053 0 0 0 -1.91563,-2.19243 z" /><path
       id="path8528"
       style="color:#000000;fill:none;stroke:#000000;stroke-width:1.23457;stroke-linecap:round;stroke-linejoin:round;-inkscape-stroke:none"
       d="m -174.62736,306.51142 c -0.38976,2e-5 -0.69026,0.34344 -0.63852,0.72978 l 0.24534,1.82753 h -6.53641 c -0.44472,0 -0.80525,0.36053 -0.80525,0.80525 0,0.44473 0.36052,0.80526 0.80525,0.80526 h 6.75346 l 0.71088,5.25618 h -1.68915 c -0.44473,0 -0.80526,0.36055 -0.80526,0.80526 0,0.44473 0.36053,0.80525 0.80526,0.80525 h 1.71746 v 1.49099 c -2.23224,0.0194 -3.95615,0.079 -4.85039,0.25165 -0.50659,0.0978 -0.86466,0.12911 -1.19532,0.55988 -0.16534,0.21537 -0.2066,0.61322 -0.10065,0.84931 0.10604,0.23606 0.25229,0.35808 0.39947,0.46867 0.58883,0.44234 1.50073,0.74634 2.69887,1.12927 1.19815,0.38288 2.63693,0.78669 4.06088,1.189 1.42394,0.40229 2.8314,0.80288 3.9445,1.17326 0.55175,0.18363 1.02964,0.36314 1.39345,0.52217 -0.74356,0.12406 -2.00694,0.21475 -3.86271,0.25164 a 1.9596189,1.9596189 0 0 0 -1.84326,-1.29909 1.9596189,1.9596189 0 0 0 -1.95967,1.95965 1.9596189,1.9596189 0 0 0 1.95967,1.95966 1.9596189,1.9596189 0 0 0 1.85586,-1.33371 c 1.9057,-0.0349 3.22728,-0.12298 4.09861,-0.2705 0.56563,-0.0956 0.94093,-0.16625 1.29596,-0.4561 0.17754,-0.14494 0.36001,-0.44203 0.33658,-0.7455 -0.0234,-0.30346 -0.17887,-0.49394 -0.3177,-0.62911 -0.2777,-0.27033 -0.60697,-0.4302 -1.03173,-0.61653 -0.42475,-0.18632 -0.93772,-0.3737 -1.51615,-0.56617 -1.15685,-0.38496 -2.57538,-0.78621 -4.0011,-1.18902 -1.42571,-0.40281 -2.86054,-0.80488 -4.02313,-1.17642 -0.67949,-0.21716 -0.92596,-0.36419 -1.35258,-0.54732 0.89809,-0.12844 2.22282,-0.23276 4.65538,-0.23276 0.35503,2.8e-4 0.6434,-0.28667 0.64483,-0.64171 v -2.10121 h 1.71432 c 0.4447,0 0.80526,-0.36052 0.80526,-0.80525 0,-0.44471 -0.36056,-0.80526 -0.80526,-0.80526 h -1.68601 l 0.71089,-5.25618 h 6.75029 c 0.44474,0 0.80525,-0.36053 0.80525,-0.80526 0,-0.44472 -0.36051,-0.80525 -0.80525,-0.80525 h -6.53326 l 0.24537,-1.82754 c 0.0517,-0.38633 -0.24878,-0.72975 -0.63855,-0.72977 z" /><ellipse
       style="fill:#ffffff;stroke:#ffffff;stroke-width:0;stroke-linecap:round;stroke-linejoin:round;stroke-miterlimit:3;stroke-dasharray:none;stroke-dashoffset:2.1;paint-order:stroke markers fill"
       id="ellipse8530"
       cx="-173.4203"
       cy="-326.09357"
       transform="scale(1,-1)"
       rx="0.8052547"
       ry="0.80525422" /></g></svg>
