<?xml version="1.0" encoding="UTF-8" standalone="no"?>
<svg
   version="1.1"
   viewBox="0 0 28 28"
   xml:space="preserve"
   id="svg8"
   sodipodi:docname="EAcftTypeReserved.svg"
   inkscape:version="1.2.2 (732a01da63, 2022-12-09)"
   xmlns:inkscape="http://www.inkscape.org/namespaces/inkscape"
   xmlns:sodipodi="http://sodipodi.sourceforge.net/DTD/sodipodi-0.dtd"
   xmlns="http://www.w3.org/2000/svg"
   xmlns:svg="http://www.w3.org/2000/svg"><defs
     id="defs12" /><sodipodi:namedview
     id="namedview10"
     pagecolor="#ff00ff"
     bordercolor="#666666"
     borderopacity="1.0"
     inkscape:showpageshadow="2"
     inkscape:pageopacity="0"
     inkscape:pagecheckerboard="0"
     inkscape:deskcolor="#d1d1d1"
     showgrid="false"
     inkscape:zoom="4.2142857"
     inkscape:cx="-94.915255"
     inkscape:cy="-54.576271"
     inkscape:window-width="2560"
     inkscape:window-height="1417"
     inkscape:window-x="-8"
     inkscape:window-y="-8"
     inkscape:window-maximized="1"
     inkscape:current-layer="svg8" /><g
     transform="matrix(1.7363,0,0,1.7363,764.65357,-489.45477)"
     stroke-width="0.57594"
     id="g9220"><path
       d="m -432.33,287.43 a 2.4504,2.0786 0 0 0 -2.3276,1.4376 5.8654,1.9906 0 0 0 -3.5384,1.8231 5.8654,1.9906 0 0 0 5.866,1.9908 5.8654,1.9906 0 0 0 5.8639,-1.9908 5.8654,1.9906 0 0 0 -3.5363,-1.8275 2.4504,2.0786 0 0 0 -2.3276,-1.4332 z"
       stroke-miterlimit="3"
       stroke-width="0"
       style="paint-order:stroke markers fill"
       id="path9214" /><path
       d="m -432.35,286.64 c -0.82109,0 -1.5812,0.24725 -2.1738,0.69726 -0.47958,0.36417 -0.85595,0.89204 -0.98242,1.5059 -0.37936,0.0817 -0.73516,0.17581 -1.0566,0.28516 -0.55454,0.18862 -1.0161,0.41452 -1.3652,0.69531 -0.34916,0.2808 -0.60547,0.64861 -0.60547,1.0801 0,0.43149 0.25631,0.79928 0.60547,1.0801 0.34917,0.28079 0.8107,0.50474 1.3652,0.69336 1.1091,0.37724 2.5948,0.59961 4.2344,0.59961 1.6396,0 3.1234,-0.22237 4.2324,-0.59961 0.55454,-0.18862 1.0161,-0.41257 1.3652,-0.69336 0.34916,-0.2808 0.60547,-0.64861 0.60547,-1.0801 0,-0.43149 -0.25631,-0.79928 -0.60547,-1.0801 -0.34917,-0.28079 -0.8107,-0.50669 -1.3652,-0.69531 -0.3329,-0.11324 -0.70314,-0.20947 -1.0976,-0.29297 -0.12857,-0.61049 -0.50486,-1.1354 -0.98242,-1.498 -0.59267,-0.45001 -1.3528,-0.69726 -2.1738,-0.69726 z m 0.0215,0.78906 a 2.4504,2.0786 0 0 1 2.2383,1.248 c -0.69406,-0.096 -1.4471,-0.14844 -2.2383,-0.14844 -0.7906,0 -1.5442,0.0526 -2.2383,0.14844 a 2.4504,2.0786 0 0 1 2.2383,-1.248 z m 0,1.9004 c 1.566,0 2.983,0.21935 3.9746,0.55664 0.49582,0.16865 0.88284,0.36895 1.1211,0.56055 0.23826,0.1916 0.30665,0.34333 0.30665,0.45703 0,0.1137 -0.0684,0.26543 -0.30665,0.45703 -0.23825,0.1916 -0.62527,0.3919 -1.1211,0.56055 -0.99163,0.33729 -2.4086,0.55664 -3.9746,0.55664 -1.566,0 -2.9849,-0.21935 -3.9766,-0.55664 -0.49582,-0.16865 -0.88284,-0.36895 -1.1211,-0.56055 -0.23826,-0.1916 -0.30665,-0.34333 -0.30665,-0.45703 0,-0.1137 0.0684,-0.26543 0.30665,-0.45703 0.23825,-0.1916 0.62527,-0.3919 1.1211,-0.56055 0.99163,-0.33729 2.4105,-0.55664 3.9766,-0.55664 z"
       color="#000000"
       fill="#ffffff"
       stroke-dashoffset="2.1"
       stroke-linecap="round"
       stroke-linejoin="round"
       stroke-miterlimit="3"
       stroke-width="0.57594"
       style="-inkscape-stroke:none;paint-order:stroke markers fill"
       id="path9216" /><ellipse
       cx="-432.38"
       cy="291.44"
       rx="1.7205"
       ry="0.47303"
       fill="#ffffff"
       style="paint-order:stroke markers fill"
       id="ellipse9218" /></g></svg>
