<?xml version="1.0" encoding="UTF-8" standalone="no"?>
<svg
   version="1.1"
   viewBox="0 0 28 28"
   xml:space="preserve"
   id="svg8"
   sodipodi:docname="AcftTypeGliderl.svg"
   inkscape:version="1.2.2 (732a01da63, 2022-12-09)"
   xmlns:inkscape="http://www.inkscape.org/namespaces/inkscape"
   xmlns:sodipodi="http://sodipodi.sourceforge.net/DTD/sodipodi-0.dtd"
   xmlns="http://www.w3.org/2000/svg"
   xmlns:svg="http://www.w3.org/2000/svg"><defs
     id="defs12" /><sodipodi:namedview
     id="namedview10"
     pagecolor="#ff00ff"
     bordercolor="#666666"
     borderopacity="1.0"
     inkscape:showpageshadow="2"
     inkscape:pageopacity="0"
     inkscape:pagecheckerboard="0"
     inkscape:deskcolor="#d1d1d1"
     showgrid="false"
     inkscape:zoom="8.4285714"
     inkscape:cx="-4.8644068"
     inkscape:cy="14"
     inkscape:window-width="2560"
     inkscape:window-height="1417"
     inkscape:window-x="-8"
     inkscape:window-y="-8"
     inkscape:window-maximized="1"
     inkscape:current-layer="svg8" /><g
     transform="matrix(.81 0 0 .81 189.71 -241.68)"
     stroke-linecap="round"
     stroke-linejoin="round"
     stroke-width="1.2346"
     id="g6"><path
       d="m-216.93 305.1a2.2547 2.2547 0 0 0-2.2553 2.2553v3.7149h-11.915a2.2547 2.2547 0 0 0-2.2553 2.2522 2.2547 2.2547 0 0 0 2.2553 2.2553h11.915v6.1212h-1.0538a2.2547 2.2547 0 0 0-2.2554 2.2553 2.2547 2.2547 0 0 0 2.2554 2.2522h6.6182a2.2547 2.2547 0 0 0 2.2553-2.2522 2.2547 2.2547 0 0 0-2.2553-2.2553h-1.0537v-6.1212h11.918a2.2547 2.2547 0 0 0 2.2522-2.2553 2.2547 2.2547 0 0 0-2.2522-2.2522h-11.918v-3.7149a2.2547 2.2547 0 0 0-2.2554-2.2553z"
       color="#000000"
       fill="#fff"
       style="-inkscape-stroke:none"
       id="path2" /><path
       d="m-216.93 306.55a0.80525 0.80525 0 0 0-0.80526 0.80525v5.1618h-13.365a0.80526 0.80526 0 0 0-0.80526 0.80525 0.80526 0.80526 0 0 0 0.80526 0.80526h13.365v9.0214h-2.5038a0.80526 0.80526 0 0 0-0.80526 0.80526 0.80526 0.80526 0 0 0 0.80526 0.80525h6.6182a0.80526 0.80526 0 0 0 0.80526-0.80525 0.80526 0.80526 0 0 0-0.80526-0.80526h-2.5038v-9.0214h13.368a0.80526 0.80526 0 0 0 0.80525-0.80526 0.80526 0.80526 0 0 0-0.80525-0.80525h-13.368v-5.1618a0.80525 0.80525 0 0 0-0.80525-0.80525z"
       color="#000000"
       fill="none"
       stroke="#000000"
       stroke-width="1.1"
       style="-inkscape-stroke:none"
       id="path4" /></g></svg>
