<?xml version="1.0" encoding="UTF-8" standalone="no"?>
<svg
   version="1.1"
   viewBox="0 0 28 28"
   xml:space="preserve"
   id="svg8"
   sodipodi:docname="9AcftTypeJet.svg"
   inkscape:version="1.2.2 (732a01da63, 2022-12-09)"
   xmlns:inkscape="http://www.inkscape.org/namespaces/inkscape"
   xmlns:sodipodi="http://sodipodi.sourceforge.net/DTD/sodipodi-0.dtd"
   xmlns="http://www.w3.org/2000/svg"
   xmlns:svg="http://www.w3.org/2000/svg"><defs
     id="defs12" /><sodipodi:namedview
     id="namedview10"
     pagecolor="#ff00ff"
     bordercolor="#666666"
     borderopacity="1.0"
     inkscape:showpageshadow="2"
     inkscape:pageopacity="0"
     inkscape:pagecheckerboard="0"
     inkscape:deskcolor="#d1d1d1"
     showgrid="false"
     inkscape:zoom="4.2142857"
     inkscape:cx="3.559322"
     inkscape:cy="-78.542373"
     inkscape:window-width="2560"
     inkscape:window-height="1417"
     inkscape:window-x="-8"
     inkscape:window-y="-8"
     inkscape:window-maximized="1"
     inkscape:current-layer="svg8" /><g
     id="g8580"
     transform="matrix(0.891,0,0,0.891,342.97283,-267.09343)"
     style="stroke-width:1.12234"><path
       id="path8506"
       style="color:#000000;fill:#ffffff;stroke-width:1.12234;stroke-linecap:round;stroke-linejoin:round;-inkscape-stroke:none"
       d="m -369.21597,305.62124 a 2.415765,2.415765 0 0 0 -2.41575,2.41576 v 3.05117 a 2.415765,2.415765 0 0 0 -1.6923,-0.69203 2.415765,2.415765 0 0 0 -2.41576,2.40633 l -3.60794,1.16385 a 2.415765,2.415765 0 0 0 -1.55703,3.04175 2.415765,2.415765 0 0 0 3.04172,1.55702 l 6.23131,-2.00999 v 3.59219 l -1.35888,0.52529 a 2.415765,2.415765 0 0 0 -1.38404,3.12352 2.415765,2.415765 0 0 0 3.12665,1.38087 l 2.03203,-0.78638 2.03201,0.78638 a 2.415765,2.415765 0 0 0 3.12348,-1.38087 2.415765,2.415765 0 0 0 -1.38087,-3.12352 l -1.35885,-0.52529 v -3.59219 l 0.94678,0.30512 5.2845,1.70487 a 2.415765,2.415765 0 0 0 3.03857,-1.55702 2.415765,2.415765 0 0 0 -1.55703,-3.04175 l -3.60479,-1.1607 a 2.415765,2.415765 0 0 0 -2.41576,-2.40948 2.415765,2.415765 0 0 0 -1.69227,0.69516 v -3.0543 a 2.415765,2.415765 0 0 0 -2.41578,-2.41576 z" /><path
       id="path8508"
       style="color:#000000;fill:none;stroke:#000000;stroke-width:1.12234;stroke-linecap:round;stroke-linejoin:round;-inkscape-stroke:none"
       d="m -369.21597,307.23175 a 0.80524939,0.80524939 0 0 0 -0.80526,0.80525 v 4.61449 l -2.49753,0.80526 v -0.64484 a 0.80524939,0.80524939 0 0 0 -0.80526,-0.80526 0.80524939,0.80524939 0 0 0 -0.80525,0.80526 v 1.16385 l -4.72145,1.52243 a 0.805255,0.805255 0 0 0 -0.52214,1.01287 0.805255,0.805255 0 0 0 1.01599,0.51899 l 5.22787,-1.68598 h 0.004 a 0.80524939,0.80524939 0 0 0 0.0944,-0.0312 l 3.00711,-0.96882 v 6.90441 l -2.39058,0.92479 a 0.805255,0.805255 0 0 0 -0.45925,1.04119 0.805255,0.805255 0 0 0 1.04117,0.46238 l 2.61392,-1.01287 2.61079,1.01287 a 0.805255,0.805255 0 0 0 1.04432,-0.46238 0.805255,0.805255 0 0 0 -0.46239,-1.04119 l -2.38746,-0.92479 v -6.90441 l 3.00712,0.96882 a 0.80524939,0.80524939 0 0 0 0.0629,0.0189 l 5.26562,1.69857 a 0.805255,0.805255 0 0 0 1.01287,-0.519 0.805255,0.805255 0 0 0 -0.51902,-1.01287 l -4.72143,-1.52243 v -1.16385 a 0.80524939,0.80524939 0 0 0 -0.80526,-0.80526 0.80524939,0.80524939 0 0 0 -0.80525,0.80526 v 0.64484 l -2.49755,-0.80525 v -4.61449 a 0.80524939,0.80524939 0 0 0 -0.80526,-0.80526 z" /></g></svg>
