<?xml version="1.0" encoding="UTF-8" standalone="no"?>
<svg
   version="1.1"
   viewBox="0 0 28 28"
   xml:space="preserve"
   id="svg8"
   sodipodi:docname="6AcftTypeHangGlider.svg"
   inkscape:version="1.2.2 (732a01da63, 2022-12-09)"
   xmlns:inkscape="http://www.inkscape.org/namespaces/inkscape"
   xmlns:sodipodi="http://sodipodi.sourceforge.net/DTD/sodipodi-0.dtd"
   xmlns="http://www.w3.org/2000/svg"
   xmlns:svg="http://www.w3.org/2000/svg"><defs
     id="defs12" /><sodipodi:namedview
     id="namedview10"
     pagecolor="#ff00ff"
     bordercolor="#666666"
     borderopacity="1.0"
     inkscape:showpageshadow="2"
     inkscape:pageopacity="0"
     inkscape:pagecheckerboard="0"
     inkscape:deskcolor="#d1d1d1"
     showgrid="false"
     inkscape:zoom="11.9198"
     inkscape:cx="9.983389"
     inkscape:cy="-19.547308"
     inkscape:window-width="2560"
     inkscape:window-height="1417"
     inkscape:window-x="-8"
     inkscape:window-y="-8"
     inkscape:window-maximized="1"
     inkscape:current-layer="svg8" /><path
     id="path10224"
     style="color:#000000;fill:#ffffff;stroke-width:1;stroke-linecap:round;stroke-linejoin:round;-inkscape-stroke:none"
     d="m 14.157511,9.717688 a 2.09,2.09 0 0 0 -0.18691,0.007 2.09,2.09 0 0 0 -0.18906,0.007 2.09,2.09 0 0 0 -0.25996,0.0494 2.09,2.09 0 0 0 -0.1375,0.0257 l -8.3187496,2.56523 a 2.090209,2.090209 0 0 0 -0.65098,0.33516 l -1.45665,1.11073 a 2.09,2.09 0 0 0 -0.3953,2.93047 2.09,2.09 0 0 0 2.93046,0.39317 l 1.16016,-0.88301 5.2572196,-1.61992 v 1.55331 a 2.09,2.09 0 0 0 2.09043,2.09044 2.09,2.09 0 0 0 2.09044,-2.09044 v -1.55331 l 5.25722,1.61992 1.16016,0.88301 a 2.09,2.09 0 0 0 2.92832,-0.39317 2.09,2.09 0 0 0 -0.39316,-2.93047 l -1.45664,-1.11073 a 2.090209,2.090209 0 0 0 -0.65098,-0.33516 l -8.31875,-2.56523 a 2.09,2.09 0 0 0 -0.16758,-0.0322 2.09,2.09 0 0 0 -0.2041,-0.0387 2.09,2.09 0 0 0 -0.0881,-0.0172 z" /><path
     id="path10206"
     style="color:#000000;fill:none;stroke:#000000;stroke-width:1;stroke-linecap:round;stroke-linejoin:round;-inkscape-stroke:none"
     d="m 13.98715,11.035944 a 0.76999999,0.76999999 0 0 0 -0.11817,0.0215 0.76999999,0.76999999 0 0 0 -0.0967,0.0129 l -0.0215,0.007 -8.29727,2.56094 a 0.77007699,0.77007699 0 0 0 -0.24062,0.12245 l -1.45449,1.11075 a 0.76999999,0.76999999 0 0 0 -0.14609,1.07852 0.76999999,0.76999999 0 0 0 1.0785,0.14609 l 1.34708,-1.02695 7.19082,-2.21719 v 3.34296 a 0.76999999,0.76999999 0 0 0 0.77128,0.76914 0.76999999,0.76999999 0 0 0 0.76915,-0.76914 v -3.34511 l 7.19082,2.21934 1.34707,1.02695 a 0.76999999,0.76999999 0 0 0 1.08066,-0.14609 0.76999999,0.76999999 0 0 0 -0.14609,-1.07852 l -1.45664,-1.11075 a 0.77007699,0.77007699 0 0 0 -0.23847,-0.12245 l -8.29943,-2.56094 a 0.76999999,0.76999999 0 0 0 -0.002,0 l -0.0194,-0.007 a 0.76999999,0.76999999 0 0 0 -0.0967,-0.0129 0.76999999,0.76999999 0 0 0 -0.1289,-0.0194 0.76999999,0.76999999 0 0 0 -0.0129,-0.002 z" /></svg>
