<?xml version="1.0" encoding="UTF-8" standalone="no"?>
<svg
   version="1.1"
   viewBox="0 0 28 28"
   xml:space="preserve"
   id="svg8"
   sodipodi:docname="7AcftTypeParaGlider.svg"
   inkscape:version="1.2.2 (732a01da63, 2022-12-09)"
   xmlns:inkscape="http://www.inkscape.org/namespaces/inkscape"
   xmlns:sodipodi="http://sodipodi.sourceforge.net/DTD/sodipodi-0.dtd"
   xmlns="http://www.w3.org/2000/svg"
   xmlns:svg="http://www.w3.org/2000/svg"><defs
     id="defs12" /><sodipodi:namedview
     id="namedview10"
     pagecolor="#ff00ff"
     bordercolor="#666666"
     borderopacity="1.0"
     inkscape:showpageshadow="2"
     inkscape:pageopacity="0"
     inkscape:pagecheckerboard="0"
     inkscape:deskcolor="#d1d1d1"
     showgrid="false"
     inkscape:zoom="11.9198"
     inkscape:cx="9.983389"
     inkscape:cy="-19.547308"
     inkscape:window-width="2560"
     inkscape:window-height="1417"
     inkscape:window-x="-8"
     inkscape:window-y="-8"
     inkscape:window-maximized="1"
     inkscape:current-layer="svg8" /><g
     id="g8592"
     transform="matrix(0.9801,0,0,0.9801,501.1512,-296.75036)"
     style="stroke-width:1.02031"><g
       id="g8494"
       transform="matrix(1.61051,0,0,1.61051,148.65107,123.33154)"
       style="stroke-width:0.633529"><path
         style="color:#000000;fill:#ffffff;stroke-width:0.633529;stroke-linecap:round;stroke-linejoin:round;stroke-miterlimit:3;stroke-dashoffset:2.1;-inkscape-stroke:none;paint-order:stroke markers fill"
         d="m -400.92578,117.38281 c -1.78025,0 -3.38801,0.16995 -4.6543,0.48242 -0.63314,0.15624 -1.17881,0.33669 -1.67969,0.62891 -0.50087,0.29222 -1.17382,0.82221 -1.17382,1.79688 0,0.97466 0.67295,1.5027 1.17382,1.79492 0.50088,0.29222 1.04655,0.47266 1.67969,0.6289 1.26629,0.31248 2.87405,0.48243 4.6543,0.48243 1.78025,0 3.38801,-0.16995 4.6543,-0.48243 0.63314,-0.15624 1.17881,-0.33668 1.67968,-0.6289 0.50088,-0.29222 1.17578,-0.82026 1.17578,-1.79492 0,-0.97467 -0.6749,-1.50466 -1.17578,-1.79688 -0.50087,-0.29222 -1.04654,-0.47267 -1.67968,-0.62891 -1.26629,-0.31247 -2.87405,-0.48242 -4.6543,-0.48242 z"
         id="path8490"
         sodipodi:nodetypes="sssssssssssss" /><path
         id="path8492"
         style="color:#000000;fill:none;stroke:#000000;stroke-width:1.2.633529;stroke-linecap:round;stroke-linejoin:round;stroke-miterlimit:3;stroke-dashoffset:2.1;-inkscape-stroke:none;paint-order:stroke markers fill"
         d="m -400.92578,118.2832 c -1.72023,0 -3.27656,0.16811 -4.43945,0.45508 -0.58146,0.14348 -1.06381,0.3129 -1.44141,0.5332 -0.3776,0.22031 -0.72852,0.53764 -0.72852,1.01954 0,0.48189 0.35092,0.79727 0.72852,1.01757 0.3776,0.22031 0.85995,0.38972 1.44141,0.53321 1.16289,0.28696 2.71922,0.45703 4.43945,0.45703 1.72023,0 3.27655,-0.17007 4.43945,-0.45703 0.58145,-0.14349 1.0638,-0.3129 1.44141,-0.53321 0.3776,-0.2203 0.72851,-0.53568 0.72851,-1.01757 0,-0.4819 -0.35091,-0.79923 -0.72851,-1.01954 -0.37761,-0.2203 -0.85996,-0.38972 -1.44141,-0.5332 -1.1629,-0.28697 -2.71922,-0.45508 -4.43945,-0.45508 z m -0.61133,1.00782 c 0.0122,-3.2e-4 0.0249,2.9e-4 0.0371,0 l -0.59375,1.97851 c -1.18353,-0.0585 -2.23663,-0.20234 -3.03125,-0.39844 -0.52402,-0.12931 -0.9371,-0.28538 -1.17773,-0.42578 -0.12032,-0.0702 -0.17901,-0.12507 -0.20704,-0.15429 0.0281,-0.0297 0.0868,-0.0861 0.20704,-0.15625 0.24063,-0.1404 0.65371,-0.29452 1.17773,-0.42383 0.91703,-0.22629 2.17916,-0.38402 3.58789,-0.41992 z m 1.18555,0 c 1.42351,0.0341 2.70001,0.19166 3.625,0.41992 0.52402,0.12931 0.93709,0.28343 1.17773,0.42383 0.12032,0.0702 0.17901,0.12653 0.20703,0.15625 -0.0281,0.0292 -0.0868,0.0841 -0.20703,0.15429 -0.24064,0.1404 -0.65371,0.29647 -1.17773,0.42578 -0.7942,0.19599 -1.84655,0.3399 -3.0293,0.39844 z"
         sodipodi:nodetypes="ssssssssssssssccsscssscssccscc" /></g></g></svg>
