<?xml version="1.0" encoding="UTF-8" standalone="no"?>
<svg
   version="1.1"
   viewBox="0 0 28 28"
   xml:space="preserve"
   id="svg8"
   sodipodi:docname="AcftTypeHelicopter.svg"
   inkscape:version="1.2.2 (732a01da63, 2022-12-09)"
   xmlns:inkscape="http://www.inkscape.org/namespaces/inkscape"
   xmlns:sodipodi="http://sodipodi.sourceforge.net/DTD/sodipodi-0.dtd"
   xmlns="http://www.w3.org/2000/svg"
   xmlns:svg="http://www.w3.org/2000/svg"><defs
     id="defs12" /><sodipodi:namedview
     id="namedview10"
     pagecolor="#ff00ff"
     bordercolor="#666666"
     borderopacity="1.0"
     inkscape:showpageshadow="2"
     inkscape:pageopacity="0"
     inkscape:pagecheckerboard="0"
     inkscape:deskcolor="#d1d1d1"
     showgrid="false"
     inkscape:zoom="4.2142857"
     inkscape:cx="4.5084746"
     inkscape:cy="-44.847458"
     inkscape:window-width="2560"
     inkscape:window-height="1417"
     inkscape:window-x="-8"
     inkscape:window-y="-8"
     inkscape:window-maximized="1"
     inkscape:current-layer="svg8" /><g
     id="g8576"
     transform="matrix(0.891,0,0,0.891,310.43127,-267.53073)"
     style="stroke-width:1.12234"><path
       id="path8510"
       style="color:#000000;fill:#ffffff;stroke-width:1.12234;stroke-linecap:round;stroke-linejoin:round;stroke-miterlimit:3;stroke-dashoffset:2.1;-inkscape-stroke:none;paint-order:stroke markers fill"
       d="m -338.10356,305.91063 a 2.2695549,2.2399607 6.5136401e-5 0 0 -1.60736,0.65428 2.2695549,2.2399607 6.5136401e-5 0 0 -0.004,3.16754 l 2.82468,2.79322 v 1.82441 c 0,0.0413 0.001,0.0816 0.002,0.12272 l -2.83729,2.79323 a 2.2695549,2.2399607 6.5136401e-5 0 0 -0.004,3.16754 2.2695549,2.2399607 6.5136401e-5 0 0 3.20845,0.004 l 1.59163,-1.56333 v 4.90703 a 2.2547059,2.2547059 0 0 0 0.0502,0.44351 2.2547059,2.2547059 0 0 0 0.0283,0.12271 2.2547059,2.2547059 0 0 0 0.13204,0.3712 2.2547059,2.2547059 0 0 0 0.0189,0.0535 2.2547059,2.2547059 0 0 0 0.23277,0.37115 2.2547059,2.2547059 0 0 0 0.0912,0.10681 2.2547059,2.2547059 0 0 0 0.23278,0.23277 2.2547059,2.2547059 0 0 0 0.10681,0.0912 2.2547059,2.2547059 0 0 0 0.37115,0.23277 2.2547059,2.2547059 0 0 0 0.0534,0.0189 2.2547059,2.2547059 0 0 0 0.37118,0.13203 2.2547059,2.2547059 0 0 0 0.12272,0.0283 2.2547059,2.2547059 0 0 0 0.44351,0.0502 h 1.9471 a 2.2547059,2.2547059 0 0 0 2.25535,-2.25534 2.2547059,2.2547059 0 0 0 -1.94709,-2.23333 v -2.61391 l 1.53188,1.51929 a 2.2695549,2.2399607 6.5136401e-5 0 0 3.21157,0.004 2.2695549,2.2399607 6.5136401e-5 0 0 0.004,-3.17069 l -2.76492,-2.73975 c 0.002,-0.067 0.004,-0.13352 0.004,-0.20131 v -1.8716 l 2.76808,-2.72402 a 2.2695549,2.2399607 6.5136401e-5 0 0 0.004,-3.16754 2.2695549,2.2399607 6.5136401e-5 0 0 -3.20845,-0.002 l -1.83069,1.80238 c -0.45526,-0.20127 -0.95375,-0.31457 -1.47526,-0.31457 h -0.98141 c -0.53225,0 -1.04079,0.1181 -1.50355,0.32715 l -1.84329,-1.82756 a 2.2695549,2.2399607 6.5136401e-5 0 0 -1.60422,-0.66056 z" /><path
       id="path8512"
       style="fill:none;stroke:#000000;stroke-width:1.1;stroke-linecap:round;stroke-linejoin:round;stroke-miterlimit:3;stroke-dasharray:none;stroke-dashoffset:2.1;paint-order:stroke markers fill"
       d="m -338.113,307.34496 a 0.805255,0.805255 0 0 0 -0.56618,0.23909 0.805255,0.805255 0 0 0 0.002,1.13868 l 3.62365,3.58904 v 1.95023 c 0,0.13822 0.0146,0.27189 0.0376,0.40262 l -3.67712,3.61422 a 0.805255,0.805255 0 0 0 -0.011,1.13869 0.805255,0.805255 0 0 0 1.13868,0.011 l 3.4192,-3.35944 c 0.19832,0.13836 0.4213,0.2397 0.66054,0.29568 v 7.4203 a 0.805255,0.805255 0 0 0 0.0376,0.23592 0.80525016,0.80525016 0 0 0 0.004,0.0189 0.805255,0.805255 0 0 0 0.10681,0.21076 0.80525016,0.80525016 0 0 0 0.0133,0.0161 0.805255,0.805255 0 0 0 0.16041,0.16041 0.80525016,0.80525016 0 0 0 0.0161,0.0133 0.805255,0.805255 0 0 0 0.21075,0.10681 0.80525016,0.80525016 0 0 0 0.0189,0.004 0.805255,0.805255 0 0 0 0.23593,0.0376 h 1.94706 a 0.805255,0.805255 0 0 0 0.80525,-0.80526 0.805255,0.805255 0 0 0 -0.80525,-0.80525 h -1.1418 v -6.60875 c 0.23211,-0.05 0.44952,-0.14289 0.64481,-0.27052 l 3.3783,3.34684 a 0.805255,0.805255 0 0 0 1.13868,-0.004 0.805255,0.805255 0 0 0 -0.004,-1.13869 l -3.60161,-3.56705 c 0.0316,-0.15169 0.0503,-0.3095 0.0503,-0.4718 v -2.00684 l 3.57017,-3.51358 a 0.805255,0.805255 0 0 0 0.011,-1.13867 0.805255,0.805255 0 0 0 -0.56934,-0.23905 0.805255,0.805255 0 0 0 -0.56933,0.22961 l -2.93792,2.89076 c -0.36691,-0.45036 -0.9045,-0.73608 -1.5067,-0.73608 h -0.78011 c -0.61528,0 -1.16241,0.29693 -1.52873,0.76437 l -2.95993,-2.93478 a 0.805255,0.805255 0 0 0 -0.57249,-0.23277 z" /></g></svg>
