<?xml version="1.0" encoding="UTF-8" standalone="no"?>
<svg
   version="1.1"
   viewBox="0 0 28 28"
   xml:space="preserve"
   id="svg8"
   sodipodi:docname="4AcftTypeSkydiver.svg"
   inkscape:version="1.2.2 (732a01da63, 2022-12-09)"
   xmlns:inkscape="http://www.inkscape.org/namespaces/inkscape"
   xmlns:sodipodi="http://sodipodi.sourceforge.net/DTD/sodipodi-0.dtd"
   xmlns="http://www.w3.org/2000/svg"
   xmlns:svg="http://www.w3.org/2000/svg"><defs
     id="defs12" /><sodipodi:namedview
     id="namedview10"
     pagecolor="#ff00ff"
     bordercolor="#666666"
     borderopacity="1.0"
     inkscape:showpageshadow="2"
     inkscape:pageopacity="0"
     inkscape:pagecheckerboard="0"
     inkscape:deskcolor="#d1d1d1"
     showgrid="false"
     inkscape:zoom="4.2142857"
     inkscape:cx="17.322034"
     inkscape:cy="-84.711865"
     inkscape:window-width="2560"
     inkscape:window-height="1417"
     inkscape:window-x="-8"
     inkscape:window-y="-8"
     inkscape:window-maximized="1"
     inkscape:current-layer="svg8" /><g
     id="g8597"
     transform="matrix(0.81,0,0,0.81,452.67549,-242.81982)"
     style="stroke-width:1.23457"><g
       id="g8488"
       transform="matrix(1.61051,0,0,-1.61051,146.72884,504.69715)"
       style="stroke-width:0.76657"><path
         id="path8484"
         style="color:#000000;fill:#ffffff;stroke-width:0.76657;stroke-linecap:round;stroke-linejoin:round;-inkscape-stroke:none"
         d="m -423.56445,111.06445 a 1.2999949,1.2999949 0 0 0 -0.82032,0.25 l -0.70898,0.52149 a 1.3001249,1.3001249 0 0 0 -0.49219,0.73047 l -0.12304,0.48047 -0.44141,-0.32813 -0.76758,-0.29297 a 1.2999949,1.2999949 0 0 0 -0.0293,-0.008 1.2999949,1.2999949 0 0 0 -0.13281,-0.0352 1.2999949,1.2999949 0 0 0 -0.16406,-0.0332 1.2999949,1.2999949 0 0 0 -0.0977,-0.002 1.2999949,1.2999949 0 0 0 -0.19531,0.006 1.2999949,1.2999949 0 0 0 -0.0859,0.0176 1.2999949,1.2999949 0 0 0 -0.19922,0.0508 1.2999949,1.2999949 0 0 0 -0.0176,0.004 l -0.76758,0.29297 -0.45117,0.33594 -0.11914,-0.47657 a 1.3001249,1.3001249 0 0 0 -0.49219,-0.72851 l -0.70899,-0.52149 a 1.2999949,1.2999949 0 0 0 -1.81836,0.2793 1.2999949,1.2999949 0 0 0 -0.15234,1.25196 1.2999949,1.2999949 0 0 0 -1.00781,0.75781 1.2999949,1.2999949 0 0 0 0.66797,1.71289 l 0.80468,0.35547 a 1.3001249,1.3001249 0 0 0 0.87891,0.0605 l 0.47656,-0.13476 -0.0625,0.54492 0.12891,0.8125 a 1.2999949,1.2999949 0 0 0 0.0117,0.041 1.2999949,1.2999949 0 0 0 0.0234,0.084 1.2999949,1.2999949 0 0 0 0.0684,0.20117 1.2999949,1.2999949 0 0 0 0.0254,0.0449 1.2999949,1.2999949 0 0 0 0.12695,0.20899 1.2999949,1.2999949 0 0 0 0.0176,0.0195 1.2999949,1.2999949 0 0 0 0.18945,0.19336 1.2999949,1.2999949 0 0 0 0.008,0.006 l 0.62891,0.51172 0.51562,0.22265 -0.35156,0.3418 a 1.3001249,1.3001249 0 0 0 -0.38672,0.79102 l -0.0957,0.875 a 1.2999949,1.2999949 0 0 0 1.15039,1.43359 1.2999949,1.2999949 0 0 0 1.16016,-0.49219 1.2999949,1.2999949 0 0 0 1.16015,0.49219 1.2999949,1.2999949 0 0 0 1.15039,-1.43359 l -0.0957,-0.875 a 1.3001249,1.3001249 0 0 0 -0.38672,-0.79102 l -0.35547,-0.3457 0.50391,-0.21875 0.63867,-0.51758 a 1.2999949,1.2999949 0 0 0 0.006,-0.006 1.2999949,1.2999949 0 0 0 0.0879,-0.0801 1.2999949,1.2999949 0 0 0 0.13086,-0.14844 1.2999949,1.2999949 0 0 0 0.0332,-0.0488 1.2999949,1.2999949 0 0 0 0.12305,-0.22852 1.2999949,1.2999949 0 0 0 0.002,-0.004 1.2999949,1.2999949 0 0 0 0.002,-0.004 1.2999949,1.2999949 0 0 0 0.0762,-0.27539 l 0.006,-0.0391 a 1.2999949,1.2999949 0 0 0 0.006,-0.041 l 0.11718,-0.73047 -0.0645,-0.55859 0.47266,0.13476 a 1.3001249,1.3001249 0 0 0 0.8789,-0.0605 l 0.80469,-0.35547 a 1.2999949,1.2999949 0 0 0 0.66602,-1.71289 1.2999949,1.2999949 0 0 0 -1.00586,-0.75782 1.2999949,1.2999949 0 0 0 -0.1543,-1.25195 1.2999949,1.2999949 0 0 0 -0.99609,-0.5293 z" /><path
         id="path8486"
         style="color:#000000;fill:none;stroke:#000000;stroke-width:1.2.689912;stroke-linecap:round;stroke-linejoin:round;-inkscape-stroke:none"
         d="M -423.61914,111.91406 A 0.45153794,0.44846617 60 0 0 -423.88281,112 l -0.70899,0.51953 a 0.45158309,0.44851102 60 0 0 -0.16992,0.25195 l -0.26758,1.06446 -0.75586,0.4414 -0.47265,-0.61718 -0.19922,-0.14844 -0.76563,-0.29297 a 0.45153794,0.44846617 60 0 0 -0.006,-0.002 0.44846617,0.45153794 30 0 0 -0.0859,-0.0176 0.45153794,0.44846617 60 0 0 -0.0723,-0.008 0.44846617,0.45153794 30 0 0 -0.0332,0.004 0.45153794,0.44846617 60 0 0 -0.10938,0.0234 0.45153794,0.44846617 60 0 0 -0.004,0 l -0.76758,0.29297 -0.19922,0.14844 -0.47461,0.61914 -0.76172,-0.4336 -0.26562,-1.06054 a 0.44851102,0.45158309 30 0 0 -0.16993,-0.25391 l -0.70898,-0.51953 a 0.44846617,0.45153794 30 0 0 -0.62891,0.10156 0.44846617,0.45153794 30 0 0 0.0957,0.62695 l 0.57812,0.42774 0.16797,0.66211 -0.6582,0.1875 -0.65821,-0.29102 a 0.44846617,0.45153794 30 0 0 -0.59179,0.23438 0.44846617,0.45153794 30 0 0 0.22851,0.59375 l 0.80274,0.35351 a 0.44851102,0.45158309 30 0 0 0.30469,0.0215 l 1.05468,-0.30274 0.75977,0.43555 -0.29688,0.71875 -0.0293,0.24414 0.13086,0.81055 a 0.44846617,0.45153794 30 0 0 0.002,0.004 0.45153794,0.44846617 0 0 0 0.0254,0.0781 0.44846617,0.45153794 30 0 0 0.0332,0.0742 0.45153794,0.44846617 0 0 0 0.002,0.004 0.44846617,0.45153794 30 0 0 0.15429,0.1543 l 0.57422,0.4668 0.22852,0.0977 0.77344,0.10157 0.004,0.87695 -0.78516,0.76172 a 0.45158309,0.44851102 0 0 0 -0.13476,0.27344 l -0.0957,0.87304 a 0.45153794,0.44846617 0 0 0 0.40234,0.49414 0.45153794,0.44846617 0 0 0 0.49609,-0.39648 l 0.0801,-0.71484 0.49024,-0.47657 0.49218,0.47657 0.0762,0.71484 a 0.45153794,0.44846617 0 0 0 0.49804,0.39648 0.45153794,0.44846617 0 0 0 0.40039,-0.49414 L -426,119.72852 a 0.45158309,0.44851102 0 0 0 -0.13281,-0.27344 l -0.78907,-0.76367 -0.004,-0.875 0.77148,-0.10157 0.22657,-0.0977 0.56835,-0.46289 a 0.45153794,0.44846617 60 0 0 0.19141,-0.21289 0.45153794,0.44846617 0 0 0 0.002,-0.002 0.45153794,0.44846617 60 0 0 0.0176,-0.043 0.45153794,0.44846617 0 0 0 0.0215,-0.11328 l 0.12109,-0.75781 -0.0293,-0.24609 -0.29882,-0.72071 0.75781,-0.4414 1.05273,0.29883 a 0.45158309,0.44851102 60 0 0 0.30469,-0.0215 l 0.80273,-0.35351 a 0.45153794,0.44846617 60 0 0 0.22657,-0.59375 0.45153794,0.44846617 60 0 0 -0.5918,-0.23243 l -0.6582,0.28907 -0.65821,-0.1875 0.16797,-0.66407 0.58008,-0.42382 a 0.45153794,0.44846617 60 0 0 0.0937,-0.62891 0.45153794,0.44846617 60 0 0 -0.36328,-0.18555 z m -3.75781,2.20899 0.48633,0.18554 0.25781,0.33789 a 0.55816489,0.55436772 60 0 0 -0.0254,0.0117 0.55816489,0.55436772 60 0 0 -0.20118,0.76172 0.55816489,0.55436772 60 0 0 0.75977,0.20703 0.55816489,0.55436772 60 0 0 0.0234,-0.0156 l 0.16211,0.39258 -0.0801,0.50976 -0.40625,0.32813 -0.42188,0.0547 a 0.55816489,0.55436772 0 0 0 0.002,-0.0273 0.55816489,0.55436772 0 0 0 -0.5586,-0.55469 0.55816489,0.55436772 0 0 0 -0.55859,0.55469 0.55816489,0.55436772 0 0 0 0.002,0.0273 l -0.42187,-0.0547 -0.40625,-0.33008 -0.0801,-0.50781 0.16406,-0.39258 a 0.55436772,0.55816489 30 0 0 0.0215,0.0156 0.55436772,0.55816489 30 0 0 0.75976,-0.20703 0.55436772,0.55816489 30 0 0 -0.20117,-0.76172 0.55436772,0.55816489 30 0 0 -0.0234,-0.0117 l 0.25782,-0.33789 z" /></g></g></svg>
