<?xml version="1.0" encoding="UTF-8" standalone="no"?>
<svg
   version="1.1"
   viewBox="0 0 28 28"
   xml:space="preserve"
   id="svg8"
   sodipodi:docname="FAcftTypeObstacle.svg"
   inkscape:version="1.2.2 (732a01da63, 2022-12-09)"
   xmlns:inkscape="http://www.inkscape.org/namespaces/inkscape"
   xmlns:sodipodi="http://sodipodi.sourceforge.net/DTD/sodipodi-0.dtd"
   xmlns="http://www.w3.org/2000/svg"
   xmlns:svg="http://www.w3.org/2000/svg"><defs
     id="defs12" /><sodipodi:namedview
     id="namedview10"
     pagecolor="#ff00ff"
     bordercolor="#666666"
     borderopacity="1.0"
     inkscape:showpageshadow="2"
     inkscape:pageopacity="0"
     inkscape:pagecheckerboard="0"
     inkscape:deskcolor="#d1d1d1"
     showgrid="false"
     inkscape:zoom="4.2142857"
     inkscape:cx="-52.915254"
     inkscape:cy="-54.576271"
     inkscape:window-width="2560"
     inkscape:window-height="1417"
     inkscape:window-x="-8"
     inkscape:window-y="-8"
     inkscape:window-maximized="1"
     inkscape:current-layer="svg8" /><g
     id="g5153"
     transform="translate(127.1368,-303.1264)"><path
       id="path3229"
       style="color:#000000;fill:#ffffff;stroke:none;stroke-width:2.7;stroke-linecap:round;stroke-linejoin:round;stroke-miterlimit:3;-inkscape-stroke:none"
       d="m -113.13867,308.63281 c -0.85317,8e-4 -1.61302,0.5834 -1.83789,1.40625 h -0.002 l -3.59375,13.17188 c -0.27331,1.00113 0.33691,2.07027 1.33789,2.34375 0.95032,0.25944 1.96081,-0.27814 2.29493,-1.18946 0.43509,0.51929 1.08911,0.85157 1.80273,0.85157 0.71363,0 1.36765,-0.33228 1.80274,-0.85157 0.334,0.91105 1.34289,1.44834 2.29296,1.18946 1.00145,-0.27314 1.61323,-1.34236 1.33985,-2.34375 l -3.59571,-13.17188 c -0.22461,-0.82324 -0.98642,-1.40545 -1.83984,-1.40625 z"
       sodipodi:nodetypes="scccccsccccss" /><path
       style="color:#000000;fill:none;stroke-linecap:round;stroke-linejoin:round;stroke-miterlimit:3;-inkscape-stroke:none;stroke:#000000;stroke-width:1.2"
       d="m -113.13672,309.88281 c -0.29626,2.8e-4 -0.55697,0.19851 -0.63476,0.48438 l -3.59571,13.17383 c -0.0954,0.34958 0.11329,0.71324 0.46289,0.80859 0.34959,0.0954 0.71325,-0.11328 0.8086,-0.46289 l 2.95898,-10.84766 2.95899,10.84766 c 0.0953,0.34961 0.459,0.55833 0.80859,0.46289 0.34961,-0.0953 0.55637,-0.45901 0.46094,-0.80859 l -3.59375,-13.17383 c -0.0778,-0.28587 -0.33851,-0.4841 -0.63477,-0.48438 z"
       id="path4778"
       sodipodi:nodetypes="cccsccccccc" /><path
       style="color:#000000;fill:none;stroke:#000000;stroke:none;stroke-width:2.7;stroke-linecap:round;stroke-linejoin:round;stroke-miterlimit:5.3;-inkscape-stroke:none"
       d="m -112.14208,322.8894 a 0.99488607,0.97708211 0 0 1 -0.99489,0.97708 0.99488607,0.97708211 0 0 1 -0.99489,-0.97708 0.99488607,0.97708211 0 0 1 0.99489,-0.97708 0.99488607,0.97708211 0 0 1 0.99489,0.97708 z"
       id="path3233" /><ellipse
       style="fill:none;stroke:#000000;fill-opacity:1;stroke:none;stroke-width:2.5;stroke-linecap:round;stroke-linejoin:round;stroke-miterlimit:5.3;stroke-opacity:1"
       id="ellipse2800-4"
       cx="-113.13697"
       cy="322.8894"
       rx="0.9948861"
       ry="0.97708207" /></g></svg>
