<?xml version="1.0" encoding="UTF-8" standalone="no"?>
<svg
   version="1.1"
   viewBox="0 0 28 28"
   xml:space="preserve"
   id="svg8"
   sodipodi:docname="15AcftTypeUAV.svg"
   inkscape:version="1.2.2 (732a01da63, 2022-12-09)"
   xmlns:inkscape="http://www.inkscape.org/namespaces/inkscape"
   xmlns:sodipodi="http://sodipodi.sourceforge.net/DTD/sodipodi-0.dtd"
   xmlns="http://www.w3.org/2000/svg"
   xmlns:svg="http://www.w3.org/2000/svg"><defs
     id="defs12" /><sodipodi:namedview
     id="namedview10"
     pagecolor="#ff00ff"
     bordercolor="#666666"
     borderopacity="1.0"
     inkscape:showpageshadow="2"
     inkscape:pageopacity="0"
     inkscape:pagecheckerboard="0"
     inkscape:deskcolor="#d1d1d1"
     showgrid="false"
     inkscape:zoom="8.4285714"
     inkscape:cx="13.169492"
     inkscape:cy="-35.59322"
     inkscape:window-width="2560"
     inkscape:window-height="1417"
     inkscape:window-x="-8"
     inkscape:window-y="-8"
     inkscape:window-maximized="1"
     inkscape:current-layer="svg8" /><g
     id="g8554"
     transform="matrix(0.81,0,0,0.81,94.237956,-242.81984)"
     style="stroke-width:1.23457"><path
       id="path8536"
       style="color:#000000;fill:#ffffff;stroke-width:1.23457;stroke-linecap:round;stroke-linejoin:round;stroke-miterlimit:3;stroke-dashoffset:2.1;-inkscape-stroke:none;paint-order:stroke markers fill"
       d="m -102.65139,308.52141 c -2.72711,0 -4.98567,2.25832 -4.98567,4.98565 0,1.37712 0.57608,2.63428 1.49727,3.54187 -0.92839,0.90933 -1.50984,2.17122 -1.50984,3.55445 0,2.72736 2.25854,4.98567 4.98566,4.98567 1.40264,0 2.680174,-0.59936 3.592175,-1.55074 0.91274,0.95915 2.196248,1.56333 3.604796,1.56333 2.727068,0 4.985656,-2.26146 4.985656,-4.98883 0,-1.37708 -0.576084,-2.63425 -1.497283,-3.54186 0.927748,-0.90832 1.509847,-2.16929 1.509847,-3.55129 0,-2.72735 -2.261688,-4.98568 -4.988806,-4.98568 -1.401422,0 -2.678008,0.59767 -3.589017,1.54762 -0.912691,-0.95784 -2.196698,-1.56019 -3.604788,-1.56019 z"
       sodipodi:nodetypes="sscsscsscsscs" /><path
       id="path8538"
       style="color:#000000;fill:none;stroke:#000000;stroke-width:1.23457;stroke-linecap:round;stroke-linejoin:round;stroke-miterlimit:3;stroke-dashoffset:2.1;-inkscape-stroke:none;paint-order:stroke markers fill"
       d="m -102.65139,309.9715 c -1.94398,0 -3.53558,1.59183 -3.53558,3.53556 0,1.94381 1.5916,3.53559 3.53558,3.53559 0.68818,0 1.3325,-0.20022 1.87788,-0.54418 l 0.5662,0.5599 -0.5662,0.55993 c -0.54799,-0.34925 -1.19712,-0.55364 -1.89046,-0.55364 -1.94397,0 -3.5356,1.59497 -3.5356,3.53872 0,1.9438 1.59163,3.53559 3.5356,3.53559 1.94395,0 3.538693,-1.59179 3.538693,-3.53559 0,-0.67125 -0.193067,-1.30025 -0.522151,-1.837 l 0.585071,-0.57561 0.581926,0.57561 c -0.332266,0.53808 -0.525286,1.17164 -0.525286,1.84644 0,1.94381 1.594732,3.53873 3.538718,3.53873 1.943935,0 3.535558,-1.59492 3.535558,-3.53873 0,-1.94379 -1.591623,-3.53559 -3.535558,-3.53559 -0.689131,0 -1.335186,0.19938 -1.881029,0.5442 l -0.566208,-0.55989 0.569354,-0.55678 c 0.547065,0.34798 1.194766,0.55046 1.887297,0.55046 1.943984,0 3.538721,-1.59176 3.538721,-3.53556 0,-1.9438 -1.594737,-3.53559 -3.538721,-3.53559 -1.943913,0 -3.535559,1.59179 -3.535559,3.53559 0,0.67129 0.190405,1.30073 0.519017,1.83699 l -0.581926,0.57247 -0.581925,-0.57561 c 0.332266,-0.5381 0.525285,-1.17164 0.525285,-1.84645 0,-1.94373 -1.594747,-3.53556 -3.538697,-3.53556 z m 0,1.61051 c 1.07382,0 1.92819,0.85195 1.92819,1.92505 0,0.23304 -0.0423,0.45489 -0.1164,0.66057 l -1.24563,-1.23303 a 0.80525178,0.80525178 0 0 0 -1.13868,0.004 0.80525178,0.80525178 0 0 0 0.005,1.13868 l 1.24248,1.22991 c -0.21034,0.0774 -0.43718,0.12271 -0.6763,0.12271 -1.07382,0 -1.92506,-0.85192 -1.92506,-1.9251 0,-1.0731 0.85124,-1.92504 1.92506,-1.92504 z m 7.193805,0.0133 c 1.073842,0 1.928211,0.8519 1.928211,1.92506 0,1.07317 -0.854369,1.92508 -1.928211,1.92508 -0.24154,0 -0.470702,-0.0469 -0.682561,-0.12579 l 1.248773,-1.22674 a 0.80525178,0.80525178 0 0 0 0.01067,-1.13868 0.80525178,0.80525178 0 0 0 -1.138699,-0.011 l -1.248768,1.22672 c -0.07163,-0.20309 -0.113135,-0.42159 -0.113135,-0.65111 0,-1.07317 0.851283,-1.92506 1.925049,-1.92506 z m -7.206385,7.08059 c 0.24259,0 0.47284,0.0459 0.68572,0.12578 l -1.24877,1.22674 a 0.80525178,0.80525178 0 0 0 -0.0109,1.1387 0.80525178,0.80525178 0 0 0 1.13867,0.011 l 1.24878,-1.22675 c 0.0727,0.20411 0.11314,0.42371 0.11314,0.65426 0,1.07317 -0.8544,1.92508 -1.92822,1.92508 -1.07382,0 -1.92506,-0.85191 -1.92506,-1.92508 0,-1.07313 0.85124,-1.9282 1.92506,-1.9282 z m 7.196971,0.0133 c 1.073793,0 1.925048,0.85189 1.925048,1.92505 0,1.07318 -0.851255,1.92822 -1.925048,1.92822 -1.07385,0 -1.928219,-0.85504 -1.928219,-1.92822 0,-0.23302 0.04235,-0.45486 0.116523,-0.66055 l 1.245622,1.23304 a 0.80525178,0.80525178 0 0 0 1.138673,-0.004 0.80525178,0.80525178 0 0 0 -0.0053,-1.1387 l -1.245528,-1.23034 c 0.211097,-0.0781 0.439303,-0.12273 0.679451,-0.12273 z" /></g></svg>
