<?xml version="1.0" encoding="UTF-8" standalone="no"?>
<svg
   version="1.1"
   viewBox="0 0 28 28"
   xml:space="preserve"
   id="svg8"
   sodipodi:docname="11AcftTypeBallon.svg"
   inkscape:version="1.2.2 (732a01da63, 2022-12-09)"
   xmlns:inkscape="http://www.inkscape.org/namespaces/inkscape"
   xmlns:sodipodi="http://sodipodi.sourceforge.net/DTD/sodipodi-0.dtd"
   xmlns="http://www.w3.org/2000/svg"
   xmlns:svg="http://www.w3.org/2000/svg"><defs
     id="defs12" /><sodipodi:namedview
     id="namedview10"
     pagecolor="#ff00ff"
     bordercolor="#666666"
     borderopacity="1.0"
     inkscape:showpageshadow="2"
     inkscape:pageopacity="0"
     inkscape:pagecheckerboard="0"
     inkscape:deskcolor="#d1d1d1"
     showgrid="false"
     inkscape:zoom="4.2142857"
     inkscape:cx="3.559322"
     inkscape:cy="-78.542373"
     inkscape:window-width="2560"
     inkscape:window-height="1417"
     inkscape:window-x="-8"
     inkscape:window-y="-8"
     inkscape:window-maximized="1"
     inkscape:current-layer="svg8" /><g
     id="g8572"
     transform="matrix(0.81,0,0,0.81,254.84849,-242.13063)"
     style="stroke-width:1.23457"><path
       id="path8514"
       style="color:#000000;fill:#ffffff;stroke-width:1.23457;stroke-linecap:round;stroke-linejoin:round;stroke-miterlimit:3;stroke-dashoffset:2.1;-inkscape-stroke:none;paint-order:stroke markers fill"
       d="m -297.34381,306.10879 c -4.94604,0 -9.18494,3.6754 -9.18494,8.42059 0,1.53079 0.65156,2.81563 1.4312,4.05459 0.77967,1.23894 1.75753,2.4185 2.7209,3.47264 0.96336,1.05416 1.92133,1.98414 2.63911,2.65169 0.3469,0.95999 1.34188,1.60421 2.39373,1.60421 1.05176,0 2.0436,-0.64437 2.3906,-1.60421 0.71854,-0.66755 1.67889,-1.59753 2.64225,-2.65169 0.96335,-1.05414 1.94124,-2.2337 2.72088,-3.47264 0.77964,-1.23896 1.43121,-2.5238 1.43121,-4.05459 0,-4.74522 -4.23891,-8.42059 -9.18494,-8.42059 z"
       sodipodi:nodetypes="sssscscssss" /><path
       id="path8516"
       style="color:#000000;fill:none;stroke:#000000;stroke-width:1.2;stroke-linecap:round;stroke-linejoin:round;stroke-miterlimit:3;stroke-dashoffset:2.1;-inkscape-stroke:none;paint-order:stroke markers fill"
       d="m -297.34381,307.96151 c -4.04917,0 -7.33222,2.93973 -7.33222,6.56787 0,2.7508 4.20248,6.97407 6.24073,8.86094 a 1.2421786,1.215181 0 0 0 -0.15091,0.57248 1.2421786,1.215181 0 0 0 1.24249,1.21417 1.2421786,1.215181 0 0 0 1.24247,-1.21417 1.2421786,1.215181 0 0 0 -0.15091,-0.57248 c 2.03827,-1.88687 6.24073,-6.11014 6.24073,-8.86094 0,-3.62814 -3.28303,-6.56787 -7.33221,-6.56787 z" /><ellipse
       style="fill:#ffffff;stroke:none;stroke-width:1.97533;stroke-linecap:round;stroke-linejoin:round;stroke-miterlimit:3;stroke-dasharray:none;stroke-dashoffset:2.1;paint-order:stroke markers fill"
       id="ellipse8518"
       cx="-297.34396"
       cy="312.95282"
       rx="2.5797589"
       ry="2.2680593" /></g></svg>
