<?xml version="1.0" encoding="UTF-8" standalone="no"?>
<!-- Created with Inkscape (http://www.inkscape.org/) -->

<svg
   xmlns:dc="http://purl.org/dc/elements/1.1/"
   xmlns:cc="http://creativecommons.org/ns#"
   xmlns:rdf="http://www.w3.org/1999/02/22-rdf-syntax-ns#"
   xmlns:svg="http://www.w3.org/2000/svg"
   xmlns="http://www.w3.org/2000/svg"
   xmlns:sodipodi="http://sodipodi.sourceforge.net/DTD/sodipodi-0.dtd"
   xmlns:inkscape="http://www.inkscape.org/namespaces/inkscape"
   version="1.1"
   width="19"
   height="19"
   id="svg2816"
   inkscape:version="0.48.1 "
   sodipodi:docname="winpilot_marginal.svg">
  <metadata
     id="metadata11">
    <rdf:RDF>
      <cc:Work
         rdf:about="">
        <dc:format>image/svg+xml</dc:format>
        <dc:type
           rdf:resource="http://purl.org/dc/dcmitype/StillImage" />
      </cc:Work>
    </rdf:RDF>
  </metadata>
  <sodipodi:namedview
     pagecolor="#ffffff"
     bordercolor="#666666"
     borderopacity="1"
     objecttolerance="10"
     gridtolerance="10"
     guidetolerance="10"
     inkscape:pageopacity="0"
     inkscape:pageshadow="2"
     inkscape:window-width="1424"
     inkscape:window-height="988"
     id="namedview9"
     showgrid="false"
     inkscape:zoom="11.8"
     inkscape:cx="-6.2288136"
     inkscape:cy="10"
     inkscape:window-x="-8"
     inkscape:window-y="-8"
     inkscape:window-maximized="1"
     inkscape:current-layer="layer1-7" />
  <defs
     id="defs2818">
    <inkscape:perspective
       sodipodi:type="inkscape:persp3d"
       inkscape:vp_x="0 : 10 : 1"
       inkscape:vp_y="0 : 1000 : 0"
       inkscape:vp_z="20 : 10 : 1"
       inkscape:persp3d-origin="10 : 6.6666667 : 1"
       id="perspective13" />
    <inkscape:perspective
       id="perspective2824"
       inkscape:persp3d-origin="0.5 : 0.33333333 : 1"
       inkscape:vp_z="1 : 0.5 : 1"
       inkscape:vp_y="0 : 1000 : 0"
       inkscape:vp_x="0 : 0.5 : 1"
       sodipodi:type="inkscape:persp3d" />
  </defs>
  <g
     inkscape:groupmode="layer"
     id="layer1"
     inkscape:label="MASK_Image">
    <g
       transform="translate(0,3)"
       id="layer1-7">
      <path
         d="M 20,10 A 10,10 0 1 1 0,10 10,10 0 1 1 20,10 z"
         transform="matrix(0.95,0,0,0.95,0,-3)"
         id="path2830"
         style="opacity:0.98999999;fill:#000000;fill-opacity:1;fill-rule:evenodd;stroke:none" />
      <path
         d="M 20,10 A 10,10 0 1 1 0,10 10,10 0 1 1 20,10 z"
         transform="matrix(0.85,0,0,0.85,1,-2)"
         id="path2830-4"
         style="opacity:0.98999999000000005;fill:#e04040;fill-opacity:1;fill-rule:evenodd;stroke:none" />
      <path
         d="M 20,10 A 10,10 0 1 1 0,10 10,10 0 1 1 20,10 z"
         transform="matrix(0.55,0,0,0.55,4,1)"
         id="path2830-4-5"
         style="opacity:0.98999999;fill:#000000;fill-opacity:1;fill-rule:evenodd;stroke:none" />
      <path
         d="M 20,10 A 10,10 0 1 1 0,10 10,10 0 1 1 20,10 z"
         transform="matrix(0.45,0,0,0.45,5,2)"
         id="path2830-4-5-9"
         style="opacity:0.98999999;fill:#ff00ff;fill-opacity:1;fill-rule:evenodd;stroke:none" />
    </g>
  </g>
</svg>
