<?xml version="1.0" encoding="UTF-8"?>
<svg version="1.1" width="26" height="26" viewBox="0 0 26 26" xmlns="http://www.w3.org/2000/svg">
 <g transform="translate(0,16)">
  <g transform="matrix(.9606 0 0 .9606 .10419 -264.02)" shape-rendering="auto" stroke-width="1.041">
   <path d="m2.8848 258.25c-1.4117 0-2.4336 1.3295-2.4336 2.8164v2e-3l0.009766 0.90821v15.051c0 1.2478 0.95769 2.3223 2.1895 2.3223h21.559c1.2318 0 2.1895-1.0744 2.1895-2.3223v-15.055c-1e-6 -1.2478-0.95769-2.3223-2.1895-2.3223h-12.201c-0.41434-0.77723-1.0841-1.4004-1.9883-1.4004zm0 1.3008h7.1348c0.43507 0 0.85492 0.33894 1.043 0.94335l0.14258 0.45704h13.004c0.47438 0 0.88867 0.41597 0.88867 1.0215v15.055c0 0.60552-0.41429 1.0215-0.88867 1.0215h-21.559c-0.47438 0-0.89062-0.41596-0.89062-1.0215v-15.059l-0.00781-0.90234c0-0.91235 0.56818-1.5156 1.1328-1.5156z" color="#000000" color-rendering="auto" dominant-baseline="auto" image-rendering="auto" solid-color="#000000" stop-color="#000000" style="font-feature-settings:normal;font-variant-alternates:normal;font-variant-caps:normal;font-variant-east-asian:normal;font-variant-ligatures:normal;font-variant-numeric:normal;font-variant-position:normal;font-variation-settings:normal;inline-size:0;isolation:auto;mix-blend-mode:normal;shape-margin:0;shape-padding:0;text-decoration-color:#000000;text-decoration-line:none;text-decoration-style:solid;text-indent:0;text-orientation:mixed;text-transform:none;white-space:normal"/>
   <g stroke-width="1.041">
    <path transform="translate(0,13)" d="m15.889 257.49-2e-3 -1.7539-0.0039-2.418-3.6152-3.6152-5.4355 0.0937-0.51953 0.47851 3.9746 3.9746 0.04883 0.94141-1.3047 1.3027-0.93945-0.0488-3.9746-3.9746-0.47852 0.47461-0.09375 5.4805 3.6152 3.6152 2.418 4e-3 1.7539 2e-3 10.082 10.084 2.7188 0.0859 1.9258-1.9238-0.08594-2.7207z" color="#000000" color-rendering="auto" dominant-baseline="auto" image-rendering="auto" solid-color="#000000" stop-color="#000000" style="font-feature-settings:normal;font-variant-alternates:normal;font-variant-caps:normal;font-variant-east-asian:normal;font-variant-ligatures:normal;font-variant-numeric:normal;font-variant-position:normal;font-variation-settings:normal;inline-size:0;isolation:auto;mix-blend-mode:normal;shape-margin:0;shape-padding:0;text-decoration-color:#000000;text-decoration-line:none;text-decoration-style:solid;text-indent:0;text-orientation:mixed;text-transform:none;white-space:normal"/>
    <g transform="rotate(-45 14.946 241.84)" stroke-width="1.041">
     <path d="m-10.217 252.12-3.0137 2.9141v4.4434l2.9453 2.9531v14.289l0.65039 0.74218 0.74219 0.74219h2.0586l0.74219-0.74219 0.65039-0.74218v-14.289l2.9453-2.9531v-4.4434l-3.0137-2.9141v4.6953l-1.0762 1.1934h-2.5547l-1.0762-1.1934z" color="#000000" color-rendering="auto" dominant-baseline="auto" fill="#241c1c" image-rendering="auto" solid-color="#000000" stop-color="#000000" style="font-feature-settings:normal;font-variant-alternates:normal;font-variant-caps:normal;font-variant-east-asian:normal;font-variant-ligatures:normal;font-variant-numeric:normal;font-variant-position:normal;font-variation-settings:normal;inline-size:0;isolation:auto;mix-blend-mode:normal;shape-margin:0;shape-padding:0;text-decoration-color:#000000;text-decoration-line:none;text-decoration-style:solid;text-indent:0;text-orientation:mixed;text-transform:none;white-space:normal"/>
     <path d="m-10.117 251.89-0.16992 0.16406-3.043 2.9434v4.5273l1.502 1.5059 1.4434 1.4473v14.285l0.67773 0.77343 0.77344 0.77344h2.1406l0.77344-0.77344 0.67773-0.77343v-14.285l1.4434-1.4473 1.502-1.5059v-4.5273l-3.2129-3.1074v4.8926l-1.0215 1.1328h-2.4648l-1.0215-1.1328zm-0.19922 0.47266v4.498l1.1309 1.2539h2.6445l1.1309-1.2539v-4.498l2.8145 2.7207v4.3594l-1.4434 1.4473-1.502 1.5059v14.293l-0.62305 0.71093-0.71094 0.71094h-1.9766l-0.71094-0.71094-0.62305-0.71093v-14.293l-1.502-1.5059-1.4434-1.4473v-4.3594z" color="#000000" color-rendering="auto" dominant-baseline="auto" fill="#fff" image-rendering="auto" solid-color="#000000" stop-color="#000000" style="font-feature-settings:normal;font-variant-alternates:normal;font-variant-caps:normal;font-variant-east-asian:normal;font-variant-ligatures:normal;font-variant-numeric:normal;font-variant-position:normal;font-variation-settings:normal;inline-size:0;isolation:auto;mix-blend-mode:normal;shape-margin:0;shape-padding:0;text-decoration-color:#000000;text-decoration-line:none;text-decoration-style:solid;text-indent:0;text-orientation:mixed;text-transform:none;white-space:normal"/>
    </g>
   </g>
  </g>
 </g>
</svg>
