<?xml version="1.0" encoding="UTF-8" standalone="no"?>
<svg
   version="1.1"
   viewBox="0 0 32 32"
   id="svg2"
   sodipodi:docname="wrench.svg"
   width="32"
   height="32"
   inkscape:version="1.2.2 (732a01da63, 2022-12-09)"
   xmlns:inkscape="http://www.inkscape.org/namespaces/inkscape"
   xmlns:sodipodi="http://sodipodi.sourceforge.net/DTD/sodipodi-0.dtd"
   xmlns="http://www.w3.org/2000/svg"
   xmlns:svg="http://www.w3.org/2000/svg">
  <defs
     id="defs6" />
  <sodipodi:namedview
     id="namedview4"
     pagecolor="#ff00ff"
     bordercolor="#666666"
     borderopacity="1.0"
     inkscape:showpageshadow="2"
     inkscape:pageopacity="0"
     inkscape:pagecheckerboard="true"
     inkscape:deskcolor="#d1d1d1"
     showgrid="false"
     inkscape:zoom="18.153845"
     inkscape:cx="-8.4004243"
     inkscape:cy="16.47034"
     inkscape:window-width="2560"
     inkscape:window-height="1417"
     inkscape:window-x="-8"
     inkscape:window-y="-8"
     inkscape:window-maximized="1"
     inkscape:current-layer="layer1" />
  <g
     inkscape:groupmode="layer"
     id="layer1"
     inkscape:label="Image">
    <g
       transform="matrix(1.2353194,0,0,1.2353194,-0.05955335,19.697337)"
       id="g16187"
       style="stroke-width:0.809507">
      <path
         d="m 2.8753289,-15.94505 c -1.356079,0 -2.33771618,1.277118 -2.33771618,2.705434 v 0.0019 l 0.009381,0.872427 V 2.0927222 c 0,1.1986366 0.91995708,2.2308013 2.10323368,2.2308013 H 23.359803 c 1.183267,0 2.103234,-1.0320686 2.103234,-2.2308013 V -12.369111 c -1e-6,-1.198637 -0.919957,-2.230801 -2.103234,-2.230801 H 11.639522 c -0.398015,-0.746607 -1.041386,-1.345224 -1.9099605,-1.345224 z m 0,1.249548 h 6.8536889 c 0.4179282,0 0.8212362,0.325586 1.0019062,0.906182 l 0.136962,0.439033 h 12.491642 c 0.45569,0 0.853657,0.399581 0.853657,0.981253 V 2.092799 c 0,0.5816625 -0.397967,0.9812529 -0.853657,0.9812529 H 2.6499529 c -0.4556894,0 -0.8555296,-0.3995712 -0.8555296,-0.9812529 v -14.465675 l -0.0075,-0.866788 c 0,-0.876404 0.5457938,-1.455886 1.0881677,-1.455886 z"
         color="#000000"
         color-rendering="auto"
         dominant-baseline="auto"
         image-rendering="auto"
         solid-color="#000000"
         stop-color="#000000"
         style="font-variant-ligatures:normal;font-variant-position:normal;font-variant-caps:normal;font-variant-numeric:normal;font-variant-alternates:normal;font-variant-east-asian:normal;font-feature-settings:normal;font-variation-settings:normal;text-indent:0;text-decoration-line:none;text-decoration-style:solid;text-decoration-color:#000000;text-transform:none;text-orientation:mixed;white-space:normal;shape-padding:0;shape-margin:0;inline-size:0;isolation:auto;mix-blend-mode:normal;stroke-width:0.655292;shape-rendering:auto"
         id="path16173" />
      <path
         d="m 15.367163,-4.187306 -0.0019,-1.6847963 -0.0037,-2.3227308 -3.472761,-3.4727609 -5.2213416,0.09001 -0.4990605,0.459657 3.8180008,3.8180004 0.046906,0.9043185 -1.2532953,1.2513736 -0.9024357,-0.046877 -3.8180008,-3.8180007 -0.4596663,0.4559103 -0.090056,5.2645683 3.4727611,3.47276114 2.3227308,0.003842 1.6847962,0.001921 9.684769,9.68669036 2.61168,0.082516 1.849923,-1.8480023 -0.08255,-2.6135044 z"
         color="#000000"
         color-rendering="auto"
         dominant-baseline="auto"
         image-rendering="auto"
         solid-color="#000000"
         stop-color="#000000"
         style="font-variant-ligatures:normal;font-variant-position:normal;font-variant-caps:normal;font-variant-numeric:normal;font-variant-alternates:normal;font-variant-east-asian:normal;font-feature-settings:normal;font-variation-settings:normal;text-indent:0;text-decoration-line:none;text-decoration-style:solid;text-decoration-color:#000000;text-transform:none;text-orientation:mixed;white-space:normal;shape-padding:0;shape-margin:0;inline-size:0;isolation:auto;mix-blend-mode:normal;stroke-width:0.655292;shape-rendering:auto"
         id="path16175" />
      <path
         d="m 4.3520879,-7.6339484 -0.067653,4.0264317 3.0181652,3.01816682 4.0064689,0.005764 9.705758,9.70575828 0.945898,0.062343 h 1.008261 L 24.367283,7.7862176 V 6.7779622 l -0.06235,-0.9459028 -9.705758,-9.7057583 -0.0053,-4.0064705 -3.018165,-3.0181666 -4.0264393,0.06763 3.1892683,3.1892689 0.0796,1.5416189 -1.7352718,1.7352759 -1.5416185,-0.079634 z"
         color="#000000"
         color-rendering="auto"
         dominant-baseline="auto"
         fill="#241c1c"
         image-rendering="auto"
         solid-color="#000000"
         stop-color="#000000"
         style="font-variant-ligatures:normal;font-variant-position:normal;font-variant-caps:normal;font-variant-numeric:normal;font-variant-alternates:normal;font-variant-east-asian:normal;font-feature-settings:normal;font-variation-settings:normal;text-indent:0;text-decoration-line:none;text-decoration-style:solid;text-decoration-color:#000000;text-transform:none;text-orientation:mixed;white-space:normal;shape-padding:0;shape-margin:0;inline-size:0;isolation:auto;mix-blend-mode:normal;stroke-width:0.655292;shape-rendering:auto"
         id="path16177" />
      <path
         d="m 4.2637858,-7.8581044 -0.00398,0.2268553 -0.067653,4.066239 3.0751539,3.07515917 2.0431063,0.002882 1.963499,0.002882 9.703039,9.70303983 0.985697,0.065033 h 1.050714 L 24.46736,7.8299921 V 6.7792782 l -0.065,-0.9856908 -9.70304,-9.7030399 -0.0027,-1.9635048 -0.0027,-2.0431001 -3.075154,-3.0751596 -4.2930437,0.07166 3.3232827,3.3232823 0.0756,1.4633012 -1.6742072,1.6742105 -1.4633013,-0.075599 z m 0.1857332,0.4563714 3.055252,3.0552556 1.6198677,0.083572 1.7962683,-1.7962644 -0.08355,-1.6198694 -3.0552513,-3.0552558 3.7597673,-0.06369 2.961108,2.9611066 0.0027,1.9634953 0.0027,2.0431097 9.708475,9.7084768 0.05969,0.9060956 v 0.9658064 l -1.342599,1.3426018 h -0.965808 l -0.906101,-0.059653 -9.708475,-9.70847684 -2.0431057,-0.002882 -1.9634987,-0.002882 -2.9611084,-2.96110716 z"
         color="#000000"
         color-rendering="auto"
         dominant-baseline="auto"
         fill="#ffffff"
         image-rendering="auto"
         solid-color="#000000"
         stop-color="#000000"
         style="font-variant-ligatures:normal;font-variant-position:normal;font-variant-caps:normal;font-variant-numeric:normal;font-variant-alternates:normal;font-variant-east-asian:normal;font-feature-settings:normal;font-variation-settings:normal;text-indent:0;text-decoration-line:none;text-decoration-style:solid;text-decoration-color:#000000;text-transform:none;text-orientation:mixed;white-space:normal;shape-padding:0;shape-margin:0;inline-size:0;isolation:auto;mix-blend-mode:normal;stroke-width:0.655292;shape-rendering:auto"
         id="path16179" />
    </g>
  </g>
</svg>
