<?xml version="1.0" encoding="UTF-8" standalone="no"?>
<svg
   version="1.1"
   viewBox="0 0 22 22"
   id="svg4"
   sodipodi:docname="wrench.svg"
   inkscape:version="1.3.2 (091e20e, 2023-11-25, custom)"
   xmlns:inkscape="http://www.inkscape.org/namespaces/inkscape"
   xmlns:sodipodi="http://sodipodi.sourceforge.net/DTD/sodipodi-0.dtd"
   xmlns="http://www.w3.org/2000/svg"
   xmlns:svg="http://www.w3.org/2000/svg">
  <defs
     id="defs4" />
  <sodipodi:namedview
     id="namedview4"
     pagecolor="#ffffff"
     bordercolor="#666666"
     borderopacity="1.0"
     inkscape:showpageshadow="2"
     inkscape:pageopacity="0.0"
     inkscape:pagecheckerboard="0"
     inkscape:deskcolor="#d1d1d1"
     inkscape:zoom="37.894495"
     inkscape:cx="10.806319"
     inkscape:cy="11.835492"
     inkscape:window-width="2560"
     inkscape:window-height="1417"
     inkscape:window-x="-8"
     inkscape:window-y="-8"
     inkscape:window-maximized="1"
     inkscape:current-layer="svg4" />
  <g
     id="g4"
     transform="translate(-19.48154,-15.689013)">
    <g
       id="path1-342"
       transform="translate(-367.12501,-384.01368)">
      <path
         id="path94"
         style="color:#000000;fill:#000000;-inkscape-stroke:none"
         d="m 389.39845,400.01368 c -1.33668,0 -2.27344,1.23922 -2.27344,2.57031 v 0.002 l 0.008,12.42968 c 7.1e-4,1.16481 0.90298,2.18555 2.08203,2.18555 h 16.79102 c 1.17907,0 2.08203,-1.02235 2.08203,-2.1875 v -11.72266 c 0,-1.16509 -0.90297,-2.1875 -2.08203,-2.1875 h -9.33399 c -0.37703,-0.58493 -0.93665,-1.08984 -1.71679,-1.08984 z m 0,1.76758 h 5.55664 c 0.14253,0 0.34021,0.11216 0.45117,0.46875 l 0.19336,0.62305 h 10.40429 c 0.14848,0 0.31446,0.11684 0.31446,0.41601 v 11.72461 c 0,0.29916 -0.16598,0.41797 -0.31446,0.41797 h -16.78906 c -0.14849,0 -0.3143,-0.11939 -0.31445,-0.41797 l -0.008,-12.42969 c 0,-0.55358 0.33533,-0.80273 0.50586,-0.80273 z" />
    </g>
    <g
       id="g92"
       transform="rotate(-45,-220.10072,707.64006)">
      <path
         d="m 440.40603,404.12812 2.29377,-2.30084 v -3.98158 l -3.04474,-2.9415 -0.54958,-0.0226 -10e-6,4.37735 -0.49153,0.54527 -1.43582,-10e-4 -0.49046,-0.5442 1e-5,-4.37735 -0.52486,-0.002 -3.06956,2.96632 v 3.98157 l 2.29377,2.30085 -0.001,11.10473 1.54448,1.54446 1.93493,-0.003 1.54116,-1.54116 z"
         color="#000000"
         color-rendering="auto"
         dominant-baseline="auto"
         image-rendering="auto"
         solid-color="#000000"
         stop-color="#000000"
         style="font-variant-ligatures:normal;font-variant-position:normal;font-variant-caps:normal;font-variant-numeric:normal;font-variant-alternates:normal;font-variant-east-asian:normal;font-feature-settings:normal;font-variation-settings:normal;text-indent:0;text-decoration-line:none;text-decoration-style:solid;text-decoration-color:#000000;text-transform:none;text-orientation:mixed;white-space:normal;shape-padding:0;shape-margin:0;inline-size:0;isolation:auto;mix-blend-mode:normal;stroke-width:0.8095;shape-rendering:auto"
         id="path2-54-2"
         sodipodi:nodetypes="ccccccccccccccccccc" />
      <path
         d="m 436.1454,395.6589 -2.50209,2.41992 -10e-6,3.52572 2.29327,2.30033 v 11.12452 l 1.20838,1.20838 1.5127,-0.002 1.20613,-1.20673 v -11.12452 l 2.29396,-2.29961 -10e-6,-3.52573 -2.50204,-2.41988 v 3.81017 l -0.7955,0.88219 -1.91948,-10e-6 -0.79548,-0.88218 z m -0.15515,0.36808 10e-6,3.50292 0.88073,0.97648 h 2.05947 l 0.88073,-0.97648 v -3.50292 l 2.19179,2.11883 v 3.39492 l -2.29396,2.29961 10e-6,11.13083 -1.12502,1.12502 -1.3847,-0.0177 -1.10728,-1.10727 v -11.13083 l -2.29325,-2.30032 v -3.39491 z"
         color="#000000"
         color-rendering="auto"
         dominant-baseline="auto"
         fill="#ffffff"
         image-rendering="auto"
         solid-color="#000000"
         stop-color="#000000"
         style="font-variant-ligatures:normal;font-variant-position:normal;font-variant-caps:normal;font-variant-numeric:normal;font-variant-alternates:normal;font-variant-east-asian:normal;font-feature-settings:normal;font-variation-settings:normal;text-indent:0;text-decoration-line:none;text-decoration-style:solid;text-decoration-color:#000000;text-transform:none;text-orientation:mixed;white-space:normal;shape-padding:0;shape-margin:0;inline-size:0;isolation:auto;mix-blend-mode:normal;stroke-width:0.8095;shape-rendering:auto"
         id="path4-37-4"
         sodipodi:nodetypes="cccccccccccccccccccccccccccccccccc" />
    </g>
  </g>
</svg>
