<?xml version="1.0" encoding="UTF-8"?>
<svg version="1.1" viewBox="0 0 22 22" xmlns="http://www.w3.org/2000/svg">
 <g transform="matrix(.8107 0 0 .8107 .46066 13.426)" shape-rendering="auto" stroke-width=".99852">
  <path d="m2.8753-15.945c-1.3561 0-2.3377 1.2771-2.3377 2.7054v0.0019l0.009381 0.87243v14.458c0 1.1986 0.91996 2.2308 2.1032 2.2308h20.71c1.1833 0 2.1032-1.0321 2.1032-2.2308v-14.462c-1e-6 -1.1986-0.91996-2.2308-2.1032-2.2308h-11.72c-0.39802-0.74661-1.0414-1.3452-1.91-1.3452zm0 1.2495h6.8537c0.41793 0 0.82124 0.32559 1.0019 0.90618l0.13696 0.43903h12.492c0.45569 0 0.85366 0.39958 0.85366 0.98125v14.462c0 0.58166-0.39797 0.98125-0.85366 0.98125h-20.71c-0.45569 0-0.85553-0.39957-0.85553-0.98125v-14.466l-0.0075-0.86679c0-0.8764 0.54579-1.4559 1.0882-1.4559z" color="#000000" color-rendering="auto" dominant-baseline="auto" image-rendering="auto" solid-color="#000000" stop-color="#000000" style="font-feature-settings:normal;font-variant-alternates:normal;font-variant-caps:normal;font-variant-east-asian:normal;font-variant-ligatures:normal;font-variant-numeric:normal;font-variant-position:normal;font-variation-settings:normal;inline-size:0;isolation:auto;mix-blend-mode:normal;shape-margin:0;shape-padding:0;text-decoration-color:#000000;text-decoration-line:none;text-decoration-style:solid;text-indent:0;text-orientation:mixed;text-transform:none;white-space:normal"/>
  <path d="m15.367-4.1873-0.0019-1.6848-0.0037-2.3227-3.4728-3.4728-5.2213 0.09001-0.49906 0.45966 3.818 3.818 0.046906 0.90432-1.2533 1.2514-0.90244-0.046877-3.818-3.818-0.45967 0.45591-0.090056 5.2646 3.4728 3.4728 2.3227 0.003842 1.6848 0.001921 9.6848 9.6867 2.6117 0.082516 1.8499-1.848-0.08255-2.6135z" color="#000000" color-rendering="auto" dominant-baseline="auto" image-rendering="auto" solid-color="#000000" stop-color="#000000" style="font-feature-settings:normal;font-variant-alternates:normal;font-variant-caps:normal;font-variant-east-asian:normal;font-variant-ligatures:normal;font-variant-numeric:normal;font-variant-position:normal;font-variation-settings:normal;inline-size:0;isolation:auto;mix-blend-mode:normal;shape-margin:0;shape-padding:0;text-decoration-color:#000000;text-decoration-line:none;text-decoration-style:solid;text-indent:0;text-orientation:mixed;text-transform:none;white-space:normal"/>
  <path d="m4.3521-7.6339-0.067653 4.0264 3.0182 3.0182 4.0065 0.005764 9.7058 9.7058 0.9459 0.062343h1.0083l1.3983-1.3983v-1.0083l-0.06235-0.9459-9.7058-9.7058-0.0053-4.0065-3.0182-3.0182-4.0264 0.06763 3.1893 3.1893 0.0796 1.5416-1.7353 1.7353-1.5416-0.079634z" color="#000000" color-rendering="auto" dominant-baseline="auto" fill="#241c1c" image-rendering="auto" solid-color="#000000" stop-color="#000000" style="font-feature-settings:normal;font-variant-alternates:normal;font-variant-caps:normal;font-variant-east-asian:normal;font-variant-ligatures:normal;font-variant-numeric:normal;font-variant-position:normal;font-variation-settings:normal;inline-size:0;isolation:auto;mix-blend-mode:normal;shape-margin:0;shape-padding:0;text-decoration-color:#000000;text-decoration-line:none;text-decoration-style:solid;text-indent:0;text-orientation:mixed;text-transform:none;white-space:normal"/>
  <path d="m4.2638-7.8581-0.00398 0.22686-0.067653 4.0662 3.0752 3.0752 2.0431 0.002882 1.9635 0.002882 9.703 9.703 0.9857 0.065033h1.0507l1.454-1.454v-1.0507l-0.065-0.98569-9.703-9.703-0.0027-1.9635-0.0027-2.0431-3.0752-3.0752-4.293 0.07166 3.3233 3.3233 0.0756 1.4633-1.6742 1.6742-1.4633-0.075599zm0.18573 0.45637 3.0553 3.0553 1.6199 0.083572 1.7963-1.7963-0.08355-1.6199-3.0553-3.0553 3.7598-0.06369 2.9611 2.9611 0.0027 1.9635 0.0027 2.0431 9.7085 9.7085 0.05969 0.9061v0.96581l-1.3426 1.3426h-0.96581l-0.9061-0.059653-9.7085-9.7085-2.0431-0.002882-1.9635-0.002882-2.9611-2.9611z" color="#000000" color-rendering="auto" dominant-baseline="auto" fill="#fff" image-rendering="auto" solid-color="#000000" stop-color="#000000" style="font-feature-settings:normal;font-variant-alternates:normal;font-variant-caps:normal;font-variant-east-asian:normal;font-variant-ligatures:normal;font-variant-numeric:normal;font-variant-position:normal;font-variation-settings:normal;inline-size:0;isolation:auto;mix-blend-mode:normal;shape-margin:0;shape-padding:0;text-decoration-color:#000000;text-decoration-line:none;text-decoration-style:solid;text-indent:0;text-orientation:mixed;text-transform:none;white-space:normal"/>
 </g>
</svg>
