<?xml version="1.0" encoding="UTF-8"?>
<svg version="1.1" viewBox="0 0 22 22" xmlns="http://www.w3.org/2000/svg">
 <g transform="translate(-386.61 -399.7)">
  <path d="m389.4 400.01c-1.3367 0-2.2734 1.2392-2.2734 2.5703v2e-3l8e-3 12.43c7.1e-4 1.1648 0.90298 2.1856 2.082 2.1856h10.355l4.1894 4.1914h2.1856l1.3652-1.3711v-2.1797l-0.72852-0.72852c0.88439-0.26826 1.5059-1.1334 1.5059-2.0996v-11.723c0-1.1651-0.90297-2.1875-2.082-2.1875h-9.334c-0.37703-0.58493-0.93665-1.0898-1.7168-1.0898zm0 1.7676h5.5566c0.14253 0 0.34021 0.11216 0.45117 0.46875l0.19336 0.62305h10.404c0.14848 0 0.31446 0.11684 0.31446 0.41601v11.725c0 0.29916-0.16598 0.41797-0.31446 0.41797h-1.1035l-5.4434-5.4414-4e-3 -3.25-2.8164-2.8144-4.2324 0.0723-0.40429 0.37304 3.0957 3.0957 0.0371 0.73242-1.0156 1.0156-0.73243-0.0391-3.0938-3.0957-0.37304 0.37109-0.0742 4.2676 2.8164 2.8144 3.248 6e-3 1.8926 1.8926h-8.5859c-0.14849 0-0.3143-0.11939-0.31445-0.41797l-8e-3 -12.43c0-0.55358 0.33533-0.80273 0.50586-0.80273z" color="#000000" style="-inkscape-stroke:none"/>
  <path d="m390.46 407.01-0.0581 3.4804 2.4931 2.4931 3.2482 5e-3 7.8662 7.8662h1.7089l1.0682-1.071-4.2e-4 -1.7062-7.8662-7.8662-4e-3 -3.2481-2.4931-2.4931-3.4803 0.0581 2.6942 2.6942 0.0613 1.1863-1.3573 1.3573-1.1863-0.0613zm0.15056 0.36998 2.477 2.4769 1.3132 0.0677 1.4563-1.4563-0.0677-1.3132-2.4769-2.4769 3.0481-0.0516 2.4006 2.4006 4e-3 3.2481 7.8707 7.8707v1.591l-0.99164 0.96662h-1.5659l-7.8707-7.8707-3.2482-5e-3 -2.4006-2.4006z" color="#000000" color-rendering="auto" dominant-baseline="auto" fill="#fff" image-rendering="auto" shape-rendering="auto" solid-color="#000000" stop-color="#000000" stroke-width=".8095" style="font-feature-settings:normal;font-variant-alternates:normal;font-variant-caps:normal;font-variant-east-asian:normal;font-variant-ligatures:normal;font-variant-numeric:normal;font-variant-position:normal;font-variation-settings:normal;inline-size:0;isolation:auto;mix-blend-mode:normal;shape-margin:0;shape-padding:0;text-decoration-color:#000000;text-decoration-line:none;text-decoration-style:solid;text-indent:0;text-orientation:mixed;text-transform:none;white-space:normal"/>
 </g>
</svg>
