<?xml version="1.0" encoding="UTF-8" standalone="no"?>
<svg
   version="1.1"
   viewBox="0 0 28 28"

   xmlns="http://www.w3.org/2000/svg"><g

     transform="translate(129.88782,-320.72209)"><path
       style="fill:#ffffff;stroke:none"
       d="M-116.130,325.893 -116.390,325.936 -116.494,325.963 -116.739,326.047 -116.837,326.089 -117.063,326.210 -117.151,326.267 -117.355,326.422 -117.433,326.492 -117.610,326.679 -117.677,326.762 -117.823,326.977 -117.876,327.071 -117.987,327.312 -118.025,327.415 -118.065,327.541 -121.661,340.715 -121.695,340.873 -121.717,341.004 -121.738,341.326 -121.733,341.455 -121.691,341.766 -121.661,341.890 -121.562,342.180 -121.510,342.296 -121.359,342.559 -121.286,342.662 -121.086,342.894 -120.994,342.982 -120.749,343.176 -120.639,343.245 -120.353,343.390 -120.229,343.438 -119.917,343.523 -119.786,343.545 -119.464,343.565 -119.335,343.561 -119.024,343.518 -118.900,343.489 -118.610,343.390 -118.495,343.338 -118.231,343.187 -118.128,343.114 -117.896,342.914 -117.808,342.822 -117.615,342.576 -117.545,342.467 -117.400,342.180 -117.352,342.056 -117.302,341.903 -115.887,336.714 -114.471,341.903 -114.421,342.056 -114.373,342.180 -114.229,342.467 -114.159,342.576 -113.966,342.822 -113.878,342.914 -113.646,343.114 -113.542,343.187 -113.279,343.338 -113.163,343.390 -112.873,343.489 -112.749,343.518 -112.438,343.561 -112.309,343.565 -111.987,343.545 -111.856,343.523 -111.544,343.438 -111.420,343.390 -111.133,343.245 -111.024,343.175 -110.777,342.981 -110.686,342.892 -110.486,342.659 -110.413,342.556 -110.263,342.292 -110.211,342.177 -110.112,341.886 -110.083,341.762 -110.042,341.452 -110.037,341.323 -110.058,341.003 -110.080,340.872 -110.115,340.715 -113.708,327.541 -113.749,327.415 -113.786,327.312 -113.897,327.071 -113.950,326.977 -114.097,326.762 -114.163,326.679 -114.340,326.492 -114.419,326.422 -114.622,326.267 -114.711,326.210 -114.937,326.089 -115.034,326.047 -115.280,325.963 -115.384,325.936 -115.644,325.893 -115.753,325.883 -116.021,325.883Z"
 /><path
       style="color:#000000;fill:#000000;stroke-linecap:round;stroke-linejoin:round;stroke-miterlimit:3;stroke-dasharray:none"
       d="m -115.88672,327.47775 c -0.29626,2.8e-4 -0.55697,0.19851 -0.63476,0.48438 l -3.59571,13.17383 c -0.0954,0.34958 0.11329,0.71324 0.46289,0.80859 0.34959,0.0954 0.71325,-0.11328 0.8086,-0.46289 l 2.95898,-10.84766 2.95899,10.84766 c 0.0953,0.34961 0.459,0.55833 0.80859,0.46289 0.34961,-0.0953 0.55637,-0.45901 0.46094,-0.80859 l -3.59375,-13.17383 c -0.0778,-0.28587 -0.33851,-0.4841 -0.63477,-0.48438 z"
 /><path
       style="color:#000000;fill:#000000;stroke-linecap:round;stroke-linejoin:round;stroke-miterlimit:3;"
       d="m -115.88672,327.47775 c -0.29626,2.8e-4 -0.55697,0.19851 -0.63476,0.48438 l -3.59571,13.17383 c -0.0954,0.34958 0.11329,0.71324 0.46289,0.80859 0.34959,0.0954 0.71325,-0.11328 0.8086,-0.46289 l 2.95898,-10.84766 2.95899,10.84766 c 0.0953,0.34961 0.459,0.55833 0.80859,0.46289 0.34961,-0.0953 0.55637,-0.45901 0.46094,-0.80859 l -3.59375,-13.17383 c -0.0778,-0.28587 -0.33851,-0.4841 -0.63477,-0.48438 z"
 /></g></svg>
